<svg width="24" height="24" viewBox="0 0 24 24" fill="none" xmlns="http://www.w3.org/2000/svg">
<path d="M22 9.75C21.59 9.75 21.25 9.41 21.25 9V7C21.25 4.42 19.58 2.75 17 2.75H7C4.42 2.75 2.75 4.42 2.75 7V9C2.75 9.41 2.41 9.75 2 9.75C1.59 9.75 1.25 9.41 1.25 9V7C1.25 3.56 3.56 1.25 7 1.25H17C20.44 1.25 22.75 3.56 22.75 7V9C22.75 9.41 22.41 9.75 22 9.75Z" fill="#292D32"/>
<path d="M17 22.75H7C3.56 22.75 1.25 20.44 1.25 17V15C1.25 14.59 1.59 14.25 2 14.25C2.41 14.25 2.75 14.59 2.75 15V17C2.75 19.58 4.42 21.25 7 21.25H17C19.58 21.25 21.25 19.58 21.25 17V15C21.25 14.59 21.59 14.25 22 14.25C22.41 14.25 22.75 14.59 22.75 15V17C22.75 20.44 20.44 22.75 17 22.75Z" fill="#292D32"/>
<path d="M16.3999 8.20996L12.6399 6.17996C12.2399 5.96996 11.7699 5.96996 11.3699 6.17996L7.59991 8.20996C7.32991 8.35996 7.15991 8.64996 7.15991 8.96996C7.15991 9.29996 7.32991 9.58996 7.59991 9.73996L11.3599 11.77C11.5599 11.88 11.7799 11.93 11.9999 11.93C12.2199 11.93 12.4399 11.88 12.6399 11.77L16.3999 9.73996C16.6699 9.58996 16.8399 9.29996 16.8399 8.96996C16.8399 8.64996 16.6699 8.35996 16.3999 8.20996Z" fill="#292D32"/>
<path d="M10.74 12.4699L7.24 10.7199C6.97 10.5899 6.66 10.5999 6.4 10.7599C6.15 10.9199 6 11.1899 6 11.4899V14.7999C6 15.3699 6.32 15.8899 6.83 16.1399L10.33 17.8899C10.45 17.9499 10.58 17.9799 10.72 17.9799C10.88 17.9799 11.03 17.9399 11.17 17.8499C11.43 17.6899 11.58 17.4199 11.58 17.1199V13.8099C11.57 13.2399 11.26 12.7299 10.74 12.4699Z" fill="#292D32"/>
<path d="M17.5899 10.7599C17.3299 10.5999 17.0199 10.5899 16.7499 10.7199L13.2499 12.4699C12.7399 12.7299 12.4199 13.2399 12.4199 13.8099V17.1199C12.4199 17.4199 12.5699 17.6899 12.8299 17.8499C12.9699 17.9399 13.1199 17.9799 13.2799 17.9799C13.4099 17.9799 13.5399 17.9499 13.6699 17.8899L17.1699 16.1399C17.6799 15.8799 17.9999 15.3699 17.9999 14.7999V11.4899C17.9999 11.1899 17.8499 10.9199 17.5899 10.7599Z" fill="#292D32"/>
</svg>
