<svg width="24" height="24" viewBox="0 0 24 24" fill="none" xmlns="http://www.w3.org/2000/svg">
<path d="M16.19 2.33008H7.81C4.17 2.33008 2 4.51008 2 8.15008V16.5201C2 20.1601 4.17 22.3301 7.81 22.3301H16.18C19.82 22.3301 21.99 20.1601 21.99 16.5201V8.15008C22 4.51008 19.83 2.33008 16.19 2.33008ZM11.57 17.1201C11.57 17.4201 11.42 17.6901 11.16 17.8501C11.02 17.9401 10.87 17.9801 10.71 17.9801C10.58 17.9801 10.45 17.9501 10.32 17.8901L6.82 16.1401C6.32 15.8801 6 15.3701 6 14.8001V11.4901C6 11.1901 6.15 10.9201 6.41 10.7601C6.67 10.6001 6.98 10.5901 7.25 10.7201L10.75 12.4701C11.26 12.7301 11.58 13.2401 11.58 13.8101V17.1201H11.57ZM11.36 11.7701L7.6 9.74008C7.33 9.59008 7.16 9.30008 7.16 8.97008C7.16 8.65008 7.33 8.35008 7.6 8.20008L11.36 6.17008C11.76 5.96008 12.23 5.96008 12.63 6.17008L16.39 8.20008C16.66 8.35008 16.83 8.64008 16.83 8.97008C16.83 9.30008 16.66 9.59008 16.39 9.74008L12.63 11.7701C12.43 11.8801 12.21 11.9301 11.99 11.9301C11.77 11.9301 11.56 11.8801 11.36 11.7701ZM18 14.8001C18 15.3701 17.68 15.8901 17.17 16.1401L13.67 17.8901C13.55 17.9501 13.42 17.9801 13.28 17.9801C13.12 17.9801 12.97 17.9401 12.83 17.8501C12.57 17.6901 12.42 17.4201 12.42 17.1201V13.8101C12.42 13.2401 12.74 12.7201 13.25 12.4701L16.75 10.7201C17.02 10.5901 17.33 10.6001 17.59 10.7601C17.85 10.9201 18 11.1901 18 11.4901V14.8001Z" fill="#292D32"/>
</svg>
