<svg width="24" height="24" viewBox="0 0 24 24" fill="none" xmlns="http://www.w3.org/2000/svg">
<path d="M16.0001 16.7499C15.7101 16.7499 15.4401 16.5799 15.3101 16.2999L12.0001 8.84992L8.69009 16.3099C8.52009 16.6899 8.0701 16.8599 7.7001 16.6899C7.3201 16.5199 7.15009 16.0799 7.32009 15.6999L11.3201 6.69992C11.5601 6.15992 12.4501 6.15992 12.6901 6.69992L16.6901 15.6999C16.8601 16.0799 16.6901 16.5199 16.3101 16.6899C16.2101 16.7299 16.1001 16.7499 16.0001 16.7499Z" fill="black"/>
<path d="M12 12.75H8C7.59 12.75 7.25 12.41 7.25 12C7.25 11.59 7.59 11.25 8 11.25H12C12.41 11.25 12.75 11.59 12.75 12C12.75 12.41 12.41 12.75 12 12.75Z" fill="black"/>
<path d="M12 22.75C6.07 22.75 1.25 17.93 1.25 12C1.25 6.07 6.07 1.25 12 1.25C17.93 1.25 22.75 6.07 22.75 12C22.75 17.93 17.93 22.75 12 22.75ZM12 2.75C6.9 2.75 2.75 6.9 2.75 12C2.75 17.1 6.9 21.25 12 21.25C17.1 21.25 21.25 17.1 21.25 12C21.25 6.9 17.1 2.75 12 2.75Z" fill="black"/>
</svg>
