<svg width="24" height="24" viewBox="0 0 24 24" fill="none" xmlns="http://www.w3.org/2000/svg">
<path d="M13.43 5.43V6.77C10.81 6.98 9.32 8.66 9.32 11.43V16H5.43C3.14 16 2 14.86 2 12.57V5.43C2 3.14 3.14 2 5.43 2H10C12.29 2 13.43 3.14 13.43 5.43Z" fill="#292D32"/>
<path d="M18.5699 8H13.9999C11.7099 8 10.5699 9.14 10.5699 11.43V18.57C10.5699 20.86 11.7099 22 13.9999 22H18.5699C20.8599 22 21.9999 20.86 21.9999 18.57V11.43C21.9999 9.14 20.8599 8 18.5699 8ZM18.1299 15.75H17.2499V16.63C17.2499 17.04 16.9099 17.38 16.4999 17.38C16.0899 17.38 15.7499 17.04 15.7499 16.63V15.75H14.8699C14.4599 15.75 14.1199 15.41 14.1199 15C14.1199 14.59 14.4599 14.25 14.8699 14.25H15.7499V13.37C15.7499 12.96 16.0899 12.62 16.4999 12.62C16.9099 12.62 17.2499 12.96 17.2499 13.37V14.25H18.1299C18.5399 14.25 18.8799 14.59 18.8799 15C18.8799 15.41 18.5399 15.75 18.1299 15.75Z" fill="#292D32"/>
</svg>
