<svg width="24" height="24" viewBox="0 0 24 24" fill="none" xmlns="http://www.w3.org/2000/svg">
<path d="M15.12 22.75H8.88C4.85 22.75 2.44 21.96 2 17.91C1.92 17.33 1.88 16.64 1.88 15.75V8.25C1.88 7.39 1.92 6.68 2 6.08C2.46 2.02 4.77001 1.25 8.89001 1.25H15.14C19.26 1.25 21.58 2.02 22.02 6.1C22.12 6.77 22.14 7.53 22.14 8.25V15.75C22.14 16.62 22.1 17.31 22.02 17.93C21.56 21.98 19.24 22.75 15.12 22.75ZM8.88 2.75C4.63 2.75 3.77 3.67 3.48 6.26C3.4 6.81 3.37 7.46 3.37 8.25V15.75C3.37 16.57 3.41 17.19 3.48 17.72C3.77 20.33 4.62 21.25 8.88 21.25H15.12C19.37 21.25 20.23 20.33 20.52 17.75C20.59 17.2 20.63 16.55 20.63 15.75V8.25C20.63 7.59 20.62 6.89 20.53 6.29C20.24 3.67 19.39 2.75 15.13 2.75H8.88Z" fill="#292D32"/>
<path d="M21.23 9.66992H17.13C16.72 9.66992 16.38 9.32992 16.38 8.91992C16.38 8.50992 16.72 8.16992 17.13 8.16992H21.23C21.64 8.16992 21.98 8.50992 21.98 8.91992C21.98 9.32992 21.64 9.66992 21.23 9.66992Z" fill="#292D32"/>
<path d="M6.87002 9.66992H2.77002C2.36002 9.66992 2.02002 9.32992 2.02002 8.91992C2.02002 8.50992 2.36002 8.16992 2.77002 8.16992H6.87002C7.28002 8.16992 7.62002 8.50992 7.62002 8.91992C7.62002 9.32992 7.28002 9.66992 6.87002 9.66992Z" fill="#292D32"/>
<path d="M15.08 11.7201H8.92C8.17 11.7201 7.45 11.4201 6.93 10.8801C6.41 10.3801 6.12 9.67012 6.12 8.92012C6.12 7.38012 7.38 6.12012 8.92 6.12012H15.07C15.82 6.12012 16.54 6.43012 17.06 6.96012C17.58 7.47012 17.88 8.17012 17.88 8.92012C17.88 10.4601 16.62 11.7201 15.08 11.7201ZM8.92 7.62012C8.2 7.62012 7.62 8.20012 7.62 8.92012C7.62 9.27012 7.74999 9.59012 7.99 9.82012C8.24 10.0801 8.57 10.2201 8.92 10.2201H15.08C15.8 10.2201 16.38 9.64012 16.38 8.92012C16.38 8.58012 16.24 8.26012 16 8.02012C15.75 7.76012 15.42 7.62012 15.07 7.62012H8.92Z" fill="#292D32"/>
</svg>
