<svg width="24" height="24" viewBox="0 0 24 24" fill="none" xmlns="http://www.w3.org/2000/svg">
<path d="M16.9 20H5.09998C4.68998 20 4.34998 19.66 4.34998 19.25C4.34998 18.84 4.68998 18.5 5.09998 18.5H16.9C17.91 18.5 18.25 18.29 18.25 17.02V15.98C18.25 14.71 17.91 14.5 16.9 14.5H5.09998C4.68998 14.5 4.34998 14.16 4.34998 13.75C4.34998 13.34 4.68998 13 5.09998 13H16.9C18.82 13 19.75 13.98 19.75 15.98V17.02C19.75 19.02 18.82 20 16.9 20Z" fill="#292D32"/>
<path d="M11.9 11.5H5.09998C4.68998 11.5 4.34998 11.16 4.34998 10.75C4.34998 10.34 4.68998 10 5.09998 10H11.9C12.91 10 13.25 9.79 13.25 8.52V7.48C13.25 6.21 12.91 6 11.9 6H5.09998C4.68998 6 4.34998 5.66 4.34998 5.25C4.34998 4.84 4.68998 4.5 5.09998 4.5H11.9C13.82 4.5 14.75 5.48 14.75 7.48V8.52C14.75 10.52 13.82 11.5 11.9 11.5Z" fill="#292D32"/>
<path d="M5 22.7402C4.59 22.7402 4.25 22.4002 4.25 21.9902V1.99023C4.25 1.58023 4.59 1.24023 5 1.24023C5.41 1.24023 5.75 1.58023 5.75 1.99023V21.9902C5.75 22.4002 5.41 22.7402 5 22.7402Z" fill="#292D32"/>
</svg>
