<svg width="24" height="24" viewBox="0 0 24 24" fill="none" xmlns="http://www.w3.org/2000/svg">
<path d="M20.8899 10.5298C20.4799 10.5298 20.1399 10.1898 20.1399 9.77983V6.90983L11.9999 2.83982L3.85986 6.90983V9.77983C3.85986 10.1898 3.51986 10.5298 3.10986 10.5298C2.69986 10.5298 2.35986 10.1898 2.35986 9.77983V6.44982C2.35986 6.16982 2.51991 5.90983 2.77991 5.77983L11.6699 1.33982C11.8799 1.22982 12.1299 1.22982 12.3399 1.33982L21.2299 5.77983C21.4799 5.90983 21.6499 6.16982 21.6499 6.44982V9.77983C21.6399 10.1898 21.2999 10.5298 20.8899 10.5298Z" fill="black"/>
<path d="M11.9999 22.75C11.8799 22.75 11.7699 22.72 11.6699 22.67L2.77991 18.23C2.52991 18.1 2.35986 17.84 2.35986 17.56V14.23C2.35986 13.82 2.69986 13.48 3.10986 13.48C3.51986 13.48 3.85986 13.82 3.85986 14.23V17.1L11.9999 21.17L20.1399 17.1V14.23C20.1399 13.82 20.4799 13.48 20.8899 13.48C21.2999 13.48 21.6399 13.82 21.6399 14.23V17.56C21.6399 17.84 21.4798 18.1 21.2198 18.23L12.3299 22.67C12.2299 22.72 12.1199 22.75 11.9999 22.75Z" fill="black"/>
<path d="M16.4401 12.0001C16.4401 9.55006 14.4501 7.56006 12.0001 7.56006C9.55006 7.56006 7.56006 9.55006 7.56006 12.0001C7.56006 14.2001 9.17008 16.0201 11.2701 16.3701C11.2701 16.4001 11.2601 16.4201 11.2601 16.4401V22.0001C11.2601 22.4101 11.6001 22.7501 12.0101 22.7501C12.4201 22.7501 12.7601 22.4101 12.7601 22.0001V16.4401C12.7601 16.4101 12.7501 16.3901 12.7501 16.3701C14.8401 16.0201 16.4401 14.2001 16.4401 12.0001Z" fill="black"/>
</svg>
