<svg width="24" height="24" viewBox="0 0 24 24" fill="none" xmlns="http://www.w3.org/2000/svg">
<path d="M20.8899 10.5298C20.4799 10.5298 20.1399 10.1898 20.1399 9.77983V6.90983L11.9999 2.83982L3.85986 6.90983V9.77983C3.85986 10.1898 3.51986 10.5298 3.10986 10.5298C2.69986 10.5298 2.35986 10.1898 2.35986 9.77983V6.44982C2.35986 6.16982 2.51991 5.90983 2.77991 5.77983L11.6699 1.33982C11.8799 1.22982 12.1299 1.22982 12.3399 1.33982L21.2299 5.77983C21.4799 5.90983 21.6499 6.16982 21.6499 6.44982V9.77983C21.6399 10.1898 21.2999 10.5298 20.8899 10.5298Z" fill="black"/>
<path d="M11.9999 22.75C11.8799 22.75 11.7699 22.72 11.6699 22.67L2.77991 18.23C2.52991 18.1 2.35986 17.84 2.35986 17.56V14.23C2.35986 13.82 2.69986 13.48 3.10986 13.48C3.51986 13.48 3.85986 13.82 3.85986 14.23V17.1L11.9999 21.17L20.1399 17.1V14.23C20.1399 13.82 20.4799 13.48 20.8899 13.48C21.2999 13.48 21.6399 13.82 21.6399 14.23V17.56C21.6399 17.84 21.4798 18.1 21.2198 18.23L12.3299 22.67C12.2299 22.72 12.1199 22.75 11.9999 22.75Z" fill="black"/>
<path d="M12 22.7499C11.59 22.7499 11.25 22.4099 11.25 21.9999V16.4399C11.25 16.0299 11.59 15.6899 12 15.6899C12.41 15.6899 12.75 16.0299 12.75 16.4399V21.9999C12.75 22.4099 12.41 22.7499 12 22.7499Z" fill="black"/>
<path d="M12.0001 17.1901C9.14006 17.1901 6.81006 14.8601 6.81006 12.0001C6.81006 9.14006 9.14006 6.81006 12.0001 6.81006C14.8601 6.81006 17.1901 9.14006 17.1901 12.0001C17.1901 14.8601 14.8601 17.1901 12.0001 17.1901ZM12.0001 8.31006C9.96006 8.31006 8.31006 9.97006 8.31006 12.0001C8.31006 14.0301 9.97006 15.6901 12.0001 15.6901C14.0301 15.6901 15.6901 14.0301 15.6901 12.0001C15.6901 9.97006 14.0401 8.31006 12.0001 8.31006Z" fill="black"/>
</svg>
