<svg width="24" height="24" viewBox="0 0 24 24" fill="none" xmlns="http://www.w3.org/2000/svg">
<path d="M4.93 22.75C4.51 22.75 4.12 22.65 3.77 22.45C3 22 2.56 21.09 2.56 19.96V5.86C2.56 3.32 4.63 1.25 7.17 1.25H16.82C19.36 1.25 21.43 3.32 21.43 5.86V19.95C21.43 21.08 20.99 21.99 20.22 22.44C19.45 22.89 18.44 22.84 17.45 22.29L12.57 19.58C12.28 19.42 11.71 19.42 11.42 19.58L6.54 22.29C6 22.59 5.45 22.75 4.93 22.75ZM7.18 2.75C5.47 2.75 4.07 4.15 4.07 5.86V19.95C4.07 20.54 4.24 20.98 4.54 21.15C4.84 21.32 5.31 21.27 5.82 20.98L10.7 18.27C11.44 17.86 12.56 17.86 13.3 18.27L18.18 20.98C18.69 21.27 19.16 21.33 19.46 21.15C19.76 20.97 19.93 20.53 19.93 19.95V5.86C19.93 4.15 18.53 2.75 16.82 2.75H7.18Z" fill="#292D32"/>
<path d="M11.09 13.2499C10.9 13.2499 10.71 13.1799 10.56 13.0299L9.06 11.5299C8.77 11.2399 8.77 10.7599 9.06 10.4699C9.35 10.1799 9.83 10.1799 10.12 10.4699L11.09 11.4399L14.56 7.96994C14.85 7.67994 15.33 7.67994 15.62 7.96994C15.91 8.25994 15.91 8.73994 15.62 9.02994L11.62 13.0299C11.47 13.1799 11.28 13.2499 11.09 13.2499Z" fill="#292D32"/>
</svg>
