<svg width="24" height="24" viewBox="0 0 24 24" fill="none" xmlns="http://www.w3.org/2000/svg">
<path d="M14.5 11.3999H9.5C9.09 11.3999 8.75 11.0599 8.75 10.6499C8.75 10.2399 9.09 9.8999 9.5 9.8999H14.5C14.91 9.8999 15.25 10.2399 15.25 10.6499C15.25 11.0599 14.91 11.3999 14.5 11.3999Z" fill="#292D32"/>
<path d="M4.93 22.75C4.51 22.75 4.12 22.65 3.77 22.45C3 22 2.56 21.09 2.56 19.96V5.86C2.56 3.32 4.63 1.25 7.17 1.25H16.82C19.36 1.25 21.43 3.32 21.43 5.86V19.95C21.43 21.08 20.99 21.99 20.22 22.44C19.45 22.89 18.44 22.84 17.45 22.29L12.57 19.58C12.28 19.42 11.71 19.42 11.42 19.58L6.54 22.29C6 22.59 5.45 22.75 4.93 22.75ZM7.18 2.75C5.47 2.75 4.07 4.15 4.07 5.86V19.95C4.07 20.54 4.24 20.98 4.54 21.15C4.84 21.33 5.31 21.27 5.82 20.98L10.7 18.27C11.44 17.86 12.56 17.86 13.3 18.27L18.18 20.98C18.69 21.27 19.16 21.33 19.46 21.15C19.76 20.97 19.93 20.53 19.93 19.95V5.86C19.93 4.15 18.53 2.75 16.82 2.75H7.18Z" fill="#292D32"/>
</svg>
