<svg width="24" height="24" viewBox="0 0 24 24" fill="none" xmlns="http://www.w3.org/2000/svg">
<path d="M2 22.7499C1.81 22.7499 1.62 22.6799 1.47 22.5299C1.18 22.2399 1.18 21.7599 1.47 21.4699L21.47 1.46994C21.76 1.17994 22.24 1.17994 22.53 1.46994C22.82 1.75994 22.82 2.23994 22.53 2.52994L2.53 22.5299C2.38 22.6799 2.19 22.7499 2 22.7499Z" fill="#292D32"/>
<path d="M18.88 22.75C18.32 22.75 17.72 22.58 17.12 22.25L10.6 18.18C10.25 17.96 10.14 17.5 10.36 17.15C10.58 16.8 11.04 16.69 11.39 16.91L17.88 20.96C18.44 21.27 19 21.34 19.36 21.13C19.72 20.92 19.93 20.4 19.93 19.71V8.70996C19.93 8.29996 20.27 7.95996 20.68 7.95996C21.09 7.95996 21.43 8.29996 21.43 8.70996V19.71C21.43 20.94 20.95 21.93 20.12 22.42C19.75 22.64 19.33 22.75 18.88 22.75Z" fill="#292D32"/>
<path d="M3.32001 20.7C2.91001 20.7 2.57001 20.36 2.57001 19.95V5.86C2.57001 3.32 4.64001 1.25 7.18001 1.25H16.83C18.22 1.25 19.53 1.87 20.41 2.96C20.67 3.28 20.62 3.75 20.3 4.02C19.98 4.28 19.51 4.23 19.25 3.91C18.65 3.17 17.77 2.75 16.83 2.75H7.18001C5.47001 2.75 4.07001 4.15 4.07001 5.86V19.95C4.07001 20.36 3.73001 20.7 3.32001 20.7Z" fill="#292D32"/>
</svg>
