<svg width="24" height="24" viewBox="0 0 24 24" fill="none" xmlns="http://www.w3.org/2000/svg">
<path d="M20.12 3.88L3.39001 20.61C3.34001 20.41 3.32001 20.19 3.32001 19.95V5.86C3.32001 3.74 5.05001 2 7.18001 2H16.82C18.22 2 19.45 2.75 20.12 3.88Z" fill="#292D32"/>
<path d="M21.77 2.22988C21.47 1.92988 20.98 1.92988 20.68 2.22988L2.23 20.6899C1.93 20.9899 1.93 21.4799 2.23 21.7799C2.38 21.9199 2.57 21.9999 2.77 21.9999C2.97 21.9999 3.16 21.9199 3.31 21.7699L21.77 3.30988C22.08 3.00988 22.08 2.52988 21.77 2.22988Z" fill="#292D32"/>
<path d="M19.29 7.71005L11.9 15.1001C11.44 15.5601 11.53 16.3301 12.09 16.6601L19.48 21.0901C20.15 21.4901 20.99 21.0101 20.99 20.2301V8.41005C21 7.52005 19.92 7.08005 19.29 7.71005Z" fill="#292D32"/>
</svg>
