<svg width="24" height="24" viewBox="0 0 24 24" fill="none" xmlns="http://www.w3.org/2000/svg">
<path d="M14.5 11.3999H9.5C9.09 11.3999 8.75 11.0599 8.75 10.6499C8.75 10.2399 9.09 9.8999 9.5 9.8999H14.5C14.91 9.8999 15.25 10.2399 15.25 10.6499C15.25 11.0599 14.91 11.3999 14.5 11.3999Z" fill="#292D32"/>
<path d="M12 13.96C11.59 13.96 11.25 13.62 11.25 13.21V8.20996C11.25 7.79996 11.59 7.45996 12 7.45996C12.41 7.45996 12.75 7.79996 12.75 8.20996V13.21C12.75 13.62 12.41 13.96 12 13.96Z" fill="#292D32"/>
<path d="M19.07 22.75C18.56 22.75 18 22.6 17.46 22.29L12.58 19.58C12.29 19.42 11.72 19.42 11.43 19.58L6.55001 22.29C5.56001 22.84 4.55001 22.9 3.78001 22.44C3.01001 21.99 2.57001 21.08 2.57001 19.95V5.86C2.57001 3.32 4.64001 1.25 7.18001 1.25H16.83C19.37 1.25 21.44 3.32 21.44 5.86V19.95C21.44 21.08 21 21.99 20.23 22.44C19.88 22.65 19.48 22.75 19.07 22.75ZM12 17.96C12.47 17.96 12.93 18.06 13.3 18.27L18.18 20.98C18.69 21.27 19.16 21.33 19.46 21.15C19.76 20.97 19.93 20.54 19.93 19.95V5.86C19.93 4.15 18.53 2.75 16.82 2.75H7.18001C5.47001 2.75 4.07001 4.15 4.07001 5.86V19.95C4.07001 20.54 4.24001 20.98 4.54001 21.15C4.84001 21.32 5.31001 21.27 5.82001 20.98L10.7 18.27C11.07 18.06 11.53 17.96 12 17.96Z" fill="#292D32"/>
</svg>
