<svg width="24" height="24" viewBox="0 0 24 24" fill="none" xmlns="http://www.w3.org/2000/svg">
<path d="M15 22.75H9C3.57 22.75 1.25 20.43 1.25 15V9C1.25 3.57 3.57 1.25 9 1.25H15C20.43 1.25 22.75 3.57 22.75 9V15C22.75 20.43 20.43 22.75 15 22.75ZM9 2.75C4.39 2.75 2.75 4.39 2.75 9V15C2.75 19.61 4.39 21.25 9 21.25H15C19.61 21.25 21.25 19.61 21.25 15V9C21.25 4.39 19.61 2.75 15 2.75H9Z" fill="#292D32"/>
<path d="M11.9999 14.9098C11.8099 14.9098 11.6199 14.8398 11.4699 14.6898L7.93991 11.1598C7.64991 10.8698 7.64991 10.3898 7.93991 10.0998C8.22991 9.80982 8.70991 9.80982 8.99991 10.0998L11.9999 13.0998L14.9999 10.0998C15.2899 9.80982 15.7699 9.80982 16.0599 10.0998C16.3499 10.3898 16.3499 10.8698 16.0599 11.1598L12.5299 14.6898C12.3799 14.8398 12.1899 14.9098 11.9999 14.9098Z" fill="#292D32"/>
</svg>
