<svg width="24" height="24" viewBox="0 0 24 24" fill="none" xmlns="http://www.w3.org/2000/svg">
<path d="M12 22.75C11.59 22.75 11.25 22.41 11.25 22V20C11.25 19.59 11.59 19.25 12 19.25C12.41 19.25 12.75 19.59 12.75 20V22C12.75 22.41 12.41 22.75 12 22.75Z" fill="#292D32"/>
<path d="M12 18.75C11.59 18.75 11.25 18.41 11.25 18V16C11.25 15.59 11.59 15.25 12 15.25C12.41 15.25 12.75 15.59 12.75 16V18C12.75 18.41 12.41 18.75 12 18.75Z" fill="#292D32"/>
<path d="M12 14.75C11.59 14.75 11.25 14.41 11.25 14V11C11.25 6.73 14.73 3.25 19 3.25H22C22.41 3.25 22.75 3.59 22.75 4C22.75 4.41 22.41 4.75 22 4.75H19C15.55 4.75 12.75 7.55 12.75 11V14C12.75 14.41 12.41 14.75 12 14.75Z" fill="#292D32"/>
<path d="M12 14.75C11.59 14.75 11.25 14.41 11.25 14V11C11.25 7.55 8.45 4.75 5 4.75H2C1.59 4.75 1.25 4.41 1.25 4C1.25 3.59 1.59 3.25 2 3.25H5C9.27 3.25 12.75 6.73 12.75 11V14C12.75 14.41 12.41 14.75 12 14.75Z" fill="#292D32"/>
<path d="M3.99994 6.74994C3.80994 6.74994 3.61994 6.67994 3.46994 6.52994L1.46994 4.52994C1.17994 4.23994 1.17994 3.75994 1.46994 3.46994L3.46994 1.46994C3.75994 1.17994 4.23994 1.17994 4.52994 1.46994C4.81994 1.75994 4.81994 2.23994 4.52994 2.52994L3.05994 3.99994L4.52994 5.46994C4.81994 5.75994 4.81994 6.23994 4.52994 6.52994C4.37994 6.67994 4.18994 6.74994 3.99994 6.74994Z" fill="#292D32"/>
<path d="M19.9999 6.74994C19.8099 6.74994 19.6199 6.67994 19.4699 6.52994C19.1799 6.23994 19.1799 5.75994 19.4699 5.46994L20.9399 3.99994L19.4699 2.52994C19.1799 2.23994 19.1799 1.75994 19.4699 1.46994C19.7599 1.17994 20.2399 1.17994 20.5299 1.46994L22.5299 3.46994C22.8199 3.75994 22.8199 4.23994 22.5299 4.52994L20.5299 6.52994C20.3799 6.67994 20.1899 6.74994 19.9999 6.74994Z" fill="#292D32"/>
</svg>
