<svg width="24" height="24" viewBox="0 0 24 24" fill="none" xmlns="http://www.w3.org/2000/svg">
<path d="M15.4899 20.7599C15.2999 20.7599 15.1099 20.6899 14.9599 20.5399C14.6699 20.2499 14.6699 19.7699 14.9599 19.4799L19.9699 14.4699C20.2599 14.1799 20.7399 14.1799 21.0299 14.4699C21.3199 14.7599 21.3199 15.2399 21.0299 15.5299L16.0199 20.5399C15.8699 20.6799 15.6799 20.7599 15.4899 20.7599Z" fill="#292D32"/>
<path d="M20.5 15.7402H3.5C3.09 15.7402 2.75 15.4002 2.75 14.9902C2.75 14.5802 3.09 14.2402 3.5 14.2402H20.5C20.91 14.2402 21.25 14.5802 21.25 14.9902C21.25 15.4002 20.91 15.7402 20.5 15.7402Z" fill="#292D32"/>
<path d="M3.49994 9.75994C3.30994 9.75994 3.11994 9.68994 2.96994 9.53994C2.67994 9.24994 2.67994 8.76994 2.96994 8.47994L7.97994 3.46994C8.26994 3.17994 8.74994 3.17994 9.03994 3.46994C9.32994 3.75994 9.32994 4.23994 9.03994 4.52994L4.02994 9.53994C3.88994 9.67994 3.68994 9.75994 3.49994 9.75994Z" fill="#292D32"/>
<path d="M20.5 9.75977H3.5C3.09 9.75977 2.75 9.41977 2.75 9.00977C2.75 8.59977 3.09 8.25977 3.5 8.25977H20.5C20.91 8.25977 21.25 8.59977 21.25 9.00977C21.25 9.41977 20.91 9.75977 20.5 9.75977Z" fill="#292D32"/>
</svg>
