<svg width="24" height="24" viewBox="0 0 24 24" fill="none" xmlns="http://www.w3.org/2000/svg">
<path d="M10.9799 6.19L7.26994 2.48C7.19994 2.41 7.10994 2.35 7.00994 2.31C6.99994 2.31 6.98994 2.31 6.97994 2.3C6.89994 2.27 6.81994 2.25 6.72994 2.25C6.52994 2.25 6.33994 2.33 6.19994 2.47L2.46994 6.19C2.17994 6.48 2.17994 6.96 2.46994 7.25C2.75994 7.54 3.23994 7.54 3.52994 7.25L5.97994 4.8V21C5.97994 21.41 6.31994 21.75 6.72994 21.75C7.13994 21.75 7.47994 21.41 7.47994 21V4.81L9.91994 7.25C10.0699 7.4 10.2599 7.47 10.4499 7.47C10.6399 7.47 10.8299 7.4 10.9799 7.25C11.2699 6.96 11.2699 6.49 10.9799 6.19Z" fill="#292D32"/>
<path d="M21.53 16.75C21.24 16.46 20.76 16.46 20.47 16.75L18.02 19.2V3C18.02 2.59 17.68 2.25 17.27 2.25C16.86 2.25 16.52 2.59 16.52 3V19.19L14.08 16.75C13.79 16.46 13.31 16.46 13.02 16.75C12.73 17.04 12.73 17.52 13.02 17.81L16.73 21.52C16.8 21.59 16.89 21.65 16.99 21.69C17 21.69 17.01 21.69 17.02 21.7C17.1 21.73 17.19 21.75 17.28 21.75C17.48 21.75 17.67 21.67 17.81 21.53L21.53 17.81C21.82 17.51 21.82 17.04 21.53 16.75Z" fill="#292D32"/>
</svg>
