<svg width="24" height="24" viewBox="0 0 24 24" fill="none" xmlns="http://www.w3.org/2000/svg">
<path d="M12 22.75C6.07 22.75 1.25 17.93 1.25 12C1.25 6.07 6.07 1.25 12 1.25C17.93 1.25 22.75 6.07 22.75 12C22.75 17.93 17.93 22.75 12 22.75ZM12 2.75C6.9 2.75 2.75 6.9 2.75 12C2.75 17.1 6.9 21.25 12 21.25C17.1 21.25 21.25 17.1 21.25 12C21.25 6.9 17.1 2.75 12 2.75Z" fill="black"/>
<path d="M14.9999 11.7498C14.7299 11.7498 14.4599 11.5998 14.3299 11.3398L12.0399 6.74977H11.9699L9.67994 11.3398C9.49994 11.7098 9.04994 11.8598 8.66994 11.6798C8.29994 11.4898 8.14994 11.0398 8.32994 10.6698L10.8299 5.66977C10.9599 5.41977 11.2199 5.25977 11.4999 5.25977H12.4999C12.7799 5.25977 13.0399 5.41977 13.1699 5.66977L15.6699 10.6698C15.8599 11.0398 15.7099 11.4898 15.3299 11.6798C15.2299 11.7198 15.1099 11.7498 14.9999 11.7498Z" fill="black"/>
<path d="M12 18.75C11.87 18.75 11.73 18.71 11.61 18.64L6.61001 15.64C6.27001 15.44 6.15001 15.01 6.32001 14.66L7.32001 12.66C7.51001 12.29 7.96001 12.14 8.33001 12.32C8.70001 12.51 8.85001 12.96 8.67001 13.33L7.98001 14.71L12 17.12L16.02 14.71L15.33 13.33C15.14 12.96 15.29 12.51 15.67 12.32C16.04 12.14 16.49 12.28 16.68 12.66L17.68 14.66C17.86 15.01 17.73 15.44 17.39 15.64L12.39 18.64C12.27 18.71 12.13 18.75 12 18.75Z" fill="black"/>
</svg>
