<svg width="24" height="24" viewBox="0 0 24 24" fill="none" xmlns="http://www.w3.org/2000/svg">
<path d="M12 22.75C6.07 22.75 1.25 17.93 1.25 12C1.25 6.07 6.07 1.25 12 1.25C17.93 1.25 22.75 6.07 22.75 12C22.75 17.93 17.93 22.75 12 22.75ZM12 2.75C6.9 2.75 2.75 6.9 2.75 12C2.75 17.1 6.9 21.25 12 21.25C17.1 21.25 21.25 17.1 21.25 12C21.25 6.9 17.1 2.75 12 2.75Z" fill="black"/>
<path d="M14.5699 10.8901H9.42987C9.15987 10.8901 8.9099 10.74 8.7799 10.51C8.6499 10.27 8.64985 9.99005 8.78985 9.75005L11.3599 5.46006C11.6299 5.01006 12.3799 5.01006 12.6499 5.46006L15.2198 9.75005C15.3598 9.98005 15.3599 10.27 15.2299 10.51C15.0899 10.75 14.8399 10.8901 14.5699 10.8901ZM10.7499 9.39005H13.2399L11.9899 7.31005L10.7499 9.39005Z" fill="black"/>
<path d="M11.14 16.8898H5.99997C5.72997 16.8898 5.47994 16.7398 5.34994 16.5098C5.21994 16.2798 5.21995 15.9898 5.35995 15.7598L7.92996 11.4698C8.19996 11.0198 8.94994 11.0198 9.21994 11.4698L11.7899 15.7598C11.9299 15.9898 11.93 16.2798 11.8 16.5098C11.66 16.7498 11.41 16.8898 11.14 16.8898ZM7.31997 15.3898H9.80996L8.55996 13.3098L7.31997 15.3898Z" fill="black"/>
<path d="M18.0001 16.8898H12.86C12.59 16.8898 12.3401 16.7398 12.2101 16.5098C12.0801 16.2798 12.08 15.9898 12.22 15.7598L14.79 11.4698C15.06 11.0198 15.8101 11.0198 16.0801 11.4698L18.6501 15.7598C18.7901 15.9898 18.79 16.2798 18.66 16.5098C18.52 16.7498 18.2701 16.8898 18.0001 16.8898ZM14.18 15.3898H16.67L15.42 13.3098L14.18 15.3898Z" fill="black"/>
</svg>
