<svg width="24" height="24" viewBox="0 0 24 24" fill="none" xmlns="http://www.w3.org/2000/svg">
<path d="M21.56 10.7401L20.21 9.16008C19.96 8.86008 19.75 8.30008 19.75 7.90008V6.20008C19.75 5.14008 18.88 4.27008 17.82 4.27008H16.12C15.72 4.27008 15.15 4.06008 14.85 3.81008L13.27 2.46008C12.58 1.87008 11.45 1.87008 10.76 2.46008L9.16 3.81008C8.86 4.06008 8.3 4.27008 7.9 4.27008H6.17C5.11 4.27008 4.24 5.14008 4.24 6.20008V7.90008C4.24 8.29008 4.04 8.85008 3.79 9.15008L2.44 10.7401C1.86 11.4401 1.86 12.5601 2.44 13.2401L3.79 14.8301C4.04 15.1201 4.24 15.6901 4.24 16.0801V17.7901C4.24 18.8501 5.11 19.7201 6.17 19.7201H7.91C8.3 19.7201 8.87 19.9301 9.17 20.1801L10.75 21.5301C11.44 22.1201 12.57 22.1201 13.26 21.5301L14.84 20.1801C15.14 19.9301 15.7 19.7201 16.1 19.7201H17.8C18.86 19.7201 19.73 18.8501 19.73 17.7901V16.0901C19.73 15.6901 19.94 15.1301 20.19 14.8301L21.54 13.2501C22.15 12.5701 22.15 11.4401 21.56 10.7401ZM14.81 16.2401L13.83 14.0401C13.8 14.0401 13.77 14.0601 13.74 14.0601H10.24C10.21 14.0601 10.18 14.0501 10.15 14.0401L9.17 16.2401L7.8 15.6301L11.3 7.75008H12.67L16.17 15.6301L14.81 16.2401Z" fill="#292D32"/>
<path d="M10.82 12.5599H13.18L12 9.90991L10.82 12.5599Z" fill="#292D32"/>
</svg>
