<svg width="24" height="24" viewBox="0 0 24 24" fill="none" xmlns="http://www.w3.org/2000/svg">
<path d="M9.18997 17.0099H6.44998C6.01998 17.0099 5.61994 16.7799 5.40994 16.4099C5.19994 16.0399 5.19994 15.5799 5.40994 15.1999L11.01 5.58991C11.21 5.23991 11.5799 5.01991 11.9799 4.98991C12.3799 4.95991 12.77 5.14992 13.01 5.46992L14.58 7.55991C15.21 8.39991 15.26 9.55991 14.7 10.4599L11.36 15.8099C10.89 16.5599 10.08 17.0099 9.18997 17.0099ZM6.95999 15.5099H9.17996C9.54996 15.5099 9.88999 15.3199 10.08 15.0099L13.42 9.65992C13.65 9.28992 13.63 8.80991 13.37 8.45991L12.07 6.72992L6.95999 15.5099Z" fill="black"/>
<path d="M17.5499 17.0099H13.71C13.28 17.0099 12.8799 16.7799 12.6599 16.3999C12.4499 16.0199 12.4499 15.5599 12.6699 15.1899L14.59 11.9899C15.03 11.2599 16.21 11.2599 16.65 11.9899L18.57 15.1899C18.79 15.5599 18.8 16.0299 18.58 16.3999C18.39 16.7699 17.9799 17.0099 17.5499 17.0099ZM14.2399 15.5099H17.03L15.63 13.1799L14.2399 15.5099Z" fill="black"/>
<path d="M12 22.75C6.07 22.75 1.25 17.93 1.25 12C1.25 6.07 6.07 1.25 12 1.25C17.93 1.25 22.75 6.07 22.75 12C22.75 17.93 17.93 22.75 12 22.75ZM12 2.75C6.9 2.75 2.75 6.9 2.75 12C2.75 17.1 6.9 21.25 12 21.25C17.1 21.25 21.25 17.1 21.25 12C21.25 6.9 17.1 2.75 12 2.75Z" fill="black"/>
</svg>
