<svg width="24" height="24" viewBox="0 0 24 24" fill="none" xmlns="http://www.w3.org/2000/svg">
<path d="M17.8099 5.49V6.23L14.2699 4.18C12.9299 3.41 11.0599 3.41 9.72994 4.18L6.18994 6.24V5.49C6.18994 3.24 7.41994 2 9.66994 2H14.3299C16.5799 2 17.8099 3.24 17.8099 5.49Z" fill="#292D32"/>
<path d="M17.84 7.96999L17.7 7.89999L16.34 7.11999L13.52 5.48999C12.66 4.98999 11.34 4.98999 10.48 5.48999L7.66 7.10999L6.3 7.90999L6.12 7.99999C4.37 9.17999 4.25 9.39999 4.25 11.29V15.81C4.25 17.7 4.37 17.92 6.16 19.13L10.48 21.62C10.91 21.88 11.45 21.99 12 21.99C12.54 21.99 13.09 21.87 13.52 21.62L17.88 19.1C19.64 17.92 19.75 17.71 19.75 15.81V11.29C19.75 9.39999 19.63 9.17999 17.84 7.96999ZM14.79 13.5L14.18 14.25C14.08 14.36 14.01 14.57 14.02 14.72L14.08 15.68C14.12 16.27 13.7 16.57 13.15 16.36L12.26 16C12.12 15.95 11.89 15.95 11.75 16L10.86 16.35C10.31 16.57 9.89 16.26 9.93 15.67L9.99 14.71C10 14.56 9.93 14.35 9.83 14.24L9.21 13.5C8.83 13.05 9 12.55 9.57 12.4L10.5 12.16C10.65 12.12 10.82 11.98 10.9 11.86L11.42 11.06C11.74 10.56 12.25 10.56 12.58 11.06L13.1 11.86C13.18 11.99 13.36 12.12 13.5 12.16L14.43 12.4C15 12.55 15.17 13.05 14.79 13.5Z" fill="#292D32"/>
</svg>
