<svg width="24" height="24" viewBox="0 0 24 24" fill="none" xmlns="http://www.w3.org/2000/svg">
<path d="M21.25 5.15V7.85C21.25 9.69 20.69 10.25 18.85 10.25H16.15C14.31 10.25 13.75 9.69 13.75 7.85V5.15C13.75 3.31 14.31 2.75 16.15 2.75H18.85C20.69 2.75 21.25 3.31 21.25 5.15Z" fill="#292D32"/>
<path d="M10.25 16.15V18.85C10.25 20.69 9.69 21.25 7.85 21.25H5.15C3.31 21.25 2.75 20.69 2.75 18.85V16.15C2.75 14.31 3.31 13.75 5.15 13.75H7.85C9.69 13.75 10.25 14.31 10.25 16.15Z" fill="#292D32"/>
<path d="M16.15 11.7501C16.4151 11.7501 16.63 11.965 16.63 12.2301V13.6201C16.63 15.9001 15.9 16.6301 13.62 16.6301H12.23C11.9649 16.6301 11.75 16.4152 11.75 16.1501C11.75 13.4901 10.51 12.2501 7.85 12.2501C7.5849 12.2501 7.37 12.0352 7.37 11.7701V10.3801C7.37 8.10012 8.1 7.37012 10.38 7.37012H11.77C12.0351 7.37012 12.25 7.58502 12.25 7.85012C12.25 10.5101 13.49 11.7501 16.15 11.7501Z" fill="#292D32"/>
</svg>
