<svg width="24" height="24" viewBox="0 0 24 24" fill="none" xmlns="http://www.w3.org/2000/svg">
<path d="M14.4299 16.9198H12.1399C11.7299 16.9198 11.3899 16.5798 11.3899 16.1698C11.3899 15.7598 11.7299 15.4198 12.1399 15.4198H14.4299C14.8599 15.4198 15.2099 15.0698 15.2099 14.6398C15.2099 14.2098 14.8599 13.8598 14.4299 13.8598H12.1399C11.8999 13.8598 11.6699 13.7398 11.5299 13.5498C11.3899 13.3598 11.3499 13.0998 11.4299 12.8698L12.1899 10.5798C12.2899 10.2698 12.5799 10.0698 12.8999 10.0698H15.9599C16.3699 10.0698 16.7099 10.4098 16.7099 10.8198C16.7099 11.2298 16.3699 11.5698 15.9599 11.5698H13.4399L13.1799 12.3598H14.4299C15.6899 12.3598 16.7099 13.3798 16.7099 14.6398C16.7099 15.8998 15.6799 16.9198 14.4299 16.9198Z" fill="#292D32"/>
<path d="M9.53992 16.9198C9.12992 16.9198 8.78992 16.5798 8.78992 16.1698V12.7798L8.59992 12.9998C8.31992 13.3098 7.84992 13.3298 7.53992 13.0598C7.23992 12.7798 7.20992 12.3098 7.48992 11.9998L8.98992 10.3298C9.19992 10.0998 9.52992 10.0198 9.81992 10.1298C10.1099 10.2398 10.2999 10.5198 10.2999 10.8298V16.1798C10.2899 16.5898 9.95992 16.9198 9.53992 16.9198Z" fill="#292D32"/>
<path d="M12.0001 3.47994C11.9201 3.47994 11.8401 3.48994 11.7601 3.48994L12.5801 2.46994C12.8401 2.14994 12.7901 1.66994 12.4601 1.41994C12.1301 1.16994 11.6701 1.20994 11.4101 1.53994L9.4401 3.99994C9.4301 4.00994 9.4301 4.01994 9.4201 4.03994C9.3901 4.07994 9.3701 4.12994 9.3501 4.16994C9.3301 4.21994 9.3101 4.25994 9.3001 4.29994C9.2901 4.34994 9.2901 4.38994 9.2901 4.43994C9.2901 4.48994 9.2901 4.53994 9.2901 4.58994C9.2901 4.60994 9.2901 4.61994 9.2901 4.63994C9.3001 4.66994 9.3201 4.68994 9.3301 4.71994C9.3501 4.76994 9.3701 4.80994 9.3901 4.85994C9.4201 4.89994 9.4501 4.93994 9.4901 4.96994C9.5101 4.99994 9.5201 5.02994 9.5501 5.04994C9.5701 5.05994 9.5801 5.06994 9.6001 5.07994C9.6201 5.09994 9.6501 5.10994 9.6801 5.11994C9.7301 5.14994 9.7901 5.16994 9.8401 5.17994C9.8801 5.19994 9.9101 5.19994 9.9401 5.19994C9.9701 5.19994 9.9901 5.20994 10.0201 5.20994C10.0501 5.20994 10.0701 5.19994 10.0901 5.18994C10.1201 5.18994 10.1501 5.19994 10.1801 5.18994C10.8201 5.03994 11.4201 4.96994 11.9901 4.96994C16.4801 4.96994 20.1301 8.61994 20.1301 13.1099C20.1301 17.5999 16.4801 21.2499 11.9901 21.2499C7.5001 21.2499 3.8501 17.5999 3.8501 13.1099C3.8501 11.3699 4.4201 9.68994 5.5001 8.24994C5.7501 7.91994 5.6801 7.44994 5.3501 7.19994C5.0201 6.94994 4.5501 7.01994 4.3001 7.34994C3.0201 9.04994 2.3501 11.0399 2.3501 13.1099C2.3501 18.4199 6.6701 22.7499 11.9901 22.7499C17.3101 22.7499 21.6301 18.4299 21.6301 13.1099C21.6301 7.78994 17.3101 3.47994 12.0001 3.47994Z" fill="#292D32"/>
</svg>
