<svg width="24" height="24" viewBox="0 0 24 24" fill="none" xmlns="http://www.w3.org/2000/svg">
<path d="M12.3799 16.9198H10.0899C9.67988 16.9198 9.33988 16.5798 9.33988 16.1698C9.33988 15.7598 9.67988 15.4198 10.0899 15.4198H12.3799C12.8099 15.4198 13.1599 15.0698 13.1599 14.6398C13.1599 14.2098 12.8099 13.8598 12.3799 13.8598H10.0899C9.84988 13.8598 9.61988 13.7398 9.47988 13.5498C9.33988 13.3598 9.29988 13.0998 9.37988 12.8698L10.1399 10.5798C10.2399 10.2698 10.5299 10.0698 10.8499 10.0698H13.9099C14.3199 10.0698 14.6599 10.4098 14.6599 10.8198C14.6599 11.2298 14.3199 11.5698 13.9099 11.5698H11.3899L11.1299 12.3598H12.3799C13.6399 12.3598 14.6599 13.3798 14.6599 14.6398C14.6599 15.8998 13.6399 16.9198 12.3799 16.9198Z" fill="#292D32"/>
<path d="M12.0001 3.47994C11.9201 3.47994 11.8401 3.48994 11.7601 3.48994L12.5801 2.46994C12.8401 2.14994 12.7901 1.66994 12.4601 1.41994C12.1301 1.16994 11.6701 1.20994 11.4101 1.53994L9.4401 3.99994C9.4301 4.00994 9.4301 4.01994 9.4201 4.03994C9.3901 4.07994 9.3701 4.12994 9.3501 4.16994C9.3301 4.21994 9.3101 4.25994 9.3001 4.29994C9.2901 4.34994 9.2901 4.38994 9.2901 4.43994C9.2901 4.48994 9.2901 4.53994 9.2901 4.58994C9.2901 4.60994 9.2901 4.61994 9.2901 4.63994C9.3001 4.66994 9.3201 4.68994 9.3301 4.71994C9.3501 4.76994 9.3701 4.80994 9.3901 4.85994C9.4201 4.89994 9.4501 4.93994 9.4901 4.96994C9.5101 4.99994 9.5201 5.02994 9.5501 5.04994C9.5701 5.05994 9.5801 5.06994 9.6001 5.07994C9.6301 5.09994 9.6501 5.10994 9.6801 5.11994C9.7301 5.14994 9.7901 5.16994 9.8501 5.17994C9.8801 5.19994 9.9101 5.19994 9.9401 5.19994C9.9701 5.19994 9.9901 5.20994 10.0201 5.20994C10.0501 5.20994 10.0701 5.19994 10.0901 5.18994C10.1201 5.18994 10.1501 5.19994 10.1801 5.18994C10.8201 5.03994 11.4201 4.96994 11.9901 4.96994C16.4801 4.96994 20.1301 8.61994 20.1301 13.1099C20.1301 17.5999 16.4801 21.2499 11.9901 21.2499C7.5001 21.2499 3.8501 17.5999 3.8501 13.1099C3.8501 11.3699 4.4201 9.68994 5.5001 8.24994C5.7501 7.91994 5.6801 7.44994 5.3501 7.19994C5.0201 6.94994 4.5501 7.01994 4.3001 7.34994C3.0201 9.04994 2.3501 11.0399 2.3501 13.1099C2.3501 18.4199 6.6701 22.7499 11.9901 22.7499C17.3101 22.7499 21.6301 18.4299 21.6301 13.1099C21.6301 7.78994 17.3101 3.47994 12.0001 3.47994Z" fill="#292D32"/>
</svg>
