<svg width="24" height="24" viewBox="0 0 24 24" fill="none" xmlns="http://www.w3.org/2000/svg">
<path d="M9.54004 16.6698C9.13004 16.6698 8.79004 16.3298 8.79004 15.9198V12.5298L8.60004 12.7498C8.32004 13.0598 7.85004 13.0798 7.54004 12.8098C7.23004 12.5298 7.21004 12.0598 7.48004 11.7498L8.98004 10.0798C9.19004 9.84984 9.52004 9.76984 9.81004 9.87984C10.1 9.98984 10.29 10.2698 10.29 10.5798V15.9298C10.29 16.3398 9.96004 16.6698 9.54004 16.6698Z" fill="#292D32"/>
<path d="M12.0001 3.48023C11.9201 3.48023 11.8401 3.49023 11.7601 3.49023L12.5801 2.47023C12.8401 2.15023 12.7901 1.67023 12.4601 1.42023C12.1401 1.16023 11.6701 1.21023 11.4101 1.54023L9.44012 4.00023C9.43012 4.01023 9.43012 4.02023 9.42012 4.04023C9.39012 4.08023 9.37012 4.13023 9.35012 4.17023C9.33012 4.22023 9.31012 4.26023 9.30012 4.30023C9.29012 4.35023 9.29012 4.39023 9.29012 4.44023C9.29012 4.49023 9.29012 4.54023 9.29012 4.59023C9.29012 4.61023 9.29012 4.62023 9.29012 4.64023C9.30012 4.67023 9.32012 4.69023 9.33012 4.73023C9.35012 4.78023 9.36012 4.82023 9.39012 4.86023C9.42012 4.90023 9.45012 4.94023 9.49012 4.98023C9.51012 5.00023 9.53012 5.03023 9.55012 5.05023C9.56012 5.06023 9.58012 5.06023 9.59012 5.07023C9.62012 5.09023 9.65012 5.11023 9.69012 5.12023C9.74012 5.15023 9.79012 5.17023 9.84012 5.18023C9.88012 5.20023 9.91012 5.20023 9.95012 5.20023C9.98012 5.20023 10.0001 5.21023 10.0301 5.21023C10.0501 5.21023 10.0801 5.20023 10.1001 5.19023C10.1301 5.19023 10.1601 5.19023 10.2001 5.19023C10.8401 5.04023 11.4401 4.97023 12.0101 4.97023C16.5001 4.97023 20.1501 8.62023 20.1501 13.1102C20.1501 17.6002 16.5001 21.2502 12.0101 21.2502C7.52012 21.2502 3.87012 17.6002 3.87012 13.1102C3.87012 11.3702 4.44012 9.69023 5.52012 8.25023C5.77012 7.92023 5.70012 7.45023 5.37012 7.20023C5.04012 6.95023 4.57012 7.02023 4.32012 7.35023C3.04012 9.05023 2.37012 11.0402 2.37012 13.1102C2.37012 18.4202 6.69012 22.7502 12.0101 22.7502C17.3301 22.7502 21.6501 18.4302 21.6501 13.1102C21.6501 7.79023 17.3101 3.48023 12.0001 3.48023Z" fill="#292D32"/>
<path d="M14 16.6698C12.48 16.6698 11.25 15.4398 11.25 13.9198V12.5698C11.25 11.0498 12.48 9.81982 14 9.81982C15.52 9.81982 16.75 11.0498 16.75 12.5698V13.9198C16.75 15.4398 15.52 16.6698 14 16.6698ZM14 11.3298C13.31 11.3298 12.75 11.8898 12.75 12.5798V13.9298C12.75 14.6198 13.31 15.1798 14 15.1798C14.69 15.1798 15.25 14.6198 15.25 13.9298V12.5798C15.25 11.8898 14.69 11.3298 14 11.3298Z" fill="#292D32"/>
</svg>
