<svg width="24" height="24" viewBox="0 0 24 24" fill="none" xmlns="http://www.w3.org/2000/svg">
<path d="M19.24 5.58006H18.84L15.46 2.20006C15.19 1.93006 14.75 1.93006 14.47 2.20006C14.2 2.47006 14.2 2.91006 14.47 3.19006L16.86 5.58006H7.14L9.53 3.19006C9.8 2.92006 9.8 2.48006 9.53 2.20006C9.26 1.93006 8.82 1.93006 8.54 2.20006L5.17 5.58006H4.77C3.87 5.58006 2 5.58006 2 8.14006C2 9.11006 2.2 9.75006 2.62 10.1701C2.86 10.4201 3.15 10.5501 3.46 10.6201C3.75 10.6901 4.06 10.7001 4.36 10.7001H19.64C19.95 10.7001 20.24 10.6801 20.52 10.6201C21.36 10.4201 22 9.82006 22 8.14006C22 5.58006 20.13 5.58006 19.24 5.58006Z" fill="#292D32"/>
<path d="M19.09 12H4.90995C4.28995 12 3.81995 12.55 3.91995 13.16L4.75995 18.3C5.03995 20.02 5.78995 22 9.11995 22H14.7299C18.0999 22 18.7 20.31 19.0599 18.42L20.07 13.19C20.19 12.57 19.72 12 19.09 12ZM14.88 16.05L11.63 19.05C11.49 19.18 11.3099 19.25 11.1199 19.25C10.9299 19.25 10.74 19.18 10.59 19.03L9.08995 17.53C8.79995 17.24 8.79995 16.76 9.08995 16.47C9.38995 16.18 9.85995 16.18 10.1599 16.47L11.1499 17.46L13.87 14.95C14.17 14.67 14.65 14.69 14.93 14.99C15.21 15.3 15.19 15.77 14.88 16.05Z" fill="#292D32"/>
</svg>
