<svg width="24" height="24" viewBox="0 0 24 24" fill="none" xmlns="http://www.w3.org/2000/svg">
<path d="M19.24 5.58006H18.84L15.46 2.20006C15.19 1.93006 14.75 1.93006 14.47 2.20006C14.2 2.47006 14.2 2.91006 14.47 3.19006L16.86 5.58006H7.14L9.53 3.19006C9.8 2.92006 9.8 2.48006 9.53 2.20006C9.26 1.93006 8.82 1.93006 8.54 2.20006L5.17 5.58006H4.77C3.87 5.58006 2 5.58006 2 8.14006C2 9.11006 2.2 9.75006 2.62 10.1701C2.86 10.4201 3.15 10.5501 3.46 10.6201C3.75 10.6901 4.06 10.7001 4.36 10.7001H19.64C19.95 10.7001 20.24 10.6801 20.52 10.6201C21.36 10.4201 22 9.82006 22 8.14006C22 5.58006 20.13 5.58006 19.24 5.58006Z" fill="#292D32"/>
<path d="M19.09 12H4.90995C4.28995 12 3.81995 12.55 3.91995 13.16L4.75995 18.3C5.03995 20.02 5.78995 22 9.11995 22H14.7299C18.0999 22 18.7 20.31 19.0599 18.42L20.07 13.19C20.19 12.57 19.72 12 19.09 12ZM13.92 18.89C13.78 19.04 13.59 19.11 13.39 19.11C13.2 19.11 13.0099 19.04 12.86 18.89L12.02 18.04L11.14 18.92C10.99 19.07 10.7999 19.14 10.6099 19.14C10.4099 19.14 10.2199 19.07 10.0799 18.92C9.77995 18.63 9.77995 18.16 10.0799 17.86L10.9599 16.98L10.1099 16.14C9.80995 15.84 9.80995 15.37 10.1099 15.08C10.3999 14.78 10.8699 14.78 11.17 15.08L12.02 15.92L12.83 15.11C13.13 14.81 13.6 14.81 13.89 15.11C14.19 15.4 14.19 15.87 13.89 16.17L13.08 16.98L13.92 17.83C14.22 18.13 14.22 18.6 13.92 18.89Z" fill="#292D32"/>
</svg>
