<svg width="24" height="24" viewBox="0 0 24 24" fill="none" xmlns="http://www.w3.org/2000/svg">
<path d="M19.96 8.9599C19.29 8.2199 18.28 7.7899 16.88 7.6399V6.8799C16.88 5.5099 16.3 4.1899 15.28 3.2699C14.25 2.3299 12.91 1.8899 11.52 2.0199C9.12999 2.2499 7.11999 4.5599 7.11999 7.0599V7.6399C5.71999 7.7899 4.70999 8.2199 4.03999 8.9599C3.06999 10.0399 3.09999 11.4799 3.20999 12.4799L3.90999 18.0499C4.11999 19.9999 4.90999 21.9999 9.20999 21.9999H14.79C19.09 21.9999 19.88 19.9999 20.09 18.0599L20.79 12.4699C20.9 11.4799 20.92 10.0399 19.96 8.9599ZM11.66 3.4099C12.66 3.3199 13.61 3.6299 14.35 4.2999C15.08 4.9599 15.49 5.8999 15.49 6.8799V7.5799H8.50999V7.0599C8.50999 5.2799 9.97999 3.5699 11.66 3.4099ZM8.41999 13.1499H8.40999C7.85999 13.1499 7.40999 12.6999 7.40999 12.1499C7.40999 11.5999 7.85999 11.1499 8.40999 11.1499C8.96999 11.1499 9.41999 11.5999 9.41999 12.1499C9.41999 12.6999 8.96999 13.1499 8.41999 13.1499ZM15.42 13.1499H15.41C14.86 13.1499 14.41 12.6999 14.41 12.1499C14.41 11.5999 14.86 11.1499 15.41 11.1499C15.97 11.1499 16.42 11.5999 16.42 12.1499C16.42 12.6999 15.97 13.1499 15.42 13.1499Z" fill="#292D32"/>
</svg>
