<svg width="24" height="24" viewBox="0 0 24 24" fill="none" xmlns="http://www.w3.org/2000/svg">
<path d="M13.3899 18.11C13.1999 18.11 13.0099 18.04 12.8599 17.89L10.0999 15.13C9.80995 14.84 9.80995 14.36 10.0999 14.07C10.3899 13.78 10.8699 13.78 11.1599 14.07L13.9199 16.83C14.2099 17.12 14.2099 17.6 13.9199 17.89C13.7799 18.04 13.5899 18.11 13.3899 18.11Z" fill="#292D32"/>
<path d="M10.61 18.1398C10.42 18.1398 10.23 18.0698 10.08 17.9198C9.79005 17.6298 9.79005 17.1498 10.08 16.8598L12.84 14.0998C13.13 13.8098 13.61 13.8098 13.9 14.0998C14.19 14.3898 14.19 14.8698 13.9 15.1598L11.14 17.9198C10.99 18.0698 10.8 18.1398 10.61 18.1398Z" fill="#292D32"/>
<path d="M5.19001 6.37994C5.00001 6.37994 4.8 6.29994 4.66 6.15994C4.37 5.86994 4.37 5.38994 4.66 5.09994L8.29 1.46994C8.58001 1.17994 9.06001 1.17994 9.35001 1.46994C9.64001 1.75994 9.64001 2.23994 9.35001 2.52994L5.72 6.15994C5.57 6.29994 5.38001 6.37994 5.19001 6.37994Z" fill="#292D32"/>
<path d="M18.81 6.37994C18.62 6.37994 18.43 6.30994 18.28 6.15994L14.65 2.52994C14.36 2.23994 14.36 1.75994 14.65 1.46994C14.94 1.17994 15.42 1.17994 15.71 1.46994L19.34 5.09994C19.63 5.38994 19.63 5.86994 19.34 6.15994C19.2 6.29994 19 6.37994 18.81 6.37994Z" fill="#292D32"/>
<path d="M20.21 10.6001C20.14 10.6001 20.07 10.6001 20 10.6001H19.77H4C3.3 10.6101 2.5 10.6101 1.92 10.0301C1.46 9.5801 1.25 8.8801 1.25 7.8501C1.25 5.1001 3.26 5.1001 4.22 5.1001H19.78C20.74 5.1001 22.75 5.1001 22.75 7.8501C22.75 8.8901 22.54 9.5801 22.08 10.0301C21.56 10.5501 20.86 10.6001 20.21 10.6001ZM4.22 9.1001H20.01C20.46 9.1101 20.88 9.1101 21.02 8.9701C21.09 8.9001 21.24 8.6601 21.24 7.8501C21.24 6.7201 20.96 6.6001 19.77 6.6001H4.22C3.03 6.6001 2.75 6.7201 2.75 7.8501C2.75 8.6601 2.91 8.9001 2.97 8.9701C3.11 9.1001 3.54 9.1001 3.98 9.1001H4.22Z" fill="#292D32"/>
<path d="M14.89 22.7502H8.86C5.28 22.7502 4.48 20.6202 4.17 18.7702L2.76 10.1202C2.69 9.71024 2.97 9.33024 3.38 9.26024C3.79 9.19024 4.17 9.47024 4.24 9.88024L5.65 18.5202C5.94 20.2902 6.54 21.2502 8.86 21.2502H14.89C17.46 21.2502 17.75 20.3502 18.08 18.6102L19.76 9.86024C19.84 9.45024 20.23 9.18024 20.64 9.27024C21.05 9.35024 21.31 9.74024 21.23 10.1502L19.55 18.9002C19.16 20.9302 18.51 22.7502 14.89 22.7502Z" fill="#292D32"/>
</svg>
