<svg width="24" height="24" viewBox="0 0 24 24" fill="none" xmlns="http://www.w3.org/2000/svg">
<path d="M12 19.75C9.38 19.75 7.25 17.62 7.25 15C7.25 12.38 9.38 10.25 12 10.25C14.62 10.25 16.75 12.38 16.75 15C16.75 17.62 14.62 19.75 12 19.75ZM12 11.75C10.21 11.75 8.75 13.21 8.75 15C8.75 16.79 10.21 18.25 12 18.25C13.79 18.25 15.25 16.79 15.25 15C15.25 13.21 13.79 11.75 12 11.75Z" fill="#292D32"/>
<path d="M13.07 16.8599C12.88 16.8599 12.69 16.7899 12.54 16.6399L10.43 14.5299C10.14 14.2399 10.14 13.7599 10.43 13.4699C10.72 13.1799 11.2 13.1799 11.49 13.4699L13.6 15.5799C13.89 15.8699 13.89 16.3499 13.6 16.6399C13.45 16.7899 13.26 16.8599 13.07 16.8599Z" fill="#292D32"/>
<path d="M10.93 16.8902C10.74 16.8902 10.55 16.8202 10.4 16.6702C10.11 16.3802 10.11 15.9002 10.4 15.6102L12.51 13.5002C12.8 13.2102 13.28 13.2102 13.57 13.5002C13.86 13.7902 13.86 14.2702 13.57 14.5602L11.46 16.6702C11.31 16.8102 11.12 16.8902 10.93 16.8902Z" fill="#292D32"/>
<path d="M14.9999 22.75H8.99994C4.37994 22.75 3.51994 20.6 3.29994 18.51L2.54994 12.52C2.43994 11.44 2.39994 9.89 3.44994 8.73C4.34994 7.73 5.83994 7.25 7.99994 7.25H15.9999C18.1699 7.25 19.6599 7.74 20.5499 8.73C21.5899 9.89 21.5599 11.44 21.4499 12.5L20.6999 18.51C20.4799 20.6 19.6199 22.75 14.9999 22.75ZM7.99994 8.75C6.30994 8.75 5.14994 9.08 4.55994 9.74C4.06994 10.28 3.90994 11.11 4.03994 12.35L4.78994 18.34C4.95994 19.94 5.39994 21.26 8.99994 21.26H14.9999C18.5999 21.26 19.0399 19.95 19.2099 18.36L19.9599 12.35C20.0899 11.13 19.9299 10.3 19.4399 9.75C18.8499 9.08 17.6899 8.75 15.9999 8.75H7.99994Z" fill="#292D32"/>
<path d="M16.5 8.62981C16.09 8.62981 15.75 8.28981 15.75 7.87981V6.49981C15.75 5.44981 15.3 4.42981 14.52 3.71981C13.73 2.99981 12.7 2.66981 11.63 2.76981C9.83 2.93981 8.25 4.77981 8.25 6.69981V7.66981C8.25 8.07981 7.91 8.41981 7.5 8.41981C7.09 8.41981 6.75 8.07981 6.75 7.66981V6.68981C6.75 3.99981 8.92 1.51981 11.49 1.26981C12.99 1.12981 14.43 1.59981 15.53 2.60981C16.62 3.59981 17.25 5.01981 17.25 6.49981V7.87981C17.25 8.28981 16.91 8.62981 16.5 8.62981Z" fill="#292D32"/>
</svg>
