<svg width="24" height="24" viewBox="0 0 24 24" fill="none" xmlns="http://www.w3.org/2000/svg">
<path d="M8.34003 10.8299C8.02003 10.8299 7.70003 10.7099 7.46003 10.4599L5.73005 8.72988C5.24005 8.23988 5.24005 7.44988 5.73005 6.95988L10.88 1.80988C11.37 1.31988 12.16 1.31988 12.65 1.80988L14.38 3.53988C14.87 4.02988 14.87 4.81988 14.38 5.30988L9.23005 10.4599C8.98005 10.7099 8.66003 10.8299 8.34003 10.8299ZM6.96003 7.84988L8.34003 9.22988L13.13 4.43988L11.75 3.05988L6.96003 7.84988Z" fill="black"/>
<path d="M8.34003 18.64C8.02003 18.64 7.70003 18.52 7.46003 18.27L5.73005 16.54C5.24005 16.05 5.24005 15.26 5.73005 14.77L14.78 5.72004C15.27 5.23004 16.06 5.23004 16.55 5.72004L18.28 7.45004C18.77 7.94004 18.77 8.73004 18.28 9.22004L9.23005 18.27C8.98005 18.52 8.66003 18.64 8.34003 18.64ZM6.96003 15.66L8.34003 17.04L17.04 8.34004L15.66 6.96004L6.96003 15.66Z" fill="black"/>
<path d="M12.2399 22.5399C11.9199 22.5399 11.5999 22.4199 11.3599 22.1699L9.62995 20.4399C9.13995 19.9499 9.13995 19.1599 9.62995 18.6699L18.6799 9.61994C19.1699 9.12994 19.96 9.12994 20.45 9.61994L22.1799 11.3499C22.6699 11.8399 22.6699 12.6299 22.1799 13.1199L13.13 22.1699C12.88 22.4199 12.5599 22.5399 12.2399 22.5399ZM10.8699 19.5599L12.2499 20.9399L20.95 12.2399L19.57 10.8599L10.8699 19.5599Z" fill="black"/>
<path d="M4.43992 14.7402C4.11992 14.7402 3.79991 14.6202 3.55991 14.3802L1.8299 12.6502C1.3399 12.1602 1.3399 11.3702 1.8299 10.8802L3.55991 9.15021C4.04991 8.66021 4.8399 8.66021 5.3299 9.15021L7.05991 10.8802C7.54991 11.3702 7.54991 12.1602 7.05991 12.6502L5.3299 14.3802C5.0799 14.6202 4.75992 14.7402 4.43992 14.7402ZM3.05991 11.7602L4.43992 13.1402L5.81992 11.7602L4.43992 10.3802L3.05991 11.7602Z" fill="black"/>
</svg>
