<svg width="24" height="24" viewBox="0 0 24 24" fill="none" xmlns="http://www.w3.org/2000/svg">
<path d="M11.4001 2.35002L6.2501 7.50002C6.0501 7.70002 6.0501 8.01002 6.2501 8.21002L7.98011 9.94002C8.18011 10.14 8.4901 10.14 8.6901 9.94002L13.8401 4.79002C14.0401 4.59002 14.0401 4.28002 13.8401 4.08002L12.1101 2.35002C11.9101 2.16002 11.6001 2.16002 11.4001 2.35002Z" fill="black"/>
<path d="M15.3001 6.25986L6.2501 15.3099C6.0501 15.5099 6.0501 15.8199 6.2501 16.0199L7.98011 17.7499C8.18011 17.9499 8.4901 17.9499 8.6901 17.7499L17.7401 8.69986C17.9401 8.49986 17.9401 8.18986 17.7401 7.98986L16.0101 6.25986C15.8201 6.05986 15.5001 6.05986 15.3001 6.25986Z" fill="black"/>
<path d="M19.21 10.1598L10.16 19.2098C9.96001 19.4098 9.96001 19.7198 10.16 19.9198L11.89 21.6498C12.09 21.8498 12.4 21.8498 12.6 21.6498L21.65 12.5998C21.85 12.3998 21.85 12.0898 21.65 11.8898L19.92 10.1598C19.72 9.95977 19.4 9.95977 19.21 10.1598Z" fill="black"/>
<path d="M4.08997 13.84L2.35996 12.11C2.15996 11.91 2.15996 11.6 2.35996 11.4L4.08997 9.67002C4.28997 9.47002 4.59996 9.47002 4.79996 9.67002L6.52997 11.4C6.72997 11.6 6.72997 11.91 6.52997 12.11L4.79996 13.84C4.59996 14.04 4.27997 14.04 4.08997 13.84Z" fill="black"/>
</svg>
