<svg width="24" height="24" viewBox="0 0 24 24" fill="none" xmlns="http://www.w3.org/2000/svg">
<path d="M15.9999 10.7499C15.8099 10.7499 15.6199 10.6799 15.4699 10.5299L11.9999 7.05994L8.52994 10.5299C8.23994 10.8199 7.75994 10.8199 7.46994 10.5299L5.46994 8.52994C5.17994 8.23994 5.17994 7.75994 5.46994 7.46994L11.4699 1.46994C11.7599 1.17994 12.2399 1.17994 12.5299 1.46994L18.5299 7.46994C18.8199 7.75994 18.8199 8.23994 18.5299 8.52994L16.5299 10.5299C16.3799 10.6799 16.1899 10.7499 15.9999 10.7499ZM11.9999 5.24994C12.1899 5.24994 12.3799 5.31994 12.5299 5.46994L15.9999 8.93994L16.9399 7.99994L11.9999 3.05994L7.05994 7.99994L7.99994 8.93994L11.4699 5.46994C11.6199 5.31994 11.8099 5.24994 11.9999 5.24994Z" fill="black"/>
<path d="M11.9999 22.7499C11.8099 22.7499 11.6199 22.6799 11.4699 22.5299L5.46994 16.5299C5.17994 16.2399 5.17994 15.7599 5.46994 15.4699L7.46994 13.4699C7.75994 13.1799 8.23994 13.1799 8.52994 13.4699L11.9999 16.9399L15.4699 13.4699C15.7599 13.1799 16.2399 13.1799 16.5299 13.4699L18.5299 15.4699C18.8199 15.7599 18.8199 16.2399 18.5299 16.5299L12.5299 22.5299C12.3799 22.6799 12.1899 22.7499 11.9999 22.7499ZM7.05994 15.9999L11.9999 20.9399L16.9399 15.9999L15.9999 15.0599L12.5299 18.5299C12.2399 18.8199 11.7599 18.8199 11.4699 18.5299L7.99994 15.0599L7.05994 15.9999Z" fill="black"/>
<path d="M19.7499 14.9999C19.5599 14.9999 19.3699 14.9299 19.2199 14.7799L16.9699 12.5299C16.6799 12.2399 16.6799 11.7599 16.9699 11.4699L19.2199 9.21994C19.5099 8.92994 19.9899 8.92994 20.2799 9.21994L22.5299 11.4699C22.8199 11.7599 22.8199 12.2399 22.5299 12.5299L20.2799 14.7799C20.1299 14.9299 19.9399 14.9999 19.7499 14.9999ZM18.5599 11.9999L19.7499 13.1899L20.9399 11.9999L19.7499 10.8099L18.5599 11.9999Z" fill="black"/>
<path d="M4.24994 14.9999C4.05994 14.9999 3.86994 14.9299 3.71994 14.7799L1.46994 12.5299C1.17994 12.2399 1.17994 11.7599 1.46994 11.4699L3.71994 9.21994C4.00994 8.92994 4.48994 8.92994 4.77994 9.21994L7.02994 11.4699C7.31994 11.7599 7.31994 12.2399 7.02994 12.5299L4.77994 14.7799C4.62994 14.9299 4.43994 14.9999 4.24994 14.9999ZM3.05994 11.9999L4.24994 13.1899L5.43994 11.9999L4.24994 10.8099L3.05994 11.9999Z" fill="black"/>
<path d="M12 15.23C11.81 15.23 11.62 15.16 11.47 15.01L8.98996 12.53C8.69996 12.24 8.69996 11.76 8.98996 11.47L11.47 8.98996C11.76 8.69996 12.24 8.69996 12.53 8.98996L15.01 11.47C15.3 11.76 15.3 12.24 15.01 12.53L12.53 15.01C12.38 15.15 12.19 15.23 12 15.23ZM10.58 12L12 13.42L13.42 12L12 10.58L10.58 12Z" fill="black"/>
</svg>
