<svg width="24" height="24" viewBox="0 0 24 24" fill="none" xmlns="http://www.w3.org/2000/svg">
<path d="M12 22.75C6.07 22.75 1.25 17.93 1.25 12C1.25 6.07 6.07 1.25 12 1.25C17.93 1.25 22.75 6.07 22.75 12C22.75 17.93 17.93 22.75 12 22.75ZM12 2.75C6.9 2.75 2.75 6.9 2.75 12C2.75 17.1 6.9 21.25 12 21.25C17.1 21.25 21.25 17.1 21.25 12C21.25 6.9 17.1 2.75 12 2.75Z" fill="black"/>
<path d="M14.2 12.7499H8.78003C8.37003 12.7499 8.03003 12.4099 8.03003 11.9999V7.66992C8.03003 7.25992 8.37003 6.91992 8.78003 6.91992H14.2C15.75 6.91992 17.12 8.27992 17.12 9.83992C17.12 11.4399 15.81 12.7499 14.2 12.7499ZM9.53003 11.2499H14.2C14.98 11.2499 15.62 10.6099 15.62 9.82992C15.62 9.16992 15 8.40992 14.2 8.40992H9.53003V11.2499Z" fill="black"/>
<path d="M14.97 17.08H8.78003C8.37003 17.08 8.03003 16.74 8.03003 16.33V12C8.03003 11.59 8.37003 11.25 8.78003 11.25H14.97C16.75 11.25 18.2 12.56 18.2 14.17C18.2 15.78 16.75 17.08 14.97 17.08ZM9.53003 15.58H14.97C15.92 15.58 16.7 14.94 16.7 14.16C16.7 13.38 15.93 12.74 14.97 12.74H9.53003V15.58Z" fill="black"/>
<path d="M12.5701 19.2501C12.1601 19.2501 11.8201 18.9101 11.8201 18.5001V16.3301C11.8201 15.9201 12.1601 15.5801 12.5701 15.5801C12.9801 15.5801 13.3201 15.9201 13.3201 16.3301V18.5001C13.3201 18.9101 12.9901 19.2501 12.5701 19.2501Z" fill="black"/>
<path d="M9.87012 19.2501C9.46012 19.2501 9.12012 18.9101 9.12012 18.5001V16.3301C9.12012 15.9201 9.46012 15.5801 9.87012 15.5801C10.2801 15.5801 10.6201 15.9201 10.6201 16.3301V18.5001C10.6201 18.9101 10.2801 19.2501 9.87012 19.2501Z" fill="black"/>
<path d="M12.5701 8.42C12.1601 8.42 11.8201 8.08 11.8201 7.67V5.5C11.8201 5.09 12.1601 4.75 12.5701 4.75C12.9801 4.75 13.3201 5.09 13.3201 5.5V7.67C13.3201 8.08 12.9901 8.42 12.5701 8.42Z" fill="black"/>
<path d="M9.87012 8.42C9.46012 8.42 9.12012 8.08 9.12012 7.67V5.5C9.12012 5.09 9.46012 4.75 9.87012 4.75C10.2801 4.75 10.6201 5.09 10.6201 5.5V7.67C10.6201 8.08 10.2801 8.42 9.87012 8.42Z" fill="black"/>
<path d="M10.84 8.41992H7.05005C6.64005 8.41992 6.30005 8.07992 6.30005 7.66992C6.30005 7.25992 6.64005 6.91992 7.05005 6.91992H10.84C11.25 6.91992 11.59 7.25992 11.59 7.66992C11.59 8.07992 11.26 8.41992 10.84 8.41992Z" fill="black"/>
<path d="M10.84 17.0801H7.05005C6.64005 17.0801 6.30005 16.7401 6.30005 16.3301C6.30005 15.9201 6.64005 15.5801 7.05005 15.5801H10.84C11.25 15.5801 11.59 15.9201 11.59 16.3301C11.59 16.7401 11.26 17.0801 10.84 17.0801Z" fill="black"/>
</svg>
