<svg width="24" height="24" viewBox="0 0 24 24" fill="none" xmlns="http://www.w3.org/2000/svg">
<path d="M21.97 12C21.97 15.31 19.28 18 15.97 18C15.2255 18 14.5092 17.8643 13.8511 17.6141C13.5324 17.4929 13.473 17.0851 13.6948 16.8262C14.8368 15.4938 15.47 13.786 15.47 12C15.47 10.2082 14.8311 8.49432 13.6978 7.17467C13.4752 6.91543 13.5342 6.50621 13.8536 6.38494C14.5111 6.13537 15.2264 6 15.97 6C19.28 6 21.97 8.69 21.97 12Z" fill="#292D32"/>
<path d="M13.97 12C13.97 13.77 13.2 15.37 11.97 16.46C10.91 17.42 9.50997 18 7.96997 18C4.65997 18 1.96997 15.31 1.96997 12C1.96997 8.69 4.65997 6 7.96997 6C9.50997 6 10.91 6.58 11.97 7.54C13.2 8.63 13.97 10.23 13.97 12Z" fill="#292D32"/>
</svg>
