<svg width="24" height="24" viewBox="0 0 24 24" fill="none" xmlns="http://www.w3.org/2000/svg">
<path d="M22 4.84993V16.7399C22 17.7099 21.21 18.5999 20.24 18.7199L19.93 18.7599C18.29 18.9799 15.98 19.6599 14.12 20.4399C13.47 20.7099 12.75 20.2199 12.75 19.5099V5.59993C12.75 5.22993 12.96 4.88993 13.29 4.70993C15.12 3.71993 17.89 2.83993 19.77 2.67993H19.83C21.03 2.67993 22 3.64993 22 4.84993Z" fill="#292D32"/>
<path d="M10.71 4.70993C8.87999 3.71993 6.10999 2.83993 4.22999 2.67993H4.15999C2.95999 2.67993 1.98999 3.64993 1.98999 4.84993V16.7399C1.98999 17.7099 2.77999 18.5999 3.74999 18.7199L4.05999 18.7599C5.69999 18.9799 8.00999 19.6599 9.86999 20.4399C10.52 20.7099 11.24 20.2199 11.24 19.5099V5.59993C11.24 5.21993 11.04 4.88993 10.71 4.70993ZM4.99999 7.73993H7.24999C7.65999 7.73993 7.99999 8.07993 7.99999 8.48993C7.99999 8.90993 7.65999 9.23993 7.24999 9.23993H4.99999C4.58999 9.23993 4.24999 8.90993 4.24999 8.48993C4.24999 8.07993 4.58999 7.73993 4.99999 7.73993ZM7.99999 12.2399H4.99999C4.58999 12.2399 4.24999 11.9099 4.24999 11.4899C4.24999 11.0799 4.58999 10.7399 4.99999 10.7399H7.99999C8.40999 10.7399 8.74999 11.0799 8.74999 11.4899C8.74999 11.9099 8.40999 12.2399 7.99999 12.2399Z" fill="#292D32"/>
</svg>
