<svg width="24" height="24" viewBox="0 0 24 24" fill="none" xmlns="http://www.w3.org/2000/svg">
<path d="M5.33 19.42C5.22 19.42 5.1 19.39 5 19.34L2.78 18.23C2.53 18.1 2.37 17.84 2.37 17.56V14.78C2.37 14.37 2.71 14.03 3.12 14.03C3.53 14.03 3.87 14.37 3.87 14.78V17.09L5.67 18C6.04 18.18 6.19 18.63 6 19C5.87 19.26 5.61 19.42 5.33 19.42Z" fill="#292D32"/>
<path d="M12 22.75C11.94 22.75 11.88 22.74 11.83 22.73C11.77 22.72 11.71 22.69 11.65 22.66L9.44002 21.56C9.07002 21.37 8.92002 20.92 9.10002 20.55C9.29002 20.18 9.74002 20.03 10.11 20.21L11.25 20.78V19.22C11.25 18.81 11.59 18.47 12 18.47C12.41 18.47 12.75 18.81 12.75 19.22V20.78L13.89 20.21C14.26 20.03 14.71 20.18 14.9 20.55C15.09 20.92 14.94 21.37 14.56 21.56L12.35 22.66C12.29 22.69 12.23 22.71 12.17 22.73C12.11 22.74 12.06 22.75 12 22.75Z" fill="#292D32"/>
<path d="M18.67 19.42C18.4 19.42 18.13 19.27 18 19.01C17.81 18.64 17.96 18.19 18.34 18L20.15 17.1V14.79C20.15 14.38 20.49 14.04 20.9 14.04C21.31 14.04 21.65 14.38 21.65 14.79V17.57C21.65 17.85 21.49 18.11 21.24 18.24L19 19.34C18.89 19.39 18.78 19.42 18.67 19.42Z" fill="#292D32"/>
<path d="M12 14.42C11.59 14.42 11.25 14.08 11.25 13.67V11.36L9.44002 10.46C9.07002 10.27 8.92002 9.82004 9.10002 9.45005C9.29002 9.08005 9.74002 8.93004 10.11 9.11004L12 10.05L13.89 9.11004C14.26 8.93004 14.71 9.07005 14.9 9.45005C15.09 9.82004 14.94 10.27 14.56 10.46L12.75 11.36V13.67C12.75 14.08 12.41 14.42 12 14.42Z" fill="#292D32"/>
<path d="M3.10999 9.97002C2.69999 9.97002 2.35999 9.63002 2.35999 9.22002V6.46002V6.45002C2.35999 6.39002 2.36999 6.33002 2.37999 6.28002C2.39999 6.19002 2.42999 6.12002 2.46999 6.05002C2.49999 6.00002 2.53999 5.96002 2.57999 5.92002C2.61999 5.88002 2.66999 5.84002 2.71999 5.81002C2.73999 5.80002 2.76999 5.78002 2.78999 5.77002L4.99999 4.66002C5.36999 4.48002 5.81999 4.63002 5.99999 5.00002C6.18999 5.37002 6.03999 5.82002 5.66999 6.00002L4.78999 6.44002L5.66999 6.88002C6.03999 7.07002 6.18999 7.52002 5.99999 7.89002C5.81999 8.26002 5.36999 8.41002 4.99999 8.23002L3.85999 7.66002V9.22002C3.85999 9.64002 3.52999 9.97002 3.10999 9.97002Z" fill="#292D32"/>
<path d="M14.22 3.86006C14.11 3.86006 13.99 3.83006 13.89 3.78006L12 2.84006L10.11 3.78006C9.73999 3.97006 9.28999 3.82006 9.10999 3.45006C8.91999 3.08006 9.06999 2.63006 9.43999 2.44006L11.66 1.33006C11.87 1.22006 12.12 1.22006 12.33 1.33006L14.55 2.44006C14.92 2.63006 15.07 3.08006 14.89 3.45006C14.76 3.71006 14.5 3.86006 14.22 3.86006Z" fill="#292D32"/>
<path d="M20.89 9.97002C20.48 9.97002 20.14 9.63002 20.14 9.22002V7.66002L19 8.23002C18.63 8.41002 18.18 8.26002 18 7.89002C17.81 7.52002 17.96 7.07002 18.34 6.88002L19.22 6.44002L18.33 6.00002C17.96 5.82002 17.81 5.37002 18 5.00002C18.19 4.63002 18.63 4.48002 19 4.66002L21.21 5.76002C21.23 5.77002 21.26 5.78002 21.28 5.80002C21.34 5.83002 21.39 5.88002 21.44 5.93002C21.47 5.97002 21.5 6.01002 21.53 6.05002C21.57 6.12002 21.6 6.19002 21.62 6.27002C21.63 6.33002 21.64 6.39002 21.64 6.44002V6.45002V9.21002C21.64 9.64002 21.3 9.97002 20.89 9.97002Z" fill="#292D32"/>
</svg>
