<svg width="24" height="24" viewBox="0 0 24 24" fill="none" xmlns="http://www.w3.org/2000/svg">
<path d="M17.6 5.31003L11.95 2.27003C11.35 1.95003 10.64 1.95003 10.04 2.27003L4.39998 5.31003C3.98998 5.54003 3.72998 5.98003 3.72998 6.46003C3.72998 6.95003 3.97998 7.39003 4.39998 7.61003L10.05 10.65C10.35 10.81 10.68 10.89 11 10.89C11.32 10.89 11.66 10.81 11.95 10.65L17.6 7.61003C18.01 7.39003 18.27 6.95003 18.27 6.46003C18.27 5.98003 18.01 5.54003 17.6 5.31003Z" fill="#292D32"/>
<path d="M9.12 11.7101L3.87 9.09009C3.46 8.88009 3 8.91009 2.61 9.14009C2.23 9.38009 2 9.79009 2 10.2401V15.2001C2 16.0601 2.48 16.8301 3.25 17.2201L8.5 19.8401C8.68 19.9301 8.88 19.9801 9.08 19.9801C9.31 19.9801 9.55 19.9101 9.76 19.7901C10.14 19.5501 10.37 19.1401 10.37 18.6901V13.7301C10.36 12.8701 9.88 12.1001 9.12 11.7101Z" fill="#292D32"/>
<path d="M19.9999 10.2401V12.7001C19.5199 12.5601 19.0099 12.5001 18.4999 12.5001C17.1399 12.5001 15.8099 12.9701 14.7599 13.8101C13.3199 14.9401 12.4999 16.6501 12.4999 18.5001C12.4999 18.9901 12.5599 19.4801 12.6899 19.9501C12.5399 19.9301 12.3899 19.8701 12.2499 19.7801C11.8699 19.5501 11.6399 19.1401 11.6399 18.6901V13.7301C11.6399 12.8701 12.1199 12.1001 12.8799 11.7101L18.1299 9.09009C18.5399 8.88009 18.9999 8.91009 19.3899 9.14009C19.7699 9.38009 19.9999 9.79009 19.9999 10.2401Z" fill="#292D32"/>
<path d="M21.6799 15.3199C20.7899 14.4299 19.6099 13.9799 18.4399 13.9999C17.3099 14.0099 16.1799 14.4599 15.3199 15.3199C14.7199 15.9099 14.3299 16.6499 14.1399 17.4199C14.0299 17.8399 13.9899 18.2699 14.0199 18.6999V18.7499C14.0199 18.8199 14.0299 18.8799 14.0399 18.9599C14.0399 18.9599 14.0399 18.9599 14.0499 18.9699V18.9999C14.1399 19.9799 14.5599 20.9299 15.3199 21.6799C16.4799 22.8399 18.1099 23.2299 19.5799 22.8599C20.0199 22.7499 20.4499 22.5699 20.8499 22.3299C21.1499 22.1599 21.4299 21.9399 21.6799 21.6799C22.4299 20.9299 22.8599 19.9799 22.9499 18.9899C22.9599 18.9899 22.9599 18.9699 22.9599 18.9599C22.9799 18.8899 22.9799 18.8099 22.9799 18.7399C22.9799 18.7299 22.9899 18.7099 22.9899 18.6899C23.0499 17.4799 22.6099 16.2399 21.6799 15.3199ZM20.2299 20.2099C19.9399 20.4999 19.4699 20.4999 19.1699 20.2099L18.5099 19.5499L17.8299 20.2299C17.5299 20.5299 17.0599 20.5299 16.7699 20.2299C16.4699 19.9399 16.4699 19.4699 16.7699 19.1699L17.4499 18.4899L16.7899 17.8299C16.4999 17.5299 16.4999 17.0599 16.7899 16.7699C17.0899 16.4699 17.5599 16.4699 17.8599 16.7699L18.5099 17.4299L19.1399 16.7899C19.4399 16.4999 19.9099 16.4999 20.2099 16.7899C20.4999 17.0899 20.4999 17.5599 20.2099 17.8599L19.5699 18.4899L20.2299 19.1399C20.5299 19.4399 20.5299 19.9099 20.2299 20.2099Z" fill="#292D32"/>
</svg>
