<svg width="24" height="24" viewBox="0 0 24 24" fill="none" xmlns="http://www.w3.org/2000/svg">
<path d="M17.6 5.31003L11.95 2.27003C11.35 1.95003 10.64 1.95003 10.04 2.27003L4.39998 5.31003C3.98998 5.54003 3.72998 5.98003 3.72998 6.46003C3.72998 6.95003 3.97998 7.39003 4.39998 7.61003L10.05 10.65C10.35 10.81 10.68 10.89 11 10.89C11.32 10.89 11.66 10.81 11.95 10.65L17.6 7.61003C18.01 7.39003 18.27 6.95003 18.27 6.46003C18.27 5.98003 18.01 5.54003 17.6 5.31003Z" fill="#292D32"/>
<path d="M9.12 11.7101L3.87 9.09009C3.46 8.88009 3 8.91009 2.61 9.14009C2.23 9.38009 2 9.79009 2 10.2401V15.2001C2 16.0601 2.48 16.8301 3.25 17.2201L8.5 19.8401C8.68 19.9301 8.88 19.9801 9.08 19.9801C9.31 19.9801 9.55 19.9101 9.76 19.7901C10.14 19.5501 10.37 19.1401 10.37 18.6901V13.7301C10.36 12.8701 9.88 12.1001 9.12 11.7101Z" fill="#292D32"/>
<path d="M19.9999 10.2401V12.7001C19.5199 12.5601 19.0099 12.5001 18.4999 12.5001C17.1399 12.5001 15.8099 12.9701 14.7599 13.8101C13.3199 14.9401 12.4999 16.6501 12.4999 18.5001C12.4999 18.9901 12.5599 19.4801 12.6899 19.9501C12.5399 19.9301 12.3899 19.8701 12.2499 19.7801C11.8699 19.5501 11.6399 19.1401 11.6399 18.6901V13.7301C11.6399 12.8701 12.1199 12.1001 12.8799 11.7101L18.1299 9.09009C18.5399 8.88009 18.9999 8.91009 19.3899 9.14009C19.7699 9.38009 19.9999 9.79009 19.9999 10.2401Z" fill="#292D32"/>
<path d="M22.58 21.4999L21.74 20.6599C22.18 19.9999 22.44 19.1999 22.44 18.3499C22.44 16.0199 20.55 14.1299 18.22 14.1299C15.89 14.1299 14 16.0199 14 18.3499C14 20.6799 15.89 22.5699 18.22 22.5699C19.07 22.5699 19.87 22.3099 20.53 21.8699L21.37 22.7099C21.54 22.8799 21.75 22.9599 21.97 22.9599C22.19 22.9599 22.41 22.8799 22.57 22.7099C22.91 22.3699 22.91 21.8299 22.58 21.4999Z" fill="#292D32"/>
</svg>
