<svg width="24" height="24" viewBox="0 0 24 24" fill="none" xmlns="http://www.w3.org/2000/svg">
<path d="M8.81999 4.90003L7.53999 2.78003C7.05999 2.00003 6.10999 1.56003 5.21999 1.82003C3.87999 2.22003 3.35999 3.73003 4.02999 4.84003L5.34999 7.01003C5.49999 7.24003 5.80999 7.32003 6.03999 7.18003L8.64999 5.59003C8.88999 5.44003 8.96999 5.13003 8.81999 4.90003Z" fill="#292D32"/>
<path d="M19.74 14.2101L16.93 10.4101C15.95 9.09008 14.25 8.47008 12.65 8.90008C12.65 8.89008 12.64 8.89008 12.64 8.88008L10.98 6.15008C10.68 5.68008 10.06 5.53008 9.59 5.82008L6.12 7.93008C5.64 8.21008 5.49 8.84008 5.78 9.32008L7.43 12.0501C7.43 12.0501 7.43 12.0601 7.44 12.0601C6.33 13.2901 6.09 15.0801 6.83 16.5701L8.91 20.8101C9.55 22.1201 11.06 22.6201 12.34 21.9601C12.44 21.9101 12.47 21.7901 12.41 21.6901L10.85 19.1101C10.63 18.7501 10.74 18.2901 11.1 18.0601C11.46 17.8501 11.92 17.9601 12.15 18.3101L13.72 20.8901C13.78 20.9801 13.9 21.0101 13.99 20.9601L14.95 20.3801C15.04 20.3201 15.07 20.2001 15.02 20.1101L13.45 17.5301C13.24 17.1701 13.35 16.7101 13.7 16.4801C14.07 16.2701 14.53 16.3801 14.75 16.7301L16.32 19.3101C16.38 19.4001 16.5 19.4301 16.59 19.3801L17.55 18.8001C17.64 18.7401 17.67 18.6201 17.62 18.5301L16.05 15.9501C15.84 15.5901 15.95 15.1301 16.3 14.9001C16.67 14.6901 17.13 14.8001 17.35 15.1501L18.93 17.7201C18.99 17.8101 19.11 17.8401 19.2 17.7801C20.36 16.9501 20.62 15.3901 19.74 14.2101Z" fill="#292D32"/>
</svg>
