<svg width="24" height="24" viewBox="0 0 24 24" fill="none" xmlns="http://www.w3.org/2000/svg">
<path d="M14.97 22.75H8.96997C3.53997 22.75 1.21997 20.43 1.21997 15V9C1.21997 3.57 3.53997 1.25 8.96997 1.25H10.97C11.38 1.25 11.72 1.59 11.72 2C11.72 2.41 11.38 2.75 10.97 2.75H8.96997C4.35997 2.75 2.71997 4.39 2.71997 9V15C2.71997 19.61 4.35997 21.25 8.96997 21.25H14.97C19.58 21.25 21.22 19.61 21.22 15V13C21.22 12.59 21.56 12.25 21.97 12.25C22.38 12.25 22.72 12.59 22.72 13V15C22.72 20.43 20.41 22.75 14.97 22.75Z" fill="#292D32"/>
<path d="M12.78 15.2399C12.63 15.2399 12.49 15.1999 12.36 15.1099C12.15 14.9699 12.03 14.7399 12.03 14.4899C12.03 14.3799 12.02 14.2599 12 14.1399C11.93 13.6099 11.69 13.1399 11.29 12.7299C10.88 12.3199 10.38 12.0599 9.82996 11.9899C9.74996 11.9799 9.61996 11.9699 9.49996 11.9799C9.24996 11.9999 8.99996 11.8899 8.84996 11.6899C8.69996 11.4899 8.65996 11.2199 8.73996 10.9799C8.85996 10.6399 9.04996 10.3199 9.26996 10.0699L10.5 8.52989C12.64 5.85989 16.95 2.65989 20.13 1.38989C20.86 1.10989 21.63 1.26989 22.16 1.79989C22.71 2.34989 22.87 3.12989 22.58 3.83989C21.31 7.00989 18.11 11.3299 15.45 13.4599L13.88 14.7199C13.57 14.9399 13.32 15.0899 13.06 15.1899C12.97 15.2199 12.87 15.2399 12.78 15.2399ZM10.72 10.6699C11.33 10.8699 11.88 11.2099 12.35 11.6699C12.81 12.1299 13.14 12.6599 13.33 13.2299L14.51 12.2799C17 10.2799 20 6.23989 21.19 3.26989C21.27 3.07989 21.18 2.93989 21.1 2.84989C21.05 2.79989 20.91 2.68989 20.68 2.77989C17.72 3.96989 13.68 6.96989 11.68 9.45989L10.72 10.6699Z" fill="#292D32"/>
<path d="M7.69999 18.7502C7.05999 18.7502 6.44999 18.5002 5.98999 18.0402C5.45999 17.5102 5.19999 16.7802 5.28999 16.0302L5.49999 14.0702C5.71999 12.0402 7.36999 10.5402 9.43999 10.5002C9.59999 10.4902 9.79999 10.5002 9.98999 10.5102C10.9 10.6302 11.71 11.0302 12.35 11.6802C12.99 12.3202 13.38 13.0802 13.49 13.9402C13.52 14.1302 13.53 14.3202 13.53 14.5002C13.53 15.5902 13.11 16.6202 12.34 17.3902C11.71 18.0202 10.89 18.4102 9.95999 18.5302L7.97999 18.7402C7.87999 18.7502 7.78999 18.7502 7.69999 18.7502ZM9.59999 11.9902C9.56999 11.9902 9.52999 11.9902 9.49999 11.9902C8.34999 12.0202 7.13999 12.7902 6.98999 14.2302L6.77999 16.2002C6.74999 16.4902 6.84999 16.7802 7.04999 16.9802C7.24999 17.1802 7.52999 17.2802 7.80999 17.2502L9.77999 17.0402C10.36 16.9702 10.88 16.7202 11.27 16.3302C11.75 15.8402 12.02 15.2002 12.02 14.5002C12.02 14.3902 12.01 14.2702 11.99 14.1502C11.92 13.6202 11.68 13.1502 11.28 12.7402C10.87 12.3302 10.37 12.0702 9.81999 12.0002C9.76999 11.9902 9.68999 11.9902 9.59999 11.9902Z" fill="#292D32"/>
<path d="M15.82 12.7299C15.41 12.7299 15.07 12.3899 15.07 11.9799C15.07 10.3099 13.71 8.93994 12.03 8.93994C11.62 8.93994 11.28 8.59994 11.28 8.18994C11.28 7.77994 11.62 7.43994 12.03 7.43994C14.53 7.43994 16.57 9.46994 16.57 11.9799C16.57 12.3899 16.24 12.7299 15.82 12.7299Z" fill="#292D32"/>
</svg>
