<svg width="24" height="24" viewBox="0 0 24 24" fill="none" xmlns="http://www.w3.org/2000/svg">
<path d="M16.65 4.79H16.37C16.27 4 15.98 3.37 15.52 2.9C14.92 2.3 14.05 2 12.93 2H7.34999C5.09999 2 3.85999 3.24 3.85999 5.49C3.85999 6.61 4.15999 7.48 4.75999 8.08C5.35999 8.68 6.22999 8.98 7.34999 8.98H12.93C14.93 8.98 16.13 7.99 16.37 6.19H16.65C18.74 6.19 18.74 6.47 18.74 8.28V10.14C18.74 11.95 18.74 12.23 16.65 12.23H12.93C9.93999 12.23 9.50999 13.65 9.44999 15.03C8.54999 15.09 7.57999 15.51 7.57999 17.11V19.9C7.57999 21.63 8.71999 21.99 9.66999 21.99H10.6C11.55 21.99 12.69 21.63 12.69 19.9V17.11C12.69 15.53 11.74 15.09 10.84 15.03C10.89 14.02 11.18 13.62 12.92 13.62H16.64C19.89 13.62 20.13 12.3 20.13 10.13V8.28C20.14 6.11 19.9 4.79 16.65 4.79Z" fill="#292D32"/>
</svg>
