<svg width="24" height="24" viewBox="0 0 24 24" fill="none" xmlns="http://www.w3.org/2000/svg">
<path d="M21.81 3.94009C20.5 7.21009 17.51 11.4801 14.66 14.2701C14.25 11.6901 12.19 9.67009 9.58997 9.31009C12.39 6.45009 16.69 3.42009 19.97 2.10009C20.55 1.88009 21.13 2.05009 21.49 2.41009C21.87 2.79009 22.05 3.36009 21.81 3.94009Z" fill="#292D32"/>
<path d="M13.78 15.09C13.58 15.26 13.38 15.43 13.18 15.59L11.39 17.02C11.39 16.99 11.38 16.95 11.38 16.91C11.24 15.84 10.74 14.85 9.93 14.04C9.11 13.22 8.09 12.72 6.97 12.58C6.94 12.58 6.9 12.57 6.87 12.57L8.31999 10.74C8.45999 10.56 8.61 10.39 8.77 10.21L9.45 10.3C11.6 10.6 13.33 12.29 13.67 14.43L13.78 15.09Z" fill="#292D32"/>
<path d="M10.43 17.6198C10.43 18.7198 10.01 19.7698 9.21001 20.5598C8.60001 21.1798 7.78001 21.5998 6.78001 21.7198L4.33001 21.9898C2.99001 22.1398 1.84001 20.9898 1.99001 19.6398L2.26001 17.1798C2.50001 14.9898 4.33001 13.5898 6.27001 13.5498C6.46001 13.5398 6.67001 13.5498 6.87001 13.5698C7.72001 13.6798 8.54001 14.0698 9.23001 14.7498C9.90001 15.4198 10.28 16.2098 10.39 17.0398C10.41 17.2398 10.43 17.4298 10.43 17.6198Z" fill="#292D32"/>
</svg>
