<svg width="24" height="24" viewBox="0 0 24 24" fill="none" xmlns="http://www.w3.org/2000/svg">
<path d="M12.5 22.7502H4.07997C2.50997 22.7502 1.21997 21.4902 1.21997 19.9302V5.09019C1.21997 3.56019 1.78997 2.37019 2.82997 1.72019C3.87997 1.06019 5.23997 1.08019 6.64997 1.78019L11.09 3.96019C12.3 4.56019 13.25 6.07019 13.25 7.41019V22.0002C13.25 22.4102 12.91 22.7502 12.5 22.7502ZM4.55997 2.75019C4.20997 2.75019 3.88997 2.83019 3.61997 3.00019C3.03997 3.36019 2.71997 4.11019 2.71997 5.09019V19.9302C2.71997 20.6602 3.32997 21.2502 4.07997 21.2502H11.75V7.41019C11.75 6.64019 11.13 5.65019 10.42 5.31019L5.97997 3.13019C5.46997 2.88019 4.98997 2.75019 4.55997 2.75019Z" fill="#292D32"/>
<path d="M18.81 22.7498H12.5C12.09 22.7498 11.75 22.4098 11.75 21.9998V10.4198C11.75 10.1898 11.85 9.97978 12.03 9.83978C12.21 9.69978 12.43 9.63978 12.66 9.68978L13.13 9.78978L19.67 11.2498C21.66 11.6898 22.66 12.8598 22.72 14.8498C22.73 14.8498 22.73 14.9498 22.73 15.0598V18.8398C22.72 21.3998 21.37 22.7498 18.81 22.7498ZM13.25 21.2498H18.81C20.57 21.2498 21.22 20.5998 21.22 18.8398V14.9798C21.17 13.6098 20.65 12.9998 19.34 12.7098L13.25 11.3498V21.2498Z" fill="#292D32"/>
<path d="M8.97 9.75H5.5C5.09 9.75 4.75 9.41 4.75 9C4.75 8.59 5.09 8.25 5.5 8.25H8.97C9.38 8.25 9.72 8.59 9.72 9C9.72 9.41 9.39 9.75 8.97 9.75Z" fill="#292D32"/>
<path d="M8.97 13.75H5.5C5.09 13.75 4.75 13.41 4.75 13C4.75 12.59 5.09 12.25 5.5 12.25H8.97C9.38 12.25 9.72 12.59 9.72 13C9.72 13.41 9.39 13.75 8.97 13.75Z" fill="#292D32"/>
<path d="M15.22 17.75C13.57 17.75 12.22 16.4 12.22 14.75V10.52C12.22 10.29 12.32 10.08 12.5 9.92998C12.68 9.77998 12.91 9.72998 13.13 9.77998L17.63 10.79C17.97 10.87 18.22 11.17 18.22 11.52V14.74C18.22 16.4 16.88 17.75 15.22 17.75ZM13.72 11.46V14.75C13.72 15.58 14.39 16.25 15.22 16.25C16.05 16.25 16.72 15.58 16.72 14.75V12.13L13.72 11.46Z" fill="#292D32"/>
<path d="M19.72 17.7501C18.07 17.7501 16.72 16.4001 16.72 14.7501V11.5301C16.72 11.3001 16.82 11.0901 17 10.9501C17.18 10.8101 17.41 10.7501 17.63 10.8001L19.66 11.2501C21.65 11.6901 22.65 12.8601 22.71 14.8501C22.71 14.8701 22.71 14.8901 22.71 14.9101C22.63 16.5001 21.32 17.7501 19.72 17.7501ZM18.22 12.4601V14.7501C18.22 15.5801 18.89 16.2501 19.72 16.2501C20.51 16.2501 21.16 15.6401 21.21 14.8601C21.16 13.6001 20.64 13.0001 19.34 12.7101L18.22 12.4601Z" fill="#292D32"/>
</svg>
