<svg width="24" height="24" viewBox="0 0 24 24" fill="none" xmlns="http://www.w3.org/2000/svg">
<path d="M11.32 3H5.08998C3.09998 3 2.09998 4.01 2.09998 6.02V22H7.49998V18.25C7.49998 17.84 7.83998 17.5 8.24998 17.5C8.65998 17.5 8.99998 17.83 8.99998 18.25V22H14.3V6.02C14.3 4.01 13.31 3 11.32 3ZM10.75 12.75H5.79998C5.38998 12.75 5.04998 12.41 5.04998 12C5.04998 11.59 5.38998 11.25 5.79998 11.25H10.75C11.16 11.25 11.5 11.59 11.5 12C11.5 12.41 11.16 12.75 10.75 12.75ZM10.75 9H5.79998C5.38998 9 5.04998 8.66 5.04998 8.25C5.04998 7.84 5.38998 7.5 5.79998 7.5H10.75C11.16 7.5 11.5 7.84 11.5 8.25C11.5 8.66 11.16 9 10.75 9Z" fill="#292D32"/>
<path d="M23 21.2501H20.73V18.2501C21.68 17.9401 22.37 17.0501 22.37 16.0001V14.0001C22.37 12.6901 21.3 11.6201 19.99 11.6201C18.68 11.6201 17.61 12.6901 17.61 14.0001V16.0001C17.61 17.0401 18.29 17.9201 19.22 18.2401V21.2501H1C0.59 21.2501 0.25 21.5901 0.25 22.0001C0.25 22.4101 0.59 22.7501 1 22.7501H19.93C19.95 22.7501 19.96 22.7601 19.98 22.7601C20 22.7601 20.01 22.7501 20.03 22.7501H23C23.41 22.7501 23.75 22.4101 23.75 22.0001C23.75 21.5901 23.41 21.2501 23 21.2501Z" fill="#292D32"/>
</svg>
