<svg width="24" height="24" viewBox="0 0 24 24" fill="none" xmlns="http://www.w3.org/2000/svg">
<path d="M22 22.75H2C1.59 22.75 1.25 22.41 1.25 22C1.25 21.59 1.59 21.25 2 21.25H22C22.41 21.25 22.75 21.59 22.75 22C22.75 22.41 22.41 22.75 22 22.75Z" fill="#292D32"/>
<path d="M20.89 22.75C20.48 22.75 20.14 22.41 20.14 22V13C20.14 11.76 18.98 10.75 17.56 10.75H6.43999C5.01999 10.75 3.85999 11.76 3.85999 13V22C3.85999 22.41 3.51999 22.75 3.10999 22.75C2.69999 22.75 2.35999 22.41 2.35999 22V13C2.35999 10.93 4.18999 9.25 6.43999 9.25H17.55C19.8 9.25 21.63 10.93 21.63 13V22C21.64 22.41 21.3 22.75 20.89 22.75Z" fill="#292D32"/>
<path d="M18.44 10.75C18.03 10.75 17.69 10.41 17.69 10V7.17C17.69 6.39 16.94 5.75 16.03 5.75H7.98C7.06 5.75 6.32 6.39 6.32 7.17V10C6.32 10.41 5.98 10.75 5.57 10.75C5.16 10.75 4.81 10.41 4.81 10V7.17C4.81 5.56 6.23 4.25 7.97 4.25H16.02C17.76 4.25 19.18 5.56 19.18 7.17V10C19.19 10.41 18.85 10.75 18.44 10.75Z" fill="#292D32"/>
<path d="M17.33 17.7502C16.17 17.7502 15.23 16.8102 15.23 15.6502V15.3402C15.23 15.0102 14.96 14.7402 14.63 14.7402C14.3 14.7402 14.03 15.0102 14.03 15.3402V15.6502C14.03 16.8102 13.09 17.7502 11.93 17.7502C10.77 17.7502 9.83001 16.8102 9.83001 15.6502V15.3402C9.83001 15.0102 9.56001 14.7402 9.23001 14.7402C8.90001 14.7402 8.63001 15.0102 8.63001 15.3402V15.6502C8.63001 16.8102 7.69001 17.7502 6.53001 17.7502C5.37001 17.7502 4.43001 16.8102 4.43001 15.6502V15.3202C4.43001 15.0002 4.17001 14.7302 3.84001 14.7202H3.47001C3.06001 14.7102 2.72001 14.3702 2.73001 13.9602C2.74001 13.5502 3.07001 13.2202 3.48001 13.2202H3.49001H3.86001C5.00001 13.2402 5.93001 14.1802 5.93001 15.3202V15.6502C5.93001 15.9802 6.20001 16.2502 6.53001 16.2502C6.86001 16.2502 7.13001 15.9802 7.13001 15.6502V15.3402C7.13001 14.1802 8.07001 13.2402 9.23001 13.2402C10.39 13.2402 11.33 14.1802 11.33 15.3402V15.6502C11.33 15.9802 11.6 16.2502 11.93 16.2502C12.26 16.2502 12.53 15.9802 12.53 15.6502V15.3402C12.53 14.1802 13.47 13.2402 14.63 13.2402C15.79 13.2402 16.73 14.1802 16.73 15.3402V15.6502C16.73 15.9802 17 16.2502 17.33 16.2502C17.66 16.2502 17.93 15.9802 17.93 15.6502V15.3402C17.93 14.1802 18.87 13.2402 20.03 13.2402H20.48C20.89 13.2402 21.23 13.5802 21.23 13.9902C21.23 14.4002 20.89 14.7402 20.48 14.7402H20.03C19.7 14.7402 19.43 15.0102 19.43 15.3402V15.6502C19.43 16.8102 18.49 17.7502 17.33 17.7502Z" fill="#292D32"/>
<path d="M8 5.75C7.59 5.75 7.25 5.41 7.25 5V3C7.25 2.59 7.59 2.25 8 2.25C8.41 2.25 8.75 2.59 8.75 3V5C8.75 5.41 8.41 5.75 8 5.75Z" fill="#292D32"/>
<path d="M16 5.75C15.59 5.75 15.25 5.41 15.25 5V3C15.25 2.59 15.59 2.25 16 2.25C16.41 2.25 16.75 2.59 16.75 3V5C16.75 5.41 16.41 5.75 16 5.75Z" fill="#292D32"/>
<path d="M12 5.75C11.59 5.75 11.25 5.41 11.25 5V2C11.25 1.59 11.59 1.25 12 1.25C12.41 1.25 12.75 1.59 12.75 2V5C12.75 5.41 12.41 5.75 12 5.75Z" fill="#292D32"/>
</svg>
