<svg width="24" height="24" viewBox="0 0 24 24" fill="none" xmlns="http://www.w3.org/2000/svg">
<path d="M16.75 3.56V2C16.75 1.59 16.41 1.25 16 1.25C15.59 1.25 15.25 1.59 15.25 2V3.5H8.74999V2C8.74999 1.59 8.40999 1.25 7.99999 1.25C7.58999 1.25 7.24999 1.59 7.24999 2V3.56C4.54999 3.81 3.23999 5.42 3.03999 7.81C3.01999 8.1 3.25999 8.34 3.53999 8.34H20.46C20.75 8.34 20.99 8.09 20.96 7.81C20.76 5.42 19.45 3.81 16.75 3.56Z" fill="#292D32"/>
<path d="M20 9.84009H4C3.45 9.84009 3 10.2901 3 10.8401V17.0001C3 20.0001 4.5 22.0001 8 22.0001H12.93C13.62 22.0001 14.1 21.3301 13.88 20.6801C13.68 20.1001 13.51 19.4601 13.51 19.0001C13.51 15.9701 15.98 13.5001 19.01 13.5001C19.3 13.5001 19.59 13.5201 19.87 13.5701C20.47 13.6601 21.01 13.1901 21.01 12.5901V10.8501C21 10.2901 20.55 9.84009 20 9.84009ZM9.21 17.7101C9.02 17.8901 8.76 18.0001 8.5 18.0001C8.37 18.0001 8.24 17.9701 8.12 17.9201C8 17.8701 7.89 17.8001 7.79 17.7101C7.61 17.5201 7.5 17.2701 7.5 17.0001C7.5 16.8701 7.53 16.7401 7.58 16.6201C7.63 16.4901 7.7 16.3901 7.79 16.2901C7.89 16.2001 8 16.1301 8.12 16.0801C8.48 15.9201 8.93 16.0101 9.21 16.2901C9.3 16.3901 9.37 16.4901 9.42 16.6201C9.47 16.7401 9.5 16.8701 9.5 17.0001C9.5 17.2701 9.39 17.5201 9.21 17.7101ZM9.21 14.2101C9.02 14.3901 8.76 14.5001 8.5 14.5001C8.37 14.5001 8.24 14.4801 8.12 14.4201C8 14.3701 7.89 14.3001 7.79 14.2101C7.61 14.0201 7.5 13.7601 7.5 13.5001C7.5 13.3701 7.53 13.2401 7.58 13.1201C7.63 13.0001 7.7 12.8901 7.79 12.7901C7.89 12.7001 8 12.6301 8.12 12.5801C8.48 12.4301 8.93 12.5101 9.21 12.7901C9.3 12.8901 9.37 13.0001 9.42 13.1201C9.47 13.2401 9.5 13.3701 9.5 13.5001C9.5 13.7601 9.39 14.0201 9.21 14.2101ZM12.92 13.8801C12.87 14.0001 12.8 14.1101 12.71 14.2101C12.61 14.3001 12.5 14.3701 12.38 14.4201C12.26 14.4801 12.13 14.5001 12 14.5001C11.74 14.5001 11.48 14.3901 11.29 14.2101C11.2 14.1101 11.13 14.0001 11.08 13.8801C11.03 13.7601 11 13.6301 11 13.5001C11 13.2401 11.11 12.9801 11.29 12.7901C11.57 12.5101 12.01 12.4201 12.38 12.5801C12.5 12.6301 12.61 12.7001 12.71 12.7901C12.89 12.9801 13 13.2401 13 13.5001C13 13.6301 12.98 13.7601 12.92 13.8801Z" fill="#292D32"/>
<path d="M19 15C16.79 15 15 16.79 15 19C15 21.21 16.79 23 19 23C21.21 23 23 21.21 23 19C23 16.79 21.21 15 19 15ZM20.6 20.64C20.45 20.79 20.26 20.86 20.07 20.86C19.88 20.86 19.69 20.79 19.54 20.64L19.01 20.11L18.46 20.66C18.31 20.81 18.12 20.88 17.93 20.88C17.74 20.88 17.55 20.81 17.4 20.66C17.11 20.37 17.11 19.89 17.4 19.6L17.95 19.05L17.42 18.52C17.13 18.23 17.13 17.75 17.42 17.46C17.71 17.17 18.19 17.17 18.48 17.46L19.01 18L19.51 17.5C19.8 17.21 20.28 17.21 20.57 17.5C20.86 17.79 20.86 18.27 20.57 18.56L20.07 19.06L20.6 19.59C20.89 19.88 20.89 20.35 20.6 20.64Z" fill="#292D32"/>
</svg>
