<svg width="24" height="24" viewBox="0 0 24 24" fill="none" xmlns="http://www.w3.org/2000/svg">
<path d="M16.75 3.56V2C16.75 1.59 16.41 1.25 16 1.25C15.59 1.25 15.25 1.59 15.25 2V3.5H8.75V2C8.75 1.59 8.41 1.25 8 1.25C7.59 1.25 7.25 1.59 7.25 2V3.56C4.55 3.81 3.24 5.42 3.04 7.81C3.02 8.1 3.26 8.34 3.54 8.34H20.46C20.75 8.34 20.99 8.09 20.96 7.81C20.76 5.42 19.45 3.81 16.75 3.56Z" fill="#292D32"/>
<path d="M20 9.84009H4C3.45 9.84009 3 10.2901 3 10.8401V17.0001C3 20.0001 4.5 22.0001 8 22.0001H16C19.5 22.0001 21 20.0001 21 17.0001V10.8401C21 10.2901 20.55 9.84009 20 9.84009ZM14.84 14.9901L14.34 15.5001H14.33L11.3 18.5301C11.17 18.6601 10.9 18.8001 10.71 18.8201L9.36 19.0201C8.87 19.0901 8.53 18.7401 8.6 18.2601L8.79 16.9001C8.82 16.7101 8.95 16.4501 9.08 16.3101L12.12 13.2801L12.62 12.7701C12.95 12.4401 13.32 12.2001 13.72 12.2001C14.06 12.2001 14.43 12.3601 14.84 12.7701C15.74 13.6701 15.45 14.3801 14.84 14.9901Z" fill="#292D32"/>
</svg>
