<svg width="24" height="24" viewBox="0 0 24 24" fill="none" xmlns="http://www.w3.org/2000/svg">
<path d="M16.75 3.56V2C16.75 1.59 16.41 1.25 16 1.25C15.59 1.25 15.25 1.59 15.25 2V3.5H8.74999V2C8.74999 1.59 8.40999 1.25 7.99999 1.25C7.58999 1.25 7.24999 1.59 7.24999 2V3.56C4.54999 3.81 3.23999 5.42 3.03999 7.81C3.01999 8.1 3.25999 8.34 3.53999 8.34H20.46C20.75 8.34 20.99 8.09 20.96 7.81C20.76 5.42 19.45 3.81 16.75 3.56Z" fill="#292D32"/>
<path d="M20 9.84009H4C3.45 9.84009 3 10.2901 3 10.8401V17.0001C3 20.0001 4.5 22.0001 8 22.0001H12.93C13.62 22.0001 14.1 21.3301 13.88 20.6801C13.68 20.1001 13.51 19.4601 13.51 19.0001C13.51 15.9701 15.98 13.5001 19.01 13.5001C19.3 13.5001 19.59 13.5201 19.87 13.5701C20.47 13.6601 21.01 13.1901 21.01 12.5901V10.8501C21 10.2901 20.55 9.84009 20 9.84009ZM9.21 17.7101C9.11 17.8001 9 17.8701 8.88 17.9201C8.76 17.9701 8.63 18.0001 8.5 18.0001C8.37 18.0001 8.24 17.9701 8.12 17.9201C8 17.8701 7.89 17.8001 7.79 17.7101C7.61 17.5201 7.5 17.2601 7.5 17.0001C7.5 16.9401 7.51 16.8701 7.52 16.8101C7.53 16.7401 7.55 16.6801 7.58 16.6201C7.6 16.5601 7.63 16.5001 7.67 16.4401C7.7 16.3901 7.75 16.3401 7.79 16.2901C7.89 16.2001 8 16.1301 8.12 16.0801C8.36 15.9801 8.64 15.9801 8.88 16.0801C9 16.1301 9.11 16.2001 9.21 16.2901C9.25 16.3401 9.3 16.3901 9.33 16.4401C9.37 16.5001 9.4 16.5601 9.42 16.6201C9.45 16.6801 9.47 16.7401 9.48 16.8101C9.49 16.8701 9.5 16.9401 9.5 17.0001C9.5 17.2601 9.39 17.5201 9.21 17.7101ZM9.21 14.2101C9.11 14.3001 9 14.3701 8.88 14.4201C8.76 14.4701 8.63 14.5001 8.5 14.5001C8.37 14.5001 8.24 14.4701 8.12 14.4201C7.99 14.3701 7.89 14.3001 7.79 14.2101C7.61 14.0201 7.5 13.7601 7.5 13.5001C7.5 13.2401 7.61 12.9801 7.79 12.7901C7.89 12.7001 8 12.6301 8.12 12.5801C8.36 12.4801 8.64 12.4801 8.88 12.5801C9 12.6301 9.11 12.7001 9.21 12.7901C9.25 12.8401 9.3 12.8901 9.33 12.9401C9.37 13.0001 9.4 13.0601 9.42 13.1201C9.45 13.1801 9.47 13.2401 9.48 13.3001C9.49 13.3701 9.5 13.4401 9.5 13.5001C9.5 13.7601 9.39 14.0201 9.21 14.2101ZM12.71 14.2101C12.52 14.3901 12.27 14.5001 12 14.5001C11.87 14.5001 11.74 14.4701 11.62 14.4201C11.49 14.3701 11.39 14.3001 11.29 14.2101C11.11 14.0201 11 13.7601 11 13.5001C11 13.4401 11.01 13.3701 11.02 13.3001C11.03 13.2401 11.05 13.1801 11.08 13.1201C11.1 13.0601 11.13 13.0001 11.17 12.9401C11.21 12.8901 11.25 12.8401 11.29 12.7901C11.66 12.4201 12.33 12.4201 12.71 12.7901C12.75 12.8401 12.79 12.8901 12.83 12.9401C12.87 13.0001 12.9 13.0601 12.92 13.1201C12.95 13.1801 12.97 13.2401 12.98 13.3001C12.99 13.3701 13 13.4401 13 13.5001C13 13.7601 12.89 14.0201 12.71 14.2101Z" fill="#292D32"/>
<path d="M21.83 16.17C20.27 14.61 17.73 14.61 16.17 16.17C14.61 17.73 14.61 20.27 16.17 21.83C17.73 23.39 20.27 23.39 21.83 21.83C23.39 20.27 23.39 17.73 21.83 16.17ZM21.07 19.56C20.94 19.7 20.75 19.78 20.54 19.78H19.8V20.56C19.8 20.77 19.72 20.95 19.58 21.09C19.44 21.23 19.26 21.31 19.05 21.31C18.64 21.31 18.3 20.97 18.3 20.56V19.78H17.55C17.14 19.78 16.8 19.45 16.8 19.03C16.8 18.62 17.14 18.28 17.55 18.28H18.3V17.57C18.3 17.16 18.63 16.82 19.05 16.82C19.46 16.82 19.8 17.16 19.8 17.57V18.28H20.54C20.96 18.28 21.29 18.62 21.29 19.03C21.29 19.24 21.21 19.43 21.07 19.56Z" fill="#292D32"/>
</svg>
