<svg width="24" height="24" viewBox="0 0 24 24" fill="none" xmlns="http://www.w3.org/2000/svg">
<path d="M16.75 3.56V2C16.75 1.59 16.41 1.25 16 1.25C15.59 1.25 15.25 1.59 15.25 2V3.5H8.74999V2C8.74999 1.59 8.40999 1.25 7.99999 1.25C7.58999 1.25 7.24999 1.59 7.24999 2V3.56C4.54999 3.81 3.23999 5.42 3.03999 7.81C3.01999 8.1 3.25999 8.34 3.53999 8.34H20.46C20.75 8.34 20.99 8.09 20.96 7.81C20.76 5.42 19.45 3.81 16.75 3.56Z" fill="#292D32"/>
<path d="M20 9.84009H4C3.45 9.84009 3 10.2901 3 10.8401V17.0001C3 20.0001 4.5 22.0001 8 22.0001H16C19.5 22.0001 21 20.0001 21 17.0001V10.8401C21 10.2901 20.55 9.84009 20 9.84009ZM15.66 19.5301C15.51 19.6801 15.32 19.7501 15.13 19.7501C14.94 19.7501 14.75 19.6801 14.6 19.5301L13.86 18.7901C13.28 19.1701 12.58 19.4001 11.83 19.4001C9.79 19.4001 8.13 17.7401 8.13 15.7001C8.13 13.6601 9.79 12.0001 11.83 12.0001C13.87 12.0001 15.53 13.6601 15.53 15.7001C15.53 16.4501 15.3 17.1501 14.92 17.7301L15.66 18.4701C15.95 18.7601 15.95 19.2401 15.66 19.5301Z" fill="#292D32"/>
</svg>
