<svg width="24" height="24" viewBox="0 0 24 24" fill="none" xmlns="http://www.w3.org/2000/svg">
<path d="M17.45 22.7502C16.32 22.7502 15.13 22.4802 13.9 21.9602C12.7 21.4502 11.49 20.7502 10.31 19.9002L9.86999 19.5702C9.53999 19.3202 9.47999 18.8502 9.72999 18.5202C9.97999 18.1902 10.45 18.1302 10.78 18.3802L11.2 18.6902C12.28 19.4802 13.39 20.1202 14.49 20.5802C16.2 21.3102 17.8 21.4802 19.12 20.9302C19.63 20.7202 20.08 20.4002 20.49 19.9402C20.72 19.6902 20.9 19.4202 21.05 19.1002C21.17 18.8502 21.23 18.5902 21.23 18.3302C21.23 18.1702 21.2 18.0102 21.12 17.8302C21.1 17.7802 21.03 17.6602 20.84 17.5302L17.52 15.1702C17.32 15.0302 17.14 14.9302 16.97 14.8602C16.71 14.7602 16.54 14.7502 16.32 14.8902C16.12 14.9902 15.94 15.1402 15.74 15.3402L14.98 16.0902C14.59 16.4702 13.99 16.5602 13.53 16.3902C13.51 16.3802 13.41 16.3402 13.39 16.3302C13.38 16.3202 13.27 16.2802 13.26 16.2702C13.04 16.1602 12.8 16.0002 12.52 15.8002C12.19 15.5602 12.11 15.0902 12.35 14.7502C12.59 14.4102 13.06 14.3402 13.4 14.5802C13.61 14.7302 13.8 14.8502 13.96 14.9402L13.95 15.0002L14.68 14.2702C14.99 13.9602 15.29 13.7302 15.58 13.5802C16.13 13.2402 16.83 13.1802 17.53 13.4702C17.79 13.5802 18.07 13.7302 18.37 13.9402L21.69 16.3002C22.05 16.5502 22.33 16.8702 22.49 17.2502C22.64 17.6302 22.71 17.9802 22.71 18.3302C22.71 18.8102 22.6 19.2902 22.39 19.7402C22.18 20.1902 21.92 20.5802 21.59 20.9402C21.02 21.5702 20.4 22.0202 19.68 22.3102C18.99 22.6002 18.24 22.7502 17.45 22.7502ZM13.95 15.0102L13.79 15.6902L14.06 14.9902C14.02 14.9802 13.97 14.9902 13.95 15.0102Z" fill="#292D32"/>
<path d="M7.47 17.24C7.28 17.24 7.08 17.17 6.94 17.02C5.89 15.96 4.92 14.83 4.08 13.66C3.22 12.46 2.53 11.27 2.04 10.1C1.51 8.87 1.25 7.67 1.25 6.54C1.25 5.76 1.39 5.02 1.66 4.33C1.95 3.61 2.39 2.96 3 2.39C3.77 1.64 4.65 1.25 5.59 1.25C5.98 1.25 6.38 1.34 6.72 1.5C7.11 1.68 7.44 1.95 7.68 2.31L10 5.58C10.21 5.87 10.37 6.15 10.48 6.43C10.61 6.73 10.68 7.03 10.68 7.32C10.68 7.7 10.57 8.07 10.36 8.42C10.21 8.69 9.98 8.98 9.69 9.27L9.01 9.98C9.02 10.01 9.03 10.03 9.04 10.05C9.16 10.26 9.4 10.62 9.86 11.16C10.34 11.72 10.81 12.22 11.27 12.7C11.56 13 11.56 13.47 11.26 13.76C10.96 14.05 10.49 14.05 10.2 13.75C9.71 13.25 9.23 12.72 8.72 12.13C8.25 11.58 7.91 11.11 7.7 10.72C7.68 10.68 7.66 10.64 7.65 10.6L7.58 10.43C7.52 10.21 7.5 10.08 7.5 9.94C7.5 9.58 7.63 9.26 7.88 9.01L8.63 8.23C8.83 8.03 8.98 7.84 9.08 7.67C9.16 7.54 9.19 7.43 9.19 7.33C9.19 7.25 9.16 7.13 9.11 7.01C9.03 6.82 8.92 6.65 8.78 6.45L6.46 3.17C6.36 3.03 6.24 2.93 6.09 2.86C5.94 2.79 5.77 2.75 5.59 2.75C5.04 2.75 4.53 2.99 4.04 3.47C3.59 3.9 3.26 4.37 3.06 4.88C2.85 5.4 2.75 5.95 2.75 6.54C2.75 7.47 2.97 8.48 3.41 9.52C3.86 10.58 4.49 11.68 5.29 12.78C6.09 13.88 7 14.95 8 15.96C8.29 16.25 8.29 16.73 8 17.02C7.85 17.17 7.66 17.24 7.47 17.24Z" fill="#292D32"/>
<path d="M1.99994 22.7499C1.80994 22.7499 1.61994 22.6799 1.46994 22.5299C1.17994 22.2399 1.17994 21.7599 1.46994 21.4699L21.4699 1.46994C21.7599 1.17994 22.2399 1.17994 22.5299 1.46994C22.8199 1.75994 22.8199 2.23994 22.5299 2.52994L2.52994 22.5299C2.37994 22.6799 2.18994 22.7499 1.99994 22.7499Z" fill="#292D32"/>
</svg>
