<svg width="24" height="24" viewBox="0 0 24 24" fill="none" xmlns="http://www.w3.org/2000/svg">
<path d="M21.7699 2.22988C21.4699 1.92988 20.9799 1.92988 20.6799 2.22988L2.22988 20.6899C1.92988 20.9899 1.92988 21.4799 2.22988 21.7799C2.37988 21.9199 2.56988 21.9999 2.76988 21.9999C2.96988 21.9999 3.15988 21.9199 3.30988 21.7699L21.7699 3.30988C22.0799 3.00988 22.0799 2.52988 21.7699 2.22988Z" fill="#292D32"/>
<path d="M16.5499 5.11L15.8299 3.66C15.3699 2.75 14.1699 2 13.1499 2H10.8599C9.82992 2 8.62992 2.75 8.16992 3.66L7.44992 5.11C7.16992 5.65 6.60992 6 5.99992 6C3.82992 6 2.10992 7.83 2.24992 9.99L2.76992 18.25C2.81992 19.1 3.02992 19.89 3.47992 20.52L17.9999 6C17.3899 6 16.8299 5.65 16.5499 5.11ZM9.49992 10.75H6.49992C6.08992 10.75 5.74992 10.41 5.74992 10C5.74992 9.59 6.08992 9.25 6.49992 9.25H9.49992C9.90992 9.25 10.2499 9.59 10.2499 10C10.2499 10.41 9.90992 10.75 9.49992 10.75Z" fill="#292D32"/>
<path d="M21.75 9.98981L21.23 18.2498C21.1 20.3098 20 21.9998 17.24 21.9998H7.41002C6.52002 21.9998 6.07002 20.9198 6.70002 20.2898L9.17002 17.8198C9.48002 17.5098 9.96002 17.4698 10.35 17.6898C11.04 18.0798 11.87 18.2298 12.75 18.0398C14.02 17.7698 15.05 16.7298 15.3 15.4498C15.47 14.5898 15.32 13.7798 14.94 13.1098C14.72 12.7198 14.75 12.2298 15.07 11.9198L19.57 7.41981C19.98 7.00981 20.67 7.05981 21.02 7.52981C21.54 8.20981 21.81 9.06981 21.75 9.98981Z" fill="#292D32"/>
</svg>
