<svg width="24" height="24" viewBox="0 0 24 24" fill="none" xmlns="http://www.w3.org/2000/svg">
<path d="M9 10.75H6C5.59 10.75 5.25 10.41 5.25 10C5.25 9.59 5.59 9.25 6 9.25H9C9.41 9.25 9.75 9.59 9.75 10C9.75 10.41 9.41 10.75 9 10.75Z" fill="#292D32"/>
<path d="M17.24 22.75H6.76001C6.35001 22.75 6.01001 22.41 6.01001 22C6.01001 21.59 6.35001 21.25 6.76001 21.25H17.24C19.26 21.25 20.35 20.22 20.48 18.2L21 9.94004C21.05 9.23004 20.84 8.53004 20.41 7.96004C20.16 7.63004 20.23 7.16004 20.56 6.91004C20.89 6.66004 21.36 6.73004 21.61 7.06004C22.25 7.92004 22.57 8.97004 22.5 10.04L21.98 18.3C21.8 21.13 20.07 22.75 17.24 22.75Z" fill="#292D32"/>
<path d="M3.43993 21.21C3.19993 21.21 2.95993 21.09 2.80993 20.87C2.34993 20.17 2.07993 19.3 2.01993 18.29L1.49993 10.04C1.41993 8.79 1.84993 7.59 2.70993 6.68C3.55993 5.77 4.75993 5.25 5.99993 5.25C6.31993 5.25 6.62993 5.06 6.77993 4.76L7.49993 3.33C8.08993 2.16 9.56993 1.25 10.8599 1.25H13.1499C14.4399 1.25 15.9099 2.16 16.4999 3.32L17.2199 4.78C17.3699 5.06 17.6699 5.25 17.9999 5.25C18.4099 5.25 18.7499 5.59 18.7499 6C18.7499 6.41 18.4099 6.75 17.9999 6.75C17.1099 6.75 16.2999 6.25 15.8799 5.46L15.1499 4C14.8199 3.34 13.8799 2.76 13.1399 2.76H10.8499C10.1099 2.76 9.16993 3.34 8.82993 4.01L8.11993 5.44C7.69993 6.25 6.88993 6.75 5.99993 6.75C5.15993 6.75 4.37993 7.09 3.79993 7.7C3.22993 8.31 2.93993 9.11 2.99993 9.94L3.51993 18.2C3.55993 18.93 3.74993 19.57 4.06993 20.04C4.29993 20.39 4.19993 20.85 3.85993 21.08C3.72993 21.17 3.57993 21.21 3.43993 21.21Z" fill="#292D32"/>
<path d="M11.9999 18.7501C11.1099 18.7501 10.2399 18.4501 9.53993 17.9001C9.20993 17.6401 9.15992 17.1701 9.40992 16.8501C9.66992 16.5201 10.1399 16.4701 10.4599 16.7201C10.8999 17.0601 11.4399 17.2501 11.9999 17.2501C13.3799 17.2501 14.4999 16.1301 14.4999 14.7501C14.4999 14.2701 14.3699 13.8101 14.1199 13.4201C13.8999 13.0701 13.9999 12.6101 14.3499 12.3801C14.6999 12.1601 15.1599 12.2601 15.3899 12.6101C15.7899 13.2401 16.0099 13.9801 16.0099 14.7401C15.9999 16.9601 14.2099 18.7501 11.9999 18.7501Z" fill="#292D32"/>
<path d="M1.99994 22.7499C1.80994 22.7499 1.61994 22.6799 1.46994 22.5299C1.17994 22.2399 1.17994 21.7599 1.46994 21.4699L21.4699 1.46994C21.7599 1.17994 22.2399 1.17994 22.5299 1.46994C22.8199 1.75994 22.8199 2.23994 22.5299 2.52994L2.52994 22.5299C2.37994 22.6799 2.18994 22.7499 1.99994 22.7499Z" fill="#292D32"/>
</svg>
