<svg width="24" height="24" viewBox="0 0 24 24" fill="none" xmlns="http://www.w3.org/2000/svg">
<path d="M20.0001 11.7501H4.0001C3.7701 11.7501 3.5601 11.6501 3.4201 11.4701C3.2801 11.3001 3.2201 11.0601 3.2701 10.8401L4.4001 5.44008C4.7701 3.69008 5.5201 2.08008 8.4901 2.08008H15.5201C18.4901 2.08008 19.2401 3.70008 19.6101 5.44008L20.7401 10.8501C20.7901 11.0701 20.7301 11.3001 20.5901 11.4801C20.4401 11.6501 20.2301 11.7501 20.0001 11.7501ZM4.9201 10.2501H19.0701L18.1301 5.75008C17.8501 4.44008 17.5201 3.58008 15.5101 3.58008H8.4901C6.4801 3.58008 6.1501 4.44008 5.8701 5.75008L4.9201 10.2501Z" fill="#292D32"/>
<path d="M19.9601 22.75H18.0801C16.4601 22.75 16.1501 21.82 15.9501 21.21L15.7501 20.61C15.4901 19.85 15.4601 19.75 14.5601 19.75H9.44009C8.54009 19.75 8.48009 19.92 8.25009 20.61L8.05009 21.21C7.84009 21.83 7.54009 22.75 5.92009 22.75H4.04009C3.25009 22.75 2.49009 22.42 1.96009 21.84C1.44009 21.27 1.19009 20.51 1.26009 19.75L1.82009 13.66C1.97009 12.01 2.41009 10.25 5.62009 10.25H18.3801C21.5901 10.25 22.0201 12.01 22.1801 13.66L22.7401 19.75C22.8101 20.51 22.5601 21.27 22.0401 21.84C21.5101 22.42 20.7501 22.75 19.9601 22.75ZM9.44009 18.25H14.5601C16.3801 18.25 16.8101 19.06 17.1701 20.12L17.3801 20.74C17.5501 21.25 17.5501 21.26 18.0901 21.26H19.9701C20.3401 21.26 20.6901 21.11 20.9401 20.84C21.1801 20.58 21.2901 20.25 21.2601 19.9L20.7001 13.81C20.5701 12.46 20.4101 11.76 18.4001 11.76H5.62009C3.60009 11.76 3.44009 12.46 3.32009 13.81L2.76009 19.9C2.73009 20.25 2.84009 20.58 3.08009 20.84C3.32009 21.11 3.68009 21.26 4.05009 21.26H5.93009C6.47009 21.26 6.47009 21.25 6.64009 20.75L6.84009 20.14C7.09009 19.34 7.46009 18.25 9.44009 18.25Z" fill="#292D32"/>
<path d="M4 8.75H3C2.59 8.75 2.25 8.41 2.25 8C2.25 7.59 2.59 7.25 3 7.25H4C4.41 7.25 4.75 7.59 4.75 8C4.75 8.41 4.41 8.75 4 8.75Z" fill="#292D32"/>
<path d="M21 8.75H20C19.59 8.75 19.25 8.41 19.25 8C19.25 7.59 19.59 7.25 20 7.25H21C21.41 7.25 21.75 7.59 21.75 8C21.75 8.41 21.41 8.75 21 8.75Z" fill="#292D32"/>
<path d="M12 5.75C11.59 5.75 11.25 5.41 11.25 5V3C11.25 2.59 11.59 2.25 12 2.25C12.41 2.25 12.75 2.59 12.75 3V5C12.75 5.41 12.41 5.75 12 5.75Z" fill="#292D32"/>
<path d="M13.5 5.75H10.5C10.09 5.75 9.75 5.41 9.75 5C9.75 4.59 10.09 4.25 10.5 4.25H13.5C13.91 4.25 14.25 4.59 14.25 5C14.25 5.41 13.91 5.75 13.5 5.75Z" fill="#292D32"/>
<path d="M9 15.75H6C5.59 15.75 5.25 15.41 5.25 15C5.25 14.59 5.59 14.25 6 14.25H9C9.41 14.25 9.75 14.59 9.75 15C9.75 15.41 9.41 15.75 9 15.75Z" fill="#292D32"/>
<path d="M18 15.75H15C14.59 15.75 14.25 15.41 14.25 15C14.25 14.59 14.59 14.25 15 14.25H18C18.41 14.25 18.75 14.59 18.75 15C18.75 15.41 18.41 15.75 18 15.75Z" fill="#292D32"/>
</svg>
