<svg width="24" height="24" viewBox="0 0 24 24" fill="none" xmlns="http://www.w3.org/2000/svg">
<path d="M19.27 3.6499L14.17 8.7499H3.2C2.54 8.7499 2 8.2099 2 7.5499V7.5399C2 5.2499 3.85 3.3999 6.14 3.3999H17.85C18.35 3.3999 18.83 3.4899 19.27 3.6499Z" fill="#292D32"/>
<path d="M12.67 10.25L7.17 15.75H6C5.59 15.75 5.25 16.09 5.25 16.5C5.25 16.81 5.45 17.09 5.73 17.19L3.38 19.54C2.53 18.79 2 17.69 2 16.46V11.45C2 10.79 2.54 10.25 3.2 10.25H12.67Z" fill="#292D32"/>
<path d="M22.0002 11V16.46C22.0002 18.75 20.1502 20.6 17.8602 20.6H8.81016C7.92016 20.6 7.47016 19.52 8.10016 18.89L9.45016 17.54C9.64016 17.35 9.89016 17.25 10.1602 17.25H14.5002C14.9102 17.25 15.2502 16.91 15.2502 16.5C15.2502 16.09 14.9102 15.75 14.5002 15.75H13.6602C12.7702 15.75 12.3202 14.67 12.9502 14.04L16.4102 10.58C16.7902 10.21 17.3002 10 17.8302 10H21.0002C21.5502 10 22.0002 10.45 22.0002 11Z" fill="#292D32"/>
<path d="M21.7699 2.22988C21.4699 1.92988 20.9799 1.92988 20.6799 2.22988L2.22988 20.6899C1.92988 20.9899 1.92988 21.4799 2.22988 21.7799C2.37988 21.9199 2.56988 21.9999 2.76988 21.9999C2.96988 21.9999 3.15988 21.9199 3.30988 21.7699L21.7699 3.30988C22.0799 3.00988 22.0799 2.52988 21.7699 2.22988Z" fill="#292D32"/>
<path d="M21.7701 3.31006L20.6101 4.47006L16.3301 8.75006L3.31006 21.7701C3.16006 21.9201 2.97006 22.0001 2.77006 22.0001C2.57006 22.0001 2.38006 21.9201 2.23006 21.7701C1.92006 21.4701 1.92006 20.9901 2.23006 20.6901L3.38006 19.5401L5.73006 17.1901L19.2701 3.65006L20.6901 2.23006C20.9901 1.92006 21.4701 1.92006 21.7701 2.23006C22.0801 2.53006 22.0801 3.01006 21.7701 3.31006Z" fill="#292D32"/>
<path d="M22.0001 7.40977C22.0001 6.51977 20.9201 6.06977 20.2901 6.69977L20.0001 6.99977L19.7101 7.28977C19.0801 7.91977 19.5201 8.99977 20.4101 8.99977H21.0001C21.5501 8.99977 22.0001 8.54977 22.0001 7.99977V7.40977Z" fill="#292D32"/>
</svg>
