<svg width="24" height="24" viewBox="0 0 24 24" fill="none" xmlns="http://www.w3.org/2000/svg">
<path d="M17.1499 10C17.7022 10 18.1499 9.55228 18.1499 9C18.1499 8.44772 17.7022 8 17.1499 8C16.5976 8 16.1499 8.44772 16.1499 9C16.1499 9.55228 16.5976 10 17.1499 10Z" fill="black"/>
<path d="M17.1499 16C17.7022 16 18.1499 15.5523 18.1499 15C18.1499 14.4477 17.7022 14 17.1499 14C16.5976 14 16.1499 14.4477 16.1499 15C16.1499 15.5523 16.5976 16 17.1499 16Z" fill="black"/>
<path d="M19.75 13C20.3023 13 20.75 12.5523 20.75 12C20.75 11.4477 20.3023 11 19.75 11C19.1977 11 18.75 11.4477 18.75 12C18.75 12.5523 19.1977 13 19.75 13Z" fill="black"/>
<path d="M6.7998 10C7.35209 10 7.7998 9.55228 7.7998 9C7.7998 8.44772 7.35209 8 6.7998 8C6.24752 8 5.7998 8.44772 5.7998 9C5.7998 9.55228 6.24752 10 6.7998 10Z" fill="black"/>
<path d="M6.7998 16C7.35209 16 7.7998 15.5523 7.7998 15C7.7998 14.4477 7.35209 14 6.7998 14C6.24752 14 5.7998 14.4477 5.7998 15C5.7998 15.5523 6.24752 16 6.7998 16Z" fill="black"/>
<path d="M4.19995 13C4.75224 13 5.19995 12.5523 5.19995 12C5.19995 11.4477 4.75224 11 4.19995 11C3.64767 11 3.19995 11.4477 3.19995 12C3.19995 12.5523 3.64767 13 4.19995 13Z" fill="black"/>
<path d="M15.8999 6.2002C16.4522 6.2002 16.8999 5.75248 16.8999 5.2002C16.8999 4.64791 16.4522 4.2002 15.8999 4.2002C15.3476 4.2002 14.8999 4.64791 14.8999 5.2002C14.8999 5.75248 15.3476 6.2002 15.8999 6.2002Z" fill="black"/>
<path d="M8.09985 6.2002C8.65214 6.2002 9.09985 5.75248 9.09985 5.2002C9.09985 4.64791 8.65214 4.2002 8.09985 4.2002C7.54757 4.2002 7.09985 4.64791 7.09985 5.2002C7.09985 5.75248 7.54757 6.2002 8.09985 6.2002Z" fill="black"/>
<path d="M12.0498 7C12.6021 7 13.0498 6.55228 13.0498 6C13.0498 5.44772 12.6021 5 12.0498 5C11.4975 5 11.0498 5.44772 11.0498 6C11.0498 6.55228 11.4975 7 12.0498 7Z" fill="black"/>
<path d="M15.8999 20C16.4522 20 16.8999 19.5523 16.8999 19C16.8999 18.4477 16.4522 18 15.8999 18C15.3476 18 14.8999 18.4477 14.8999 19C14.8999 19.5523 15.3476 20 15.8999 20Z" fill="black"/>
<path d="M8.09985 20C8.65214 20 9.09985 19.5523 9.09985 19C9.09985 18.4477 8.65214 18 8.09985 18C7.54757 18 7.09985 18.4477 7.09985 19C7.09985 19.5523 7.54757 20 8.09985 20Z" fill="black"/>
<path d="M12.0498 19.2002C12.6021 19.2002 13.0498 18.7525 13.0498 18.2002C13.0498 17.6479 12.6021 17.2002 12.0498 17.2002C11.4975 17.2002 11.0498 17.6479 11.0498 18.2002C11.0498 18.7525 11.4975 19.2002 12.0498 19.2002Z" fill="black"/>
<path d="M13.75 10.25C14.4404 10.25 15 9.69036 15 9C15 8.30964 14.4404 7.75 13.75 7.75C13.0596 7.75 12.5 8.30964 12.5 9C12.5 9.69036 13.0596 10.25 13.75 10.25Z" fill="black"/>
<path d="M10.25 10.25C10.9404 10.25 11.5 9.69036 11.5 9C11.5 8.30964 10.9404 7.75 10.25 7.75C9.55964 7.75 9 8.30964 9 9C9 9.69036 9.55964 10.25 10.25 10.25Z" fill="black"/>
<path d="M15.5 13.25C16.1904 13.25 16.75 12.6904 16.75 12C16.75 11.3096 16.1904 10.75 15.5 10.75C14.8096 10.75 14.25 11.3096 14.25 12C14.25 12.6904 14.8096 13.25 15.5 13.25Z" fill="black"/>
<path d="M8.5 13.25C9.19036 13.25 9.75 12.6904 9.75 12C9.75 11.3096 9.19036 10.75 8.5 10.75C7.80964 10.75 7.25 11.3096 7.25 12C7.25 12.6904 7.80964 13.25 8.5 13.25Z" fill="black"/>
<path d="M10.25 16.25C10.9404 16.25 11.5 15.6904 11.5 15C11.5 14.3096 10.9404 13.75 10.25 13.75C9.55964 13.75 9 14.3096 9 15C9 15.6904 9.55964 16.25 10.25 16.25Z" fill="black"/>
<path d="M13.75 16.25C14.4404 16.25 15 15.6904 15 15C15 14.3096 14.4404 13.75 13.75 13.75C13.0596 13.75 12.5 14.3096 12.5 15C12.5 15.6904 13.0596 16.25 13.75 16.25Z" fill="black"/>
<path d="M12.0001 3.32982C11.5101 3.32982 11.1201 2.93982 11.1201 2.44982C11.1201 1.95982 11.5101 1.56982 12.0001 1.56982C12.4901 1.56982 12.8801 1.95982 12.8801 2.44982C12.8801 2.93982 12.4901 3.32982 12.0001 3.32982Z" fill="black"/>
<path d="M17.25 3.6001C16.83 3.6001 16.49 3.2601 16.49 2.8501C16.49 2.4401 16.83 2.1001 17.24 2.1001C17.65 2.1001 18 2.4401 18 2.8501C18 3.2601 17.67 3.6001 17.25 3.6001Z" fill="black"/>
<path d="M6.75 3.6001C6.34 3.6001 6 3.2601 6 2.8501C6 2.4401 6.33 2.1001 6.75 2.1001H6.76001C7.17001 2.1001 7.51001 2.4401 7.51001 2.8501C7.51001 3.2601 7.17 3.6001 6.75 3.6001Z" fill="black"/>
<path d="M12.0001 22.3801C11.5101 22.3801 11.1201 21.9901 11.1201 21.5001C11.1201 21.0101 11.5101 20.6201 12.0001 20.6201C12.4901 20.6201 12.8801 21.0101 12.8801 21.5001C12.8801 21.9901 12.4901 22.3801 12.0001 22.3801Z" fill="black"/>
<path d="M17.25 21.8501C16.83 21.8501 16.49 21.5101 16.49 21.1001C16.49 20.6901 16.83 20.3501 17.24 20.3501C17.65 20.3501 18 20.6901 18 21.1001C18 21.5101 17.67 21.8501 17.25 21.8501Z" fill="black"/>
<path d="M6.75 21.8501C6.34 21.8501 6 21.5101 6 21.1001C6 20.6901 6.33 20.3501 6.75 20.3501H6.76001C7.17001 20.3501 7.51001 20.6901 7.51001 21.1001C7.51001 21.5101 7.17 21.8501 6.75 21.8501Z" fill="black"/>
<path d="M1.5499 12.8801C1.0699 12.8801 0.669922 12.4901 0.669922 12.0101V12.0001C0.669922 11.5201 1.0599 11.1201 1.5499 11.1201C2.0399 11.1201 2.4299 11.5101 2.4299 12.0001C2.4299 12.4901 2.0299 12.8801 1.5499 12.8801Z" fill="black"/>
<path d="M3.75 17.7502C3.34 17.7502 3 17.4202 3 17.0002V16.9902C3 16.5802 3.34 16.2402 3.75 16.2402C4.16 16.2402 4.5 16.5802 4.5 16.9902C4.5 17.4002 4.16 17.7502 3.75 17.7502Z" fill="black"/>
<path d="M3.75 7.75977C3.34 7.75977 3 7.41977 3 7.00977C3 6.59977 3.34 6.25977 3.75 6.25977C4.16 6.25977 4.5 6.58977 4.5 6.99977V7.00977C4.5 7.41977 4.16 7.75977 3.75 7.75977Z" fill="black"/>
<path d="M22.5001 12.8801C22.0201 12.8801 21.6201 12.4901 21.6201 12.0101V12.0001C21.6201 11.5201 22.0101 11.1201 22.5001 11.1201C22.9901 11.1201 23.3801 11.5101 23.3801 12.0001C23.3801 12.4901 22.9801 12.8801 22.5001 12.8801Z" fill="black"/>
<path d="M20.3 17.7502C19.89 17.7502 19.55 17.4202 19.55 17.0002V16.9902C19.55 16.5802 19.89 16.2402 20.3 16.2402C20.71 16.2402 21.05 16.5802 21.05 16.9902C21.05 17.4002 20.71 17.7502 20.3 17.7502Z" fill="black"/>
<path d="M20.3 7.75977C19.89 7.75977 19.55 7.41977 19.55 7.00977C19.55 6.59977 19.89 6.25977 20.3 6.25977C20.71 6.25977 21.05 6.58977 21.05 7.00977V7.01977C21.05 7.41977 20.71 7.75977 20.3 7.75977Z" fill="black"/>
</svg>
