<svg width="24" height="24" viewBox="0 0 24 24" fill="none" xmlns="http://www.w3.org/2000/svg">
<path d="M18.8999 15.0298C16.6899 15.0298 14.8999 16.8198 14.8999 19.0298C14.8999 21.2398 16.6899 23.0298 18.8999 23.0298C21.1099 23.0298 22.8999 21.2398 22.8999 19.0298C22.8999 16.8198 21.1099 15.0298 18.8999 15.0298ZM20.4999 20.6798C20.3499 20.8298 20.1599 20.8998 19.9699 20.8998C19.7799 20.8998 19.5899 20.8298 19.4399 20.6798L18.9099 20.1498L18.3599 20.6998C18.2099 20.8498 18.0199 20.9198 17.8299 20.9198C17.6399 20.9198 17.4499 20.8498 17.2999 20.6998C17.0099 20.4098 17.0099 19.9298 17.2999 19.6398L17.8499 19.0898L17.3199 18.5598C17.0299 18.2698 17.0299 17.7898 17.3199 17.4998C17.6099 17.2098 18.0899 17.2098 18.3799 17.4998L18.9099 18.0298L19.4099 17.5298C19.6999 17.2398 20.1799 17.2398 20.4699 17.5298C20.7599 17.8198 20.7599 18.2998 20.4699 18.5898L19.9699 19.0898L20.4999 19.6198C20.7899 19.9098 20.7899 20.3898 20.4999 20.6798Z" fill="#292D32"/>
<path d="M22 7.5499V7.9999C22 8.5499 21.55 8.9999 21 8.9999H3C2.45 8.9999 2 8.5499 2 7.9999V7.5399C2 5.2499 3.85 3.3999 6.14 3.3999H17.85C20.14 3.3999 22 5.2599 22 7.5499Z" fill="#292D32"/>
<path d="M2 11.5002V16.4602C2 18.7502 3.85 20.6002 6.14 20.6002H12.4C12.98 20.6002 13.48 20.1102 13.43 19.5302C13.29 18.0002 13.78 16.3402 15.14 15.0202C15.7 14.4702 16.39 14.0502 17.14 13.8102C18.39 13.4102 19.6 13.4602 20.67 13.8202C21.32 14.0402 22 13.5702 22 12.8802V11.4902C22 10.9402 21.55 10.4902 21 10.4902H3C2.45 10.5002 2 10.9502 2 11.5002ZM8 17.2502H6C5.59 17.2502 5.25 16.9102 5.25 16.5002C5.25 16.0902 5.59 15.7502 6 15.7502H8C8.41 15.7502 8.75 16.0902 8.75 16.5002C8.75 16.9102 8.41 17.2502 8 17.2502Z" fill="#292D32"/>
</svg>
