<svg width="24" height="24" viewBox="0 0 24 24" fill="none" xmlns="http://www.w3.org/2000/svg">
<path d="M15.22 6.5498H5.78C5.5 6.5498 5.24 6.5598 5 6.5698C2.63 6.7098 2 7.5798 2 10.2798V10.8598C2 11.4098 2.45 11.8598 3 11.8598H18C18.55 11.8598 19 11.4098 19 10.8598V10.2798C19 7.2998 18.24 6.5498 15.22 6.5498Z" fill="#292D32"/>
<path d="M3 13.3599C2.45 13.3599 2 13.8099 2 14.3599V17.2699C2 20.2499 2.76 20.9999 5.78 20.9999H15.22C18.19 20.9999 18.97 20.2799 19 17.4299V14.3599C19 13.8099 18.55 13.3599 18 13.3599H3ZM6.96 18.5599H5.25C4.84 18.5599 4.5 18.2199 4.5 17.8099C4.5 17.3999 4.84 17.0599 5.25 17.0599H6.97C7.38 17.0599 7.72 17.3999 7.72 17.8099C7.72 18.2199 7.38 18.5599 6.96 18.5599ZM12.55 18.5599H9.11C8.7 18.5599 8.36 18.2199 8.36 17.8099C8.36 17.3999 8.7 17.0599 9.11 17.0599H12.55C12.96 17.0599 13.3 17.3999 13.3 17.8099C13.3 18.2199 12.97 18.5599 12.55 18.5599Z" fill="#292D32"/>
<path d="M22.0001 13.3301V8.0901C22.0001 4.9601 20.2101 3.6001 17.5101 3.6001H8.58011C7.82011 3.6001 7.14011 3.7101 6.54011 3.9401C6.07011 4.1101 5.65011 4.3601 5.31011 4.6901C5.13011 4.8601 5.27011 5.1401 5.53011 5.1401H16.4001C18.6501 5.1401 20.4701 6.9601 20.4701 9.2101V16.3801C20.4701 16.6301 20.7401 16.7701 20.9201 16.5901C21.6101 15.8601 22.0001 14.7901 22.0001 13.3301Z" fill="#292D32"/>
</svg>
