<svg width="24" height="24" viewBox="0 0 24 24" fill="none" xmlns="http://www.w3.org/2000/svg">
<path d="M13.75 10.5C12.92 10.5 12.25 9.83 12.25 9C12.25 8.17 12.92 7.5 13.75 7.5C14.58 7.5 15.25 8.17 15.25 9C15.25 9.83 14.58 10.5 13.75 10.5ZM13.75 8.5C13.47 8.5 13.25 8.72 13.25 9C13.25 9.28 13.47 9.5 13.75 9.5C14.03 9.5 14.25 9.28 14.25 9C14.25 8.72 14.03 8.5 13.75 8.5Z" fill="black"/>
<path d="M10.25 10.5C9.42 10.5 8.75 9.83 8.75 9C8.75 8.17 9.42 7.5 10.25 7.5C11.08 7.5 11.75 8.17 11.75 9C11.75 9.83 11.08 10.5 10.25 10.5ZM10.25 8.5C9.97 8.5 9.75 8.72 9.75 9C9.75 9.28 9.97 9.5 10.25 9.5C10.53 9.5 10.75 9.28 10.75 9C10.75 8.72 10.53 8.5 10.25 8.5Z" fill="black"/>
<path d="M15.5 13.5C14.67 13.5 14 12.83 14 12C14 11.17 14.67 10.5 15.5 10.5C16.33 10.5 17 11.17 17 12C17 12.83 16.33 13.5 15.5 13.5ZM15.5 11.5C15.22 11.5 15 11.72 15 12C15 12.28 15.22 12.5 15.5 12.5C15.78 12.5 16 12.28 16 12C16 11.72 15.78 11.5 15.5 11.5Z" fill="black"/>
<path d="M17.1499 10.25C16.4599 10.25 15.8999 9.69 15.8999 9C15.8999 8.31 16.4599 7.75 17.1499 7.75C17.8399 7.75 18.3999 8.31 18.3999 9C18.3999 9.69 17.8399 10.25 17.1499 10.25ZM17.1499 8.75C17.0099 8.75 16.8999 8.86 16.8999 9C16.8999 9.28 17.3999 9.28 17.3999 9C17.3999 8.86 17.2899 8.75 17.1499 8.75Z" fill="black"/>
<path d="M17.1499 16.25C16.4599 16.25 15.8999 15.69 15.8999 15C15.8999 14.31 16.4599 13.75 17.1499 13.75C17.8399 13.75 18.3999 14.31 18.3999 15C18.3999 15.69 17.8399 16.25 17.1499 16.25ZM17.1499 14.75C17.0099 14.75 16.8999 14.86 16.8999 15C16.8999 15.28 17.3999 15.28 17.3999 15C17.3999 14.86 17.2899 14.75 17.1499 14.75Z" fill="black"/>
<path d="M19.75 13.25C19.06 13.25 18.5 12.69 18.5 12C18.5 11.31 19.06 10.75 19.75 10.75C20.44 10.75 21 11.31 21 12C21 12.69 20.44 13.25 19.75 13.25ZM19.75 11.75C19.61 11.75 19.5 11.86 19.5 12C19.5 12.28 20 12.28 20 12C20 11.86 19.89 11.75 19.75 11.75Z" fill="black"/>
<path d="M6.80005 10.25C6.11005 10.25 5.55005 9.69 5.55005 9C5.55005 8.31 6.11005 7.75 6.80005 7.75C7.49005 7.75 8.05005 8.31 8.05005 9C8.05005 9.69 7.49005 10.25 6.80005 10.25ZM6.80005 8.75C6.66005 8.75 6.55005 8.86 6.55005 9C6.55005 9.28 7.05005 9.28 7.05005 9C7.05005 8.86 6.94005 8.75 6.80005 8.75Z" fill="black"/>
<path d="M6.80005 16.25C6.11005 16.25 5.55005 15.69 5.55005 15C5.55005 14.31 6.11005 13.75 6.80005 13.75C7.49005 13.75 8.05005 14.31 8.05005 15C8.05005 15.69 7.49005 16.25 6.80005 16.25ZM6.80005 14.75C6.66005 14.75 6.55005 14.86 6.55005 15C6.55005 15.28 7.05005 15.28 7.05005 15C7.05005 14.86 6.94005 14.75 6.80005 14.75Z" fill="black"/>
<path d="M4.19995 13.25C3.50995 13.25 2.94995 12.69 2.94995 12C2.94995 11.31 3.50995 10.75 4.19995 10.75C4.88995 10.75 5.44995 11.31 5.44995 12C5.44995 12.69 4.88995 13.25 4.19995 13.25ZM4.19995 11.75C4.05995 11.75 3.94995 11.86 3.94995 12C3.94995 12.28 4.44995 12.28 4.44995 12C4.44995 11.86 4.33995 11.75 4.19995 11.75Z" fill="black"/>
<path d="M15.8999 6.4502C15.2099 6.4502 14.6499 5.8902 14.6499 5.2002C14.6499 4.5102 15.2099 3.9502 15.8999 3.9502C16.5899 3.9502 17.1499 4.5102 17.1499 5.2002C17.1499 5.8902 16.5899 6.4502 15.8999 6.4502ZM15.8999 4.9502C15.7599 4.9502 15.6499 5.0602 15.6499 5.2002C15.6499 5.4802 16.1499 5.4802 16.1499 5.2002C16.1499 5.0602 16.0399 4.9502 15.8999 4.9502Z" fill="black"/>
<path d="M8.1001 6.4502C7.4101 6.4502 6.8501 5.8902 6.8501 5.2002C6.8501 4.5102 7.4101 3.9502 8.1001 3.9502C8.7901 3.9502 9.3501 4.5102 9.3501 5.2002C9.3501 5.8902 8.7901 6.4502 8.1001 6.4502ZM8.1001 4.9502C7.9601 4.9502 7.8501 5.0602 7.8501 5.2002C7.8501 5.4802 8.3501 5.4802 8.3501 5.2002C8.3501 5.0602 8.2401 4.9502 8.1001 4.9502Z" fill="black"/>
<path d="M12.05 7.25C11.36 7.25 10.8 6.69 10.8 6C10.8 5.31 11.36 4.75 12.05 4.75C12.74 4.75 13.3 5.31 13.3 6C13.3 6.69 12.74 7.25 12.05 7.25ZM12.05 5.75C11.91 5.75 11.8 5.86 11.8 6C11.8 6.28 12.3 6.28 12.3 6C12.3 5.86 12.19 5.75 12.05 5.75Z" fill="black"/>
<path d="M15.8999 20.25C15.2099 20.25 14.6499 19.69 14.6499 19C14.6499 18.31 15.2099 17.75 15.8999 17.75C16.5899 17.75 17.1499 18.31 17.1499 19C17.1499 19.69 16.5899 20.25 15.8999 20.25ZM15.8999 18.75C15.7599 18.75 15.6499 18.86 15.6499 19C15.6499 19.28 16.1499 19.28 16.1499 19C16.1499 18.86 16.0399 18.75 15.8999 18.75Z" fill="black"/>
<path d="M8.1001 20.25C7.4101 20.25 6.8501 19.69 6.8501 19C6.8501 18.31 7.4101 17.75 8.1001 17.75C8.7901 17.75 9.3501 18.31 9.3501 19C9.3501 19.69 8.7901 20.25 8.1001 20.25ZM8.1001 18.75C7.9601 18.75 7.8501 18.86 7.8501 19C7.8501 19.28 8.3501 19.28 8.3501 19C8.3501 18.86 8.2401 18.75 8.1001 18.75Z" fill="black"/>
<path d="M12.05 19.4502C11.36 19.4502 10.8 18.8902 10.8 18.2002C10.8 17.5102 11.36 16.9502 12.05 16.9502C12.74 16.9502 13.3 17.5102 13.3 18.2002C13.3 18.8902 12.74 19.4502 12.05 19.4502ZM12.05 17.9502C11.91 17.9502 11.8 18.0602 11.8 18.2002C11.8 18.4802 12.3 18.4802 12.3 18.2002C12.3 18.0602 12.19 17.9502 12.05 17.9502Z" fill="black"/>
<path d="M8.5 13.5C7.67 13.5 7 12.83 7 12C7 11.17 7.67 10.5 8.5 10.5C9.33 10.5 10 11.17 10 12C10 12.83 9.33 13.5 8.5 13.5ZM8.5 11.5C8.22 11.5 8 11.72 8 12C8 12.28 8.22 12.5 8.5 12.5C8.78 12.5 9 12.28 9 12C9 11.72 8.78 11.5 8.5 11.5Z" fill="black"/>
<path d="M10.25 16.5C9.42 16.5 8.75 15.83 8.75 15C8.75 14.17 9.42 13.5 10.25 13.5C11.08 13.5 11.75 14.17 11.75 15C11.75 15.83 11.08 16.5 10.25 16.5ZM10.25 14.5C9.97 14.5 9.75 14.72 9.75 15C9.75 15.28 9.97 15.5 10.25 15.5C10.53 15.5 10.75 15.28 10.75 15C10.75 14.72 10.53 14.5 10.25 14.5Z" fill="black"/>
<path d="M13.75 16.5C12.92 16.5 12.25 15.83 12.25 15C12.25 14.17 12.92 13.5 13.75 13.5C14.58 13.5 15.25 14.17 15.25 15C15.25 15.83 14.58 16.5 13.75 16.5ZM13.75 14.5C13.47 14.5 13.25 14.72 13.25 15C13.25 15.28 13.47 15.5 13.75 15.5C14.03 15.5 14.25 15.28 14.25 15C14.25 14.72 14.03 14.5 13.75 14.5Z" fill="black"/>
<path d="M12 3.4502C11.44 3.4502 10.99 3.0002 10.99 2.4502C10.99 1.9002 11.44 1.4502 11.99 1.4502C12.54 1.4502 12.99 1.9002 12.99 2.4502C12.99 3.0002 12.56 3.4502 12 3.4502Z" fill="black"/>
<path d="M17.25 3.6001C16.83 3.6001 16.49 3.2601 16.49 2.8501C16.49 2.4401 16.83 2.1001 17.24 2.1001C17.65 2.1001 18 2.4401 18 2.8501C18 3.2601 17.67 3.6001 17.25 3.6001Z" fill="black"/>
<path d="M6.75 3.6001C6.34 3.6001 6 3.2601 6 2.8501C6 2.4401 6.33 2.1001 6.75 2.1001H6.76001C7.17001 2.1001 7.51001 2.4401 7.51001 2.8501C7.51001 3.2601 7.17 3.6001 6.75 3.6001Z" fill="black"/>
<path d="M12 22.5C11.44 22.5 10.99 22.05 10.99 21.5C10.99 20.95 11.44 20.5 11.99 20.5C12.54 20.5 12.99 20.95 12.99 21.5C12.99 22.05 12.56 22.5 12 22.5Z" fill="black"/>
<path d="M17.25 21.8501C16.83 21.8501 16.49 21.5101 16.49 21.1001C16.49 20.6901 16.83 20.3501 17.24 20.3501C17.65 20.3501 18 20.6901 18 21.1001C18 21.5101 17.67 21.8501 17.25 21.8501Z" fill="black"/>
<path d="M6.75 21.8501C6.34 21.8501 6 21.5101 6 21.1001C6 20.6901 6.33 20.3501 6.75 20.3501H6.76001C7.17001 20.3501 7.51001 20.6901 7.51001 21.1001C7.51001 21.5101 7.17 21.8501 6.75 21.8501Z" fill="black"/>
<path d="M1.55005 13C1.00005 13 0.550049 12.56 0.550049 12C0.550049 11.45 1.00005 11 1.55005 11C2.10005 11 2.55005 11.45 2.55005 12C2.55005 12.55 2.10005 13 1.55005 13Z" fill="black"/>
<path d="M3.75 17.7502C3.34 17.7502 3 17.4202 3 17.0002V16.9902C3 16.5802 3.34 16.2402 3.75 16.2402C4.16 16.2402 4.5 16.5802 4.5 16.9902C4.5 17.4002 4.16 17.7502 3.75 17.7502Z" fill="black"/>
<path d="M3.75 7.75977C3.34 7.75977 3 7.41977 3 7.00977C3 6.59977 3.34 6.25977 3.75 6.25977C4.16 6.25977 4.5 6.58977 4.5 6.99977V7.00977C4.5 7.41977 4.16 7.75977 3.75 7.75977Z" fill="black"/>
<path d="M22.5 13C21.95 13 21.5 12.56 21.5 12C21.5 11.45 21.95 11 22.5 11C23.05 11 23.5 11.45 23.5 12C23.5 12.55 23.05 13 22.5 13Z" fill="black"/>
<path d="M20.3 17.7502C19.89 17.7502 19.55 17.4202 19.55 17.0002V16.9902C19.55 16.5802 19.89 16.2402 20.3 16.2402C20.71 16.2402 21.05 16.5802 21.05 16.9902C21.05 17.4002 20.71 17.7502 20.3 17.7502Z" fill="black"/>
<path d="M20.3 7.75977C19.89 7.75977 19.55 7.41977 19.55 7.00977C19.55 6.59977 19.89 6.25977 20.3 6.25977C20.71 6.25977 21.05 6.58977 21.05 7.00977V7.01977C21.05 7.41977 20.71 7.75977 20.3 7.75977Z" fill="black"/>
</svg>
