<svg width="24" height="24" viewBox="0 0 24 24" fill="none" xmlns="http://www.w3.org/2000/svg">
<path d="M22 21.25C22 21.66 21.66 22 21.25 22H2.75C2.34 22 2 21.66 2 21.25C2 20.84 2.34 20.5 2.75 20.5H21.25C21.66 20.5 22 20.84 22 21.25Z" fill="#292D32"/>
<path d="M15.3899 4.51977L4.64994 15.2598C4.23994 15.6698 3.57994 15.6698 3.17994 15.2598H3.16994C1.77994 13.8598 1.77994 11.5998 3.16994 10.2098L10.3199 3.05977C11.7199 1.65977 13.9799 1.65977 15.3799 3.05977C15.7899 3.44977 15.7899 4.11977 15.3899 4.51977Z" fill="#292D32"/>
<path d="M20.8199 8.48982L17.7699 5.43982C17.3599 5.02982 16.6999 5.02982 16.2999 5.43982L5.55994 16.1798C5.14994 16.5798 5.14994 17.2398 5.55994 17.6498L8.60994 20.7098C10.0099 22.0998 12.2699 22.0998 13.6699 20.7098L20.8099 13.5598C22.2299 12.1598 22.2299 9.88982 20.8199 8.48982ZM12.7599 17.5198L11.5499 18.7398C11.2999 18.9898 10.8899 18.9898 10.6299 18.7398C10.3799 18.4898 10.3799 18.0798 10.6299 17.8198L11.8499 16.5998C12.0899 16.3598 12.5099 16.3598 12.7599 16.5998C13.0099 16.8498 13.0099 17.2798 12.7599 17.5198ZM16.7299 13.5498L14.2899 15.9998C14.0399 16.2398 13.6299 16.2398 13.3699 15.9998C13.1199 15.7498 13.1199 15.3398 13.3699 15.0798L15.8199 12.6298C16.0599 12.3898 16.4799 12.3898 16.7299 12.6298C16.9799 12.8898 16.9799 13.2998 16.7299 13.5498Z" fill="#292D32"/>
</svg>
