<svg width="24" height="24" viewBox="0 0 24 24" fill="none" xmlns="http://www.w3.org/2000/svg">
<path d="M12.0001 18.1901C8.59006 18.1901 5.81006 15.4101 5.81006 12.0001C5.81006 8.59006 8.59006 5.81006 12.0001 5.81006C13.3501 5.81006 14.6401 6.24006 15.7201 7.05006C16.0501 7.30006 16.1201 7.77007 15.8701 8.10007C15.6201 8.43007 15.1501 8.50006 14.8201 8.25006C14.0001 7.63006 13.0301 7.31006 12.0001 7.31006C9.42006 7.31006 7.31006 9.41006 7.31006 12.0001C7.31006 14.5901 9.41006 16.6901 12.0001 16.6901C13.4801 16.6901 14.8401 16.0101 15.7401 14.8301C15.9901 14.5001 16.4601 14.4401 16.7901 14.6901C17.1201 14.9401 17.1801 15.4101 16.9301 15.7401C15.7501 17.2901 13.9501 18.1901 12.0001 18.1901Z" fill="black"/>
<path d="M17.42 12.09C16.36 12.09 15.5 11.23 15.5 10.17C15.5 9.11 16.36 8.25 17.42 8.25C18.48 8.25 19.34 9.11 19.34 10.17C19.34 11.23 18.48 12.09 17.42 12.09ZM17.42 9.75C17.19 9.75 17 9.94 17 10.17C17 10.4 17.19 10.59 17.42 10.59C17.65 10.59 17.84 10.4 17.84 10.17C17.84 9.94 17.65 9.75 17.42 9.75Z" fill="black"/>
<path d="M12 22.75C6.07 22.75 1.25 17.93 1.25 12C1.25 6.07 6.07 1.25 12 1.25C17.93 1.25 22.75 6.07 22.75 12C22.75 17.93 17.93 22.75 12 22.75ZM12 2.75C6.9 2.75 2.75 6.9 2.75 12C2.75 17.1 6.9 21.25 12 21.25C17.1 21.25 21.25 17.1 21.25 12C21.25 6.9 17.1 2.75 12 2.75Z" fill="black"/>
</svg>
