<svg width="24" height="24" viewBox="0 0 24 24" fill="none" xmlns="http://www.w3.org/2000/svg">
<path d="M13 22.75H9C3.57 22.75 1.25 20.43 1.25 15V9C1.25 3.57 3.57 1.25 9 1.25H15C20.43 1.25 22.75 3.57 22.75 9V13C22.75 13.41 22.41 13.75 22 13.75C21.59 13.75 21.25 13.41 21.25 13V9C21.25 4.39 19.61 2.75 15 2.75H9C4.39 2.75 2.75 4.39 2.75 9V15C2.75 19.61 4.39 21.25 9 21.25H13C13.41 21.25 13.75 21.59 13.75 22C13.75 22.41 13.41 22.75 13 22.75Z" fill="#292D32"/>
<path d="M13 22.75H9C3.57 22.75 1.25 20.43 1.25 15V9C1.25 3.57 3.57 1.25 9 1.25H15C20.43 1.25 22.75 3.57 22.75 9V13C22.75 13.41 22.41 13.75 22 13.75C21.59 13.75 21.25 13.41 21.25 13V9C21.25 4.39 19.61 2.75 15 2.75H9C4.39 2.75 2.75 4.39 2.75 9V15C2.75 19.61 4.39 21.25 9 21.25H13C13.41 21.25 13.75 21.59 13.75 22C13.75 22.41 13.41 22.75 13 22.75Z" fill="#292D32"/>
<path d="M7 14.69C6.59 14.69 6.25 14.35 6.25 13.94V10.73C6.25 10.32 6.59 9.97998 7 9.97998C7.41 9.97998 7.75 10.32 7.75 10.73V13.94C7.75 14.36 7.41 14.69 7 14.69Z" fill="#292D32"/>
<path d="M17 14.69C16.59 14.69 16.25 14.35 16.25 13.94V10.73C16.25 10.32 16.59 9.97998 17 9.97998C17.41 9.97998 17.75 10.32 17.75 10.73V13.94C17.75 14.36 17.41 14.69 17 14.69Z" fill="#292D32"/>
<path d="M13 22.75H9C3.57 22.75 1.25 20.43 1.25 15V9C1.25 3.57 3.57 1.25 9 1.25H15C20.43 1.25 22.75 3.57 22.75 9V13C22.75 13.41 22.41 13.75 22 13.75C21.59 13.75 21.25 13.41 21.25 13V9C21.25 4.39 19.61 2.75 15 2.75H9C4.39 2.75 2.75 4.39 2.75 9V15C2.75 19.61 4.39 21.25 9 21.25H13C13.41 21.25 13.75 21.59 13.75 22C13.75 22.41 13.41 22.75 13 22.75Z" fill="#292D32"/>
<path d="M17.58 21.7502C17.38 21.7502 17.19 21.6702 17.05 21.5302L15.47 19.9602C15.18 19.6702 15.17 19.1902 15.47 18.9002C15.76 18.6102 16.24 18.6002 16.53 18.9002L17.54 19.9002L20.44 16.5102C20.71 16.1902 21.18 16.1602 21.5 16.4302C21.81 16.7002 21.85 17.1702 21.58 17.4902L18.16 21.4902C18.02 21.6502 17.83 21.7402 17.62 21.7502C17.6 21.7502 17.59 21.7502 17.58 21.7502Z" fill="#292D32"/>
<path d="M12 14.25C11.59 14.25 11.25 13.91 11.25 13.5V10.5C11.25 10.09 11.59 9.75 12 9.75C12.41 9.75 12.75 10.09 12.75 10.5V13.5C12.75 13.91 12.41 14.25 12 14.25Z" fill="#292D32"/>
</svg>
