<svg width="24" height="24" viewBox="0 0 24 24" fill="none" xmlns="http://www.w3.org/2000/svg">
<path d="M11.82 6.9C14.68 6.28 17.58 6.19 20.45 6.66C18.68 3.86 15.56 2 12 2C8.89002 2 6.11002 3.42 4.27002 5.65C4.71002 6.95 5.27002 8.19 5.94002 9.37C6.32002 10.05 7.29002 10.02 7.68002 9.35C8.53002 7.92 10.06 6.96 11.82 6.9Z" fill="#292D32"/>
<path d="M7.72002 14.7199C5.72002 12.5799 4.16002 10.1399 3.09002 7.43994C1.59002 10.3999 1.60002 14.0299 3.43002 17.0799C5.03002 19.7499 7.67002 21.4099 10.53 21.8399C11.42 20.7899 12.2 19.6699 12.87 18.4999C13.26 17.8199 12.73 17.0099 11.95 17.0099C10.28 17.0199 8.67002 16.1999 7.72002 14.7199Z" fill="#292D32"/>
<path d="M8.57001 11.9999C8.57001 12.6099 8.72001 13.1799 9.03001 13.7199C9.64001 14.7699 10.77 15.4299 11.99 15.4299C13.21 15.4299 14.35 14.7699 14.95 13.7199C15.26 13.1799 15.42 12.6099 15.42 11.9999C15.42 10.1099 13.88 8.57988 11.99 8.57988C10.11 8.56988 8.57001 10.1099 8.57001 11.9999Z" fill="#292D32"/>
<path d="M21.34 8.42004C19.97 8.13004 18.58 7.97004 17.2 7.95004C16.41 7.94004 15.96 8.80004 16.35 9.49004C16.75 10.2 16.98 11.02 16.98 11.89C16.98 12.73 16.76 13.56 16.35 14.3C15.41 17.18 14.01 19.74 12.16 22C17.61 21.91 22 17.47 22 12C22 10.74 21.77 9.53004 21.34 8.42004Z" fill="#292D32"/>
</svg>
