<svg width="24" height="24" viewBox="0 0 24 24" fill="none" xmlns="http://www.w3.org/2000/svg">
<path d="M14.35 2H9.65001C8.61001 2 7.76001 2.84 7.76001 3.88V4.82C7.76001 5.86 8.60001 6.7 9.64001 6.7H14.35C15.39 6.7 16.23 5.86 16.23 4.82V3.88C16.24 2.84 15.39 2 14.35 2Z" fill="#292D32"/>
<path d="M17.24 4.81998C17.24 6.40998 15.94 7.70998 14.35 7.70998H9.64998C8.05998 7.70998 6.75998 6.40998 6.75998 4.81998C6.75998 4.25998 6.15998 3.90998 5.65998 4.16998C4.24998 4.91998 3.28998 6.40998 3.28998 8.11998V17.53C3.28998 19.99 5.29998 22 7.75998 22H16.24C18.7 22 20.71 19.99 20.71 17.53V8.11998C20.71 6.40998 19.75 4.91998 18.34 4.16998C17.84 3.90998 17.24 4.25998 17.24 4.81998ZM14.53 16.69C14.38 16.84 14.19 16.91 14 16.91C13.81 16.91 13.62 16.84 13.47 16.69L12.02 15.24L10.53 16.73C10.38 16.88 10.19 16.95 9.99998 16.95C9.80998 16.95 9.61998 16.88 9.46998 16.73C9.17998 16.44 9.17998 15.96 9.46998 15.67L10.96 14.18L9.50998 12.73C9.21998 12.44 9.21998 11.96 9.50998 11.67C9.79998 11.38 10.28 11.38 10.57 11.67L12.02 13.12L13.42 11.72C13.71 11.43 14.19 11.43 14.48 11.72C14.77 12.01 14.77 12.49 14.48 12.78L13.08 14.18L14.53 15.63C14.82 15.92 14.82 16.39 14.53 16.69Z" fill="#292D32"/>
</svg>
