<svg width="24" height="24" viewBox="0 0 24 24" fill="none" xmlns="http://www.w3.org/2000/svg">
<path d="M14 6.75H10C9.04 6.75 7.25 6.75 7.25 4C7.25 1.25 9.04 1.25 10 1.25H14C14.96 1.25 16.75 1.25 16.75 4C16.75 4.96 16.75 6.75 14 6.75ZM10 2.75C9.01 2.75 8.75 2.75 8.75 4C8.75 5.25 9.01 5.25 10 5.25H14C15.25 5.25 15.25 4.99 15.25 4C15.25 2.75 14.99 2.75 14 2.75H10Z" fill="#292D32"/>
<path d="M14 22.7502H9C3.38 22.7502 2.25 20.1702 2.25 16.0002V10.0002C2.25 5.44021 3.9 3.49021 7.96 3.28021C8.36 3.26021 8.73 3.57021 8.75 3.99021C8.77 4.41021 8.45 4.75021 8.04 4.77021C5.2 4.93021 3.75 5.78021 3.75 10.0002V16.0002C3.75 19.7002 4.48 21.2502 9 21.2502H14C14.41 21.2502 14.75 21.5902 14.75 22.0002C14.75 22.4102 14.41 22.7502 14 22.7502Z" fill="#292D32"/>
<path d="M21 15.7499C20.59 15.7499 20.25 15.4099 20.25 14.9999V9.99993C20.25 5.77993 18.8 4.92993 15.96 4.76993C15.55 4.74993 15.23 4.38993 15.25 3.97993C15.27 3.56993 15.64 3.24993 16.04 3.26993C20.1 3.48993 21.75 5.43993 21.75 9.98993V14.9899C21.75 15.4099 21.41 15.7499 21 15.7499Z" fill="#292D32"/>
<path d="M21 22.75H18C17.59 22.75 17.25 22.41 17.25 22C17.25 21.59 17.59 21.25 18 21.25H20.25V19C20.25 18.59 20.59 18.25 21 18.25C21.41 18.25 21.75 18.59 21.75 19V22C21.75 22.41 21.41 22.75 21 22.75Z" fill="#292D32"/>
<path d="M20.96 22.7099C20.77 22.7099 20.58 22.6399 20.43 22.4899L14.47 16.5299C14.18 16.2399 14.18 15.7599 14.47 15.4699C14.76 15.1799 15.24 15.1799 15.53 15.4699L21.49 21.4299C21.78 21.7199 21.78 22.1999 21.49 22.4899C21.34 22.6299 21.15 22.7099 20.96 22.7099Z" fill="#292D32"/>
</svg>
