<svg width="24" height="24" viewBox="0 0 24 24" fill="none" xmlns="http://www.w3.org/2000/svg">
<path d="M16.6698 20.83C16.6498 20.83 16.6398 20.83 16.6298 20.83H5.53979C2.59979 20.62 1.27979 18.35 1.27979 16.34C1.27979 14.54 2.32979 12.54 4.60979 11.99C3.97979 9.47001 4.52979 7.11001 6.18979 5.40001C8.06979 3.46001 11.0598 2.71001 13.6098 3.54001C13.9998 3.67001 14.2198 4.09001 14.0898 4.48001C13.9598 4.87001 13.5398 5.09001 13.1498 4.96001C11.1198 4.31001 8.74979 4.90001 7.25979 6.45001C5.80979 7.95001 5.46979 10.04 6.29979 12.35C6.37979 12.58 6.34979 12.84 6.20979 13.03C6.06979 13.22 5.83978 13.35 5.59978 13.35C3.65978 13.49 2.78979 14.95 2.78979 16.34C2.78979 17.73 3.65978 19.19 5.59978 19.34H16.6398C17.7798 19.35 18.9198 18.92 19.7698 18.14C20.9198 17.13 21.4198 15.66 21.1698 14.1C21.0998 13.69 21.3798 13.31 21.7898 13.24C22.1998 13.17 22.5798 13.45 22.6498 13.86C22.9898 15.92 22.2798 17.94 20.7798 19.26C19.6598 20.26 18.1998 20.83 16.6698 20.83Z" fill="#292D32"/>
<path d="M7.25984 13.7598C7.14984 13.7598 7.02984 13.7298 6.92984 13.6798C6.50984 13.4698 6.04984 13.3598 5.57984 13.3498C5.16984 13.3398 4.83984 12.9998 4.83984 12.5898C4.84984 12.1798 5.23984 11.8398 5.59984 11.8498C6.28984 11.8598 6.97984 12.0298 7.58984 12.3398C7.95984 12.5198 8.10984 12.9798 7.92984 13.3498C7.79984 13.6098 7.53984 13.7598 7.25984 13.7598Z" fill="#292D32"/>
<path d="M18.4702 12.7498C16.1302 12.7498 14.2202 10.8398 14.2202 8.49977C14.2202 7.39977 14.6402 6.35977 15.4002 5.57977C15.4202 5.54977 15.4402 5.52977 15.4602 5.50977C16.2602 4.69977 17.3202 4.25977 18.4602 4.25977C20.8002 4.25977 22.7102 6.16977 22.7102 8.50977C22.7102 9.80977 22.1302 11.0198 21.1102 11.8298C20.3802 12.4198 19.4402 12.7498 18.4702 12.7498ZM16.6002 6.49977C16.5802 6.52977 16.5602 6.54977 16.5302 6.57977C16.0102 7.08977 15.7202 7.77977 15.7202 8.50977C15.7202 10.0298 16.9502 11.2598 18.4702 11.2598C19.0902 11.2598 19.7002 11.0498 20.1802 10.6598C20.8502 10.1298 21.2202 9.34977 21.2202 8.50977C21.2202 6.98977 19.9902 5.75977 18.4702 5.75977C17.7602 5.74977 17.1002 6.01977 16.6002 6.49977Z" fill="#292D32"/>
</svg>
