<svg width="24" height="24" viewBox="0 0 24 24" fill="none" xmlns="http://www.w3.org/2000/svg">
<path d="M16.65 20.7498C16.64 20.7498 16.62 20.7498 16.61 20.7498C16.2 20.7498 15.86 20.4098 15.87 19.9898C15.87 19.5798 16.22 19.2098 16.63 19.2498C17.79 19.2498 18.89 18.8298 19.74 18.0498C21.29 16.6898 21.4 14.7498 20.98 13.3798C20.56 12.0098 19.39 10.4598 17.37 10.1998C17.04 10.1598 16.78 9.90977 16.72 9.57977C16.33 7.18977 15.03 5.53977 13.09 4.93977C11.07 4.31977 8.73998 4.92977 7.27998 6.45977C5.85998 7.94977 5.52998 10.0198 6.34998 12.3098C6.48998 12.6998 6.28998 13.1298 5.89998 13.2698C5.50998 13.4098 5.07998 13.2098 4.93998 12.8198C3.92998 10.0098 4.38998 7.31977 6.19998 5.42977C8.04998 3.49977 10.99 2.72977 13.54 3.51977C15.87 4.23977 17.52 6.15977 18.11 8.81977C20.15 9.27977 21.78 10.8198 22.43 12.9498C23.14 15.2698 22.5 17.6498 20.76 19.1698C19.61 20.1898 18.16 20.7498 16.65 20.7498Z" fill="#292D32"/>
<path d="M5.57008 20.7501C5.55008 20.7501 5.53008 20.7501 5.52008 20.7501C2.64008 20.5501 1.33008 18.2901 1.33008 16.2801C1.33008 14.2701 2.64008 12.0201 5.52008 11.8101C6.28008 11.8201 6.99008 11.9701 7.63008 12.2901C8.00008 12.4801 8.14008 12.9301 7.96008 13.3001C7.77008 13.6701 7.32008 13.8101 6.95008 13.6301C6.53008 13.4101 6.05008 13.3101 5.59008 13.3101C3.70008 13.4501 2.84008 14.9001 2.84008 16.2801C2.84008 17.6601 3.70008 19.1101 5.63008 19.2501C6.04008 19.2801 6.35008 19.6401 6.33008 20.0501C6.29008 20.4501 5.96008 20.7501 5.57008 20.7501Z" fill="#292D32"/>
<path d="M15.8201 10.6402C15.5401 10.6402 15.2801 10.4902 15.1501 10.2202C14.9601 9.85021 15.1101 9.40021 15.4901 9.21021C16.1001 8.90021 16.7901 8.73021 17.4701 8.72021H17.4801C17.8901 8.72021 18.2201 9.05021 18.2301 9.46021C18.2401 9.87021 17.9101 10.2202 17.4901 10.2202C17.0301 10.2302 16.5701 10.3402 16.1501 10.5502C16.0401 10.6202 15.9301 10.6402 15.8201 10.6402Z" fill="#292D32"/>
<path d="M10.6098 22.6202C10.4798 22.6202 10.3398 22.6002 10.2098 22.5502C9.76976 22.3802 9.47976 21.9702 9.47976 21.5002V19.9202H9.22976C8.47976 19.9202 8.20976 19.4802 8.11976 19.3002C8.03976 19.1002 7.89976 18.6002 8.38976 18.0502L10.8398 15.2602C11.1498 14.9102 11.6398 14.7802 12.0798 14.9502C12.5198 15.1202 12.8098 15.5302 12.8098 16.0002V17.5802H13.0598C13.7998 17.5802 14.0798 18.0202 14.1698 18.2002C14.2598 18.3802 14.3998 18.8802 13.9098 19.4402L11.4598 22.2302C11.2298 22.4802 10.9198 22.6202 10.6098 22.6202ZM10.0598 18.4102H10.2298C10.6398 18.4102 10.9798 18.7502 10.9798 19.1602V20.4902L12.2198 19.0802H12.0498C11.6398 19.0802 11.2998 18.7402 11.2998 18.3302V17.0002L10.0598 18.4102Z" fill="#292D32"/>
</svg>
