<svg width="24" height="24" viewBox="0 0 24 24" fill="none" xmlns="http://www.w3.org/2000/svg">
<path d="M16.6502 20.7498C16.6402 20.7498 16.6202 20.7498 16.6102 20.7498C16.2002 20.7498 15.8602 20.4098 15.8702 19.9898C15.8702 19.5798 16.2102 19.2498 16.6202 19.2498C16.6302 19.2498 16.6502 19.2498 16.6602 19.2498C17.8002 19.2498 18.8902 18.8298 19.7302 18.0498C21.2802 16.6898 21.3902 14.7498 20.9702 13.3798C20.5502 12.0098 19.3902 10.4598 17.3602 10.1998C17.0302 10.1598 16.7702 9.90977 16.7102 9.57977C16.3102 7.18977 15.0202 5.53977 13.0802 4.93977C11.0602 4.31977 8.73022 4.92977 7.27022 6.45977C5.85022 7.94977 5.52022 10.0198 6.34022 12.3098C6.48022 12.6998 6.28021 13.1298 5.89021 13.2698C5.50021 13.4098 5.07021 13.2098 4.93021 12.8198C3.92021 10.0098 4.38022 7.31977 6.19021 5.42977C8.03022 3.49977 10.9802 2.72977 13.5302 3.51977C15.8602 4.23977 17.5102 6.15977 18.1002 8.81977C20.1402 9.27977 21.7702 10.8198 22.4202 12.9498C23.1302 15.2698 22.4802 17.6498 20.7502 19.1698C19.6102 20.1898 18.1602 20.7498 16.6502 20.7498Z" fill="#292D32"/>
<path d="M5.57008 20.75C5.55008 20.75 5.53008 20.75 5.52008 20.75C2.64008 20.55 1.33008 18.29 1.33008 16.28C1.33008 14.27 2.64008 12.02 5.52008 11.81C6.27008 11.8 6.99008 11.97 7.63008 12.29C8.00008 12.48 8.14008 12.93 7.96008 13.3C7.77008 13.67 7.32008 13.81 6.95008 13.63C6.53008 13.41 6.04008 13.32 5.59008 13.31C3.70008 13.45 2.84008 14.9 2.84008 16.28C2.84008 17.66 3.70008 19.11 5.64008 19.25C6.05008 19.28 6.36008 19.64 6.33008 20.05C6.29008 20.45 5.96008 20.75 5.57008 20.75Z" fill="#292D32"/>
<path d="M15.8201 10.6402C15.5501 10.6402 15.2801 10.4902 15.1501 10.2202C14.9601 9.85021 15.1101 9.40021 15.4901 9.21021C16.1001 8.90021 16.7901 8.73021 17.4701 8.72021C17.8601 8.74021 18.2301 9.04021 18.2301 9.46021C18.2401 9.87021 17.9101 10.2202 17.4901 10.2202C17.0301 10.2302 16.5701 10.3402 16.1501 10.5502C16.0501 10.6202 15.9301 10.6402 15.8201 10.6402Z" fill="#292D32"/>
<path d="M9.56 22.16C9.37 22.16 9.18 22.09 9.03 21.94C8.74 21.65 8.74 21.17 9.03 20.88L11.86 18.05C12.15 17.76 12.63 17.76 12.92 18.05C13.21 18.34 13.21 18.82 12.92 19.11L10.09 21.94C9.94 22.09 9.75 22.16 9.56 22.16Z" fill="#292D32"/>
<path d="M12.39 22.16C12.2 22.16 12.01 22.09 11.86 21.94L9.03 19.11C8.74 18.82 8.74 18.34 9.03 18.05C9.32 17.76 9.8 17.76 10.09 18.05L12.92 20.88C13.21 21.17 13.21 21.65 12.92 21.94C12.77 22.09 12.58 22.16 12.39 22.16Z" fill="#292D32"/>
</svg>
