<svg width="24" height="24" viewBox="0 0 24 24" fill="none" xmlns="http://www.w3.org/2000/svg">
<path d="M16.6502 20.7498C16.6402 20.7498 16.6202 20.7498 16.6102 20.7498C16.2002 20.7498 15.8602 20.4098 15.8702 19.9898C15.8702 19.5798 16.2102 19.2498 16.6202 19.2498C16.6302 19.2498 16.6502 19.2498 16.6602 19.2498C17.8002 19.2498 18.8902 18.8298 19.7302 18.0498C21.2802 16.6898 21.3902 14.7498 20.9702 13.3798C20.5502 12.0098 19.3902 10.4598 17.3602 10.1998C17.0302 10.1598 16.7702 9.90977 16.7102 9.57977C16.3102 7.18977 15.0202 5.53977 13.0802 4.93977C11.0602 4.31977 8.73022 4.92977 7.27022 6.45977C5.85022 7.94977 5.52022 10.0198 6.34022 12.3098C6.48022 12.6998 6.28021 13.1298 5.89021 13.2698C5.50021 13.4098 5.07021 13.2098 4.93021 12.8198C3.92021 10.0098 4.38022 7.31977 6.19021 5.42977C8.04022 3.49977 10.9802 2.72977 13.5302 3.51977C15.8602 4.23977 17.5102 6.15977 18.1002 8.81977C20.1402 9.27977 21.7702 10.8198 22.4202 12.9498C23.1302 15.2698 22.4802 17.6498 20.7502 19.1698C19.6102 20.1898 18.1602 20.7498 16.6502 20.7498Z" fill="#292D32"/>
<path d="M5.57008 20.75C5.55008 20.75 5.53008 20.75 5.52008 20.75C2.64008 20.55 1.33008 18.29 1.33008 16.28C1.33008 14.27 2.64008 12.02 5.52008 11.81C6.26008 11.8 6.99008 11.97 7.63008 12.29C8.00008 12.48 8.14008 12.93 7.96008 13.3C7.77008 13.67 7.32008 13.81 6.95008 13.63C6.53008 13.41 6.05008 13.32 5.59008 13.31C3.70008 13.45 2.84008 14.9 2.84008 16.28C2.84008 17.66 3.70008 19.11 5.64008 19.25C6.05008 19.28 6.36008 19.64 6.33008 20.05C6.29008 20.45 5.96008 20.75 5.57008 20.75Z" fill="#292D32"/>
<path d="M15.8201 10.6402C15.5501 10.6402 15.2801 10.4902 15.1501 10.2202C14.9601 9.85021 15.1101 9.40021 15.4901 9.21021C16.1001 8.90021 16.7901 8.73021 17.4701 8.72021C17.8501 8.74021 18.2301 9.04021 18.2301 9.46021C18.2401 9.87021 17.9101 10.2202 17.4901 10.2202C17.0301 10.2302 16.5701 10.3402 16.1501 10.5502C16.0501 10.6202 15.9301 10.6402 15.8201 10.6402Z" fill="#292D32"/>
<path d="M7.97016 22.7499C7.78016 22.7499 7.59016 22.6799 7.44016 22.5299C7.15016 22.2399 7.15016 21.7599 7.44016 21.4699L9.44016 19.4699C9.73016 19.1799 10.2102 19.1799 10.5002 19.4699C10.7902 19.7599 10.7902 20.2399 10.5002 20.5299L8.50016 22.5299C8.36016 22.6799 8.17016 22.7499 7.97016 22.7499Z" fill="#292D32"/>
<path d="M11.9702 22.7499C11.7802 22.7499 11.5902 22.6799 11.4402 22.5299C11.1502 22.2399 11.1502 21.7599 11.4402 21.4699L13.4402 19.4699C13.7302 19.1799 14.2102 19.1799 14.5002 19.4699C14.7902 19.7599 14.7902 20.2399 14.5002 20.5299L12.5002 22.5299C12.3602 22.6799 12.1702 22.7499 11.9702 22.7499Z" fill="#292D32"/>
<path d="M11.9702 18.7499C11.7802 18.7499 11.5902 18.6799 11.4402 18.5299C11.1502 18.2399 11.1502 17.7599 11.4402 17.4699L13.4402 15.4699C13.7302 15.1799 14.2102 15.1799 14.5002 15.4699C14.7902 15.7599 14.7902 16.2399 14.5002 16.5299L12.5002 18.5299C12.3602 18.6799 12.1702 18.7499 11.9702 18.7499Z" fill="#292D32"/>
<path d="M7.97016 18.7499C7.78016 18.7499 7.59016 18.6799 7.44016 18.5299C7.15016 18.2399 7.15016 17.7599 7.44016 17.4699L9.44016 15.4699C9.73016 15.1799 10.2102 15.1799 10.5002 15.4699C10.7902 15.7599 10.7902 16.2399 10.5002 16.5299L8.50016 18.5299C8.36016 18.6799 8.17016 18.7499 7.97016 18.7499Z" fill="#292D32"/>
</svg>
