<svg width="24" height="24" viewBox="0 0 24 24" fill="none" xmlns="http://www.w3.org/2000/svg">
<path d="M21.2698 8.76001C21.2698 9.78001 20.7998 10.7 20.0398 11.3C19.4898 11.75 18.7798 12.02 18.0098 12.02C16.2198 12.02 14.7598 10.56 14.7598 8.77001C14.7598 7.88001 15.1198 7.07001 15.7198 6.48001V6.47001C16.3098 5.88001 17.1198 5.51001 18.0098 5.51001C19.8098 5.51001 21.2698 6.97001 21.2698 8.76001Z" fill="#292D32"/>
<path d="M20.1798 18.7301C19.1298 19.6901 17.7798 20.2201 16.3498 20.2201H5.96977C3.22977 20.0201 2.00977 17.9101 2.00977 16.0301C2.00977 14.3501 2.97977 12.4901 5.10977 11.9701C4.17977 8.39009 5.95977 5.89009 8.03977 4.70009C10.0998 3.53009 12.9998 3.34009 15.1798 4.95009C14.9898 5.09009 14.8198 5.24009 14.6498 5.41009L14.2198 5.86009V5.92009C13.5998 6.73009 13.2598 7.72009 13.2598 8.76009C13.2598 11.3801 15.3998 13.5101 18.0198 13.5101C19.0998 13.5101 20.1498 13.1401 20.9698 12.4701C21.1198 12.3501 21.2698 12.2201 21.3998 12.0801C22.3898 14.1601 22.2498 16.9201 20.1798 18.7301Z" fill="#292D32"/>
</svg>
