<svg width="24" height="24" viewBox="0 0 24 24" fill="none" xmlns="http://www.w3.org/2000/svg">
<path d="M20.17 17.5699C19.64 18.0599 19.03 18.4299 18.37 18.6799C17.71 18.9299 17 18.4499 17 17.7399V16.4199C17 14.4699 15.42 12.8899 13.47 12.8899H10.53C8.58 12.8899 7 14.4699 7 16.4199V17.9999C7 18.5499 6.55 18.9999 6 18.9999H5.55C3.1 18.6299 2 16.6399 2 14.8599C2 13.1799 2.98 11.3199 5.11 10.7999C4.52 8.46994 5.02 6.27994 6.54 4.68994C8.27 2.87994 11.03 2.15994 13.41 2.89994C15.6 3.56994 17.14 5.36994 17.69 7.86994C19.6 8.29994 21.13 9.73994 21.74 11.7399C22.4 13.9099 21.8 16.1399 20.17 17.5699Z" fill="#292D32"/>
<path d="M13.47 14.3899H10.53C9.26 14.3899 8.5 15.1499 8.5 16.4199V19.3599C8.5 20.6299 9.26 21.3899 10.53 21.3899H13.47C14.74 21.3899 15.5 20.6299 15.5 19.3599V16.4199C15.5 15.1499 14.74 14.3899 13.47 14.3899ZM10.5 17.6299C10.08 17.6299 9.75 17.2899 9.75 16.8799C9.75 16.4699 10.08 16.1299 10.5 16.1299C10.92 16.1299 11.25 16.4699 11.25 16.8799C11.25 17.2899 10.91 17.6299 10.5 17.6299ZM12 19.8799C11.59 19.8799 11.25 19.5399 11.25 19.1299C11.25 18.7199 11.59 18.3799 12 18.3799C12.41 18.3799 12.75 18.7199 12.75 19.1299C12.75 19.5399 12.42 19.8799 12 19.8799ZM13.51 17.6299C13.09 17.6299 12.76 17.2899 12.76 16.8799C12.76 16.4699 13.09 16.1299 13.51 16.1299C13.93 16.1299 14.26 16.4699 14.26 16.8799C14.26 17.2899 13.92 17.6299 13.51 17.6299Z" fill="#292D32"/>
</svg>
