<svg width="24" height="24" viewBox="0 0 24 24" fill="none" xmlns="http://www.w3.org/2000/svg">
<path d="M16.65 20.7498C16.64 20.7498 16.62 20.7498 16.61 20.7498C16.2 20.7498 15.86 20.4098 15.87 19.9898C15.87 19.5798 16.24 19.2098 16.63 19.2498C17.73 19.2498 18.89 18.8298 19.74 18.0498C21.29 16.6898 21.4 14.7498 20.98 13.3798C20.56 12.0098 19.39 10.4598 17.37 10.1998C17.04 10.1598 16.78 9.90977 16.72 9.57977C16.33 7.18977 15.03 5.53977 13.09 4.93977C11.07 4.31977 8.73998 4.92977 7.27998 6.45977C5.85998 7.94977 5.52998 10.0198 6.34998 12.3098C6.48998 12.6998 6.28998 13.1298 5.89998 13.2698C5.50998 13.4098 5.07998 13.2098 4.93998 12.8198C3.92998 10.0098 4.38998 7.31977 6.19998 5.42977C8.04998 3.49977 10.99 2.72977 13.54 3.51977C15.87 4.23977 17.52 6.15977 18.11 8.81977C20.15 9.27977 21.78 10.8198 22.43 12.9498C23.14 15.2698 22.5 17.6498 20.76 19.1698C19.61 20.1898 18.16 20.7498 16.65 20.7498Z" fill="#292D32"/>
<path d="M5.57008 20.7501C5.55008 20.7501 5.53008 20.7501 5.52008 20.7501C2.64008 20.5501 1.33008 18.2901 1.33008 16.2801C1.33008 14.2701 2.64008 12.0201 5.52008 11.8101C6.28008 11.8201 6.99008 11.9701 7.63008 12.2901C8.00008 12.4801 8.14008 12.9301 7.96008 13.3001C7.77008 13.6701 7.32008 13.8101 6.95008 13.6301C6.53008 13.4101 6.06008 13.3101 5.59008 13.3101C3.70008 13.4501 2.84008 14.9001 2.84008 16.2801C2.84008 17.6601 3.70008 19.1101 5.63008 19.2501C6.04008 19.2801 6.35008 19.6401 6.33008 20.0501C6.29008 20.4501 5.96008 20.7501 5.57008 20.7501Z" fill="#292D32"/>
<path d="M15.8201 10.6402C15.5401 10.6402 15.2801 10.4902 15.1501 10.2202C14.9601 9.85021 15.1101 9.40021 15.4901 9.21021C16.1001 8.90021 16.7901 8.73021 17.4701 8.72021H17.4801C17.8901 8.72021 18.2201 9.05021 18.2301 9.46021C18.2401 9.87021 17.9101 10.2202 17.4901 10.2202C17.0301 10.2302 16.5701 10.3402 16.1501 10.5502C16.0401 10.6202 15.9301 10.6402 15.8201 10.6402Z" fill="#292D32"/>
<path d="M12.98 19C12.42 19 11.98 18.55 11.98 18C11.98 17.45 12.43 17 12.98 17C13.53 17 13.98 17.45 13.98 18C13.98 18.55 13.53 19 12.98 19Z" fill="#292D32"/>
<path d="M8.97998 19C8.41998 19 7.97998 18.55 7.97998 18C7.97998 17.45 8.42998 17 8.97998 17C9.52998 17 9.97998 17.45 9.97998 18C9.97998 18.55 9.52998 19 8.97998 19Z" fill="#292D32"/>
<path d="M10.98 22C10.42 22 9.97998 21.55 9.97998 21C9.97998 20.45 10.43 20 10.98 20C11.53 20 11.98 20.45 11.98 21C11.98 21.55 11.53 22 10.98 22Z" fill="#292D32"/>
</svg>
