<svg width="24" height="24" viewBox="0 0 24 24" fill="none" xmlns="http://www.w3.org/2000/svg">
<path d="M13.47 14.3899H10.53C9.26 14.3899 8.5 15.1499 8.5 16.4199V19.3599C8.5 20.6299 9.26 21.3899 10.53 21.3899H13.47C14.74 21.3899 15.5 20.6299 15.5 19.3599V16.4199C15.5 15.1499 14.74 14.3899 13.47 14.3899ZM14.41 18.3199C14.31 18.4199 14.16 18.4899 14 18.4999H12.59L12.6 19.8899C12.59 20.0599 12.53 20.1999 12.41 20.3199C12.31 20.4199 12.16 20.4899 12 20.4899C11.67 20.4899 11.4 20.2199 11.4 19.8899V18.4899L10 18.4999C9.67 18.4999 9.4 18.2199 9.4 17.8899C9.4 17.5599 9.67 17.2899 10 17.2899L11.4 17.2999V15.8999C11.4 15.5699 11.67 15.2899 12 15.2899C12.33 15.2899 12.6 15.5699 12.6 15.8999L12.59 17.2899H14C14.33 17.2899 14.6 17.5599 14.6 17.8899C14.59 18.0599 14.52 18.1999 14.41 18.3199Z" fill="#292D32"/>
<path d="M20.17 17.5699C19.64 18.0599 19.03 18.4299 18.37 18.6799C17.71 18.9299 17 18.4499 17 17.7399V16.4199C17 14.4699 15.42 12.8899 13.47 12.8899H10.53C8.58 12.8899 7 14.4699 7 16.4199V17.9999C7 18.5499 6.55 18.9999 6 18.9999H5.55C3.1 18.6299 2 16.6399 2 14.8599C2 13.1799 2.98 11.3199 5.11 10.7999C4.52 8.46994 5.02 6.27994 6.54 4.68994C8.27 2.87994 11.03 2.15994 13.41 2.89994C15.6 3.56994 17.14 5.36994 17.69 7.86994C19.6 8.29994 21.13 9.73994 21.74 11.7399C22.4 13.9099 21.8 16.1399 20.17 17.5699Z" fill="#292D32"/>
</svg>
