<svg width="24" height="24" viewBox="0 0 24 24" fill="none" xmlns="http://www.w3.org/2000/svg">
<path d="M20.95 4.12988L4.13 20.9499C5.08 21.6399 6.32 21.9999 7.81 21.9999H16.19C19.83 21.9999 22 19.8299 22 16.1899V7.80988C22 6.31988 21.64 5.07988 20.95 4.12988ZM18.5 16.2499H16.81V17.9999C16.81 18.4099 16.47 18.7499 16.06 18.7499C15.65 18.7499 15.31 18.4099 15.31 17.9999V16.2499H13.5C13.09 16.2499 12.75 15.9099 12.75 15.4999C12.75 15.0899 13.09 14.7499 13.5 14.7499H15.31V12.9999C15.31 12.5899 15.65 12.2499 16.06 12.2499C16.47 12.2499 16.81 12.5899 16.81 12.9999V14.7499H18.5C18.91 14.7499 19.25 15.0899 19.25 15.4999C19.25 15.9099 18.91 16.2499 18.5 16.2499Z" fill="#292D32"/>
<path d="M16.19 2H7.81C4.17 2 2 4.17 2 7.81V16.19C2 17.68 2.36 18.92 3.05 19.87L19.87 3.05C18.92 2.36 17.68 2 16.19 2ZM10.5 8.25H5.5C5.09 8.25 4.75 7.91 4.75 7.5C4.75 7.09 5.09 6.75 5.5 6.75H10.5C10.91 6.75 11.25 7.09 11.25 7.5C11.25 7.91 10.91 8.25 10.5 8.25Z" fill="#292D32"/>
</svg>
