<svg width="24" height="24" viewBox="0 0 24 24" fill="none" xmlns="http://www.w3.org/2000/svg">
<path d="M14.9999 22.75C14.7299 22.75 14.4799 22.6 14.3499 22.37C14.2199 22.14 14.2199 21.85 14.3599 21.62L15.4099 19.87C15.6199 19.51 16.0799 19.4 16.4399 19.61C16.7999 19.82 16.9099 20.28 16.6999 20.64L16.4299 21.09C19.1899 20.44 21.2599 17.96 21.2599 15C21.2599 14.59 21.5999 14.25 22.0099 14.25C22.4199 14.25 22.7599 14.59 22.7599 15C22.7499 19.27 19.2699 22.75 14.9999 22.75Z" fill="#292D32"/>
<path d="M2 9.75C1.59 9.75 1.25 9.41 1.25 9C1.25 4.73 4.73 1.25 9 1.25C9.27 1.25 9.52 1.4 9.65 1.63C9.78 1.86 9.78 2.15 9.64 2.38L8.59 4.14C8.38 4.49 7.92 4.61 7.56 4.39C7.21 4.18 7.09 3.72 7.31 3.36L7.58 2.91C4.81 3.56 2.75 6.04 2.75 9C2.75 9.41 2.41 9.75 2 9.75Z" fill="#292D32"/>
<path d="M10.67 13.8499L7.52996 12.1599C7.19996 11.9799 6.79996 11.9799 6.46996 12.1599L3.32996 13.8499C3.09996 13.9699 2.95996 14.2199 2.95996 14.4899C2.95996 14.7599 3.09996 15.0099 3.32996 15.1299L6.46996 16.8199C6.63996 16.9099 6.81996 16.9499 6.99996 16.9499C7.17996 16.9499 7.35996 16.9099 7.52996 16.8199L10.67 15.1299C10.9 15.0099 11.04 14.7599 11.04 14.4899C11.04 14.2199 10.89 13.9799 10.67 13.8499Z" fill="#292D32"/>
<path d="M5.95 17.4099L3.03 15.9499C2.81 15.8399 2.55 15.8499 2.33 15.9799C2.13 16.1099 2 16.3399 2 16.5899V19.3499C2 19.8299 2.26 20.2599 2.69 20.4699L5.61 21.9299C5.71 21.9699 5.82 21.9999 5.93 21.9999C6.06 21.9999 6.19 21.9599 6.31 21.8899C6.52 21.7599 6.65 21.5299 6.65 21.2799V18.5199C6.65 18.0499 6.38 17.6199 5.95 17.4099Z" fill="#292D32"/>
<path d="M11.6601 15.9799C11.4501 15.8499 11.1901 15.8399 10.9601 15.9499L8.0401 17.4099C7.6101 17.6199 7.3501 18.0499 7.3501 18.5299V21.2899C7.3501 21.5399 7.4801 21.7699 7.6901 21.8999C7.8101 21.9599 7.9401 21.9999 8.0701 21.9999C8.1801 21.9999 8.2901 21.9699 8.3901 21.9199L11.3101 20.4599C11.7401 20.2499 12.0001 19.8199 12.0001 19.3399V16.5799C12.0001 16.3399 11.8701 16.1099 11.6601 15.9799Z" fill="#292D32"/>
<path d="M20.67 3.82988L17.53 2.13988C17.2 1.95988 16.8 1.95988 16.47 2.13988L13.33 3.82988C13.1 3.94988 12.96 4.19988 12.96 4.46988C12.96 4.73988 13.1 4.98988 13.33 5.10988L16.47 6.79988C16.64 6.88988 16.82 6.92988 17 6.92988C17.18 6.92988 17.36 6.88988 17.53 6.79988L20.67 5.10988C20.9 4.98988 21.04 4.73988 21.04 4.46988C21.04 4.18988 20.89 3.94988 20.67 3.82988Z" fill="#292D32"/>
<path d="M15.95 7.38011L13.03 5.92011C12.81 5.81011 12.55 5.82011 12.33 5.95011C12.13 6.08011 12 6.31011 12 6.56011V9.32011C12 9.80011 12.26 10.2301 12.69 10.4401L15.61 11.9001C15.71 11.9501 15.82 11.9801 15.93 11.9801C16.06 11.9801 16.19 11.9401 16.31 11.8701C16.52 11.7401 16.65 11.5101 16.65 11.2601V8.50011C16.65 8.02011 16.38 7.59011 15.95 7.38011Z" fill="#292D32"/>
<path d="M21.6601 5.95011C21.4501 5.82011 21.1901 5.81011 20.9601 5.92011L18.0401 7.38011C17.6101 7.59011 17.3501 8.02011 17.3501 8.50011V11.2601C17.3501 11.5101 17.4801 11.7401 17.6901 11.8701C17.8101 11.9401 17.9401 11.9801 18.0701 11.9801C18.1801 11.9801 18.2901 11.9501 18.3901 11.9001L21.3101 10.4401C21.7401 10.2201 22.0001 9.79011 22.0001 9.32011V6.56011C22.0001 6.31011 21.8701 6.08011 21.6601 5.95011Z" fill="#292D32"/>
</svg>
