<svg width="25" height="25" viewBox="0 0 25 25" fill="none" xmlns="http://www.w3.org/2000/svg">
<path d="M13.0298 3.03003C11.0798 3.03003 9.25978 3.59003 7.72978 4.55003L14.5898 11.42L14.5998 8.68003C14.5998 8.27003 14.9398 7.93003 15.3498 7.93003C15.7698 7.93003 16.0998 8.27003 16.0998 8.68003L16.0898 13.23C16.0898 13.54 15.8998 13.81 15.6198 13.92C15.5298 13.96 15.4298 13.98 15.3398 13.98C15.1398 13.98 14.9498 13.9 14.8098 13.76L6.61979 5.56003C6.57979 5.52003 6.54979 5.48003 6.51979 5.44003C4.37979 7.28003 3.02979 10 3.02979 13.03C3.02979 18.55 7.50979 23.03 13.0298 23.03C14.9798 23.03 16.7998 22.47 18.3298 21.51L11.4698 14.64L11.4598 17.38C11.4598 17.79 11.1198 18.13 10.7098 18.13C10.2898 18.13 9.95979 17.79 9.95979 17.38L9.96979 12.83C9.96979 12.52 10.1598 12.25 10.4398 12.14C10.7098 12.02 11.0398 12.08 11.2498 12.3L19.4398 20.5C19.4798 20.54 19.5098 20.58 19.5398 20.62C21.6798 18.78 23.0298 16.06 23.0298 13.03C23.0298 7.51003 18.5498 3.03003 13.0298 3.03003Z" fill="#292D32"/>
</svg>
