<svg width="24" height="24" viewBox="0 0 24 24" fill="none" xmlns="http://www.w3.org/2000/svg">
<path d="M22 21.2499H20.75V10.9999C20.75 8.57994 19.42 7.24994 17 7.24994H12.75V6.01994C13.33 6.15994 13.91 6.23994 14.5 6.23994C15.44 6.23994 16.38 6.05994 17.28 5.69994C17.56 5.58994 17.75 5.30994 17.75 4.99994V1.99994C17.75 1.74994 17.63 1.51994 17.42 1.37994C17.21 1.23994 16.95 1.20994 16.72 1.29994C15.29 1.86994 13.71 1.86994 12.28 1.29994C12.05 1.20994 11.79 1.23994 11.58 1.37994C11.37 1.51994 11.25 1.74994 11.25 1.99994V4.99994V7.24994H7C4.58 7.24994 3.25 8.57994 3.25 10.9999V21.2499H2C1.59 21.2499 1.25 21.5899 1.25 21.9999C1.25 22.4099 1.59 22.7499 2 22.7499H4H20H22C22.41 22.7499 22.75 22.4099 22.75 21.9999C22.75 21.5899 22.41 21.2499 22 21.2499ZM7.24 21.2499H4.75V12.7499H7.24V21.2499ZM11.24 21.2499H8.74V12.7499H11.24V21.2499ZM15.24 21.2499H12.74V12.7499H15.24V21.2499ZM19.25 21.2499H16.74V12.7499H19.25V21.2499Z" fill="#292D32"/>
</svg>
