<svg width="24" height="24" viewBox="0 0 24 24" fill="none" xmlns="http://www.w3.org/2000/svg">
<path d="M9.6 20.75C5.21 20.75 3.25 18.79 3.25 14.4V9.6C3.25 5.21 5.21 3.25 9.6 3.25H14.4C18.79 3.25 20.75 5.21 20.75 9.6C20.75 10.01 20.41 10.35 20 10.35C19.59 10.35 19.25 10.01 19.25 9.6C19.25 6.02 17.98 4.75 14.4 4.75H9.6C6.02 4.75 4.75 6.02 4.75 9.6V14.4C4.75 17.98 6.02 19.25 9.6 19.25C10.01 19.25 10.35 19.59 10.35 20C10.35 20.41 10.01 20.75 9.6 20.75Z" fill="#292D32"/>
<path d="M7.98999 17.1C7.82999 17.1 7.65999 17.05 7.51999 16.94C6.64999 16.25 6.23999 15.15 6.23999 13.5V10.5C6.23999 7.6 7.58999 6.25 10.49 6.25H13.49C15.14 6.25 16.23 6.66 16.93 7.53C17.19 7.85 17.13 8.33 16.81 8.58C16.49 8.84 16.01 8.79 15.76 8.46C15.52 8.15 15.02 7.75 13.5 7.75H10.5C8.41999 7.75 7.74999 8.42 7.74999 10.5V13.5C7.74999 15.02 8.15999 15.52 8.45999 15.76C8.77999 16.02 8.83999 16.49 8.57999 16.81C8.42999 17 8.20999 17.1 7.98999 17.1Z" fill="#292D32"/>
<path d="M8.01001 4.75C7.59001 4.75 7.26001 4.41 7.26001 4V2C7.26001 1.59 7.60001 1.25 8.01001 1.25C8.42001 1.25 8.76001 1.59 8.76001 2V4C8.76001 4.41 8.42001 4.75 8.01001 4.75Z" fill="#292D32"/>
<path d="M12 4.75C11.59 4.75 11.25 4.41 11.25 4V2C11.25 1.59 11.59 1.25 12 1.25C12.41 1.25 12.75 1.59 12.75 2V4C12.75 4.41 12.41 4.75 12 4.75Z" fill="#292D32"/>
<path d="M16 4.75C15.59 4.75 15.25 4.41 15.25 4V2C15.25 1.59 15.59 1.25 16 1.25C16.41 1.25 16.75 1.59 16.75 2V4C16.75 4.41 16.41 4.75 16 4.75Z" fill="#292D32"/>
<path d="M22 8.75H20C19.59 8.75 19.25 8.41 19.25 8C19.25 7.59 19.59 7.25 20 7.25H22C22.41 7.25 22.75 7.59 22.75 8C22.75 8.41 22.42 8.75 22 8.75Z" fill="#292D32"/>
<path d="M8.01001 22.75C7.60001 22.75 7.26001 22.41 7.26001 22V20C7.26001 19.59 7.60001 19.25 8.01001 19.25C8.42001 19.25 8.76001 19.59 8.76001 20V22C8.76001 22.41 8.42001 22.75 8.01001 22.75Z" fill="#292D32"/>
<path d="M4 8.75H2C1.59 8.75 1.25 8.42 1.25 8C1.25 7.58 1.59 7.25 2 7.25H4C4.41 7.25 4.75 7.59 4.75 8C4.75 8.41 4.42 8.75 4 8.75Z" fill="#292D32"/>
<path d="M4 12.75H2C1.59 12.75 1.25 12.41 1.25 12C1.25 11.59 1.59 11.25 2 11.25H4C4.41 11.25 4.75 11.59 4.75 12C4.75 12.41 4.42 12.75 4 12.75Z" fill="#292D32"/>
<path d="M4 16.75H2C1.59 16.75 1.25 16.41 1.25 16C1.25 15.59 1.59 15.25 2 15.25H4C4.41 15.25 4.75 15.59 4.75 16C4.75 16.41 4.42 16.75 4 16.75Z" fill="#292D32"/>
<path d="M16.71 19.3402C15.42 19.3402 14.37 18.2902 14.37 17.0002C14.37 15.7102 15.42 14.6602 16.71 14.6602C18 14.6602 19.05 15.7102 19.05 17.0002C19.04 18.2902 18 19.3402 16.71 19.3402ZM16.71 16.1602C16.25 16.1602 15.87 16.5402 15.87 17.0002C15.87 17.4602 16.25 17.8402 16.71 17.8402C17.17 17.8402 17.55 17.4602 17.55 17.0002C17.54 16.5402 17.17 16.1602 16.71 16.1602Z" fill="#292D32"/>
<path d="M18.4 22.7501C17.84 22.7501 17.29 22.4601 16.99 21.9401L16.92 21.8301C16.81 21.6401 16.72 21.5901 16.7 21.5801C16.69 21.5801 16.59 21.6401 16.48 21.8301L16.42 21.9301C15.96 22.7201 14.95 22.9801 14.18 22.5201L13.28 22.0001C12.87 21.7701 12.58 21.3901 12.46 20.9301C12.34 20.4801 12.4 20.0001 12.63 19.6001C12.74 19.4101 12.74 19.3001 12.73 19.2801C12.72 19.2701 12.63 19.2201 12.41 19.2201C11.44 19.2201 10.65 18.4301 10.65 17.4701V16.5401C10.65 15.5701 11.44 14.7901 12.4 14.7901C12.62 14.7901 12.71 14.7301 12.73 14.7201C12.73 14.7101 12.73 14.6001 12.62 14.4101C12.39 14.0001 12.32 13.5301 12.45 13.0801C12.57 12.6301 12.86 12.2501 13.27 12.0101L14.18 11.4801C14.94 11.0301 15.95 11.2901 16.4 12.0701L16.46 12.1801C16.57 12.3701 16.66 12.4201 16.68 12.4301C16.69 12.4301 16.79 12.3701 16.9 12.1801L16.96 12.0801C17.43 11.2901 18.43 11.0301 19.2 11.4901L20.13 12.0001C20.54 12.2301 20.83 12.6101 20.95 13.0701C21.07 13.5201 21.01 14.0001 20.78 14.4001C20.67 14.5901 20.67 14.7001 20.68 14.7201C20.69 14.7301 20.78 14.7801 21 14.7801C21.97 14.7801 22.76 15.5701 22.76 16.5301V17.4601C22.76 18.4301 21.97 19.2101 21.01 19.2101C20.79 19.2101 20.7 19.2701 20.68 19.2801C20.68 19.2901 20.68 19.4001 20.79 19.5901C21.02 20.0001 21.09 20.4701 20.96 20.9201C20.84 21.3701 20.55 21.7501 20.14 21.9901L19.23 22.5201C18.96 22.6701 18.68 22.7501 18.4 22.7501ZM16.71 20.0801C17.31 20.0801 17.86 20.4401 18.23 21.0801L18.29 21.1901C18.32 21.2401 18.4 21.2701 18.46 21.2301L19.38 20.7001C19.46 20.6601 19.49 20.5801 19.5 20.5401C19.51 20.5001 19.52 20.4301 19.48 20.3501C19.11 19.7201 19.08 19.0601 19.38 18.5401C19.68 18.0201 20.27 17.7201 21 17.7201C21.14 17.7201 21.26 17.6001 21.26 17.4701V16.5401C21.26 16.4001 21.14 16.2901 21.01 16.2901C20.28 16.2901 19.68 15.9901 19.39 15.4701C19.09 14.9501 19.13 14.2901 19.49 13.6601C19.54 13.5801 19.53 13.5001 19.51 13.4701C19.5 13.4301 19.47 13.3601 19.39 13.3101L18.48 12.7801C18.41 12.7401 18.33 12.7701 18.29 12.8301L18.24 12.9201C17.87 13.5601 17.32 13.9201 16.72 13.9201C16.12 13.9201 15.57 13.5601 15.2 12.9201L15.14 12.8201C15.11 12.7601 15.02 12.7401 14.97 12.7701L14.05 13.3001C13.97 13.3401 13.94 13.4201 13.93 13.4601C13.92 13.5001 13.91 13.5701 13.95 13.6501C14.32 14.2801 14.35 14.9401 14.05 15.4601C13.75 15.9801 13.16 16.2801 12.43 16.2801C12.29 16.2801 12.17 16.4001 12.17 16.5301V17.4601C12.17 17.6001 12.29 17.7101 12.42 17.7101C13.15 17.7101 13.75 18.0101 14.04 18.5301C14.34 19.0501 14.3 19.7101 13.94 20.3401C13.9 20.4201 13.91 20.4901 13.92 20.5301C13.93 20.5701 13.96 20.6401 14.04 20.6901L14.95 21.2201C15.02 21.2601 15.1 21.2301 15.14 21.1701L15.19 21.0701C15.55 20.4401 16.11 20.0801 16.71 20.0801Z" fill="#292D32"/>
</svg>
