<svg width="24" height="24" viewBox="0 0 24 24" fill="none" xmlns="http://www.w3.org/2000/svg">
<path d="M12.15 19.35C11.74 19.35 11.4 19.01 11.4 18.6V16.5C11.4 16.09 11.74 15.75 12.15 15.75C12.56 15.75 12.9 16.09 12.9 16.5V18.6C12.9 19.01 12.56 19.35 12.15 19.35Z" fill="#292D32"/>
<path d="M17.9 22.75H6.40002V21C6.40002 19.48 7.63002 18.25 9.15002 18.25H15.15C16.67 18.25 17.9 19.48 17.9 21V22.75ZM7.90002 21.25H16.4V21C16.4 20.31 15.84 19.75 15.15 19.75H9.15002C8.46002 19.75 7.90002 20.31 7.90002 21V21.25Z" fill="#292D32"/>
<path d="M18.15 22.75H6.15002C5.74002 22.75 5.40002 22.41 5.40002 22C5.40002 21.59 5.74002 21.25 6.15002 21.25H18.15C18.56 21.25 18.9 21.59 18.9 22C18.9 22.41 18.56 22.75 18.15 22.75Z" fill="#292D32"/>
<path d="M18.43 12.4401C18.22 12.4401 18.01 12.3501 17.86 12.1801C17.67 11.9601 17.62 11.6501 17.74 11.3901C18.08 10.6101 18.25 9.78006 18.25 8.91006V5.91006C18.25 5.56006 18.19 5.22006 18.07 4.86006C18.06 4.83006 18.05 4.79006 18.04 4.75006C18.01 4.60006 18 4.45006 18 4.31006C18 3.90006 18.34 3.56006 18.75 3.56006H19.35C21.14 3.56006 22.6 5.06006 22.6 6.91006C22.6 8.44006 21.97 9.95006 20.88 11.0401C20.86 11.0601 20.8 11.1101 20.79 11.1201C20.2 11.6101 19.53 12.1601 18.63 12.4101C18.56 12.4301 18.5 12.4401 18.43 12.4401ZM19.68 5.09006C19.73 5.36006 19.75 5.64006 19.75 5.91006V8.91006C19.75 9.32006 19.72 9.71006 19.66 10.1101C19.72 10.0601 19.77 10.0201 19.83 9.97006C20.63 9.17006 21.1 8.05006 21.1 6.91006C21.1 6.01006 20.49 5.25006 19.68 5.09006Z" fill="#292D32"/>
<path d="M5.58002 12.4001C5.50002 12.4001 5.43002 12.3901 5.35002 12.3601C4.53002 12.1001 3.76002 11.6201 3.12002 10.9801C1.97002 9.7101 1.40002 8.3201 1.40002 6.8501C1.40002 5.0301 2.83002 3.6001 4.65002 3.6001H5.30002C5.55002 3.6001 5.79002 3.7301 5.93002 3.9401C6.07002 4.1501 6.09002 4.4201 5.99002 4.6501C5.83002 5.0101 5.75002 5.4201 5.75002 5.8501V8.8501C5.75002 9.7101 5.92002 10.5501 6.27002 11.3501C6.39002 11.6201 6.33002 11.9301 6.14002 12.1501C5.99002 12.3101 5.79002 12.4001 5.58002 12.4001ZM4.30002 5.1301C3.49002 5.2901 2.90002 5.9901 2.90002 6.8501C2.90002 7.9401 3.34002 8.9901 4.21002 9.9501C4.25002 10.0001 4.30002 10.0401 4.35002 10.0801C4.28002 9.6701 4.25002 9.2601 4.25002 8.8501V5.8501C4.25002 5.6101 4.27002 5.3701 4.30002 5.1301Z" fill="#292D32"/>
<path d="M12 16.75C7.73 16.75 4.25 13.27 4.25 9V6C4.25 3.38 6.38 1.25 9 1.25H15C17.62 1.25 19.75 3.38 19.75 6V9C19.75 13.27 16.27 16.75 12 16.75ZM9 2.75C7.21 2.75 5.75 4.21 5.75 6V9C5.75 12.45 8.55 15.25 12 15.25C15.45 15.25 18.25 12.45 18.25 9V6C18.25 4.21 16.79 2.75 15 2.75H9Z" fill="#292D32"/>
</svg>
