<svg width="24" height="24" viewBox="0 0 24 24" fill="none" xmlns="http://www.w3.org/2000/svg">
<path d="M12 22.75C6.07 22.75 1.25 17.93 1.25 12C1.25 6.07 6.07 1.25 12 1.25C17.93 1.25 22.75 6.07 22.75 12C22.75 17.93 17.93 22.75 12 22.75ZM12 2.75C6.9 2.75 2.75 6.9 2.75 12C2.75 17.1 6.9 21.25 12 21.25C17.1 21.25 21.25 17.1 21.25 12C21.25 6.9 17.1 2.75 12 2.75Z" fill="black"/>
<path d="M12 17.75H8C7.59 17.75 7.25 17.41 7.25 17V7C7.25 6.59 7.59 6.25 8 6.25H12C15.17 6.25 17.75 8.83 17.75 12C17.75 15.17 15.17 17.75 12 17.75ZM8.75 16.25H12C14.34 16.25 16.25 14.34 16.25 12C16.25 9.66 14.34 7.75 12 7.75H8.75V16.25Z" fill="black"/>
<path d="M18.52 10.75H6.47998C6.06998 10.75 5.72998 10.41 5.72998 10C5.72998 9.59 6.06998 9.25 6.47998 9.25H18.52C18.93 9.25 19.27 9.59 19.27 10C19.27 10.41 18.93 10.75 18.52 10.75Z" fill="black"/>
<path d="M18.52 14.75H6.47998C6.06998 14.75 5.72998 14.41 5.72998 14C5.72998 13.59 6.06998 13.25 6.47998 13.25H18.52C18.93 13.25 19.27 13.59 19.27 14C19.27 14.41 18.93 14.75 18.52 14.75Z" fill="black"/>
</svg>
