<svg width="24" height="24" viewBox="0 0 24 24" fill="none" xmlns="http://www.w3.org/2000/svg">
<path d="M13.5001 21.25H3.94007C3.71007 21.25 3.49007 21.14 3.35007 20.96C3.21007 20.78 3.16007 20.54 3.21007 20.32L4.27007 16.07C4.35007 15.74 4.65007 15.5 5.00007 15.5H12.4401C15.3401 15.5 17.0001 13.84 17.0001 10.94V10.75C17.0001 9.15 16.3501 8.5 14.7501 8.5H6.06007C5.83007 8.5 5.61007 8.39001 5.47007 8.21001C5.33007 8.03001 5.28007 7.79001 5.33007 7.57001L6.39007 3.32001C6.47007 2.99001 6.77007 2.75 7.12007 2.75H16.0001C20.1601 2.75 22.7501 5.34 22.7501 9.5V12C22.7501 17.71 19.2101 21.25 13.5001 21.25ZM4.90007 19.75H13.5001C18.3501 19.75 21.2501 16.85 21.2501 12V9.5C21.2501 6.16 19.3401 4.25 16.0001 4.25H7.71007L7.02007 7H14.7501C17.1701 7 18.5001 8.33 18.5001 10.75V10.94C18.5001 14.68 16.1801 17 12.4401 17H5.59007L4.90007 19.75Z" fill="black"/>
<path d="M9.19001 14.2498H2.00001C1.77001 14.2498 1.55001 14.1398 1.41001 13.9598C1.27001 13.7798 1.22001 13.5398 1.27001 13.3198L1.64001 11.8398C1.95001 10.6098 3.04001 9.75977 4.31001 9.75977H11.5C11.73 9.75977 11.95 9.86977 12.09 10.0498C12.23 10.2298 12.28 10.4698 12.23 10.6898L11.86 12.1698C11.55 13.3898 10.45 14.2498 9.19001 14.2498ZM2.96001 12.7498H9.19001C9.76001 12.7498 10.26 12.3598 10.4 11.7998L10.54 11.2498H4.31001C3.74001 11.2498 3.24001 11.6398 3.10001 12.1998L2.96001 12.7498Z" fill="black"/>
</svg>
