<svg width="24" height="24" viewBox="0 0 24 24" fill="none" xmlns="http://www.w3.org/2000/svg">
<path d="M13 20.75H8.5C4.5 20.75 1.25 17.5 1.25 13.5C1.25 11.07 2.45 8.84 4.44 7.5L1.47 4.53C1.26 4.32 1.19 3.99001 1.31 3.71001C1.43 3.43001 1.7 3.25 2 3.25H7C7.2 3.25 7.39 3.33 7.53 3.47L13.53 9.47C13.74 9.68 13.81 10.01 13.69 10.29C13.57 10.57 13.3 10.75 13 10.75H8.5C6.98 10.75 5.75 11.98 5.75 13.5C5.75 15.02 6.98 16.25 8.5 16.25H10C10.2 16.25 10.39 16.33 10.53 16.47L13.53 19.47C13.74 19.68 13.81 20.01 13.69 20.29C13.57 20.57 13.3 20.75 13 20.75ZM3.81 4.75L6.17999 7.12C6.34999 7.29 6.43001 7.53 6.39001 7.77C6.35001 8.01 6.19999 8.21001 5.98999 8.32001L5.79999 8.42C3.91999 9.41 2.73999 11.36 2.73999 13.5C2.73999 16.67 5.31999 19.25 8.48999 19.25H11.18L9.67999 17.75H8.48999C6.14999 17.75 4.23999 15.84 4.23999 13.5C4.23999 11.16 6.14999 9.25 8.48999 9.25H11.18L6.67999 4.75H3.81Z" fill="black"/>
<path d="M22 20.75H17C16.8 20.75 16.61 20.67 16.47 20.53L10.47 14.53C10.26 14.32 10.19 13.99 10.31 13.71C10.43 13.43 10.7 13.25 11 13.25H15.5C17.02 13.25 18.25 12.02 18.25 10.5C18.25 8.98 17.02 7.75 15.5 7.75H14C13.8 7.75 13.61 7.67 13.47 7.53L10.47 4.53C10.26 4.32 10.19 3.99001 10.31 3.71001C10.43 3.43001 10.7 3.25 11 3.25H15.5C19.5 3.25 22.75 6.5 22.75 10.5C22.75 12.93 21.55 15.16 19.56 16.5L22.53 19.47C22.74 19.68 22.81 20.01 22.69 20.29C22.57 20.57 22.3 20.75 22 20.75ZM17.31 19.25H20.19L17.82 16.88C17.65 16.71 17.57 16.47 17.61 16.23C17.65 15.99 17.8 15.79 18.01 15.68L18.2 15.58C20.08 14.59 21.26 12.64 21.26 10.5C21.26 7.33 18.68 4.75 15.51 4.75H12.82L14.32 6.25H15.51C17.85 6.25 19.76 8.16 19.76 10.5C19.76 12.84 17.85 14.75 15.51 14.75H12.82L17.31 19.25Z" fill="black"/>
</svg>
