<svg width="24" height="24" viewBox="0 0 24 24" fill="none" xmlns="http://www.w3.org/2000/svg">
<path d="M11.9999 18.9001C10.8599 18.9001 9.92993 17.9701 9.92993 16.8301V7.17009C9.92993 6.03009 10.8599 5.1001 11.9999 5.1001C13.1399 5.1001 14.0699 6.03009 14.0699 7.17009V16.8301C14.0699 17.9701 13.1399 18.9001 11.9999 18.9001ZM11.9999 6.6001C11.6899 6.6001 11.4299 6.85009 11.4299 7.17009V16.8301C11.4299 17.1401 11.6799 17.4001 11.9999 17.4001C12.3199 17.4001 12.5699 17.1501 12.5699 16.8301V7.17009C12.5699 6.86009 12.3099 6.6001 11.9999 6.6001Z" fill="black"/>
<path d="M16.18 16.4798C15.83 16.4798 15.47 16.3898 15.15 16.1998L6.78 11.3698C6.3 11.0898 5.96 10.6498 5.82 10.1098C5.68 9.57977 5.75 9.01977 6.03 8.53977C6.6 7.54977 7.87 7.20977 8.85 7.77977L17.22 12.6098C18.21 13.1798 18.55 14.4498 17.98 15.4298C17.59 16.1098 16.89 16.4798 16.18 16.4798ZM7.82 9.01978C7.77 9.01978 7.72 9.02977 7.67 9.03977C7.52 9.07977 7.4 9.16978 7.32 9.29978C7.25 9.42977 7.23 9.57977 7.26 9.72977C7.3 9.87977 7.39 9.99977 7.52 10.0798L15.89 14.9098C16.16 15.0598 16.51 14.9698 16.67 14.6998C16.83 14.4298 16.73 14.0798 16.46 13.9198L8.09 9.08977C8.01 9.03977 7.92 9.01978 7.82 9.01978Z" fill="black"/>
<path d="M7.82001 16.4798C7.10001 16.4798 6.41001 16.1098 6.03001 15.4498C5.46001 14.4598 5.80002 13.1998 6.79002 12.6298L15.16 7.79979C16.15 7.22979 17.41 7.56978 17.98 8.55978C18.26 9.03978 18.33 9.58979 18.19 10.1298C18.05 10.6598 17.71 11.1098 17.23 11.3898L8.86001 16.2198C8.53001 16.3898 8.17001 16.4798 7.82001 16.4798ZM7.32001 14.6998C7.47001 14.9698 7.83001 15.0598 8.10001 14.9098L16.47 10.0798C16.6 9.99979 16.69 9.87978 16.73 9.72978C16.77 9.57978 16.75 9.42979 16.67 9.29979C16.59 9.16979 16.47 9.07978 16.32 9.03978C16.17 8.99978 16.02 9.01979 15.89 9.09979L7.52001 13.9298C7.26001 14.0798 7.17001 14.4298 7.32001 14.6998Z" fill="black"/>
<path d="M12 22.75C6.07 22.75 1.25 17.93 1.25 12C1.25 6.07 6.07 1.25 12 1.25C17.93 1.25 22.75 6.07 22.75 12C22.75 17.93 17.93 22.75 12 22.75ZM12 2.75C6.9 2.75 2.75 6.9 2.75 12C2.75 17.1 6.9 21.25 12 21.25C17.1 21.25 21.25 17.1 21.25 12C21.25 6.9 17.1 2.75 12 2.75Z" fill="black"/>
</svg>
