<svg width="24" height="24" viewBox="0 0 24 24" fill="none" xmlns="http://www.w3.org/2000/svg">
<path d="M15.7201 9.69002C13.6701 7.63002 10.3301 7.63002 8.28011 9.69002C6.22011 11.75 6.22011 15.08 8.28011 17.13C10.3401 19.19 13.6701 19.19 15.7201 17.13C17.7801 15.07 17.7801 11.74 15.7201 9.69002ZM12.5301 13.94L10.9401 15.53C10.7901 15.68 10.6001 15.75 10.4101 15.75C10.2201 15.75 10.0201 15.68 9.88011 15.53C9.59011 15.24 9.59011 14.76 9.88011 14.46L11.4701 12.87C11.7601 12.58 12.2401 12.58 12.5401 12.87C12.8301 13.17 12.8301 13.65 12.5301 13.94Z" fill="#292D32"/>
<path d="M19.6001 5.81021C19.3801 5.59021 19.1001 5.47021 18.7901 5.47021C18.4801 5.47021 18.2001 5.59022 17.9801 5.80022C17.5301 6.25022 17.5301 6.97022 17.9801 7.42022C18.2001 7.64022 18.4801 7.76022 18.7901 7.76022C19.1001 7.76022 19.3801 7.64021 19.6001 7.43021C19.8201 7.21021 19.9401 6.93021 19.9401 6.62021C19.9401 6.31021 19.8201 6.02021 19.6001 5.81021Z" fill="#292D32"/>
<path d="M6.02006 19.3898C5.80006 19.1698 5.52006 19.0498 5.21006 19.0498C4.90006 19.0498 4.62006 19.1698 4.40006 19.3798C4.18006 19.5998 4.06006 19.8798 4.06006 20.1898C4.06006 20.4998 4.18006 20.7798 4.40006 20.9998C4.62006 21.2198 4.92006 21.3298 5.21006 21.3298C5.50006 21.3298 5.80006 21.2198 6.02006 20.9898C6.46006 20.5598 6.46006 19.8298 6.02006 19.3898Z" fill="#292D32"/>
<path d="M22.4099 12.5998C22.1999 12.3798 21.9099 12.2698 21.5999 12.2598C21.2899 12.2598 21.0099 12.3798 20.7899 12.5998C20.3399 13.0498 20.3399 13.7698 20.7899 14.2198C21.0099 14.4398 21.3099 14.5498 21.5999 14.5498C21.8899 14.5498 22.1899 14.4398 22.4099 14.2198C22.8599 13.7698 22.8599 13.0398 22.4099 12.5998Z" fill="#292D32"/>
<path d="M3.20994 12.5999C2.76994 12.1599 2.03994 12.1499 1.58994 12.5999C1.13994 13.0499 1.13994 13.7699 1.58994 14.2199C1.80994 14.4399 2.10994 14.5499 2.39994 14.5499C2.68994 14.5499 2.98994 14.4399 3.20994 14.2199C3.64994 13.7699 3.64994 13.0399 3.20994 12.5999Z" fill="#292D32"/>
<path d="M19.6001 19.3902C19.1501 18.9402 18.4301 18.9402 17.9801 19.3902C17.5301 19.8402 17.5301 20.5602 17.9801 21.0102C18.2001 21.2302 18.5001 21.3402 18.7901 21.3402C19.0801 21.3402 19.3801 21.2302 19.6001 21.0102C19.8201 20.7902 19.9401 20.5002 19.9401 20.2002C19.9401 19.8902 19.8201 19.6002 19.6001 19.3902Z" fill="#292D32"/>
<path d="M6.02006 5.81021C5.80006 5.59021 5.52006 5.47021 5.21006 5.47021C4.90006 5.47021 4.62006 5.59022 4.40006 5.80022C4.18006 6.02022 4.06006 6.30022 4.06006 6.61022C4.06006 6.92022 4.18006 7.21022 4.40006 7.42022C4.62006 7.64022 4.90006 7.76022 5.21006 7.76022C5.52006 7.76022 5.80006 7.64021 6.02006 7.43021C6.46006 6.98021 6.46006 6.25021 6.02006 5.81021Z" fill="#292D32"/>
<path d="M12.8101 3.0001C12.8101 2.9901 12.8101 2.9901 12.8101 3.0001C12.3601 2.5501 11.6401 2.5501 11.1901 3.0001C10.9701 3.2201 10.8501 3.5101 10.8501 3.8101C10.8501 4.1201 10.9701 4.4001 11.1801 4.6201C11.4001 4.8401 11.6801 4.9601 11.9901 4.9601C12.3001 4.9601 12.5801 4.8401 12.8001 4.6201C13.2601 4.1701 13.2601 3.4401 12.8101 3.0001Z" fill="#292D32"/>
</svg>
