<svg width="24" height="24" viewBox="0 0 24 24" fill="none" xmlns="http://www.w3.org/2000/svg">
<path d="M12.0001 21.7498C10.5301 21.7498 9.19009 20.9398 8.51009 19.6398L2.41009 8.04981C1.59009 6.49981 1.86009 4.69981 3.08009 3.44981C4.30009 2.19981 6.10009 1.89981 7.66009 2.67981L10.9001 4.29981C11.5801 4.63981 12.4001 4.63981 13.0901 4.29981L16.3301 2.67981C17.9001 1.89981 19.7001 2.19981 20.9201 3.44981C22.1401 4.69981 22.4101 6.49981 21.5901 8.04981L15.4901 19.6398C14.8101 20.9398 13.4701 21.7498 12.0001 21.7498ZM5.88009 3.74981C5.17009 3.74981 4.55009 4.08981 4.15009 4.49981C3.55009 5.11981 3.12009 6.18981 3.73009 7.34981L9.83009 18.9398C10.2601 19.7598 11.0701 20.2498 11.9901 20.2498C12.9101 20.2498 13.7201 19.7598 14.1501 18.9398L20.2501 7.34981C20.8601 6.18981 20.4401 5.10981 19.8301 4.49981C19.2301 3.88981 18.1701 3.43981 16.9901 4.01981L13.7501 5.63981C12.6401 6.18981 11.3301 6.18981 10.2201 5.63981L6.99009 4.01981C6.61009 3.82981 6.23009 3.74981 5.88009 3.74981Z" fill="#292D32"/>
</svg>
