<svg width="24" height="24" viewBox="0 0 24 24" fill="none" xmlns="http://www.w3.org/2000/svg">
<path d="M17.02 2.7202L13.54 4.4602C12.57 4.9402 11.44 4.9402 10.47 4.4602L6.97997 2.7102C3.99997 1.2202 0.849974 4.4402 2.40997 7.3902L3.22997 8.9302C3.33997 9.1402 3.51997 9.3102 3.73997 9.4102L16.39 15.1002C16.91 15.3302 17.52 15.1202 17.78 14.6202L21.59 7.3802C23.14 4.4402 20 1.2202 17.02 2.7202Z" fill="#292D32"/>
<path d="M15.6 16.3102L7.31996 12.5802C6.38996 12.1602 5.44996 13.1602 5.92996 14.0602L8.96996 19.8302C10.26 22.2802 13.76 22.2802 15.05 19.8302L16.12 17.7902C16.4 17.2402 16.16 16.5702 15.6 16.3102Z" fill="#292D32"/>
</svg>
