<svg width="24" height="24" viewBox="0 0 24 24" fill="none" xmlns="http://www.w3.org/2000/svg">
<path d="M2.71008 17.0202L4.45008 13.5402C4.93008 12.5702 4.93008 11.4402 4.45008 10.4702L2.71008 6.98022C1.22008 4.00022 4.43008 0.850218 7.38008 2.41022L8.92008 3.23022C9.14008 3.34022 9.31008 3.52022 9.40008 3.74022L15.0901 16.3902C15.3201 16.9102 15.1101 17.5202 14.6101 17.7802L7.37008 21.5902C4.43008 23.1502 1.22008 20.0002 2.71008 17.0202Z" fill="#292D32"/>
<path d="M16.31 15.6L12.58 7.31996C12.16 6.38996 13.16 5.44996 14.06 5.92996L19.83 8.96996C22.28 10.26 22.28 13.76 19.83 15.05L17.79 16.12C17.24 16.4 16.57 16.17 16.31 15.6Z" fill="#292D32"/>
</svg>
