<svg width="24" height="24" viewBox="0 0 24 24" fill="none" xmlns="http://www.w3.org/2000/svg">
<path d="M18.1201 21.75C17.5201 21.75 16.9101 21.61 16.3301 21.32L13.0901 19.7C12.4101 19.36 11.5901 19.36 10.9001 19.7L7.66009 21.32C6.10009 22.1 4.30009 21.8 3.08009 20.55C1.86009 19.3 1.59009 17.5 2.41009 15.95L8.51009 4.36C9.19009 3.06 10.5301 2.25 12.0001 2.25C13.4701 2.25 14.8101 3.06 15.4901 4.36L21.5901 15.95C22.4001 17.5 22.1401 19.3 20.9201 20.55C20.1501 21.34 19.1501 21.75 18.1201 21.75ZM12.0001 17.94C12.6101 17.94 13.2101 18.08 13.7601 18.35L17.0001 19.97C18.1701 20.56 19.2401 20.11 19.8401 19.49C20.4401 18.87 20.8701 17.8 20.2601 16.64L14.1601 5.05C13.7301 4.24 12.9201 3.75 12.0001 3.75C11.0801 3.75 10.2701 4.24 9.84009 5.06L3.74009 16.65C3.13009 17.81 3.55009 18.89 4.16009 19.5C4.77009 20.11 5.83009 20.56 7.00009 19.98L10.2401 18.36C10.7901 18.08 11.3901 17.94 12.0001 17.94Z" fill="#292D32"/>
</svg>
