<svg width="24" height="24" viewBox="0 0 24 24" fill="none" xmlns="http://www.w3.org/2000/svg">
<path d="M18.6899 11.5298C18.1199 11.3798 17.4499 11.2998 16.6499 11.2998C15.5399 11.2998 15.1299 11.5698 14.5599 11.9998C14.5299 12.0198 14.4999 12.0498 14.4699 12.0798L13.5199 13.0898C12.7299 13.9398 11.2799 13.9398 10.4799 13.0898L9.52993 12.0898C9.49993 12.0498 9.46993 12.0198 9.43993 11.9998C8.85993 11.5698 8.44993 11.2998 7.34993 11.2998C6.54993 11.2998 5.87993 11.3698 5.30993 11.5298C2.92993 12.1698 2.92993 14.0598 2.92993 15.7198V16.6498C2.92993 19.1598 2.92993 21.9998 8.27993 21.9998H15.7199C19.2699 21.9998 21.0699 20.1998 21.0699 16.6498V15.7198C21.0699 14.0598 21.0699 12.1698 18.6899 11.5298Z" fill="#292D32"/>
<path d="M14.79 2H9.21004C4.79004 2 4.79004 4.35 4.79004 6.42V10.12C4.83004 10.1 4.88004 10.09 4.92004 10.08C5.62004 9.89 6.41004 9.8 7.35004 9.8C8.89004 9.8 9.62004 10.25 10.34 10.8C10.44 10.87 10.54 10.96 10.63 11.06L11.57 12.05C11.67 12.16 11.83 12.22 12 12.22C12.17 12.22 12.33 12.16 12.42 12.06L13.38 11.05C13.46 10.97 13.55 10.88 13.65 10.81C14.39 10.25 15.11 9.8 16.65 9.8C17.59 9.8 18.38 9.89 19.08 10.08C19.12 10.09 19.17 10.1 19.21 10.12V6.42C19.21 4.35 19.21 2 14.79 2ZM13.55 8.5H10.45C10.07 8.5 9.75004 8.18 9.75004 7.8C9.75004 7.41 10.07 7.1 10.45 7.1H13.55C13.93 7.1 14.25 7.41 14.25 7.8C14.25 8.18 13.93 8.5 13.55 8.5ZM14.33 5.71H9.67004C9.29004 5.71 8.98004 5.39 8.98004 5.01C8.98004 4.62 9.29004 4.31 9.67004 4.31H14.33C14.71 4.31 15.02 4.62 15.02 5.01C15.02 5.39 14.71 5.71 14.33 5.71Z" fill="#292D32"/>
</svg>
