<svg width="24" height="24" viewBox="0 0 24 24" fill="none" xmlns="http://www.w3.org/2000/svg">
<path d="M10.8 22.0999C10.51 22.0999 10.22 22.0499 9.94998 21.9499C8.69998 21.5399 7.89998 20.1599 8.17998 18.8799L8.66998 15.7299C8.67998 15.6599 8.67998 15.5599 8.60998 15.4799C8.55998 15.4299 8.48998 15.3999 8.40998 15.3999H4.40998C3.42998 15.3999 2.57998 14.9899 2.07998 14.2799C1.58998 13.5899 1.48998 12.6799 1.80998 11.7999L4.19998 4.5199C4.56998 3.0699 6.11998 1.8999 7.71998 1.8999H11.52C12.08 1.8999 13.3 2.0699 13.95 2.7199L16.98 5.0599L16.06 6.2499L12.96 3.8499C12.71 3.5999 12.08 3.3999 11.52 3.3999H7.71998C6.81998 3.3999 5.84998 4.1199 5.64998 4.9299L3.22998 12.2799C3.06998 12.7199 3.09998 13.1199 3.30998 13.4099C3.52998 13.7199 3.92998 13.8999 4.41998 13.8999H8.41998C8.93998 13.8999 9.41998 14.1199 9.74998 14.4999C10.09 14.8899 10.24 15.4099 10.16 15.9499L9.65998 19.1599C9.53998 19.7199 9.91998 20.3499 10.46 20.5299C10.94 20.7099 11.58 20.4499 11.8 20.1299L15.9 14.0299L17.14 14.8699L13.04 20.9699C12.57 21.6699 11.68 22.0999 10.8 22.0999Z" fill="#292D32"/>
<path d="M19.62 18.1H18.62C16.77 18.1 15.87 17.23 15.87 15.45V5.65C15.87 3.87 16.77 3 18.62 3H19.62C21.47 3 22.37 3.87 22.37 5.65V15.45C22.37 17.23 21.47 18.1 19.62 18.1ZM18.62 4.5C17.53 4.5 17.37 4.76 17.37 5.65V15.45C17.37 16.34 17.53 16.6 18.62 16.6H19.62C20.71 16.6 20.87 16.34 20.87 15.45V5.65C20.87 4.76 20.71 4.5 19.62 4.5H18.62Z" fill="#292D32"/>
</svg>
