<svg width="24" height="24" viewBox="0 0 24 24" fill="none" xmlns="http://www.w3.org/2000/svg">
<path d="M15.8 2.20999C15.39 1.79999 14.68 2.07999 14.68 2.64999V6.13999C14.68 7.59999 15.92 8.80999 17.43 8.80999C18.38 8.81999 19.7 8.81999 20.83 8.81999C21.4 8.81999 21.7 8.14999 21.3 7.74999C19.86 6.29999 17.28 3.68999 15.8 2.20999Z" fill="#292D32"/>
<path d="M14.76 19.2598C12.41 19.4298 12.41 22.8298 14.76 22.9998H20.32C20.99 22.9998 21.65 22.7498 22.14 22.2998C23.79 20.8598 22.91 17.9798 20.74 17.7098C19.96 13.0198 13.18 14.7998 14.78 19.2698" fill="#292D32"/>
<path d="M21.5 11.19V14.44C21.5 14.74 21.06 14.88 20.84 14.67C20.36 14.2 19.77 13.84 19.09 13.63C17.41 13.11 15.46 13.62 14.25 14.9C13.44 15.74 13.03 16.81 13.04 17.97C13.04 18.16 12.95 18.33 12.8 18.44C12 19.05 11.5 20.01 11.5 21.12C11.5 21.2 11.5 21.28 11.51 21.36C11.53 21.68 11.3 21.99 10.97 21.99H8.07C4.99 21.99 2.5 19.99 2.5 16.42V7.57C2.5 4 4.99 2 8.07 2H12.31C12.86 2 13.31 2.45 13.31 3V5.89C13.31 8.27 15.23 10.19 17.61 10.19H20.5C21.05 10.19 21.5 10.64 21.5 11.19Z" fill="#292D32"/>
</svg>
