<svg width="24" height="24" viewBox="0 0 24 24" fill="none" xmlns="http://www.w3.org/2000/svg">
<path d="M15.5 13.15H13.33C11.55 13.15 10.1 11.71 10.1 9.92V7.75C10.1 7.34 9.77 7 9.35 7H6.18C3.87 7 2 8.5 2 11.18V17.82C2 20.5 3.87 22 6.18 22H12.07C14.38 22 16.25 20.5 16.25 17.82V13.9C16.25 13.48 15.91 13.15 15.5 13.15Z" fill="#292D32"/>
<path d="M17.82 2H15.85H14.76H11.93C9.66999 2 7.83999 3.44 7.75999 6.01C7.81999 6.01 7.86999 6 7.92999 6H10.76H11.85H13.82C16.13 6 18 7.5 18 10.18V12.15V14.86V16.83C18 16.89 17.99 16.94 17.99 16.99C20.22 16.92 22 15.44 22 12.83V10.86V8.15V6.18C22 3.5 20.13 2 17.82 2Z" fill="#292D32"/>
<path d="M11.98 7.15024C11.67 6.84024 11.14 7.05024 11.14 7.48024V10.1002C11.14 11.2002 12.07 12.1002 13.21 12.1002C13.92 12.1102 14.91 12.1102 15.76 12.1102C16.19 12.1102 16.41 11.6102 16.11 11.3102C15.02 10.2202 13.08 8.27024 11.98 7.15024Z" fill="#292D32"/>
</svg>
