<svg width="24" height="24" viewBox="0 0 24 24" fill="none" xmlns="http://www.w3.org/2000/svg">
<path d="M20.5 10.19H17.61C15.24 10.19 13.31 8.26 13.31 5.89V3C13.31 2.45 12.86 2 12.31 2H8.07C4.99 2 2.5 4 2.5 7.57V16.43C2.5 20 4.99 22 8.07 22H15.93C19.01 22 21.5 20 21.5 16.43V11.19C21.5 10.64 21.05 10.19 20.5 10.19ZM12.48 15.7C11.96 17.37 10.13 18.27 9.5 18.27C8.86 18.27 7.07 17.4 6.52 15.7C6.16 14.59 6.57 13.14 7.84 12.73C8.42 12.54 9.04 12.65 9.49 13C9.94 12.65 10.56 12.54 11.15 12.73C12.43 13.14 12.83 14.59 12.48 15.7Z" fill="#292D32"/>
<path d="M17.43 8.80999C18.38 8.81999 19.7 8.81999 20.83 8.81999C21.4 8.81999 21.7 8.14999 21.3 7.74999C19.86 6.29999 17.28 3.68999 15.8 2.20999C15.39 1.79999 14.68 2.07999 14.68 2.64999V6.13999C14.68 7.59999 15.92 8.80999 17.43 8.80999Z" fill="#292D32"/>
</svg>
