<svg width="24" height="24" viewBox="0 0 24 24" fill="none" xmlns="http://www.w3.org/2000/svg">
<path d="M20.71 8.11998V17.53C20.71 19.99 18.7 22 16.24 22H7.75999C5.29999 22 3.28999 19.99 3.28999 17.53V8.11998C3.28999 6.40998 4.24999 4.91998 5.65999 4.16998C6.14999 3.90998 6.75999 4.25998 6.75999 4.81998C6.75999 6.40998 8.05999 7.70998 9.64999 7.70998H14.35C15.94 7.70998 17.24 6.40998 17.24 4.81998C17.24 4.25998 17.84 3.90998 18.34 4.16998C19.75 4.91998 20.71 6.40998 20.71 8.11998Z" fill="#292D32"/>
<path d="M14.35 2H9.64999C8.60999 2 7.75999 2.84 7.75999 3.88V4.82C7.75999 5.86 8.59999 6.7 9.63999 6.7H14.35C15.39 6.7 16.23 5.86 16.23 4.82V3.88C16.24 2.84 15.39 2 14.35 2Z" fill="#292D32"/>
</svg>
