<svg width="24" height="24" viewBox="0 0 24 24" fill="none" xmlns="http://www.w3.org/2000/svg">
<path d="M6.87005 12.28C6.45005 12.28 6.02003 12.26 5.60003 12.22L2.43005 11.93C2.02005 11.89 1.71006 11.53 1.75006 11.11C1.79006 10.7 2.14007 10.39 2.57007 10.43L5.74005 10.72C10.64 11.17 15.4 8.69004 17.85 4.41004C18.06 4.05004 18.5101 3.93004 18.8701 4.13004C19.2301 4.34004 19.3501 4.79003 19.1501 5.15003C16.6301 9.58003 11.9001 12.28 6.87005 12.28Z" fill="black"/>
<path d="M5.50003 20.1198C5.37003 20.1198 5.25003 20.0898 5.13003 20.0198C4.77003 19.8098 4.65 19.3598 4.85 18.9998C7.59 14.2098 12.9101 11.4298 18.4001 11.9398L21.57 12.2298C21.98 12.2698 22.29 12.6298 22.25 13.0498C22.21 13.4598 21.86 13.7598 21.43 13.7298L18.26 13.4398C13.36 12.9898 8.60005 15.4698 6.15005 19.7498C6.01005 19.9898 5.76003 20.1198 5.50003 20.1198Z" fill="black"/>
<path d="M12 22.75C6.07 22.75 1.25 17.93 1.25 12C1.25 6.07 6.07 1.25 12 1.25C17.93 1.25 22.75 6.07 22.75 12C22.75 17.93 17.93 22.75 12 22.75ZM12 2.75C6.9 2.75 2.75 6.9 2.75 12C2.75 17.1 6.9 21.25 12 21.25C17.1 21.25 21.25 17.1 21.25 12C21.25 6.9 17.1 2.75 12 2.75Z" fill="black"/>
<path d="M16.4699 21.6998C16.1299 21.6998 15.8299 21.4698 15.7399 21.1298L14.53 16.1398C13.76 12.9798 12.2799 9.9698 10.2299 7.4298L7.04993 3.47982C6.78993 3.15982 6.83992 2.6898 7.15992 2.4298C7.47992 2.1698 7.94997 2.21982 8.20997 2.53982L11.39 6.4898C13.57 9.1998 15.1599 12.4098 15.9799 15.7798L17.1899 20.7698C17.2899 21.1698 17.04 21.5798 16.64 21.6798C16.59 21.6898 16.5299 21.6998 16.4699 21.6998Z" fill="black"/>
</svg>
