<svg width="24" height="24" viewBox="0 0 24 24" fill="none" xmlns="http://www.w3.org/2000/svg">
<path fill-rule="evenodd" clip-rule="evenodd" d="M15.88 20.9198C15.91 21.0798 15.82 21.2498 15.67 21.3098C14.54 21.7598 13.3 21.9998 12.02 21.9998C9.80999 21.9998 7.76997 21.2898 6.11997 20.0698C5.97997 19.9698 5.94 19.7698 6.03 19.6198C6.58 18.6398 8.72995 15.4898 13.48 13.7298C13.66 13.6598 13.86 13.7498 13.92 13.9298C15.11 17.1198 15.67 19.8198 15.88 20.9198Z" fill="black"/>
<path fill-rule="evenodd" clip-rule="evenodd" d="M21.8202 13.89C21.3602 16.35 19.9801 18.49 18.0501 19.95C17.8401 20.11 17.5401 19.99 17.4901 19.74C17.2801 18.66 16.7701 16.33 15.7901 13.56C15.7201 13.35 15.8602 13.12 16.0802 13.09C18.5702 12.79 20.7502 13.27 21.5702 13.49C21.7402 13.55 21.8502 13.72 21.8202 13.89Z" fill="black"/>
<path fill-rule="evenodd" clip-rule="evenodd" d="M21.59 11.8202C20.57 11.6402 17.97 11.2601 15.31 11.5501C15.15 11.5701 15.01 11.4801 14.94 11.3301C14.9 11.2401 14.87 11.1501 14.83 11.0601C14.67 10.6901 14.5 10.3101 14.33 9.94015C14.24 9.76015 14.33 9.54014 14.51 9.46014C17.31 8.25014 18.8699 6.69013 19.4799 5.99013C19.6299 5.82013 19.89 5.83015 20.03 6.01015C21.18 7.54015 21.89 9.41014 22 11.4301C22.01 11.6801 21.81 11.8602 21.59 11.8202Z" fill="black"/>
<path fill-rule="evenodd" clip-rule="evenodd" d="M18.44 4.78976C17.92 5.41976 16.46 6.91974 13.69 8.01974C13.53 8.08974 13.34 8.01974 13.25 7.85974C11.97 5.53974 10.6099 3.58975 9.97994 2.70975C9.82994 2.49975 9.94997 2.19976 10.2 2.15976C10.78 2.05976 11.39 2.00977 12.01 2.00977C14.43 2.00977 16.66 2.86975 18.39 4.30975C18.54 4.41975 18.56 4.63976 18.44 4.78976Z" fill="black"/>
<path fill-rule="evenodd" clip-rule="evenodd" d="M11.02 8.83991C7.23002 9.78991 3.87998 9.91992 2.65998 9.93992C2.42998 9.93992 2.26001 9.71991 2.32001 9.49991C3.04001 6.69991 4.95999 4.35992 7.48999 3.06992C7.63999 2.98992 7.83 3.03991 7.93 3.17991C8.45 3.89991 9.85999 5.92992 11.24 8.31992C11.35 8.51992 11.25 8.77991 11.02 8.83991Z" fill="black"/>
<path fill-rule="evenodd" clip-rule="evenodd" d="M12.92 11.6001C13.01 11.7901 12.9 12.0201 12.7 12.0901C8.27001 13.5201 5.62001 17.0701 4.82001 18.2901C4.69001 18.4901 4.41001 18.5001 4.26001 18.3201C2.86001 16.6001 2.01001 14.6301 2.01001 12.2401V12.0601C2.01001 11.8601 2.17 11.7001 2.37 11.7101C3.63 11.7601 7.74001 11.5901 12.01 10.3601C12.17 10.3101 12.35 10.3901 12.42 10.5401C12.59 10.8901 12.76 11.2401 12.92 11.6001Z" fill="black"/>
</svg>
