<svg width="24" height="24" viewBox="0 0 24 24" fill="none" xmlns="http://www.w3.org/2000/svg">
<path d="M21 22H3C2.59 22 2.25 21.66 2.25 21.25C2.25 20.84 2.59 20.5 3 20.5H21C21.41 20.5 21.75 20.84 21.75 21.25C21.75 21.66 21.41 22 21 22Z" fill="#292D32"/>
<path d="M19.02 3.48016C17.08 1.54016 15.18 1.49016 13.19 3.48016L11.98 4.69016C11.88 4.79016 11.84 4.95016 11.88 5.09016C12.64 7.74016 14.76 9.86016 17.41 10.6202C17.45 10.6302 17.49 10.6402 17.53 10.6402C17.64 10.6402 17.74 10.6002 17.82 10.5202L19.02 9.31016C20.01 8.33016 20.49 7.38016 20.49 6.42016C20.5 5.43016 20.02 4.47016 19.02 3.48016Z" fill="#292D32"/>
<path d="M15.61 11.5298C15.32 11.3898 15.04 11.2498 14.77 11.0898C14.55 10.9598 14.34 10.8198 14.13 10.6698C13.96 10.5598 13.76 10.3998 13.57 10.2398C13.55 10.2298 13.48 10.1698 13.4 10.0898C13.07 9.8098 12.7 9.4498 12.37 9.0498C12.34 9.0298 12.29 8.9598 12.22 8.8698C12.12 8.7498 11.95 8.5498 11.8 8.3198C11.68 8.1698 11.54 7.9498 11.41 7.7298C11.25 7.4598 11.11 7.1898 10.97 6.9098C10.9488 6.86441 10.9283 6.81924 10.9084 6.77434C10.7609 6.44102 10.3262 6.34358 10.0685 6.60133L4.34 12.3298C4.21 12.4598 4.09 12.7098 4.06 12.8798L3.52 16.7098C3.42 17.3898 3.61 18.0298 4.03 18.4598C4.39 18.8098 4.89 18.9998 5.43 18.9998C5.55 18.9998 5.67 18.9898 5.79 18.9698L9.63 18.4298C9.81 18.3998 10.06 18.2798 10.18 18.1498L15.9013 12.4285C16.1609 12.1689 16.0629 11.7235 15.7253 11.5794C15.6873 11.5632 15.6489 11.5467 15.61 11.5298Z" fill="#292D32"/>
</svg>
