<svg width="24" height="24" viewBox="0 0 24 24" fill="none" xmlns="http://www.w3.org/2000/svg">
<path d="M15 22.75H9C3.57 22.75 1.25 20.43 1.25 15V9C1.25 3.57 3.57 1.25 9 1.25H11C11.41 1.25 11.75 1.59 11.75 2C11.75 2.41 11.41 2.75 11 2.75H9C4.39 2.75 2.75 4.39 2.75 9V15C2.75 19.61 4.39 21.25 9 21.25H15C19.61 21.25 21.25 19.61 21.25 15V13C21.25 12.59 21.59 12.25 22 12.25C22.41 12.25 22.75 12.59 22.75 13V15C22.75 20.43 20.43 22.75 15 22.75Z" fill="#292D32"/>
<path d="M8.49999 17.6901C7.88999 17.6901 7.32999 17.4701 6.91999 17.0701C6.42999 16.5801 6.21999 15.8701 6.32999 15.1201L6.75999 12.1101C6.83999 11.5301 7.21999 10.7801 7.62999 10.3701L15.51 2.49006C17.5 0.500059 19.52 0.500059 21.51 2.49006C22.6 3.58006 23.09 4.69006 22.99 5.80006C22.9 6.70006 22.42 7.58006 21.51 8.48006L13.63 16.3601C13.22 16.7701 12.47 17.1501 11.89 17.2301L8.87999 17.6601C8.74999 17.6901 8.61999 17.6901 8.49999 17.6901ZM16.57 3.55006L8.68999 11.4301C8.49999 11.6201 8.27999 12.0601 8.23999 12.3201L7.80999 15.3301C7.76999 15.6201 7.82999 15.8601 7.97999 16.0101C8.12999 16.1601 8.36999 16.2201 8.65999 16.1801L11.67 15.7501C11.93 15.7101 12.38 15.4901 12.56 15.3001L20.44 7.42006C21.09 6.77006 21.43 6.19006 21.48 5.65006C21.54 5.00006 21.2 4.31006 20.44 3.54006C18.84 1.94006 17.74 2.39006 16.57 3.55006Z" fill="#292D32"/>
<path d="M19.85 9.82978C19.78 9.82978 19.71 9.81978 19.65 9.79978C17.02 9.05978 14.93 6.96978 14.19 4.33978C14.08 3.93978 14.31 3.52978 14.71 3.40978C15.11 3.29978 15.52 3.52978 15.63 3.92978C16.23 6.05978 17.92 7.74978 20.05 8.34978C20.45 8.45978 20.68 8.87978 20.57 9.27978C20.48 9.61978 20.18 9.82978 19.85 9.82978Z" fill="#292D32"/>
</svg>
