<svg width="24" height="24" viewBox="0 0 24 24" fill="none" xmlns="http://www.w3.org/2000/svg">
<path d="M12.0001 8.9102C11.5101 8.9102 11.0301 8.7302 10.6601 8.3602L7.99013 5.6902C7.45013 5.1502 7.28016 4.34019 7.58016 3.62019C7.87016 2.91019 8.56016 2.4502 9.33016 2.4502H14.6801C15.4501 2.4502 16.1401 2.91019 16.4301 3.62019C16.7201 4.33019 16.5602 5.1402 16.0202 5.6902L13.3501 8.3602C12.9701 8.7202 12.4901 8.9102 12.0001 8.9102ZM9.05013 4.62019L11.7201 7.29019C11.8701 7.44019 12.1202 7.44019 12.2802 7.29019L14.9502 4.62019C15.1202 4.45019 15.0702 4.2602 15.0302 4.1902C14.9902 4.1202 14.9001 3.9502 14.6701 3.9502H9.32015C9.08015 3.9502 8.99016 4.1202 8.96016 4.1902C8.93016 4.2602 8.88013 4.45019 9.05013 4.62019Z" fill="black"/>
<path d="M14.6701 21.5599H9.3201C8.5501 21.5599 7.8601 21.0999 7.5701 20.3899C7.2801 19.6799 7.44007 18.8699 7.98007 18.3199L10.6501 15.6499C11.3701 14.9299 12.6101 14.9299 13.3301 15.6499L16.0001 18.3199C16.5401 18.8599 16.7101 19.6799 16.4101 20.3899C16.1301 21.0999 15.4401 21.5599 14.6701 21.5599ZM9.05008 19.3799C8.88008 19.5499 8.93006 19.7399 8.97006 19.8099C9.01006 19.8799 9.10011 20.0499 9.33011 20.0499H14.6801C14.9201 20.0499 15.0101 19.8799 15.0401 19.8099C15.0701 19.7399 15.1201 19.5499 14.9601 19.3799L12.2901 16.7099C12.1401 16.5599 11.8901 16.5599 11.7301 16.7099L9.05008 19.3799Z" fill="black"/>
<path d="M5.22989 17.2499C5.16989 17.2499 5.09994 17.2499 5.02994 17.2399C4.48994 17.1799 4.01989 16.8899 3.72989 16.4299L1.51993 12.9499C1.14993 12.3699 1.14993 11.6299 1.51993 11.0499L3.72989 7.56994C4.01989 7.11994 4.48994 6.81993 5.02994 6.75993C5.55994 6.69993 6.08988 6.88994 6.46988 7.26994L9.94992 10.7499C10.2799 11.0799 10.4699 11.5299 10.4699 11.9999C10.4699 12.4699 10.2899 12.9199 9.94992 13.2499L6.47989 16.7299C6.14989 17.0599 5.69989 17.2499 5.22989 17.2499ZM2.78989 11.8599C2.72989 11.9499 2.72989 12.0599 2.78989 12.1499L4.99991 15.6299C5.05991 15.7199 5.14992 15.7499 5.19992 15.7499C5.24992 15.7499 5.3399 15.7499 5.4199 15.6699L8.89994 12.1899C8.96994 12.1199 8.97989 12.0399 8.97989 11.9999C8.97989 11.9599 8.96994 11.8799 8.89994 11.8099L5.4199 8.32994C5.3399 8.24994 5.24992 8.24993 5.19992 8.24993C5.14992 8.25993 5.05991 8.27993 4.99991 8.36993L2.78989 11.8599Z" fill="black"/>
<path d="M18.77 17.2499C18.3 17.2499 17.86 17.0699 17.52 16.7299L14.04 13.2499C13.71 12.9199 13.52 12.4699 13.52 11.9999C13.52 11.5299 13.7 11.0799 14.04 10.7499L17.51 7.26994C17.89 6.88994 18.42 6.69993 18.95 6.75993C19.49 6.81993 19.96 7.10994 20.25 7.56994L22.46 11.0499C22.83 11.6299 22.83 12.3699 22.46 12.9499L20.25 16.4299C19.96 16.8899 19.49 17.1799 18.95 17.2399C18.9 17.2399 18.83 17.2499 18.77 17.2499ZM18.77 8.25993C18.72 8.25993 18.65 8.26993 18.58 8.33993L15.1 11.8199C15.03 11.8899 15.02 11.9699 15.02 12.0099C15.02 12.0499 15.03 12.1299 15.1 12.1999L18.58 15.6799C18.66 15.7599 18.75 15.7599 18.8 15.7599C18.85 15.7499 18.94 15.7299 19 15.6399L21.21 12.1599C21.27 12.0699 21.27 11.9599 21.21 11.8699L19 8.38993C18.94 8.29993 18.85 8.26994 18.8 8.26994C18.79 8.25994 18.78 8.25993 18.77 8.25993Z" fill="black"/>
</svg>
