<svg width="24" height="24" viewBox="0 0 24 24" fill="none" xmlns="http://www.w3.org/2000/svg">
<path d="M7.93005 5.47993L11.0601 8.60994C11.5801 9.12994 12.4301 9.12994 12.9501 8.60994L16.0801 5.47993C16.9201 4.63993 16.3301 3.18994 15.1301 3.18994H8.87006C7.68006 3.18994 7.08005 4.63993 7.93005 5.47993Z" fill="black"/>
<path d="M7.93005 18.52L11.0601 15.39C11.5801 14.87 12.4301 14.87 12.9501 15.39L16.0801 18.52C16.9201 19.36 16.3301 20.81 15.1301 20.81H8.87006C7.68006 20.81 7.08005 19.36 7.93005 18.52Z" fill="black"/>
<path d="M2.15994 11.4301L4.44998 7.83008C4.80998 7.26008 5.60999 7.17008 6.08999 7.65008L9.68997 11.2501C10.1 11.6601 10.1 12.3301 9.68997 12.7401L6.08999 16.3401C5.60999 16.8201 4.81998 16.7301 4.44998 16.1601L2.15994 12.5601C1.94994 12.2201 1.94994 11.7801 2.15994 11.4301Z" fill="black"/>
<path d="M21.84 11.4301L19.5499 7.83008C19.1899 7.26008 18.3899 7.17008 17.9099 7.65008L14.3099 11.2501C13.8999 11.6601 13.8999 12.3301 14.3099 12.7401L17.9099 16.3401C18.3899 16.8201 19.1799 16.7301 19.5499 16.1601L21.84 12.5601C22.05 12.2201 22.05 11.7801 21.84 11.4301Z" fill="black"/>
</svg>
