<svg width="24" height="24" viewBox="0 0 24 24" fill="none" xmlns="http://www.w3.org/2000/svg">
<path d="M14.85 3.9498V7.7498H13.35V3.9498C13.35 3.6798 13.11 3.5498 12.95 3.5498C12.9 3.5498 12.85 3.5598 12.8 3.5798L4.87 6.56981C4.34 6.7698 4 7.2698 4 7.8398V8.5098C3.09 9.1898 2.5 10.2798 2.5 11.5098V7.8398C2.5 6.6498 3.23 5.5898 4.34 5.1698L12.28 2.1698C12.5 2.0898 12.73 2.0498 12.95 2.0498C13.95 2.0498 14.85 2.8598 14.85 3.9498Z" fill="#292D32"/>
<path d="M21.5002 14.5V15.5C21.5002 15.77 21.2902 15.99 21.0102 16H19.5502C19.0202 16 18.5402 15.61 18.5002 15.09C18.4702 14.78 18.5902 14.49 18.7902 14.29C18.9702 14.1 19.2202 14 19.4902 14H21.0002C21.2902 14.01 21.5002 14.23 21.5002 14.5Z" fill="#292D32"/>
<path d="M19.48 12.95H20.5C21.05 12.95 21.5 12.5 21.5 11.95V11.51C21.5 9.44 19.81 7.75 17.74 7.75H6.26C5.41 7.75 4.63 8.03 4 8.51C3.09 9.19 2.5 10.28 2.5 11.51V18.24C2.5 20.31 4.19 22 6.26 22H17.74C19.81 22 21.5 20.31 21.5 18.24V18.05C21.5 17.5 21.05 17.05 20.5 17.05H19.63C18.67 17.05 17.75 16.46 17.5 15.53C17.29 14.77 17.54 14.04 18.04 13.55C18.41 13.17 18.92 12.95 19.48 12.95ZM14 12.75H7C6.59 12.75 6.25 12.41 6.25 12C6.25 11.59 6.59 11.25 7 11.25H14C14.41 11.25 14.75 11.59 14.75 12C14.75 12.41 14.41 12.75 14 12.75Z" fill="#292D32"/>
</svg>
