<svg width="24" height="24" viewBox="0 0 24 24" fill="none" xmlns="http://www.w3.org/2000/svg">
<path d="M8.25815 21.2448C8.90513 20.5978 9.27679 19.7719 9.37315 18.9184C9.50392 17.7828 9.12537 16.6058 8.25815 15.7386C7.74195 15.2224 7.10874 14.8783 6.44112 14.72C5.16782 14.3965 3.75687 14.7337 2.752 15.7386C2.05684 16.4338 1.67829 17.3216 1.63012 18.237C1.5957 18.6294 1.63012 19.0354 1.73336 19.4277C1.89166 20.0954 2.23579 20.7286 2.752 21.2448C4.27307 22.7659 6.73708 22.7659 8.25815 21.2448ZM6.96421 17.7759C7.3634 17.7759 7.69377 18.1063 7.69377 18.5055C7.68689 18.9115 7.3634 19.235 6.95732 19.2419L6.23464 19.235L6.24152 19.9302C6.23464 20.3363 5.91115 20.6597 5.50507 20.6666C5.09899 20.6597 4.77551 20.3363 4.76863 19.9302L4.77551 19.235L4.05283 19.2419C3.64675 19.235 3.32326 18.9115 3.31638 18.5055C3.32326 18.3059 3.40585 18.1269 3.53662 17.9961C3.66739 17.8654 3.84634 17.7828 4.04594 17.7759L4.77551 17.7759L4.77551 17.0188C4.77551 16.8123 4.8581 16.6334 4.98887 16.5026C5.11964 16.3718 5.29859 16.2892 5.50507 16.2892C5.90427 16.2892 6.23464 16.6196 6.23464 17.0188L6.23464 17.7759L6.96421 17.7759Z" fill="#292D32"/>
<path d="M15.0942 3.84548V7.54425H13.6342V3.84548C13.6342 3.58267 13.4006 3.45613 13.2449 3.45613C13.1962 3.45613 13.1475 3.46587 13.0989 3.48533L5.38011 6.39568C4.86422 6.59035 4.53328 7.07703 4.53328 7.63185V8.284C3.64752 8.94589 3.07324 10.0068 3.07324 11.2041V7.63185C3.07324 6.47355 3.7838 5.44179 4.86422 5.03298L12.5927 2.1129C12.8068 2.03503 13.0307 1.99609 13.2449 1.99609C14.2182 1.99609 15.0942 2.78452 15.0942 3.84548Z" fill="#292D32"/>
<path d="M21.5686 14.1151V15.0885C21.5686 15.3513 21.3642 15.5654 21.0916 15.5751H19.6705C19.1546 15.5751 18.6874 15.1955 18.6485 14.6894C18.6193 14.3876 18.7361 14.1054 18.9308 13.9107C19.106 13.7258 19.3493 13.6284 19.6121 13.6284H21.0819C21.3642 13.6382 21.5686 13.8523 21.5686 14.1151Z" fill="#292D32"/>
<path d="M19.6009 12.6049H20.5937C21.1291 12.6049 21.5671 12.1669 21.5671 11.6316V11.2033C21.5671 9.18844 19.9221 7.54346 17.9073 7.54346H6.73308C5.90572 7.54346 5.1465 7.816 4.53328 8.28321C3.64752 8.9451 3.07324 10.0061 3.07324 11.2033V12.9359C3.07324 13.3057 3.46259 13.5394 3.813 13.4226C4.35808 13.2376 4.93236 13.1403 5.50664 13.1403C8.45592 13.1403 10.8601 15.5445 10.8601 18.4938C10.8601 19.1946 10.6752 19.9635 10.3832 20.6449C10.2274 20.9953 10.4708 21.4138 10.8504 21.4138H17.9073C19.9221 21.4138 21.5671 19.7689 21.5671 17.754V17.5691C21.5671 17.0337 21.1291 16.5957 20.5937 16.5957H19.7469C18.8125 16.5957 17.917 16.0214 17.6736 15.1162C17.479 14.3764 17.7126 13.6562 18.1993 13.1889C18.5594 12.8191 19.0558 12.6049 19.6009 12.6049ZM14.2669 12.4103H9.40008C9.00101 12.4103 8.67006 12.0793 8.67006 11.6802C8.67006 11.2812 9.00101 10.9502 9.40008 10.9502H14.2669C14.666 10.9502 14.9969 11.2812 14.9969 11.6802C14.9969 12.0793 14.666 12.4103 14.2669 12.4103Z" fill="#292D32"/>
</svg>
