<svg width="24" height="24" viewBox="0 0 24 24" fill="none" xmlns="http://www.w3.org/2000/svg">
<path d="M5.00049 15C4.06049 15 3.19049 15.33 2.50049 15.88C1.58049 16.61 1.00049 17.74 1.00049 19C1.00049 19.75 1.21049 20.46 1.58049 21.06C2.27049 22.22 3.54049 23 5.00049 23C6.01049 23 6.93049 22.63 7.63049 22C7.94049 21.74 8.21049 21.42 8.42049 21.06C8.79049 20.46 9.00049 19.75 9.00049 19C9.00049 16.79 7.21049 15 5.00049 15ZM7.07049 18.57L4.94049 20.54C4.80049 20.67 4.61049 20.74 4.43049 20.74C4.24049 20.74 4.05049 20.67 3.90049 20.52L2.91049 19.53C2.62049 19.24 2.62049 18.76 2.91049 18.47C3.20049 18.18 3.68049 18.18 3.97049 18.47L4.45049 18.95L6.05049 17.47C6.35049 17.19 6.83049 17.21 7.11049 17.51C7.39049 17.81 7.37049 18.29 7.07049 18.57Z" fill="#292D32"/>
<path d="M14.8505 3.9498V7.7498H13.3505V3.9498C13.3505 3.6798 13.1105 3.5498 12.9505 3.5498C12.9005 3.5498 12.8505 3.5598 12.8005 3.5798L4.87049 6.56981C4.34049 6.7698 4.00049 7.2698 4.00049 7.8398V8.5098C3.09049 9.1898 2.50049 10.2798 2.50049 11.5098V7.8398C2.50049 6.6498 3.23049 5.5898 4.34049 5.1698L12.2805 2.1698C12.5005 2.0898 12.7305 2.0498 12.9505 2.0498C13.9505 2.0498 14.8505 2.8598 14.8505 3.9498Z" fill="#292D32"/>
<path d="M21.5004 14.5V15.5C21.5004 15.77 21.2904 15.99 21.0104 16H19.5504C19.0204 16 18.5404 15.61 18.5004 15.09C18.4704 14.78 18.5904 14.49 18.7904 14.29C18.9704 14.1 19.2204 14 19.4904 14H21.0004C21.2904 14.01 21.5004 14.23 21.5004 14.5Z" fill="#292D32"/>
<path d="M19.4805 12.95H20.5005C21.0505 12.95 21.5005 12.5 21.5005 11.95V11.51C21.5005 9.44 19.8105 7.75 17.7405 7.75H6.26049C5.41049 7.75 4.63049 8.03 4.00049 8.51C3.09049 9.19 2.50049 10.28 2.50049 11.51V13.29C2.50049 13.67 2.90049 13.91 3.26049 13.79C3.82049 13.6 4.41049 13.5 5.00049 13.5C8.03049 13.5 10.5005 15.97 10.5005 19C10.5005 19.72 10.3105 20.51 10.0105 21.21C9.85049 21.57 10.1005 22 10.4905 22H17.7405C19.8105 22 21.5005 20.31 21.5005 18.24V18.05C21.5005 17.5 21.0505 17.05 20.5005 17.05H19.6305C18.6705 17.05 17.7505 16.46 17.5005 15.53C17.3005 14.77 17.5405 14.03 18.0405 13.55C18.4105 13.17 18.9205 12.95 19.4805 12.95ZM14.0005 12.75H9.00049C8.59049 12.75 8.25049 12.41 8.25049 12C8.25049 11.59 8.59049 11.25 9.00049 11.25H14.0005C14.4105 11.25 14.7505 11.59 14.7505 12C14.7505 12.41 14.4105 12.75 14.0005 12.75Z" fill="#292D32"/>
</svg>
