<svg width="24" height="24" viewBox="0 0 24 24" fill="none" xmlns="http://www.w3.org/2000/svg">
<path d="M9.28012 20.3099C9.45012 20.7899 8.93011 21.2299 8.49011 20.9699L5.34012 19.1799C4.77012 18.8499 4.42013 18.0599 4.54013 17.4199L5.48013 12.7499C5.59013 12.1999 6.35013 12.1499 6.54013 12.6699L9.28012 20.3099Z" fill="black"/>
<path d="M18.66 19.1798L15.5 20.9798C15.06 21.2298 14.54 20.7998 14.71 20.3198L17.46 12.6098C17.65 12.0898 18.41 12.1398 18.52 12.6898L19.47 17.4198C19.58 18.0598 19.23 18.8498 18.66 19.1798Z" fill="black"/>
<path d="M17.08 7.31982C17.32 7.61982 17.39 8.01982 17.26 8.37982L12.52 21.6298C12.35 22.1198 11.66 22.1198 11.49 21.6298L6.74999 8.38982C6.61999 8.02982 6.68999 7.62982 6.92999 7.32982L10.75 2.62982C11.44 1.79982 12.58 1.79982 13.28 2.62982L17.08 7.31982Z" fill="black"/>
</svg>
