<svg width="24" height="24" viewBox="0 0 24 24" fill="none" xmlns="http://www.w3.org/2000/svg">
<path d="M15 22.75H9C3.57 22.75 1.25 20.43 1.25 15V9C1.25 3.57 3.57 1.25 9 1.25H15C20.43 1.25 22.75 3.57 22.75 9V15C22.75 20.43 20.43 22.75 15 22.75ZM9 2.75C4.39 2.75 2.75 4.39 2.75 9V15C2.75 19.61 4.39 21.25 9 21.25H15C19.61 21.25 21.25 19.61 21.25 15V9C21.25 4.39 19.61 2.75 15 2.75H9Z" fill="#292D32"/>
<path d="M10.0901 18.2499C9.47012 18.2499 8.86012 18.0199 8.39012 17.5499L6.45012 15.6099C5.51012 14.6699 5.51012 13.1499 6.45012 12.2099L12.2001 6.45988C13.1401 5.51988 14.6601 5.51988 15.6001 6.45988L17.5401 8.39987C18.4801 9.33987 18.4801 10.8599 17.5401 11.7999L11.7901 17.5499C11.3201 18.0099 10.7101 18.2499 10.0901 18.2499ZM7.52012 14.5499L9.46013 16.4899C9.81013 16.8399 10.3901 16.8399 10.7401 16.4899L16.4901 10.7399C16.8401 10.3899 16.8401 9.80988 16.4901 9.45988L14.5501 7.51988C14.2001 7.16988 13.6201 7.16988 13.2701 7.51988L7.52012 13.2699C7.17012 13.6199 7.17012 14.1899 7.52012 14.5499Z" fill="#292D32"/>
<path d="M13.5802 15.4401C13.3902 15.4401 13.2002 15.3701 13.0502 15.2201L8.77023 10.9401C8.48023 10.6501 8.48023 10.1701 8.77023 9.8801C9.06023 9.5901 9.54023 9.5901 9.83023 9.8801L14.1102 14.1601C14.4002 14.4501 14.4002 14.9301 14.1102 15.2201C13.9702 15.3701 13.7702 15.4401 13.5802 15.4401Z" fill="#292D32"/>
</svg>
