<svg width="24" height="24" viewBox="0 0 24 24" fill="none" xmlns="http://www.w3.org/2000/svg">
<path d="M17.28 9.8901C17.12 9.8901 16.9499 9.8601 16.7899 9.7901L12.0199 7.6701L7.19994 9.7901C6.69994 10.0101 6.10995 9.8701 5.76995 9.4301C5.42995 8.9901 5.43991 8.3801 5.79991 7.9601L10.7999 1.8501C11.4099 1.1001 12.5899 1.1001 13.2099 1.8501L18.2099 7.9601C18.5599 8.3901 18.5699 8.9901 18.2399 9.4301C17.9899 9.7201 17.64 9.8901 17.28 9.8901ZM11.9999 6.1601C12.2099 6.1601 12.4299 6.2001 12.6299 6.2901L16.2099 7.8801L12.0399 2.7901L7.80992 7.8701L11.3699 6.2901C11.5699 6.2001 11.7799 6.1601 11.9999 6.1601Z" fill="black"/>
<path d="M12 22.7502C11.54 22.7502 11.1 22.5402 10.8 22.1602L5.79999 16.0502C5.44999 15.6202 5.44002 15.0202 5.77002 14.5802C6.11002 14.1402 6.69001 13.9902 7.20001 14.2102L11.98 16.3302L16.8 14.2102C17.31 13.9902 17.89 14.1402 18.23 14.5802C18.56 15.0202 18.55 15.6202 18.2 16.0502L13.2 22.1602C12.9 22.5402 12.46 22.7502 12 22.7502ZM7.78998 16.1202L11.95 21.2102L16.18 16.1302L12.63 17.7102C12.23 17.8902 11.77 17.8902 11.37 17.7102L7.78998 16.1202Z" fill="black"/>
<path d="M12 15.3699C11.88 15.3699 11.77 15.3399 11.67 15.2899L6.41998 12.6699C6.16998 12.5399 6 12.2799 6 11.9999C6 11.7199 6.15998 11.4599 6.41998 11.3299L11.67 8.70994C11.88 8.59994 12.13 8.59994 12.34 8.70994L17.59 11.3299C17.84 11.4599 18.01 11.7199 18.01 11.9999C18.01 12.2799 17.85 12.5399 17.59 12.6699L12.34 15.2899C12.23 15.3499 12.12 15.3699 12 15.3699ZM8.42999 11.9999L12 13.7799L15.57 11.9999L12 10.2199L8.42999 11.9999Z" fill="black"/>
</svg>
