<svg width="24" height="24" viewBox="0 0 24 24" fill="none" xmlns="http://www.w3.org/2000/svg">
<path d="M8.77011 14.4301L10.3801 15.1501C11.4101 15.6101 12.5901 15.6101 13.6301 15.1501L15.2401 14.4301C16.6801 13.7901 18.0101 15.5301 17.0101 16.7501L13.5501 20.9801C12.7001 22.0201 11.3101 22.0201 10.4501 20.9801L7.00011 16.7501C5.99011 15.5301 7.32011 13.7901 8.77011 14.4301Z" fill="black"/>
<path d="M8.57002 11.6699C8.27002 11.8899 8.31003 12.3499 8.65003 12.5199L11 13.6899C11.55 13.9699 12.44 13.9699 12.98 13.6899L15.33 12.5199C15.66 12.3499 15.7 11.8999 15.41 11.6699L12.3 9.32992C12.12 9.19992 11.88 9.19992 11.7 9.32992L8.57002 11.6699Z" fill="black"/>
<path d="M17.8801 8.24021L13.7101 3.04021C13.6301 2.94021 13.5401 2.85021 13.4501 2.76021C13.1901 2.51021 12.8201 2.74021 12.8201 3.10021V7.40021C12.8201 7.56021 12.8901 7.71021 13.0201 7.80021L17.1701 10.9202L17.3501 11.0502C17.5301 11.1802 17.7801 11.1802 17.9301 11.0202C18.6301 10.2602 18.6201 9.16021 17.8801 8.24021Z" fill="black"/>
<path d="M6.1101 8.32985L10.2601 3.04985C10.3401 2.94985 10.4201 2.85985 10.5101 2.76985C10.7701 2.51985 11.1401 2.73985 11.1401 3.10985V7.47985C11.1401 7.63985 11.0701 7.77985 10.9401 7.87985L6.8101 11.0498L6.6401 11.1798C6.4601 11.3098 6.2101 11.3098 6.0501 11.1398C5.3701 10.3698 5.3801 9.26985 6.1101 8.32985Z" fill="black"/>
</svg>
