<svg width="24" height="24" viewBox="0 0 24 24" fill="none" xmlns="http://www.w3.org/2000/svg">
<path d="M19.12 14.9399L19.44 15.5899C19.6 15.9099 20.01 16.2099 20.35 16.2699L20.78 16.3399C22.09 16.5599 22.39 17.5199 21.46 18.4599L21.06 18.8599C20.79 19.1299 20.65 19.6499 20.73 20.0299L20.78 20.2699C21.14 21.8499 20.3 22.4599 18.93 21.6299L18.64 21.4499C18.29 21.2399 17.71 21.2399 17.36 21.4499L17.07 21.6299C15.69 22.4599 14.86 21.8499 15.22 20.2699L15.27 20.0299C15.35 19.6599 15.21 19.1299 14.94 18.8599L14.54 18.4599C13.61 17.5099 13.91 16.5599 15.22 16.3399L15.65 16.2699C16 16.2099 16.4 15.9099 16.56 15.5899L16.88 14.9399C17.5 13.6899 18.5 13.6899 19.12 14.9399Z" fill="#292D32"/>
<path d="M16.19 2H7.81C4.17 2 2 4.17 2 7.81V16.19C2 19.83 4.17 22 7.81 22H13.09C13.44 22 13.69 21.64 13.65 21.29C13.61 20.91 13.63 20.46 13.75 19.94C13.77 19.87 13.75 19.79 13.69 19.73L13.47 19.51C12.62 18.65 12.31 17.61 12.61 16.66C12.92 15.72 13.78 15.06 14.97 14.86L15.27 14.81L15.54 14.27C16.09 13.15 16.99 12.5 18 12.5C19.01 12.5 19.91 13.15 20.46 14.27L20.61 14.58C20.68 14.73 20.82 14.83 20.98 14.86C21.07 14.88 21.16 14.9 21.25 14.92C21.6 15.01 22 14.73 22 14.36V7.81C22 4.17 19.83 2 16.19 2ZM16.26 8.96L13.95 11.94C13.66 12.31 13.25 12.55 12.78 12.6C12.32 12.66 11.85 12.53 11.49 12.24L9.66 10.82C9.59 10.76 9.51 10.76 9.47 10.77C9.43 10.77 9.36 10.79 9.3 10.87L6.92 13.96C6.77 14.15 6.55 14.25 6.32 14.25C6.16 14.25 6 14.2 5.86 14.09C5.53 13.84 5.47 13.37 5.72 13.04L8.1 9.95C8.39 9.58 8.8 9.34 9.27 9.28C9.74 9.22 10.2 9.35 10.57 9.64L12.4 11.08C12.47 11.14 12.54 11.13 12.59 11.13C12.63 11.13 12.7 11.11 12.76 11.03L15.07 8.05C15.32 7.72 15.79 7.66 16.12 7.92C16.46 8.17 16.51 8.64 16.26 8.96Z" fill="#292D32"/>
</svg>
