<svg width="24" height="24" viewBox="0 0 24 24" fill="none" xmlns="http://www.w3.org/2000/svg">
<path d="M12.0001 2H8.67004C6.83004 2 5.34009 3.48999 5.34009 5.32999C5.34009 7.16999 6.83004 8.66 8.67004 8.66H12.0001V2Z" fill="black"/>
<path d="M12.0001 8.66992H8.67004C6.83004 8.66992 5.34009 10.1599 5.34009 11.9999C5.34009 13.8399 6.83004 15.3299 8.67004 15.3299H12.0001V8.66992Z" fill="black"/>
<path d="M12.0001 15.3301H8.67004C6.83004 15.3301 5.34009 16.8201 5.34009 18.6601C5.34009 20.5001 6.83004 21.9901 8.67004 21.9901C10.51 21.9901 12.0001 20.5001 12.0001 18.6601V15.3301Z" fill="black"/>
<path d="M12 2H15.33C17.17 2 18.66 3.48999 18.66 5.32999C18.66 7.16999 17.17 8.66 15.33 8.66H12V2Z" fill="black"/>
<path d="M15.33 8.66992C17.17 8.66992 18.66 10.1599 18.66 11.9999C18.66 13.8399 17.17 15.3299 15.33 15.3299C13.49 15.3299 12 13.8399 12 11.9999C12 10.1599 13.49 8.66992 15.33 8.66992Z" fill="black"/>
</svg>
