<svg width="24" height="24" viewBox="0 0 24 24" fill="none" xmlns="http://www.w3.org/2000/svg">
<path d="M10.94 22.6501C10.46 22.6501 9.98999 22.5301 9.54999 22.2901C8.66999 21.8001 8.13999 20.9101 8.13999 19.9101V14.6101C8.13999 14.1101 7.80999 13.3601 7.49999 12.9801L3.75999 9.0201C3.12999 8.3901 2.64999 7.3101 2.64999 6.5001V4.2001C2.64999 2.6001 3.85999 1.3501 5.39999 1.3501H18.6C20.12 1.3501 21.35 2.5801 21.35 4.1001V6.3001C21.35 7.3501 20.72 8.5401 20.13 9.1301L15.8 12.9601C15.38 13.3101 15.05 14.0801 15.05 14.7001V19.0001C15.05 19.8901 14.49 20.9201 13.79 21.3401L12.41 22.2301C11.96 22.5101 11.45 22.6501 10.94 22.6501ZM5.39999 2.8501C4.69999 2.8501 4.14999 3.4401 4.14999 4.2001V6.5001C4.14999 6.8701 4.44999 7.5901 4.82999 7.9701L8.63999 11.9801C9.14999 12.6101 9.64999 13.6601 9.64999 14.6001V19.9001C9.64999 20.5501 10.1 20.8701 10.29 20.9701C10.71 21.2001 11.22 21.2001 11.61 20.9601L13 20.0701C13.28 19.9001 13.56 19.3601 13.56 19.0001V14.7001C13.56 13.6301 14.08 12.4501 14.83 11.8201L19.11 8.0301C19.45 7.6901 19.86 6.8801 19.86 6.2901V4.1001C19.86 3.4101 19.3 2.8501 18.61 2.8501H5.39999Z" fill="#292D32"/>
<path d="M6.00001 10.7498C5.86001 10.7498 5.73001 10.7098 5.60001 10.6398C5.25001 10.4198 5.14001 9.94978 5.36001 9.59978L10.29 1.69978C10.51 1.34978 10.97 1.23978 11.32 1.45978C11.67 1.67978 11.78 2.13978 11.56 2.48978L6.63001 10.3898C6.49001 10.6198 6.25001 10.7498 6.00001 10.7498Z" fill="#292D32"/>
</svg>
