<svg width="24" height="24" viewBox="0 0 24 24" fill="none" xmlns="http://www.w3.org/2000/svg">
<path d="M12 7.94995C10.21 7.94995 8.75 9.40995 8.75 11.2V12.8C8.75 14.59 10.21 16.05 12 16.05C13.79 16.05 15.25 14.59 15.25 12.8V11.2C15.25 9.40995 13.79 7.94995 12 7.94995ZM12.9 13.24C12.9 13.74 12.5 14.14 12 14.14C11.5 14.14 11.1 13.74 11.1 13.24V10.77C11.1 10.28 11.5 9.86995 12 9.86995C12.5 9.86995 12.9 10.27 12.9 10.77V13.24Z" fill="#292D32"/>
<path d="M12 2C6.48 2 2 6.48 2 12C2 17.52 6.48 22 12 22C17.52 22 22 17.52 22 12C22 6.48 17.52 2 12 2ZM16.75 12.8C16.75 15.42 14.62 17.55 12 17.55C9.38 17.55 7.25 15.42 7.25 12.8V11.2C7.25 8.58 9.38 6.45 12 6.45C14.62 6.45 16.75 8.58 16.75 11.2V12.8Z" fill="#292D32"/>
</svg>
