<svg width="24" height="24" viewBox="0 0 24 24" fill="none" xmlns="http://www.w3.org/2000/svg">
<path d="M22 9.75C21.59 9.75 21.25 9.41 21.25 9V7C21.25 4.42 19.58 2.75 17 2.75H15C14.59 2.75 14.25 2.41 14.25 2C14.25 1.59 14.59 1.25 15 1.25H17C20.44 1.25 22.75 3.56 22.75 7V9C22.75 9.41 22.41 9.75 22 9.75Z" fill="#292D32"/>
<path d="M2 9.75C1.59 9.75 1.25 9.41 1.25 9V7C1.25 3.56 3.56 1.25 7 1.25H9C9.41 1.25 9.75 1.59 9.75 2C9.75 2.41 9.41 2.75 9 2.75H7C4.42 2.75 2.75 4.42 2.75 7V9C2.75 9.41 2.41 9.75 2 9.75Z" fill="#292D32"/>
<path d="M17 22.75H15C14.59 22.75 14.25 22.41 14.25 22C14.25 21.59 14.59 21.25 15 21.25H17C19.58 21.25 21.25 19.58 21.25 17V15C21.25 14.59 21.59 14.25 22 14.25C22.41 14.25 22.75 14.59 22.75 15V17C22.75 20.44 20.44 22.75 17 22.75Z" fill="#292D32"/>
<path d="M9 22.75H7C3.56 22.75 1.25 20.44 1.25 17V15C1.25 14.59 1.59 14.25 2 14.25C2.41 14.25 2.75 14.59 2.75 15V17C2.75 19.58 4.42 21.25 7 21.25H9C9.41 21.25 9.75 21.59 9.75 22C9.75 22.41 9.41 22.75 9 22.75Z" fill="#292D32"/>
<path d="M12.0001 9.87012C11.5101 9.87012 11.1001 10.2701 11.1001 10.7701V13.2401C11.1001 13.7401 11.5001 14.1401 12.0001 14.1401C12.5001 14.1401 12.9001 13.7401 12.9001 13.2401V10.7701C12.9001 10.2701 12.4901 9.87012 12.0001 9.87012Z" fill="#292D32"/>
<path d="M15.53 7.39993C15.19 7.05993 14.8 6.76993 14.38 6.52993C14.24 6.45993 14.09 6.38993 13.94 6.31993C13.79 6.25993 13.64 6.19993 13.48 6.15993C13.32 6.10993 13.16 6.06993 13 6.02993C12.99 6.02993 12.97 6.02993 12.96 6.01993C12.65 5.95993 12.33 5.92993 12.01 5.92993H11.99C11.67 5.92993 11.36 5.95993 11.05 6.01993C11.01 6.02993 10.97 6.02993 10.94 6.04993C10.8 6.07993 10.66 6.10993 10.52 6.15993C10.35 6.19993 10.18 6.26993 10.01 6.33993C9.88001 6.39993 9.75001 6.46993 9.63001 6.52993C9.48001 6.60993 9.35001 6.69993 9.21001 6.78993C8.95001 6.96993 8.70001 7.16993 8.47001 7.39993C8.36001 7.50993 8.25001 7.62993 8.15001 7.74993C8.05001 7.87993 7.95001 7.99993 7.86001 8.13993C7.77001 8.26993 7.69001 8.40993 7.61001 8.54993C7.23001 9.25993 7.01001 10.0699 7.01001 10.9299V13.0699C7.01001 14.7999 7.89001 16.3199 9.21001 17.2099C9.33001 17.2999 9.46001 17.3699 9.59001 17.4499L10.14 17.7099C10.42 17.8199 10.71 17.9099 11 17.9699C11.32 18.0299 11.65 18.0699 11.99 18.0699C12 18.0699 12 18.0699 12.01 18.0699C12.35 18.0699 12.68 18.0299 13 17.9699C13.3 17.9099 13.59 17.8199 13.87 17.7099C14.06 17.6299 14.24 17.5399 14.41 17.4499C15.95 16.5999 16.99 14.9499 16.99 13.0699V10.9299C16.99 9.54993 16.43 8.29993 15.53 7.39993ZM14.4 13.2399C14.4 14.5599 13.32 15.6399 12 15.6399C10.68 15.6399 9.60001 14.5599 9.60001 13.2399V10.7699C9.60001 9.44993 10.68 8.36993 12 8.36993C13.32 8.36993 14.4 9.44993 14.4 10.7699V13.2399Z" fill="#292D32"/>
</svg>
