<svg width="24" height="24" viewBox="0 0 24 24" fill="none" xmlns="http://www.w3.org/2000/svg">
<path d="M6.45001 22.75C6.04001 22.75 5.70001 22.41 5.70001 22V2C5.70001 1.59 6.04001 1.25 6.45001 1.25C6.86001 1.25 7.20001 1.59 7.20001 2V22C7.20001 22.41 6.86001 22.75 6.45001 22.75Z" fill="#292D32"/>
<path d="M6.94999 17.7499C6.66999 17.7499 6.40999 17.5999 6.27999 17.3299C6.09999 16.9599 6.24999 16.5099 6.61999 16.3299L14.92 12.2299C16.14 11.5999 16.83 10.8399 16.8 10.1299C16.77 9.43987 16.03 8.72987 14.76 8.18987L6.65999 4.68987C6.26999 4.51987 6.09999 4.07987 6.25999 3.69987C6.41999 3.31987 6.86999 3.13987 7.24999 3.30987L15.35 6.80987C17.85 7.86987 18.27 9.30987 18.3 10.0699C18.35 11.3999 17.39 12.6399 15.6 13.5599L7.28999 17.6699C7.17999 17.7299 7.05999 17.7499 6.94999 17.7499Z" fill="#292D32"/>
</svg>
