<svg width="24" height="24" viewBox="0 0 24 24" fill="none" xmlns="http://www.w3.org/2000/svg">
<path d="M21.77 2.22988C21.47 1.92988 20.98 1.92988 20.68 2.22988L2.23 20.6899C1.93 20.9899 1.93 21.4799 2.23 21.7799C2.38 21.9199 2.57 21.9999 2.77 21.9999C2.97 21.9999 3.16 21.9199 3.31 21.7699L21.77 3.30988C22.08 3.00988 22.08 2.52988 21.77 2.22988Z" fill="#292D32"/>
<path d="M14.82 3.5199V9.1799L9.18001 14.8199V13.2799H6.09001C4.69001 13.2799 4.30001 12.4199 5.23001 11.3699L12 3.6699L12.8 2.7599C13.91 1.4999 14.82 1.8399 14.82 3.5199Z" fill="#292D32"/>
<path d="M18.77 12.63L12 20.33L11.2 21.24C10.09 22.5 9.17999 22.16 9.17999 20.48V17.82L16.28 10.72H17.91C19.31 10.72 19.7 11.58 18.77 12.63Z" fill="#292D32"/>
</svg>
