<svg width="24" height="24" viewBox="0 0 24 24" fill="none" xmlns="http://www.w3.org/2000/svg">
<path d="M9.98999 22.75C9.78999 22.75 9.62999 22.71 9.50999 22.66C9.10999 22.51 8.42999 22.02 8.42999 20.47V18.03C8.42999 17.62 8.76999 17.28 9.17999 17.28C9.58999 17.28 9.92999 17.62 9.92999 18.03V20.47C9.92999 20.97 10.02 21.19 10.06 21.25C10.09 21.21 10.3 21.11 10.63 20.73L18.2 12.13C18.48 11.81 18.52 11.61 18.52 11.57C18.5 11.56 18.32 11.46 17.9 11.46H16.97C16.56 11.46 16.22 11.12 16.22 10.71C16.22 10.3 16.56 9.95996 16.97 9.95996H17.9C19.24 9.95996 19.72 10.59 19.89 10.96C20.06 11.34 20.21 12.11 19.33 13.12L11.76 21.72C11.05 22.54 10.43 22.75 9.98999 22.75Z" fill="#292D32"/>
<path d="M9.17999 15.2201C8.76999 15.2201 8.42999 14.8801 8.42999 14.4701V14.0401H6.08999C4.74999 14.0401 4.26999 13.4101 4.09999 13.0401C3.92999 12.6601 3.77999 11.8901 4.65999 10.8801L12.23 2.28015C13.25 1.12015 14.08 1.20015 14.48 1.35015C14.88 1.50015 15.56 1.99015 15.56 3.54015V8.85015C15.56 9.26015 15.22 9.60015 14.81 9.60015C14.4 9.60015 14.06 9.26015 14.06 8.85015V3.52015C14.06 3.02015 13.97 2.80015 13.93 2.74015C13.9 2.78015 13.69 2.88015 13.36 3.26015L5.78999 11.8601C5.50999 12.1801 5.46999 12.3801 5.46999 12.4201C5.48999 12.4301 5.66999 12.5301 6.08999 12.5301H9.17999C9.58999 12.5301 9.92999 12.8701 9.92999 13.2801V14.4601C9.92999 14.8801 9.58999 15.2201 9.17999 15.2201Z" fill="#292D32"/>
<path d="M2 22.7499C1.81 22.7499 1.62 22.6799 1.47 22.5299C1.18 22.2399 1.18 21.7599 1.47 21.4699L21.47 1.46994C21.76 1.17994 22.24 1.17994 22.53 1.46994C22.82 1.75994 22.82 2.23994 22.53 2.52994L2.53 22.5299C2.38 22.6799 2.19 22.7499 2 22.7499Z" fill="#292D32"/>
</svg>
