<svg width="24" height="24" viewBox="0 0 24 24" fill="none" xmlns="http://www.w3.org/2000/svg">
<path d="M21.0602 11.8201L20.9002 11.6001C20.6202 11.2601 20.2902 10.9901 19.9102 10.7901C19.4002 10.5001 18.8202 10.3501 18.2202 10.3501H5.7702C5.1702 10.3501 4.6002 10.5001 4.0802 10.7901C3.6902 11.0001 3.3402 11.2901 3.0502 11.6501C2.4802 12.3801 2.2102 13.2801 2.3002 14.1801L2.6702 18.8501C2.8002 20.2601 2.9702 22.0001 6.1402 22.0001H17.8602C21.0302 22.0001 21.1902 20.2601 21.3302 18.8401L21.7002 14.1901C21.7902 13.3501 21.5702 12.5101 21.0602 11.8201ZM14.3902 17.3401H9.6002C9.2102 17.3401 8.9002 17.0201 8.9002 16.6401C8.9002 16.2601 9.2102 15.9401 9.6002 15.9401H14.3902C14.7802 15.9401 15.0902 16.2601 15.0902 16.6401C15.0902 17.0301 14.7802 17.3401 14.3902 17.3401Z" fill="#292D32"/>
<path d="M20.561 8.59643C20.5986 8.97928 20.1833 9.23561 19.8185 9.11348C19.3137 8.94449 18.7824 8.86 18.2299 8.86H5.76988C5.21304 8.86 4.66478 8.95012 4.15322 9.12194C3.79283 9.24298 3.37988 8.99507 3.37988 8.61489V6.66C3.37988 3.09 4.46988 2 8.03988 2H9.21988C10.6499 2 11.0999 2.46 11.6799 3.21L12.8799 4.81C13.1299 5.15 13.1399 5.17 13.5799 5.17H15.9599C19.0856 5.17 20.3069 6.00724 20.561 8.59643Z" fill="#292D32"/>
</svg>
