<svg width="24" height="24" viewBox="0 0 24 24" fill="none" xmlns="http://www.w3.org/2000/svg">
<path d="M21.0169 7.99175C21.4148 8.55833 20.9405 9.25 20.2482 9.25H3C2.44772 9.25 2 8.80228 2 8.25V6.42C2 3.98 3.98 2 6.42 2H8.74C10.37 2 10.88 2.53 11.53 3.4L12.93 5.26C13.24 5.67 13.28 5.72 13.86 5.72H16.65C18.4546 5.72 20.0516 6.61709 21.0169 7.99175Z" fill="#292D32"/>
<path d="M21.9834 11.7459C21.9815 11.1949 21.5343 10.7493 20.9833 10.7493L2.99996 10.75C2.44769 10.75 2 11.1977 2 11.75V16.65C2 19.6 4.4 22 7.35 22H16.65C19.6 22 22 19.6 22 16.65L21.9834 11.7459ZM14.43 16.75H9.43C9.01 16.75 8.68 16.42 8.68 16C8.68 15.59 9.01 15.25 9.43 15.25H14.43C14.84 15.25 15.18 15.59 15.18 16C15.18 16.42 14.84 16.75 14.43 16.75Z" fill="#292D32"/>
</svg>
