<?xml version="1.0" encoding="utf-8"?><svg version="1.1" id="Layer_1" xmlns="http://www.w3.org/2000/svg" xmlns:xlink="http://www.w3.org/1999/xlink" x="0px" y="0px" viewBox="0 0 122.88 35.717" enable-background="new 0 0 122.88 35.717" xml:space="preserve"><g><path fill-rule="evenodd" clip-rule="evenodd" fill="#0077B5" d="M120.226,0H2.655C1.193,0,0,1.193,0,2.655v30.408 c0,1.461,1.193,2.654,2.655,2.654h117.571c1.461,0,2.654-1.193,2.654-2.654V2.655C122.88,1.193,121.687,0,120.226,0L120.226,0 L120.226,0L120.226,0z"/><polygon fill="#006AA3" points="31.935,34.785 31.935,0 33.674,0 33.674,34.785 31.935,34.785"/><path fill="#00659C" d="M47.366,26.082l-0.184,2.299H41.28l0.153-2.912l-0.153-7.006h3.127l-0.169,6.699l0.031,0.705h2.928 L47.366,26.082L47.366,26.082z M51.245,25.162l0.123,3.219h-3.082l0.153-2.912l-0.153-7.006h3.127L51.245,25.162L51.245,25.162z M62.176,25.146l0.122,3.234h-3.342l-2.79-5.305h-0.184l-0.016,1.719l0.123,3.586h-2.79l0.153-2.912l-0.153-7.006h3.342 l2.791,5.305h0.184l-0.092-5.197l2.821-0.17L62.176,25.146L62.176,25.146z M69.964,23.154c0.939,1.471,2.013,2.998,3.219,4.584 l-0.046,0.336c-1.073,0.236-2.095,0.398-3.065,0.492l-0.338-0.186c-1.042-1.787-1.896-3.307-2.56-4.553l-0.031,1.334l0.123,3.219 h-3.082l0.153-2.912l-0.153-7.006h3.128l-0.107,4.139l1.901-3.066l0.521-1.072h3.251L69.964,23.154L69.964,23.154z M80.818,25.928 l0.168,0.215l-0.184,2.238h-6.991l0.153-2.912l-0.153-7.006h7.113l0.169,0.214l-0.199,2.239l-2.438-0.092h-1.579l-0.031,1.395 h1.519l1.594-0.047l0.169,0.215l-0.184,2.238l-1.779-0.045h-1.379l-0.016,0.582l0.03,0.859h1.472L80.818,25.928L80.818,25.928z M86.582,18.4c1.462,0,2.583,0.396,3.365,1.189c0.782,0.791,1.173,1.934,1.173,3.426c0,1.768-0.455,3.127-1.364,4.078 s-2.213,1.426-3.909,1.426c-1.063,0-2.311-0.047-3.741-0.139l0.153-2.912l-0.153-7.006L86.582,18.4L86.582,18.4z M86.429,26.234 c0.48,0,0.846-0.191,1.097-0.574c0.25-0.383,0.375-1.014,0.375-1.893c0-0.746-0.051-1.334-0.153-1.764 c-0.102-0.43-0.266-0.738-0.49-0.928s-0.537-0.283-0.936-0.283c-0.388,0-0.771,0.02-1.149,0.061l-0.107,4.309l0.031,0.951 C85.709,26.193,86.153,26.234,86.429,26.234L86.429,26.234z M95.091,25.162l0.123,3.219h-3.082l0.153-2.912l-0.153-7.006h3.127 L95.091,25.162L95.091,25.162z M106.021,25.146l0.123,3.234h-3.342l-2.791-5.305h-0.184l-0.016,1.719l0.123,3.586h-2.79 l0.153-2.912l-0.153-7.006h3.342l2.79,5.305h0.184l-0.092-5.197l2.821-0.17L106.021,25.146L106.021,25.146z"/><path fill="#00659C" d="M42.085,9.295l-0.026,1.321h0.714l0.986-0.026l0.08,0.105l-0.088,1.057l-1.083-0.026h-0.625l-0.009,0.308 l0.053,1.823H40.65l0.079-1.683L40.65,8.176h3.558l0.08,0.106L44.19,9.339l-1.374-0.053L42.085,9.295L42.085,9.295z M47.672,8.088 c0.811,0,1.436,0.242,1.876,0.727s0.661,1.173,0.661,2.065c0,0.975-0.241,1.73-0.722,2.268c-0.481,0.538-1.16,0.806-2.035,0.806 c-0.804,0-1.427-0.248-1.867-0.744c-0.44-0.496-0.66-1.199-0.66-2.109c0-0.963,0.239-1.706,0.718-2.228 C46.121,8.35,46.797,8.088,47.672,8.088L47.672,8.088z M47.549,9.233c-0.276,0-0.496,0.054-0.661,0.163 c-0.165,0.109-0.285,0.285-0.361,0.529s-0.114,0.574-0.114,0.991c0,0.499,0.038,0.891,0.114,1.176 c0.076,0.285,0.198,0.489,0.366,0.612s0.395,0.185,0.682,0.185c0.282,0,0.505-0.055,0.67-0.163 c0.164-0.109,0.283-0.286,0.356-0.533c0.073-0.246,0.11-0.584,0.11-1.013c0-0.493-0.039-0.881-0.115-1.163S48.4,9.534,48.236,9.414 C48.071,9.293,47.842,9.233,47.549,9.233L47.549,9.233z M54.8,12.792l-0.097,1.066h-3.197l0.079-1.683l-0.079-3.999h1.453 l-0.079,3.858l0.026,0.652h1.806L54.8,12.792L54.8,12.792z M59.259,12.792l-0.097,1.066h-3.197l0.079-1.683l-0.079-3.999h1.453 l-0.08,3.858l0.026,0.652h1.806L59.259,12.792L59.259,12.792z M62.556,8.088c0.81,0,1.435,0.242,1.875,0.727 s0.661,1.173,0.661,2.065c0,0.975-0.241,1.73-0.722,2.268c-0.482,0.538-1.16,0.806-2.035,0.806c-0.805,0-1.427-0.248-1.867-0.744 c-0.44-0.496-0.661-1.199-0.661-2.109c0-0.963,0.239-1.706,0.718-2.228C61.003,8.35,61.681,8.088,62.556,8.088L62.556,8.088z M62.432,9.233c-0.276,0-0.496,0.054-0.66,0.163c-0.164,0.109-0.285,0.285-0.361,0.529c-0.077,0.244-0.114,0.574-0.114,0.991 c0,0.499,0.038,0.891,0.114,1.176c0.076,0.285,0.198,0.489,0.365,0.612s0.396,0.185,0.683,0.185c0.282,0,0.505-0.055,0.67-0.163 c0.164-0.109,0.283-0.286,0.356-0.533c0.073-0.246,0.11-0.584,0.11-1.013c0-0.493-0.039-0.881-0.115-1.163s-0.196-0.483-0.36-0.604 C62.954,9.293,62.726,9.233,62.432,9.233L62.432,9.233z M71.814,13.857h-1.506l-0.714-2.449h-0.088l-0.705,2.449h-1.515 l-1.488-5.681h1.392l0.088,0.775l0.819,3.452h0.088l0.837-2.871L68.67,8.176h1.444l0.123,0.917l0.854,3.311h0.088l0.961-3.373 l0.149-0.854h1.32L71.814,13.857L71.814,13.857z M81.199,11.057l-0.009,0.819c0.006,0.664-0.198,1.175-0.612,1.533 c-0.414,0.358-1.003,0.537-1.766,0.537c-0.74,0-1.306-0.176-1.695-0.528c-0.391-0.352-0.577-0.857-0.56-1.515l0.018-0.863 L76.54,8.176h1.427l-0.062,3.532c-0.006,0.375,0.07,0.651,0.229,0.828c0.159,0.176,0.405,0.264,0.74,0.264 c0.341,0,0.592-0.086,0.753-0.26c0.161-0.173,0.239-0.439,0.233-0.797l-0.062-3.567h1.453L81.199,11.057L81.199,11.057z M84.883,8.088c0.506,0,1.016,0.1,1.532,0.299l-0.229,1.198l-0.211,0.079c-0.224-0.147-0.447-0.261-0.67-0.344 c-0.223-0.082-0.417-0.123-0.581-0.123c-0.194,0-0.348,0.048-0.463,0.145c-0.114,0.097-0.171,0.21-0.171,0.339 c0,0.147,0.071,0.271,0.215,0.374c0.145,0.103,0.372,0.225,0.684,0.366c0.328,0.153,0.594,0.292,0.797,0.418 c0.202,0.126,0.379,0.295,0.528,0.506s0.225,0.47,0.225,0.775c0,0.341-0.093,0.649-0.277,0.925 c-0.186,0.276-0.448,0.495-0.789,0.656c-0.34,0.161-0.733,0.242-1.18,0.242c-0.593,0-1.181-0.117-1.762-0.352l0.203-1.277 l0.149-0.088c0.246,0.205,0.515,0.365,0.806,0.48c0.291,0.114,0.542,0.172,0.753,0.172c0.224,0,0.393-0.05,0.507-0.15 s0.172-0.217,0.172-0.353c0-0.158-0.073-0.291-0.221-0.396c-0.146-0.106-0.376-0.229-0.687-0.37 c-0.317-0.146-0.577-0.283-0.779-0.41c-0.203-0.126-0.378-0.295-0.524-0.506s-0.22-0.47-0.22-0.775 c0-0.347,0.092-0.659,0.277-0.938c0.185-0.279,0.443-0.498,0.774-0.656C84.074,8.167,84.454,8.088,84.883,8.088L84.883,8.088z M92.181,8.088c0.811,0,1.436,0.242,1.876,0.727s0.66,1.173,0.66,2.065c0,0.975-0.241,1.73-0.722,2.268 c-0.482,0.538-1.16,0.806-2.035,0.806c-0.804,0-1.427-0.248-1.867-0.744c-0.44-0.496-0.66-1.199-0.66-2.109 c0-0.963,0.239-1.706,0.718-2.228C90.629,8.35,91.306,8.088,92.181,8.088L92.181,8.088z M92.057,9.233 c-0.275,0-0.496,0.054-0.66,0.163c-0.164,0.109-0.285,0.285-0.361,0.529s-0.114,0.574-0.114,0.991c0,0.499,0.038,0.891,0.114,1.176 c0.076,0.285,0.198,0.489,0.365,0.612c0.168,0.124,0.396,0.185,0.683,0.185c0.282,0,0.506-0.055,0.67-0.163 c0.164-0.109,0.283-0.286,0.356-0.533c0.073-0.246,0.11-0.584,0.11-1.013c0-0.493-0.038-0.881-0.114-1.163 c-0.077-0.282-0.197-0.483-0.361-0.604C92.579,9.293,92.351,9.233,92.057,9.233L92.057,9.233z M100.911,12.061l0.053,1.797h-1.55 l-2.018-3.515h-0.088L97.3,11.858l0.053,2h-1.295l0.071-1.673l-0.071-4.008H97.6l2.025,3.515h0.089l-0.036-3.461l1.313-0.08 L100.911,12.061L100.911,12.061z"/><path fill="#FFFFFF" d="M42.085,8.968l-0.026,1.321h0.714l0.986-0.026l0.08,0.105l-0.088,1.057l-1.083-0.026h-0.625l-0.009,0.308 l0.053,1.823H40.65l0.079-1.682L40.65,7.849h3.558l0.08,0.106L44.19,9.012l-1.374-0.053L42.085,8.968L42.085,8.968z M47.672,7.761 c0.811,0,1.436,0.242,1.876,0.727s0.661,1.173,0.661,2.065c0,0.975-0.241,1.73-0.722,2.268c-0.481,0.538-1.16,0.806-2.035,0.806 c-0.804,0-1.427-0.248-1.867-0.744c-0.44-0.496-0.66-1.199-0.66-2.109c0-0.963,0.239-1.706,0.718-2.228 C46.121,8.022,46.797,7.761,47.672,7.761L47.672,7.761z M47.549,8.906c-0.276,0-0.496,0.054-0.661,0.163 c-0.165,0.109-0.285,0.285-0.361,0.529s-0.114,0.574-0.114,0.991c0,0.499,0.038,0.891,0.114,1.176 c0.076,0.285,0.198,0.489,0.366,0.612s0.395,0.185,0.682,0.185c0.282,0,0.505-0.055,0.67-0.163 c0.164-0.108,0.283-0.286,0.356-0.533s0.11-0.584,0.11-1.013c0-0.493-0.039-0.881-0.115-1.163S48.4,9.207,48.236,9.086 C48.071,8.966,47.842,8.906,47.549,8.906L47.549,8.906z M54.8,12.464l-0.097,1.066h-3.197l0.079-1.682l-0.079-3.999h1.453 l-0.079,3.858l0.026,0.652h1.806L54.8,12.464L54.8,12.464z M59.259,12.464l-0.097,1.066h-3.197l0.079-1.682l-0.079-3.999h1.453 l-0.08,3.858l0.026,0.652h1.806L59.259,12.464L59.259,12.464z M62.556,7.761c0.81,0,1.435,0.242,1.875,0.727 s0.661,1.173,0.661,2.065c0,0.975-0.241,1.73-0.722,2.268c-0.482,0.538-1.16,0.806-2.035,0.806c-0.805,0-1.427-0.248-1.867-0.744 c-0.44-0.496-0.661-1.199-0.661-2.109c0-0.963,0.239-1.706,0.718-2.228C61.003,8.022,61.681,7.761,62.556,7.761L62.556,7.761z M62.432,8.906c-0.276,0-0.496,0.054-0.66,0.163c-0.164,0.109-0.285,0.285-0.361,0.529c-0.077,0.244-0.114,0.574-0.114,0.991 c0,0.499,0.038,0.891,0.114,1.176c0.076,0.285,0.198,0.489,0.365,0.612s0.396,0.185,0.683,0.185c0.282,0,0.505-0.055,0.67-0.163 c0.164-0.108,0.283-0.286,0.356-0.533s0.11-0.584,0.11-1.013c0-0.493-0.039-0.881-0.115-1.163s-0.196-0.483-0.36-0.604 C62.954,8.966,62.726,8.906,62.432,8.906L62.432,8.906z M71.814,13.53h-1.506l-0.714-2.449h-0.088l-0.705,2.449h-1.515 l-1.488-5.681h1.392l0.088,0.775l0.819,3.453h0.088l0.837-2.872L68.67,7.849h1.444l0.123,0.917l0.854,3.312h0.088l0.961-3.374 l0.149-0.854h1.32L71.814,13.53L71.814,13.53z M81.199,10.729l-0.009,0.819c0.006,0.664-0.198,1.175-0.612,1.533 c-0.414,0.358-1.003,0.538-1.766,0.538c-0.74,0-1.306-0.177-1.695-0.529c-0.391-0.352-0.577-0.857-0.56-1.515l0.018-0.863 L76.54,7.849h1.427l-0.062,3.532c-0.006,0.375,0.07,0.651,0.229,0.828c0.159,0.176,0.405,0.264,0.74,0.264 c0.341,0,0.592-0.086,0.753-0.26c0.161-0.173,0.239-0.439,0.233-0.797l-0.062-3.567h1.453L81.199,10.729L81.199,10.729z M84.883,7.761c0.506,0,1.016,0.1,1.532,0.299l-0.229,1.198l-0.211,0.079c-0.224-0.147-0.447-0.261-0.67-0.344 c-0.223-0.082-0.417-0.123-0.581-0.123c-0.194,0-0.348,0.048-0.463,0.145c-0.114,0.097-0.171,0.21-0.171,0.339 c0,0.147,0.071,0.271,0.215,0.374c0.145,0.103,0.372,0.225,0.684,0.366c0.328,0.153,0.594,0.292,0.797,0.418 c0.202,0.126,0.379,0.295,0.528,0.506s0.225,0.47,0.225,0.775c0,0.34-0.093,0.648-0.277,0.924 c-0.186,0.276-0.448,0.495-0.789,0.656c-0.34,0.161-0.733,0.243-1.18,0.243c-0.593,0-1.181-0.118-1.762-0.353l0.203-1.277 l0.149-0.088c0.246,0.205,0.515,0.365,0.806,0.48c0.291,0.114,0.542,0.172,0.753,0.172c0.224,0,0.393-0.05,0.507-0.15 s0.172-0.217,0.172-0.352c0-0.159-0.073-0.291-0.221-0.396c-0.146-0.106-0.376-0.229-0.687-0.37 c-0.317-0.146-0.577-0.283-0.779-0.41c-0.203-0.126-0.378-0.295-0.524-0.506c-0.146-0.211-0.22-0.47-0.22-0.775 c0-0.347,0.092-0.659,0.277-0.938c0.185-0.279,0.443-0.498,0.774-0.656C84.074,7.84,84.454,7.761,84.883,7.761L84.883,7.761z M92.181,7.761c0.811,0,1.436,0.242,1.876,0.727s0.66,1.173,0.66,2.065c0,0.975-0.241,1.73-0.722,2.268 c-0.482,0.538-1.16,0.806-2.035,0.806c-0.804,0-1.427-0.248-1.867-0.744c-0.44-0.496-0.66-1.199-0.66-2.109 c0-0.963,0.239-1.706,0.718-2.228C90.629,8.022,91.306,7.761,92.181,7.761L92.181,7.761z M92.057,8.906 c-0.275,0-0.496,0.054-0.66,0.163c-0.164,0.109-0.285,0.285-0.361,0.529s-0.114,0.574-0.114,0.991c0,0.499,0.038,0.891,0.114,1.176 c0.076,0.285,0.198,0.489,0.365,0.612c0.168,0.124,0.396,0.185,0.683,0.185c0.282,0,0.506-0.055,0.67-0.163 s0.283-0.286,0.356-0.533s0.11-0.584,0.11-1.013c0-0.493-0.038-0.881-0.114-1.163c-0.077-0.282-0.197-0.483-0.361-0.604 C92.579,8.966,92.351,8.906,92.057,8.906L92.057,8.906z M100.911,11.733l0.053,1.797h-1.55l-2.018-3.515h-0.088L97.3,11.531 l0.053,2h-1.295l0.071-1.673l-0.071-4.008H97.6l2.025,3.515h0.089l-0.036-3.461l1.313-0.08L100.911,11.733L100.911,11.733z"/><path fill="#FFFFFF" d="M47.366,25.633l-0.184,2.301H41.28l0.153-2.914l-0.153-7.006h3.127l-0.169,6.699l0.031,0.705h2.928 L47.366,25.633L47.366,25.633z M51.245,24.713l0.123,3.221h-3.082l0.153-2.914l-0.153-7.006h3.127L51.245,24.713L51.245,24.713z M62.176,24.697l0.122,3.236h-3.342l-2.79-5.305h-0.184l-0.016,1.717l0.123,3.588h-2.79l0.153-2.914l-0.153-7.006h3.342 l2.791,5.305h0.184l-0.092-5.197l2.821-0.168L62.176,24.697L62.176,24.697z M69.964,22.705c0.939,1.473,2.013,3,3.219,4.584 l-0.046,0.338c-1.073,0.234-2.095,0.398-3.065,0.49l-0.338-0.184c-1.042-1.789-1.896-3.307-2.56-4.555l-0.031,1.334l0.123,3.221 h-3.082l0.153-2.914l-0.153-7.006h3.128l-0.107,4.139l1.901-3.064l0.521-1.074h3.251L69.964,22.705L69.964,22.705z M80.818,25.48 l0.168,0.215l-0.184,2.238h-6.991l0.153-2.914l-0.153-7.006h7.113l0.169,0.215l-0.199,2.238l-2.438-0.092h-1.579l-0.031,1.395 h1.519l1.594-0.045l0.169,0.215l-0.184,2.238l-1.779-0.047h-1.379l-0.016,0.582l0.03,0.859h1.472L80.818,25.48L80.818,25.48z M86.582,17.953c1.462,0,2.583,0.397,3.365,1.188c0.782,0.793,1.173,1.934,1.173,3.428c0,1.768-0.455,3.127-1.364,4.076 c-0.909,0.951-2.213,1.426-3.909,1.426c-1.063,0-2.311-0.045-3.741-0.137l0.153-2.914l-0.153-7.006L86.582,17.953L86.582,17.953z M86.429,25.787c0.48,0,0.846-0.191,1.097-0.576c0.25-0.383,0.375-1.014,0.375-1.893c0-0.746-0.051-1.334-0.153-1.764 c-0.102-0.428-0.266-0.738-0.49-0.928c-0.225-0.188-0.537-0.283-0.936-0.283c-0.388,0-0.771,0.021-1.149,0.063l-0.107,4.307 l0.031,0.951C85.709,25.746,86.153,25.787,86.429,25.787L86.429,25.787z M95.091,24.713l0.123,3.221h-3.082l0.153-2.914 l-0.153-7.006h3.127L95.091,24.713L95.091,24.713z M106.021,24.697l0.123,3.236h-3.342l-2.791-5.305h-0.184l-0.016,1.717 l0.123,3.588h-2.79l0.153-2.914l-0.153-7.006h3.342l2.79,5.305h0.184l-0.092-5.197l2.821-0.168L106.021,24.697L106.021,24.697z"/><path fill="#005887" d="M0.409,32.336c0,0.674,0.276,1.287,0.72,1.73c0.443,0.443,1.056,0.719,1.73,0.719h117.161 c0.675,0,1.288-0.275,1.731-0.719s0.719-1.057,0.719-1.73l0.409-30.088v30.088c0,0.787-0.321,1.502-0.839,2.02 c-0.519,0.518-1.233,0.84-2.021,0.84H2.859c-0.786,0-1.501-0.322-2.02-0.84S0,33.123,0,32.336V2.248L0.409,32.336L0.409,32.336z"/><path fill="#FFFFFF" d="M12.359,11.268c0,1.031-0.839,1.87-1.871,1.87s-1.871-0.839-1.871-1.87s0.839-1.871,1.871-1.871 S12.359,10.236,12.359,11.268L12.359,11.268L12.359,11.268z M8.618,14.385h3.741v11.223H8.618V14.385L8.618,14.385L8.618,14.385z M14.642,14.385h3.447v1.77h0.051c0.481-0.862,1.655-1.77,3.406-1.77c3.645,0,4.319,2.265,4.319,5.217v6.006h-3.599l0-5.322 c0-1.27-0.028-2.902-1.871-2.902c-1.875,0-2.159,1.381-2.159,2.811v5.418h-3.594V14.385L14.642,14.385L14.642,14.385L14.642,14.385 z"/></g></svg>