<svg width="24" height="24" viewBox="0 0 24 24" fill="none" xmlns="http://www.w3.org/2000/svg">
<path d="M17.02 2.88C16.54 2.4 15.58 2 14.9 2H9.1C8.42 2 7.46 2.4 6.98 2.88L2.88 6.98C2.4 7.46 2 8.42 2 9.1V14.9C2 15.58 2.4 16.54 2.88 17.02L4.41 18.55L18.55 4.41L17.02 2.88Z" fill="#292D32"/>
<path d="M21.12 6.97997L19.61 5.46997L5.47 19.61L6.98 21.12C7.46 21.6 8.42 22 9.1 22H14.9C15.58 22 16.54 21.6 17.02 21.12L21.12 17.02C21.6 16.54 22 15.58 22 14.9V9.09997C22 8.41997 21.6 7.45997 21.12 6.97997Z" fill="#292D32"/>
<path d="M2.49001 20.47C2.20001 20.76 2.20001 21.2401 2.49001 21.5301C2.64001 21.6801 2.83001 21.75 3.02001 21.75C3.21001 21.75 3.40001 21.6801 3.55001 21.5301L5.47001 19.6101L4.41001 18.55L2.49001 20.47Z" fill="#292D32"/>
<path d="M21.53 3.54996C21.82 3.25996 21.82 2.77996 21.53 2.48996C21.24 2.19996 20.76 2.19996 20.47 2.48996L18.55 4.40996L19.61 5.46996L21.53 3.54996Z" fill="#292D32"/>
</svg>
