<svg width="24" height="24" viewBox="0 0 24 24" fill="none" xmlns="http://www.w3.org/2000/svg">
<path d="M14.4299 16.9198H12.1399C11.7299 16.9198 11.3899 16.5798 11.3899 16.1698C11.3899 15.7598 11.7299 15.4198 12.1399 15.4198H14.4299C14.8599 15.4198 15.2099 15.0698 15.2099 14.6398C15.2099 14.2098 14.8599 13.8598 14.4299 13.8598H12.1399C11.8999 13.8598 11.6699 13.7398 11.5299 13.5498C11.3899 13.3598 11.3499 13.0998 11.4299 12.8698L12.1899 10.5798C12.2899 10.2698 12.5799 10.0698 12.8999 10.0698H15.9599C16.3699 10.0698 16.7099 10.4098 16.7099 10.8198C16.7099 11.2298 16.3699 11.5698 15.9599 11.5698H13.4399L13.1799 12.3598H14.4299C15.6899 12.3598 16.7099 13.3798 16.7099 14.6398C16.7099 15.8998 15.6799 16.9198 14.4299 16.9198Z" fill="#292D32"/>
<path d="M9.53992 16.9198C9.12992 16.9198 8.78992 16.5798 8.78992 16.1698V12.7798L8.59992 12.9998C8.31992 13.3098 7.84992 13.3298 7.53992 13.0598C7.23992 12.7798 7.20992 12.3098 7.48992 11.9998L8.98992 10.3298C9.19992 10.0998 9.52992 10.0198 9.81992 10.1298C10.1099 10.2398 10.2999 10.5198 10.2999 10.8298V16.1798C10.2899 16.5898 9.95992 16.9198 9.53992 16.9198Z" fill="#292D32"/>
<path d="M19.6901 7.34978C19.4401 7.01978 18.9701 6.94978 18.6401 7.19978C18.3101 7.44978 18.2401 7.91978 18.4901 8.24978C19.5701 9.68978 20.1401 11.3698 20.1401 13.1098C20.1401 17.5998 16.4901 21.2498 12.0001 21.2498C7.5101 21.2498 3.8601 17.5998 3.8601 13.1098C3.8601 8.61978 7.5101 4.97978 12.0001 4.97978C12.5801 4.97978 13.1701 5.04978 13.8101 5.19978C13.8401 5.20978 13.8701 5.19978 13.9001 5.19978C13.9301 5.19978 13.9501 5.21978 13.9701 5.21978C14.0001 5.21978 14.0201 5.20978 14.0501 5.20978C14.0801 5.20978 14.1101 5.19978 14.1501 5.18978C14.2101 5.17978 14.2601 5.14978 14.3101 5.12978C14.3401 5.10978 14.3701 5.09978 14.4001 5.07978C14.4101 5.06978 14.4301 5.06978 14.4401 5.05978C14.4701 5.03978 14.4801 5.00978 14.5001 4.98978C14.5401 4.94978 14.5701 4.91978 14.6001 4.86978C14.6301 4.82978 14.6401 4.77978 14.6601 4.72978C14.6701 4.69978 14.6901 4.66978 14.7001 4.63978C14.7001 4.61978 14.7001 4.60978 14.7001 4.58978C14.7101 4.53978 14.7101 4.48978 14.7001 4.43978C14.7001 4.38978 14.7001 4.34978 14.6901 4.29978C14.6801 4.25978 14.6601 4.21978 14.6401 4.16978C14.6201 4.11978 14.6001 4.06978 14.5701 4.02978C14.5701 4.01978 14.5701 4.00978 14.5601 3.99978L12.5801 1.52978C12.3201 1.20978 11.8501 1.14978 11.5301 1.40978C11.2101 1.66978 11.1601 2.13978 11.4101 2.45978L12.2301 3.47978C12.1501 3.47978 12.0701 3.46978 11.9901 3.46978C6.6801 3.46978 2.3501 7.78978 2.3501 13.1098C2.3501 18.4298 6.6701 22.7498 11.9901 22.7498C17.3101 22.7498 21.6301 18.4298 21.6301 13.1098C21.6401 11.0398 20.9601 9.04978 19.6901 7.34978Z" fill="#292D32"/>
</svg>
