<svg width="24" height="24" viewBox="0 0 24 24" fill="none" xmlns="http://www.w3.org/2000/svg">
<path d="M19.48 7.09003C19.22 6.77003 18.75 6.72003 18.43 6.98003C18.11 7.24003 18.06 7.71003 18.32 8.03003C19.45 9.43003 20.08 11.09 20.14 12.83C20.3 17.31 16.78 21.09 12.29 21.24C7.80003 21.4 4.03003 17.88 3.87003 13.4C3.71003 8.92003 7.23003 5.14003 11.72 4.99003C12.29 4.97003 12.89 5.02003 13.54 5.15003C13.58 5.16003 13.62 5.15003 13.66 5.15003C13.76 5.20003 13.88 5.23003 13.99 5.23003C14.16 5.23003 14.32 5.18003 14.46 5.06003C14.78 4.80003 14.83 4.33003 14.58 4.01003L12.6 1.54003C12.34 1.22003 11.87 1.16003 11.55 1.42003C11.23 1.68003 11.18 2.15003 11.43 2.47003L12.26 3.50003C12.07 3.49003 11.87 3.48003 11.68 3.49003C6.37003 3.67003 2.20003 8.15003 2.39003 13.46C2.58003 18.77 7.05003 22.94 12.36 22.75C17.67 22.56 21.84 18.09 21.65 12.78C21.56 10.71 20.82 8.74003 19.48 7.09003Z" fill="#292D32"/>
<path d="M12.3799 16.9198H10.0899C9.67988 16.9198 9.33988 16.5798 9.33988 16.1698C9.33988 15.7598 9.67988 15.4198 10.0899 15.4198H12.3799C12.8099 15.4198 13.1599 15.0698 13.1599 14.6398C13.1599 14.2098 12.8099 13.8598 12.3799 13.8598H10.0899C9.84988 13.8598 9.61988 13.7398 9.47988 13.5498C9.33988 13.3598 9.29988 13.0998 9.37988 12.8698L10.1399 10.5798C10.2399 10.2698 10.5299 10.0698 10.8499 10.0698H13.9099C14.3199 10.0698 14.6599 10.4098 14.6599 10.8198C14.6599 11.2298 14.3199 11.5698 13.9099 11.5698H11.3899L11.1299 12.3598H12.3799C13.6399 12.3598 14.6599 13.3798 14.6599 14.6398C14.6599 15.8998 13.6399 16.9198 12.3799 16.9198Z" fill="#292D32"/>
</svg>
