<svg width="24" height="24" viewBox="0 0 24 24" fill="none" xmlns="http://www.w3.org/2000/svg">
<path d="M19.6901 7.34996C19.4401 7.01996 18.9701 6.94996 18.6401 7.19996C18.3101 7.44996 18.2401 7.91996 18.4901 8.24996C19.5701 9.68996 20.1401 11.37 20.1401 13.11C20.1401 17.6 16.4901 21.25 12.0001 21.25C7.5101 21.25 3.8601 17.6 3.8601 13.11C3.8601 8.61996 7.5101 4.97996 12.0001 4.97996C12.5801 4.97996 13.1701 5.04996 13.8101 5.19996C13.8401 5.20996 13.8701 5.19996 13.9101 5.19996C13.9301 5.19996 13.9601 5.21996 13.9801 5.21996C14.0101 5.21996 14.0301 5.20996 14.0601 5.20996C14.1001 5.20996 14.1301 5.19996 14.1601 5.18996C14.2101 5.17996 14.2601 5.15996 14.3101 5.12996C14.3401 5.10996 14.3801 5.09996 14.4101 5.07996C14.4201 5.06996 14.4401 5.06996 14.4501 5.05996C14.4801 5.03996 14.4901 5.00996 14.5101 4.98996C14.5501 4.94996 14.5801 4.91996 14.6101 4.86996C14.6401 4.82996 14.6501 4.77996 14.6701 4.73996C14.6801 4.70996 14.7001 4.67996 14.7101 4.64996C14.7101 4.62996 14.7101 4.61996 14.7101 4.59996C14.7201 4.54996 14.7201 4.49996 14.7101 4.44996C14.7101 4.39996 14.7101 4.35996 14.7001 4.30996C14.6901 4.26996 14.6701 4.22996 14.6501 4.17996C14.6301 4.12996 14.6101 4.07996 14.5801 4.03996C14.5701 4.01996 14.5701 4.00996 14.5601 3.99996L12.5801 1.52996C12.3201 1.20996 11.8501 1.15996 11.5301 1.40996C11.2101 1.66996 11.1601 2.13996 11.4101 2.45996L12.2301 3.47996C12.1501 3.47996 12.0701 3.46996 11.9901 3.46996C6.6801 3.46996 2.3501 7.78996 2.3501 13.11C2.3501 18.43 6.6701 22.75 11.9901 22.75C17.3101 22.75 21.6301 18.43 21.6301 13.11C21.6401 11.04 20.9601 9.04996 19.6901 7.34996Z" fill="#292D32"/>
<path d="M9.54004 16.6698C9.13004 16.6698 8.79004 16.3298 8.79004 15.9198V12.5298L8.60004 12.7498C8.32004 13.0598 7.85004 13.0798 7.54004 12.8098C7.23004 12.5298 7.21004 12.0598 7.48004 11.7498L8.98004 10.0798C9.19004 9.84984 9.52004 9.76984 9.81004 9.87984C10.1 9.98984 10.29 10.2698 10.29 10.5798V15.9298C10.29 16.3398 9.96004 16.6698 9.54004 16.6698Z" fill="#292D32"/>
<path d="M14 16.6698C12.48 16.6698 11.25 15.4398 11.25 13.9198V12.5698C11.25 11.0498 12.48 9.81982 14 9.81982C15.52 9.81982 16.75 11.0498 16.75 12.5698V13.9198C16.75 15.4398 15.52 16.6698 14 16.6698ZM14 11.3298C13.31 11.3298 12.75 11.8898 12.75 12.5798V13.9298C12.75 14.6198 13.31 15.1798 14 15.1798C14.69 15.1798 15.25 14.6198 15.25 13.9298V12.5798C15.25 11.8898 14.69 11.3298 14 11.3298Z" fill="#292D32"/>
</svg>
