<svg width="24" height="24" viewBox="0 0 24 24" fill="none" xmlns="http://www.w3.org/2000/svg">
<path d="M19 16.75H5C4.59 16.75 4.25 16.41 4.25 16V9C4.25 8.59 4.59 8.25 5 8.25H10.19L4.47 2.53C4.26 2.32 4.19 1.98999 4.31 1.70999C4.43 1.42999 4.7 1.25 5 1.25H19C19.41 1.25 19.75 1.59 19.75 2V9C19.75 9.41 19.41 9.75 19 9.75H13.81L19.53 15.47C19.74 15.68 19.81 16.01 19.69 16.29C19.57 16.57 19.3 16.75 19 16.75ZM5.75 15.25H17.19L11.69 9.75H5.75V15.25ZM12.31 8.25H18.25V2.75H6.81L12.31 8.25Z" fill="black"/>
<path d="M11.9999 22.75C11.8199 22.75 11.6499 22.69 11.5099 22.57L4.50991 16.57C4.26991 16.37 4.18991 16.03 4.28991 15.74C4.39991 15.45 4.67989 15.25 4.98989 15.25H11.9899C12.3999 15.25 12.7399 15.59 12.7399 16V22C12.7399 22.29 12.5699 22.56 12.2999 22.68C12.2099 22.73 12.1099 22.75 11.9999 22.75ZM7.0299 16.75L11.2499 20.37V16.75H7.0299Z" fill="black"/>
</svg>
