<svg width="24" height="24" viewBox="0 0 24 24" fill="none" xmlns="http://www.w3.org/2000/svg">
<path d="M21.7699 2.22988C21.4699 1.92988 20.9799 1.92988 20.6799 2.22988L2.22988 20.6899C1.92988 20.9899 1.92988 21.4799 2.22988 21.7799C2.37988 21.9199 2.56988 21.9999 2.76988 21.9999C2.96988 21.9999 3.15988 21.9199 3.30988 21.7699L21.7699 3.30988C22.0799 3.00988 22.0799 2.52988 21.7699 2.22988Z" fill="#292D32"/>
<path d="M9.00012 10.3801C10.3146 10.3801 11.3801 9.31456 11.3801 8.00012C11.3801 6.68568 10.3146 5.62012 9.00012 5.62012C7.68568 5.62012 6.62012 6.68568 6.62012 8.00012C6.62012 9.31456 7.68568 10.3801 9.00012 10.3801Z" fill="#292D32"/>
<path d="M21.6099 5.39014L20.3899 6.61014C20.4699 6.98014 20.4999 7.38014 20.4999 7.81014V12.6101L20.3699 12.5001C19.5899 11.8301 18.3299 11.8301 17.5499 12.5001L13.3899 16.0701C12.6799 16.6801 11.5599 16.7401 10.7799 16.2201L5.3999 21.6001C5.4399 21.6201 5.4799 21.6301 5.5199 21.6401C5.7899 21.7301 6.0599 21.8001 6.3499 21.8601C6.4499 21.8801 6.5499 21.9001 6.6599 21.9101C7.0299 21.9601 7.4099 22.0001 7.8099 22.0001H16.1899C19.8299 22.0001 21.9999 19.8301 21.9999 16.1901V7.81014C21.9999 6.91014 21.8699 6.10014 21.6099 5.39014Z" fill="#292D32"/>
<path d="M21.6099 5.39014L20.3899 6.61014C20.4699 6.98014 20.4999 7.38014 20.4999 7.81014V12.6101L20.3699 12.5001C19.5899 11.8301 18.3299 11.8301 17.5499 12.5001L13.3899 16.0701C12.6799 16.6801 11.5599 16.7401 10.7799 16.2201L5.38989 21.6101C6.09989 21.8701 6.90989 22.0001 7.80989 22.0001H16.1899C19.8299 22.0001 21.9999 19.8301 21.9999 16.1901V7.81014C21.9999 6.91014 21.8699 6.10014 21.6099 5.39014Z" fill="#292D32"/>
<path d="M20.46 3.54L19.4 4.6C18.68 3.87 17.6 3.5 16.19 3.5H7.81C4.99 3.5 3.5 4.99 3.5 7.81V16.19C3.5 16.95 3.63 17.6 3.85 18.16L7.59 15.65C7.93 15.42 8.32 15.3 8.71 15.29L3.54 20.46C3.14 20.06 2.81 19.58 2.56 19.03C2.19 18.23 2 17.28 2 16.19V7.81C2 4.17 4.17 2 7.81 2H16.19C18.01 2 19.46 2.54 20.46 3.54Z" fill="#292D32"/>
</svg>
