<svg width="24" height="24" viewBox="0 0 24 24" fill="none" xmlns="http://www.w3.org/2000/svg">
<path d="M15.84 22.0002H8.15998C3.96998 22.0002 3.13998 19.4702 4.49998 16.3902L5.93998 13.1202C5.93998 13.1202 8.99998 13.0002 12 14.0002C15 15.0002 17.83 13.1102 17.83 13.1102L18.02 12.9902L19.51 16.4002C20.85 19.4802 19.97 22.0002 15.84 22.0002Z" fill="#292D32"/>
<path d="M15.4399 6.74H15.2799L17.4099 11.6L16.9999 11.86C16.9799 11.87 14.7199 13.32 12.4699 12.58C10.1199 11.79 7.75995 11.65 6.59995 11.63L8.73995 6.74H8.43995C7.78995 6.74 7.18995 6.48 6.75995 6.05C6.32995 5.62 6.06995 5.02 6.06995 4.37C6.06995 3.07 7.12995 2 8.43995 2H15.5499C16.2099 2 16.7999 2.27 17.2299 2.7C17.7899 3.26 18.0799 4.08 17.8599 4.95C17.5999 6.03 16.5599 6.74 15.4399 6.74Z" fill="#292D32"/>
</svg>
