<svg width="24" height="24" viewBox="0 0 24 24" fill="none" xmlns="http://www.w3.org/2000/svg">
<path d="M18.7299 14.6701L14.5799 18.8201C14.4199 18.9801 14.2699 19.2901 14.2299 19.5101L13.9999 21.1001C13.9199 21.6701 14.3199 22.0801 14.8899 21.9901L16.4799 21.7601C16.6999 21.7301 17.0099 21.5701 17.1699 21.4101L21.3199 17.2601C22.0299 16.5501 22.3699 15.7101 21.3199 14.6601C20.2799 13.6201 19.4499 13.9501 18.7299 14.6701Z" fill="#292D32"/>
<path d="M18.1399 15.2598C18.4899 16.5198 19.4799 17.4998 20.7399 17.8598L18.1399 15.2598Z" fill="#292D32"/>
<path d="M2.03001 14.6299C2.03001 14.6599 2.01001 14.6999 2.01001 14.7299C2.93001 16.5699 4.43001 18.0799 6.27001 18.9899C6.30001 18.9899 6.34001 18.9699 6.37001 18.9699C6.03001 17.8099 5.77001 16.6199 5.58001 15.4299C4.38001 15.2299 3.19001 14.9699 2.03001 14.6299Z" fill="#292D32"/>
<path d="M19.0701 6.42994C18.1301 4.45994 16.5401 2.86994 14.5801 1.93994C14.9401 3.12994 15.2401 4.34994 15.4401 5.56994C16.6601 5.76994 17.8801 6.05994 19.0701 6.42994Z" fill="#292D32"/>
<path d="M1.92993 6.43002C3.12993 6.07002 4.34993 5.77002 5.56993 5.57002C5.76993 4.38002 6.01993 3.20002 6.35993 2.04002C6.32993 2.04002 6.28993 2.02002 6.25993 2.02002C4.37993 2.95002 2.84993 4.52002 1.92993 6.43002Z" fill="#292D32"/>
<path d="M13.8199 5.36C13.5799 4.06 13.2799 2.76 12.8499 1.5C12.8299 1.43 12.8299 1.37 12.8199 1.29C12.0799 1.11 11.2999 1 10.4999 1C9.68993 1 8.91993 1.11 8.16993 1.3C8.15993 1.37 8.16993 1.43 8.14993 1.51C7.72993 2.77 7.41993 4.06 7.17993 5.36C9.38993 5.12 11.6099 5.12 13.8199 5.36Z" fill="#292D32"/>
<path d="M5.36 7.18018C4.05 7.42018 2.77 7.73018 1.5 8.15018C1.43 8.17018 1.37 8.17018 1.3 8.18018C1.11 8.92018 1 9.70018 1 10.5002C1 11.3102 1.11 12.0802 1.3 12.8302C1.37 12.8402 1.43 12.8302 1.51 12.8502C2.77 13.2702 4.06 13.5802 5.37 13.8202C5.12 11.6102 5.12 9.39018 5.36 7.18018Z" fill="#292D32"/>
<path d="M19.6999 8.18018C19.6299 8.18018 19.5699 8.17018 19.4899 8.15018C18.2299 7.73018 16.9299 7.42018 15.6299 7.18018C15.8799 9.39018 15.8799 11.6102 15.6299 13.8102C16.9299 13.5702 18.2299 13.2702 19.4899 12.8402C19.5599 12.8202 19.6199 12.8302 19.6999 12.8202C19.8799 12.0702 19.9999 11.3002 19.9999 10.4902C19.9999 9.70018 19.8899 8.93018 19.6999 8.18018Z" fill="#292D32"/>
<path d="M7.17993 15.6399C7.41993 16.9499 7.71993 18.2399 8.14993 19.4999C8.16993 19.5699 8.15993 19.6299 8.16993 19.7099C8.91993 19.8899 9.68993 19.9999 10.4999 19.9999C11.2999 19.9999 12.0799 19.8899 12.8199 19.6999C12.8299 19.6299 12.8299 19.5699 12.8499 19.4899C13.2699 18.2299 13.5799 16.9399 13.8199 15.6299C12.7199 15.7499 11.6099 15.8399 10.4999 15.8399C9.38993 15.8399 8.27993 15.7599 7.17993 15.6399Z" fill="#292D32"/>
<path d="M6.9501 6.9501C6.6501 9.3101 6.6501 11.6901 6.9501 14.0601C9.3101 14.3601 11.6901 14.3601 14.0601 14.0601C14.3601 11.7001 14.3601 9.3201 14.0601 6.9501C11.6901 6.6501 9.3101 6.6501 6.9501 6.9501Z" fill="#292D32"/>
</svg>
