<svg width="24" height="24" viewBox="0 0 24 24" fill="none" xmlns="http://www.w3.org/2000/svg">
<path d="M5.93989 16.7698L4.27992 19.5898C4.15992 19.7998 3.84986 19.7998 3.71986 19.5898L2.02992 16.7698C1.89992 16.5498 2.05989 16.2798 2.30989 16.2798H5.65986C5.90986 16.2798 6.05989 16.5598 5.93989 16.7698Z" fill="black"/>
<path d="M11.6899 8.40991L7.73991 14.8799C7.64991 15.0299 7.48992 15.1099 7.31992 15.1099H2.24992C1.86992 15.1099 1.62992 14.7099 1.81992 14.3899L8.27995 3.72992C8.46995 3.41992 8.93992 3.40992 9.12992 3.72992L11.6899 7.93991C11.7799 8.07991 11.7799 8.25991 11.6899 8.40991Z" fill="black"/>
<path d="M13.72 14.4902H10.24C10.04 14.4902 9.91006 14.2702 10.0101 14.0902L11.7501 11.1402C11.8501 10.9702 12.1001 10.9702 12.2001 11.1402L13.9401 14.0902C14.0501 14.2702 13.92 14.4902 13.72 14.4902Z" fill="black"/>
<path d="M13.6599 3.39999L12.21 5.87C12.11 6.04 11.85 6.04 11.75 5.87L10.2999 3.39999C10.1999 3.21999 10.32 3 10.53 3H13.43C13.64 3 13.7599 3.21999 13.6599 3.39999Z" fill="black"/>
<path d="M22.17 14.3699C22.37 14.6999 22.12 15.1199 21.74 15.1199H16.87C16.7 15.1199 16.55 15.0299 16.46 14.8899L12.65 8.41992C12.56 8.26992 12.56 8.08991 12.65 7.93991L15.12 3.72992C15.3 3.41992 15.76 3.40992 15.94 3.72992C17.16 5.83992 20.89 12.1799 22.17 14.3699Z" fill="black"/>
<path d="M21.93 16.77C21.38 17.7 20.79 18.7 20.25 19.61C20.12 19.83 19.81 19.82 19.68 19.6L18.02 16.77C17.89 16.55 18.05 16.27 18.31 16.27H21.64C21.9 16.28 22.06 16.55 21.93 16.77Z" fill="black"/>
<path d="M18.02 20.9999H5.93994C5.57994 20.9999 5.35992 20.6099 5.53992 20.2999L7.86994 16.3399C7.94994 16.1999 8.09996 16.1099 8.26996 16.1099H15.6899C15.8499 16.1099 16.01 16.1999 16.09 16.3399L18.4199 20.2999C18.5999 20.6099 18.38 20.9999 18.02 20.9999Z" fill="black"/>
</svg>
