<svg width="24" height="24" viewBox="0 0 24 24" fill="none" xmlns="http://www.w3.org/2000/svg">
<path d="M12.1999 22.75C8.15994 22.75 4.51994 20.52 2.65994 16.93C2.62994 16.9 2.60994 16.86 2.58994 16.82C1.82994 15.3 1.43994 13.68 1.43994 12C1.43994 10.32 1.82994 8.69999 2.58994 7.17999C4.42994 3.51999 8.10994 1.25 12.1899 1.25C14.9299 1.25 17.4199 2.21999 19.3899 4.04999C19.5399 4.18999 19.6299 4.38 19.6299 4.59C19.6299 4.8 19.5499 4.99001 19.3999 5.14001L16.5799 7.89999C16.2899 8.17999 15.8399 8.19 15.5399 7.91C14.9099 7.32 13.8199 6.62 12.1899 6.62C10.1299 6.62 8.23994 7.86001 7.38994 9.79001C7.31994 9.95001 7.25994 10.1 7.19994 10.27C7.00994 10.85 6.91994 11.44 6.91994 12.01C6.91994 12.58 7.01994 13.15 7.19994 13.72C7.19994 13.73 7.20994 13.74 7.20994 13.76C7.92994 15.94 9.92994 17.4 12.1899 17.4C13.3799 17.4 14.3999 17.11 15.2299 16.53C15.9899 16 16.4699 15.29 16.7299 14.65H12.1999C11.7899 14.65 11.4499 14.31 11.4499 13.9V10.19C11.4499 9.78 11.7899 9.44 12.1999 9.44H21.5899C21.9399 9.44 22.2399 9.67999 22.3199 10.02C22.4799 10.72 22.5499 11.38 22.5499 12.23C22.5499 15.41 21.4099 18.22 19.3299 20.14C17.4799 21.84 15.0099 22.75 12.1999 22.75ZM3.87994 16.05C3.90994 16.09 3.93994 16.14 3.95994 16.19C5.52994 19.3 8.68994 21.25 12.1999 21.25C14.6299 21.25 16.7399 20.48 18.3099 19.03C20.0799 17.4 21.0499 14.98 21.0499 12.22C21.0499 11.72 21.0299 11.32 20.9699 10.93H12.9499V13.14H17.7099C17.9199 13.14 18.1299 13.23 18.2699 13.39C18.4099 13.55 18.4799 13.77 18.4499 13.98C18.3199 15.1 17.6199 16.68 16.0899 17.75C15.0099 18.5 13.6999 18.89 12.1899 18.89C9.29994 18.89 6.73994 17.03 5.79994 14.25C5.79994 14.24 5.78994 14.23 5.78994 14.22C5.53994 13.49 5.41994 12.75 5.41994 12.01C5.41994 11.28 5.53994 10.54 5.77994 9.79999C5.84994 9.57999 5.92994 9.37999 6.01994 9.17999C7.11994 6.70999 9.53994 5.12 12.1899 5.12C13.8999 5.12 15.1599 5.72001 16.0199 6.35001L17.7699 4.64001C16.1899 3.40001 14.2699 2.75 12.1899 2.75C8.67994 2.75 5.50994 4.70001 3.92994 7.85001C3.27994 9.16001 2.93994 10.56 2.93994 12C2.94994 13.41 3.25994 14.77 3.87994 16.05Z" fill="black"/>
</svg>
