<svg width="24" height="24" viewBox="0 0 24 24" fill="none" xmlns="http://www.w3.org/2000/svg">
<path d="M19.41 21.7498H4.59005C4.33005 21.7498 4.08003 21.6098 3.95003 21.3898L0.770039 16.0998C0.630039 15.8698 0.630039 15.5698 0.770039 15.3398L8.18001 2.62976C8.31001 2.39976 8.56004 2.25977 8.83004 2.25977H15.18C15.45 2.25977 15.69 2.39976 15.83 2.62976C18.62 7.40976 22.83 14.6197 23.19 15.1797C23.29 15.3097 23.34 15.4598 23.34 15.6298C23.34 15.8098 23.28 15.9698 23.17 16.0998C22.91 16.4898 21.15 19.5198 20.06 21.3798C19.93 21.6098 19.68 21.7498 19.41 21.7498ZM5.01003 20.2498H18.98C20.47 17.6898 21.27 16.3297 21.76 15.6097C21.19 14.7697 20.19 13.0698 18.22 9.69977L14.75 3.74976H9.26003L2.29 15.6998L5.01003 20.2498ZM22.37 16.3297V16.3498V16.3297Z" fill="black"/>
<path d="M19.41 21.7499C19.15 21.7499 18.9 21.6199 18.76 21.3799L8.16998 3.37992C7.95998 3.01992 8.08 2.55992 8.44 2.34992C8.8 2.13992 9.25997 2.25991 9.46997 2.61991L20.06 20.6199C20.27 20.9799 20.15 21.4399 19.79 21.6499C19.67 21.7199 19.54 21.7499 19.41 21.7499Z" fill="black"/>
<path d="M4.59002 21.7499C4.46002 21.7499 4.33002 21.7199 4.21002 21.6499C3.85002 21.4399 3.73 20.9799 3.94 20.6199L14.53 2.61991C14.74 2.25991 15.2 2.13992 15.56 2.34992C15.92 2.55992 16.04 3.01992 15.83 3.37992L5.23999 21.3799C5.08999 21.6199 4.84002 21.7499 4.59002 21.7499Z" fill="black"/>
<path d="M22 16.46H1.5C1.09 16.46 0.75 16.12 0.75 15.71C0.75 15.3 1.09 14.96 1.5 14.96H22C22.41 14.96 22.75 15.3 22.75 15.71C22.75 16.12 22.41 16.46 22 16.46Z" fill="black"/>
</svg>
