<svg width="24" height="24" viewBox="0 0 24 24" fill="none" xmlns="http://www.w3.org/2000/svg">
<path d="M19.11 4.96009C15.2 1.05009 8.85 1.05009 4.94 4.96009C0.959996 8.94009 1.03 15.4301 5.14 19.3301C8.94 22.9201 15.1 22.9201 18.9 19.3301C23.02 15.4301 23.09 8.94009 19.11 4.96009ZM16.38 16.6501C15.18 17.7901 13.6 18.3601 12.02 18.3601C10.44 18.3601 8.86 17.7901 7.66 16.6501C7.36 16.3601 7.35 15.8901 7.63 15.5901C7.92 15.2901 8.39 15.2801 8.69 15.5601C10.52 17.2901 13.51 17.3001 15.35 15.5601C15.65 15.2801 16.13 15.2901 16.41 15.5901C16.7 15.8901 16.68 16.3601 16.38 16.6501Z" fill="#292D32"/>
</svg>
