<svg width="24" height="24" viewBox="0 0 24 24" fill="none" xmlns="http://www.w3.org/2000/svg">
<path d="M21.67 6.9499C21.03 4.7799 19.22 2.9699 17.05 2.3299C15.4 1.8499 14.26 1.8899 13.47 2.4799C12.52 3.1899 12.41 4.4699 12.41 5.3799V7.8699C12.41 10.3299 13.53 11.5799 15.73 11.5799H18.6C19.5 11.5799 20.79 11.4699 21.5 10.5199C22.11 9.7399 22.16 8.5999 21.67 6.9499Z" fill="#292D32"/>
<path d="M18.91 13.3601C18.65 13.0601 18.27 12.8902 17.88 12.8902H14.3C12.54 12.8902 11.11 11.4601 11.11 9.70015V6.12015C11.11 5.73015 10.94 5.35015 10.64 5.09015C10.35 4.83015 9.95002 4.71015 9.57002 4.76015C7.22002 5.06015 5.06002 6.35015 3.65002 8.29015C2.23002 10.2401 1.71002 12.6201 2.16002 15.0001C2.81002 18.4401 5.56002 21.1902 9.01002 21.8402C9.56002 21.9502 10.11 22.0002 10.66 22.0002C12.47 22.0002 14.22 21.4401 15.71 20.3502C17.65 18.9402 18.94 16.7801 19.24 14.4302C19.29 14.0401 19.17 13.6501 18.91 13.3601Z" fill="#292D32"/>
</svg>
