<svg width="24" height="24" viewBox="0 0 24 24" fill="none" xmlns="http://www.w3.org/2000/svg">
<path d="M7.75 2V7.8H2C2 4.19 4.15 2.02 7.75 2Z" fill="#292D32"/>
<path d="M22 7.8H16.25V2C19.85 2.02 22 4.19 22 7.8Z" fill="#292D32"/>
<path d="M22 16.2998C21.96 19.8498 19.82 21.9798 16.25 21.9998V16.2998H22Z" fill="#292D32"/>
<path d="M7.75 16.2998V21.9998C4.18 21.9798 2.04 19.8498 2 16.2998H7.75Z" fill="#292D32"/>
<path d="M7.75 9.2998H2V14.7998H7.75V9.2998Z" fill="#292D32"/>
<path d="M22 9.2998H16.25V14.7998H22V9.2998Z" fill="#292D32"/>
<path d="M14.75 9.2998H9.25V14.7998H14.75V9.2998Z" fill="#292D32"/>
<path d="M14.75 2H9.25V7.8H14.75V2Z" fill="#292D32"/>
<path d="M14.75 16.2998H9.25V21.9998H14.75V16.2998Z" fill="#292D32"/>
</svg>
