<svg width="24" height="24" viewBox="0 0 24 24" fill="none" xmlns="http://www.w3.org/2000/svg">
<path d="M21.3301 14.67C20.2801 13.62 19.4501 13.96 18.7301 14.67L14.5801 18.82C14.4201 18.98 14.2701 19.29 14.2301 19.51L14.0001 21.1C13.9201 21.67 14.3201 22.08 14.8901 21.99L16.4801 21.76C16.7001 21.73 17.0101 21.57 17.1701 21.41L21.3201 17.26C22.0501 16.55 22.3801 15.72 21.3301 14.67Z" fill="#292D32"/>
<path d="M6.74683 2.06549C7.29669 1.99425 7.75 2.45112 7.75 3.00557V6.8C7.75 7.35229 7.30228 7.8 6.75 7.8H3C2.44772 7.8 1.9918 7.35027 2.05867 6.80204C2.38633 4.11548 4.07187 2.41205 6.74683 2.06549Z" fill="#292D32"/>
<path d="M20.93 7.8H17.25C16.6977 7.8 16.25 7.35228 16.25 6.8V3.00625C16.25 2.45153 16.7041 1.99459 17.2542 2.06633C19.8878 2.40978 21.5645 4.0681 21.93 6.68C22.01 7.27 21.53 7.8 20.93 7.8Z" fill="#292D32"/>
<path d="M6.75 16.3C7.30228 16.3 7.75 16.7478 7.75 17.3V20.92C7.75 21.52 7.22 22 6.62 21.92C4.05088 21.5378 2.43008 19.8911 2.07373 17.3102C1.99752 16.7582 2.4555 16.3 3.01274 16.3H6.75Z" fill="#292D32"/>
<path d="M7.75 10.3C7.75 9.74776 7.30228 9.30005 6.75 9.30005H3C2.44772 9.30005 2 9.74776 2 10.3V13.8C2 14.3523 2.44772 14.8 3 14.8H6.75C7.30228 14.8 7.75 14.3523 7.75 13.8V10.3Z" fill="#292D32"/>
<path d="M14.75 10.3C14.75 9.74776 14.3023 9.30005 13.75 9.30005H10.25C9.69772 9.30005 9.25 9.74776 9.25 10.3V13.8C9.25 14.3523 9.69772 14.8 10.25 14.8H13.75C14.3 14.8 14.75 14.35 14.75 13.8V10.3Z" fill="#292D32"/>
<path d="M14.75 3C14.75 2.44771 14.3023 2 13.75 2H10.25C9.69772 2 9.25 2.44772 9.25 3V6.8C9.25 7.35229 9.69772 7.8 10.25 7.8H13.75C14.3023 7.8 14.75 7.35228 14.75 6.8V3Z" fill="#292D32"/>
</svg>
