<svg width="24" height="24" viewBox="0 0 24 24" fill="none" xmlns="http://www.w3.org/2000/svg">
<path d="M11.97 22.75C6.05 22.75 1.22 17.93 1.22 12C1.22 6.07 6.05 1.25 11.97 1.25C17.89 1.25 22.72 6.07 22.72 12C22.72 17.93 17.9 22.75 11.97 22.75ZM11.97 2.75C6.87 2.75 2.72 6.9 2.72 12C2.72 17.1 6.87 21.25 11.97 21.25C17.07 21.25 21.22 17.1 21.22 12C21.22 6.9 17.07 2.75 11.97 2.75Z" fill="#292D32"/>
<path d="M12 19.2499C9.85 19.2499 7.83 18.1999 6.6 16.4299C6.36 16.0899 6.45 15.6199 6.79 15.3899C7.13 15.1499 7.6 15.2399 7.83 15.5799C8.78 16.9399 10.34 17.7599 12 17.7599C13.66 17.7599 15.22 16.9499 16.17 15.5799C16.41 15.2399 16.87 15.1599 17.21 15.3899C17.55 15.6299 17.63 16.0899 17.4 16.4299C16.17 18.1999 14.15 19.2499 12 19.2499Z" fill="#292D32"/>
</svg>
