<svg width="24" height="24" viewBox="0 0 24 24" fill="none" xmlns="http://www.w3.org/2000/svg">
<path d="M15 22.75H9C3.57 22.75 1.25 20.43 1.25 15V9C1.25 3.57 3.57 1.25 9 1.25H15C20.43 1.25 22.75 3.57 22.75 9V13C22.75 13.41 22.41 13.75 22 13.75C21.59 13.75 21.25 13.41 21.25 13V9C21.25 4.39 19.61 2.75 15 2.75H9C4.39 2.75 2.75 4.39 2.75 9V15C2.75 19.61 4.39 21.25 9 21.25H15C15.41 21.25 15.75 21.59 15.75 22C15.75 22.41 15.41 22.75 15 22.75Z" fill="#292D32"/>
<path d="M19 22.75C18.59 22.75 18.25 22.41 18.25 22V17.81L17.53 18.53C17.24 18.82 16.76 18.82 16.47 18.53C16.18 18.24 16.18 17.76 16.47 17.47L18.47 15.47C18.68 15.26 19.01 15.19 19.29 15.31C19.57 15.43 19.75 15.7 19.75 16V22C19.75 22.41 19.41 22.75 19 22.75Z" fill="#292D32"/>
<path d="M21 18.7499C20.81 18.7499 20.62 18.6799 20.47 18.5299L18.47 16.5299C18.18 16.2399 18.18 15.7599 18.47 15.4699C18.76 15.1799 19.24 15.1799 19.53 15.4699L21.53 17.4699C21.82 17.7599 21.82 18.2399 21.53 18.5299C21.38 18.6799 21.19 18.7499 21 18.7499Z" fill="#292D32"/>
<path d="M8.89999 16.4901C8.86999 16.4901 8.83999 16.4901 8.81999 16.4901C8.40999 16.4401 8.10999 16.0701 8.15999 15.6601L9.19999 6.1801C9.24999 5.7701 9.61999 5.4701 10.03 5.5201C10.44 5.5701 10.74 5.9401 10.69 6.3501L9.63999 15.8201C9.59999 16.2001 9.26999 16.4901 8.89999 16.4901Z" fill="#292D32"/>
<path d="M12.05 16.4899C12.02 16.4899 11.99 16.4899 11.97 16.4899C11.56 16.4399 11.26 16.0699 11.31 15.6599L12.36 6.18986C12.41 5.77986 12.78 5.47986 13.19 5.52986C13.6 5.57986 13.9 5.94986 13.85 6.35986L12.8 15.8299C12.76 16.1999 12.43 16.4899 12.05 16.4899Z" fill="#292D32"/>
<path d="M16 10.1699H6.53C6.12 10.1699 5.78 9.82992 5.78 9.41992C5.78 9.00992 6.12 8.66992 6.53 8.66992H16C16.41 8.66992 16.75 9.00992 16.75 9.41992C16.75 9.82992 16.41 10.1699 16 10.1699Z" fill="#292D32"/>
<path d="M15.47 13.3301H6C5.59 13.3301 5.25 12.9901 5.25 12.5801C5.25 12.1701 5.59 11.8301 6 11.8301H15.47C15.88 11.8301 16.22 12.1701 16.22 12.5801C16.22 12.9901 15.89 13.3301 15.47 13.3301Z" fill="#292D32"/>
</svg>
