<svg xmlns="http://www.w3.org/2000/svg" shape-rendering="geometricPrecision" text-rendering="geometricPrecision" image-rendering="optimizeQuality" fill-rule="evenodd" clip-rule="evenodd" viewBox="0 0 512 443.3"><path fill-rule="nonzero" d="m292.07 117.34.04-.17c1-4.24 3.57-7.72 6.95-9.93 3.48-2.28 7.84-3.23 12.24-2.31l.43.1c4.24 1 7.71 3.57 9.93 6.94 2.28 3.48 3.23 7.84 2.31 12.25-2.19 9.47-4.01 19.3-6 28.85h11.44c4.49 0 8.58 1.83 11.55 4.8l.02.02c2.97 2.98 4.8 7.06 4.8 11.55 0 4.49-1.84 8.57-4.8 11.54l-.02.03c-2.98 2.96-7.07 4.79-11.55 4.79H311.2l-8.13 40.99h28.6c4.5 0 8.58 1.84 11.55 4.8 2.98 2.96 4.82 7.05 4.82 11.57 0 4.5-1.84 8.58-4.8 11.55a16.26 16.26 0 0 1-11.57 4.81h-35.31l-7.37 35.4a16.38 16.38 0 0 1-6.91 9.72 16.096 16.096 0 0 1-12.24 2.34l-.43-.1c-4.24-1-7.72-3.57-9.93-6.95a16.217 16.217 0 0 1-2.31-12.24c2.13-9.25 3.92-18.84 5.86-28.17h-42.37c-2.4 11.56-4.6 23.49-7.27 34.95-1 4.23-3.57 7.71-6.94 9.92-3.42 2.24-7.7 3.2-12.02 2.36l-.63-.14c-4.25-1-7.74-3.57-9.95-6.95l-.32-.53a16.203 16.203 0 0 1-2.04-11.47l5.86-28.17-15.26.01c-4.52.02-8.61-1.81-11.57-4.77-2.96-2.96-4.8-7.06-4.8-11.57 0-4.5 1.84-8.59 4.81-11.56 2.95-2.97 7.04-4.81 11.56-4.81h21.98l8.09-40.99h-32.39c-4.52 0-8.62-1.83-11.57-4.79l-.39-.42c-2.73-2.93-4.41-6.85-4.41-11.15 0-4.52 1.84-8.62 4.8-11.58 2.96-2.96 7.05-4.79 11.57-4.79h39.16l7.26-34.89c.05-.38.13-.75.24-1.1 1.04-4.15 3.58-7.55 6.9-9.72l.53-.31c3.24-1.96 7.17-2.79 11.14-2.11.41.04.81.13 1.19.25 4.15 1.04 7.57 3.58 9.74 6.9 2.27 3.47 3.22 7.81 2.32 12.19l-6 28.79h42.37c2.48-11.88 5.12-23.83 7.45-35.73zM262.36.14l.25.01c69.94 2.13 132.69 27 177.61 65.52 45.9 39.34 73.43 92.92 71.7 151.4v.13c-1.77 58.57-32.51 110.5-80.75 147.12-47.27 35.86-111.5 57.02-181.46 54.96-19.62-.58-38.54-2.9-56.53-6.78-16.43-3.54-32.23-8.38-47.22-14.36L31.13 443.3l38.47-91.49c-21.11-18.54-38.19-40.12-50.13-63.79C6.13 261.59-.84 232.55.08 202.22c1.77-58.57 32.5-110.5 80.75-147.12C128.1 19.24 192.32-1.92 262.29.14h.07zm-.76 32.23-.26-.01c-62.44-1.83-119.42 16.81-161.05 48.39C59.64 111.6 33.76 154.83 32.3 203.1c-.75 24.79 5 48.62 15.98 70.39 11.6 22.98 29 43.71 50.76 60.95l9.61 7.61-18.17 43.21 55.85-21.96 6.08 2.6c14.89 6.34 30.79 11.41 47.46 15.01a279.91 279.91 0 0 0 50.72 6.15c62.47 1.83 119.47-16.79 161.11-48.39 40.66-30.85 66.54-74.08 68-122.35v-.13c1.42-48.24-21.78-92.86-60.45-126.01-39.64-33.98-95.3-55.93-157.59-57.81h-.06zm8.15 194.42 8.13-40.99h-42.37l-8.14 40.99h42.38z"/></svg>