<svg width="24" height="24" viewBox="0 0 24 24" fill="none" xmlns="http://www.w3.org/2000/svg">
<path d="M8.5 12.75C8.09 12.75 7.75 12.41 7.75 12V6C7.75 5.59 8.09 5.25 8.5 5.25C8.91 5.25 9.25 5.59 9.25 6V12C9.25 12.41 8.91 12.75 8.5 12.75Z" fill="#292D32"/>
<path d="M8.5 22.75C8.09 22.75 7.75 22.41 7.75 22V18C7.75 17.59 8.09 17.25 8.5 17.25C8.91 17.25 9.25 17.59 9.25 18V22C9.25 22.41 8.91 22.75 8.5 22.75Z" fill="#292D32"/>
<path d="M15.5 22.75C15.09 22.75 14.75 22.41 14.75 22V6C14.75 5.59 15.09 5.25 15.5 5.25C15.91 5.25 16.25 5.59 16.25 6V22C16.25 22.41 15.91 22.75 15.5 22.75Z" fill="#292D32"/>
<path d="M10.1 5.3C10.1 5.79 9.89999 6.24 9.56999 6.57C9.23999 6.9 8.78999 7.1 8.29999 7.1H6.04999C6.32999 6.73 6.49999 6.25 6.49999 5.75V4.85C6.49999 4.35 6.32999 3.87 6.04999 3.5H8.29999C9.28999 3.5 10.1 4.31 10.1 5.3Z" fill="#292D32"/>
<path d="M6.5 4.85005V5.75005C6.5 6.25005 6.33 6.73005 6.05 7.10005C5.29 8.11005 3.73 8.45005 2.28 7.16005C2.12 7.02005 2 6.72005 2 6.51005V4.17005C2 3.97005 2.1 3.70005 2.23 3.56005C3.49 2.24005 5.01 2.43005 5.84 3.26005C5.91 3.33005 5.99 3.41005 6.05 3.50005C6.33 3.87005 6.5 4.35005 6.5 4.85005Z" fill="#292D32"/>
<path d="M13.9 5.3C13.9 5.79 14.1 6.24 14.43 6.57C14.76 6.9 15.21 7.1 15.7 7.1H17.95C17.67 6.73 17.5 6.25 17.5 5.75V4.85C17.5 4.35 17.67 3.87 17.95 3.5H15.7C14.71 3.5 13.9 4.31 13.9 5.3Z" fill="#292D32"/>
<path d="M17.5 4.85005V5.75005C17.5 6.25005 17.67 6.73005 17.95 7.10005C18.71 8.11005 20.27 8.45005 21.72 7.16005C21.88 7.02005 22 6.72005 22 6.51005V4.17005C22 3.98005 21.9 3.70005 21.77 3.56005C20.51 2.24005 18.99 2.43005 18.16 3.26005C18.09 3.33005 18.02 3.41005 17.95 3.50005C17.67 3.87005 17.5 4.35005 17.5 4.85005Z" fill="#292D32"/>
<path d="M10 13.5V17.5C10 18.33 9.33 19 8.5 19C7.67 19 7 18.33 7 17.5V13.5C7 12.67 7.67 12 8.5 12C9.33 12 10 12.67 10 13.5Z" fill="#292D32"/>
</svg>
