<svg width="24" height="24" viewBox="0 0 24 24" fill="none" xmlns="http://www.w3.org/2000/svg">
<path d="M14.97 22.75H8.96997C3.53997 22.75 1.21997 20.43 1.21997 15V9C1.21997 3.57 3.53997 1.25 8.96997 1.25H14.97C20.4 1.25 22.72 3.57 22.72 9V15C22.72 20.43 20.41 22.75 14.97 22.75ZM8.96997 2.75C4.35997 2.75 2.71997 4.39 2.71997 9V15C2.71997 19.61 4.35997 21.25 8.96997 21.25H14.97C19.58 21.25 21.22 19.61 21.22 15V9C21.22 4.39 19.58 2.75 14.97 2.75H8.96997Z" fill="#292D32"/>
<path d="M11.45 18.0599C11.21 18.0599 10.63 17.9699 10.29 17.0999L9.14999 14.2199C8.98999 13.8099 8.41999 13.4299 7.98999 13.4299L1.98999 13.4499C1.57999 13.4499 1.23999 13.1199 1.23999 12.6999C1.23999 12.2899 1.56999 11.9499 1.98999 11.9499L7.98999 11.9299H7.99999C9.04999 11.9299 10.17 12.6899 10.56 13.6699L11.47 15.9699L13.53 10.7499C13.84 9.96989 14.39 9.85989 14.62 9.83989C14.85 9.82989 15.41 9.87989 15.8 10.6199L16.84 12.5899C17.02 12.9299 17.56 13.2599 17.95 13.2599H22.01C22.42 13.2599 22.76 13.5999 22.76 14.0099C22.76 14.4199 22.42 14.7599 22.01 14.7599H17.95C17 14.7599 15.96 14.1299 15.52 13.2899L14.74 11.8099L12.64 17.0999C12.27 17.9599 11.68 18.0599 11.45 18.0599Z" fill="#292D32"/>
</svg>
