<svg width="24" height="24" viewBox="0 0 24 24" fill="none" xmlns="http://www.w3.org/2000/svg">
<path d="M20.69 13.9199C20.68 13.9199 20.68 13.9099 20.68 13.9099V13.8999C19.8 12.9799 18.57 12.3999 17.2 12.3999C14.55 12.3999 12.4 14.5499 12.4 17.1999C12.4 18.4299 12.87 19.5499 13.63 20.3999C14.51 21.3799 15.78 21.9999 17.2 21.9999C19.85 21.9999 22 19.8499 22 17.1999C22 15.9299 21.5 14.7799 20.69 13.9199ZM19.01 19.0699C18.87 19.2099 18.67 19.2899 18.48 19.2899C18.29 19.2899 18.1 19.2099 17.95 19.0699L17.21 18.3299L16.45 19.0999C16.3 19.2399 16.11 19.3199 15.92 19.3199C15.82 19.3199 15.73 19.2999 15.64 19.2599C15.55 19.2299 15.46 19.1699 15.39 19.0999C15.09 18.7999 15.09 18.3299 15.39 18.0399L16.15 17.2699L15.42 16.5299C15.12 16.2399 15.12 15.7599 15.42 15.4699C15.71 15.1799 16.18 15.1799 16.48 15.4699L17.21 16.2099L17.92 15.4999C18.22 15.2099 18.69 15.2099 18.98 15.4999C19.15 15.6699 19.22 15.8899 19.19 16.1099C19.18 16.2799 19.11 16.4399 18.98 16.5599L18.27 17.2699L19.01 18.0099C19.31 18.2999 19.31 18.7699 19.01 19.0699Z" fill="#292D32"/>
<path d="M22 8.72989C22 9.91989 21.81 11.0199 21.48 12.0399C21.42 12.2499 21.17 12.3099 20.99 12.1799C19.9 11.3699 18.57 10.9399 17.2 10.9399C13.73 10.9399 10.9 13.7699 10.9 17.2399C10.9 18.3199 11.18 19.3799 11.71 20.3199C11.87 20.5999 11.68 20.9599 11.38 20.8499C8.97 20.0299 4.1 17.0399 2.52 12.0399C2.19 11.0199 2 9.91989 2 8.72989C2 5.63989 4.49 3.13989 7.56 3.13989C9.37 3.13989 10.99 4.01989 12 5.36989C13.01 4.01989 14.63 3.13989 16.44 3.13989C19.51 3.13989 22 5.63989 22 8.72989Z" fill="#292D32"/>
</svg>
