<svg width="24" height="24" viewBox="0 0 24 24" fill="none" xmlns="http://www.w3.org/2000/svg">
<path d="M21.74 20.51L20.88 19.65C21.33 18.97 21.59 18.16 21.59 17.29C21.59 14.92 19.67 12.99 17.29 12.99C14.91 12.99 13 14.92 13 17.3C13 19.68 14.92 21.6 17.3 21.6C18.17 21.6 18.98 21.34 19.66 20.89L20.52 21.75C20.69 21.92 20.91 22.01 21.14 22.01C21.37 22.01 21.59 21.92 21.76 21.75C22.09 21.4 22.09 20.85 21.74 20.51Z" fill="#292D32"/>
<path d="M22 8.72989C22 9.91989 21.81 11.0199 21.48 12.0399C21.42 12.2499 21.17 12.3099 20.99 12.1799C19.9 11.3699 18.57 10.9399 17.2 10.9399C13.73 10.9399 10.9 13.7699 10.9 17.2399C10.9 18.3199 11.18 19.3799 11.71 20.3199C11.87 20.5999 11.68 20.9599 11.38 20.8499C8.97 20.0299 4.1 17.0399 2.52 12.0399C2.19 11.0199 2 9.91989 2 8.72989C2 5.63989 4.49 3.13989 7.56 3.13989C9.37 3.13989 10.99 4.01989 12 5.36989C13.01 4.01989 14.63 3.13989 16.44 3.13989C19.51 3.13989 22 5.63989 22 8.72989Z" fill="#292D32"/>
</svg>
