<svg width="24" height="24" viewBox="0 0 24 24" fill="none" xmlns="http://www.w3.org/2000/svg">
<path d="M17.4299 21.4099H6.55988L1.12988 11.9998L6.55988 2.58984H17.4299L22.8599 11.9998L17.4299 21.4099ZM7.42987 19.9099H16.5599L21.1299 11.9998L16.5599 4.08984H7.42987L2.86987 11.9998L7.42987 19.9099Z" fill="black"/>
<path d="M11.31 21.41H6.60001L4.23999 17.33L6.60001 13.25H11.31L13.67 17.33L11.31 21.41ZM7.45999 19.91H10.44L11.93 17.33L10.44 14.75H7.45999L5.97 17.33L7.45999 19.91Z" fill="black"/>
<path d="M14.78 21.41H6.60001L2.51001 14.33L6.60001 7.25H14.78L18.87 14.33L14.78 21.41ZM7.47 19.91H13.91L17.13 14.33L13.91 8.75H7.47L4.25 14.33L7.47 19.91Z" fill="black"/>
</svg>
