<svg width="24" height="24" viewBox="0 0 24 24" fill="none" xmlns="http://www.w3.org/2000/svg">
<path d="M20.04 6.82018L14.28 2.79018C12.71 1.69018 10.3 1.75018 8.78999 2.92018L3.77999 6.83018C2.77999 7.61018 1.98999 9.21018 1.98999 10.4702V17.3702C1.98999 19.9202 4.05999 22.0002 6.60999 22.0002H17.39C19.94 22.0002 22.01 19.9302 22.01 17.3802V10.6002C22.01 9.25018 21.14 7.59018 20.04 6.82018ZM16.88 13.4002C16.88 13.7902 16.57 14.1002 16.18 14.1002C15.79 14.1002 15.48 13.7902 15.48 13.4002V13.2202L12.76 15.9402C12.61 16.0902 12.41 16.1602 12.2 16.1402C12 16.1202 11.81 16.0002 11.7 15.8302L10.68 14.3102L8.29999 16.6902C8.15999 16.8302 7.98999 16.8902 7.80999 16.8902C7.62999 16.8902 7.44999 16.8202 7.31999 16.6902C7.04999 16.4202 7.04999 15.9802 7.31999 15.7002L10.3 12.7202C10.45 12.5702 10.65 12.5002 10.86 12.5202C11.07 12.5402 11.26 12.6502 11.37 12.8302L12.39 14.3502L14.5 12.2402H14.32C13.93 12.2402 13.62 11.9302 13.62 11.5402C13.62 11.1502 13.93 10.8402 14.32 10.8402H16.18C16.27 10.8402 16.36 10.8602 16.45 10.8902C16.62 10.9602 16.76 11.1002 16.83 11.2702C16.87 11.3602 16.88 11.4502 16.88 11.5402V13.4002Z" fill="#292D32"/>
</svg>
