<svg width="24" height="24" viewBox="0 0 24 24" fill="none" xmlns="http://www.w3.org/2000/svg">
<path d="M20.86 8.37009L13.93 2.83009C12.86 1.97009 11.13 1.97009 10.07 2.82009L3.14002 8.37009C2.36002 8.99009 1.86002 10.3001 2.03002 11.2801L3.36002 19.2401C3.60002 20.6601 4.96002 21.8101 6.40002 21.8101H17.6C19.03 21.8101 20.4 20.6501 20.64 19.2401L21.97 11.2801C22.13 10.3001 21.63 8.99009 20.86 8.37009ZM12.71 17.2001C12.51 17.4001 12.26 17.5001 12 17.5001C11.74 17.5001 11.49 17.4001 11.29 17.2101C10.9 16.8201 10.9 16.1901 11.29 15.8001C11.68 15.4101 12.32 15.4101 12.71 15.8001C13.1 16.1801 13.1 16.8101 12.71 17.2001ZM14.66 14.9001C14.51 15.0501 14.32 15.1301 14.12 15.1301C13.93 15.1301 13.75 15.0601 13.6 14.9201C12.63 13.9901 11.37 13.9901 10.39 14.9201C10.09 15.2101 9.62002 15.2001 9.33002 14.9001C9.04002 14.6001 9.05002 14.1301 9.35002 13.8401C10.9 12.3501 13.07 12.3501 14.63 13.8401C14.94 14.1201 14.95 14.6001 14.66 14.9001ZM16.78 12.7801C16.63 12.9301 16.44 13.0101 16.24 13.0101C16.05 13.0101 15.86 12.9401 15.72 12.8001C15.25 12.3401 14.72 11.9701 14.16 11.7001C12.76 11.0301 11.23 11.0301 9.84002 11.7001C9.28002 11.9701 8.76002 12.3401 8.28002 12.8001C7.99002 13.0901 7.51002 13.0901 7.22002 12.7901C6.93002 12.4901 6.94002 12.0201 7.23002 11.7301C7.82002 11.1501 8.48002 10.6901 9.19002 10.3501C11 9.48009 13 9.48009 14.8 10.3501C15.51 10.6901 16.17 11.1501 16.76 11.7301C17.06 12.0101 17.07 12.4901 16.78 12.7801Z" fill="#292D32"/>
</svg>
