<svg width="24" height="24" viewBox="0 0 24 24" fill="none" xmlns="http://www.w3.org/2000/svg">
<path d="M20.04 6.82018L14.28 2.79018C12.71 1.69018 10.3 1.75018 8.78999 2.92018L3.77999 6.83018C2.77999 7.61018 1.98999 9.21018 1.98999 10.4702V17.3702C1.98999 19.9202 4.05999 22.0002 6.60999 22.0002H17.39C19.94 22.0002 22.01 19.9302 22.01 17.3802V10.6002C22.01 9.25018 21.14 7.59018 20.04 6.82018ZM16.88 16.1902C16.88 16.2802 16.86 16.3702 16.83 16.4602C16.76 16.6302 16.62 16.7702 16.45 16.8402C16.36 16.8802 16.27 16.8902 16.18 16.8902H14.32C13.93 16.8902 13.62 16.5802 13.62 16.1902C13.62 15.8002 13.93 15.4902 14.32 15.4902H14.5L12.39 13.3802L11.37 14.9002C11.25 15.0702 11.07 15.1902 10.86 15.2102C10.64 15.2302 10.45 15.1602 10.3 15.0102L7.31999 12.0302C7.04999 11.7602 7.04999 11.3202 7.31999 11.0402C7.58999 10.7602 8.02999 10.7702 8.30999 11.0402L10.69 13.4202L11.71 11.9002C11.83 11.7302 12.01 11.6102 12.22 11.5902C12.44 11.5702 12.63 11.6402 12.78 11.7902L15.5 14.5102V14.3302C15.5 13.9402 15.81 13.6302 16.2 13.6302C16.59 13.6302 16.9 13.9402 16.9 14.3302V16.1902H16.88Z" fill="#292D32"/>
</svg>
