<svg width="24" height="24" viewBox="0 0 24 24" fill="none" xmlns="http://www.w3.org/2000/svg">
<path d="M12.7 16.8798H13.4C14.55 16.8798 15.49 15.9398 15.49 14.7898V14.0898H12.7V16.8798Z" fill="#292D32"/>
<path d="M8.51001 14.7898C8.51001 15.9398 9.45001 16.8798 10.6 16.8798H11.3V14.0898H8.51001V14.7898Z" fill="#292D32"/>
<path d="M8.51001 12.0002V12.7002H11.3V9.91016H10.6C9.45001 9.91016 8.51001 10.8502 8.51001 12.0002Z" fill="#292D32"/>
<path d="M20.03 6.82018L14.28 2.79018C12.71 1.69018 10.31 1.75018 8.8 2.92018L3.79 6.83018C2.78 7.61018 2 9.21018 2 10.4702V17.3702C2 19.9202 4.07 22.0002 6.61 22.0002H17.38C19.92 22.0002 21.99 19.9302 21.99 17.3802V10.6002C22 9.25018 21.13 7.59018 20.03 6.82018ZM16.88 14.7902C16.88 16.7102 15.31 18.2802 13.39 18.2802H10.6C8.68 18.2802 7.11 16.7202 7.11 14.7902V12.0002C7.11 10.0802 8.68 8.51018 10.6 8.51018H13.39C15.31 8.51018 16.88 10.0702 16.88 12.0002V14.7902Z" fill="#292D32"/>
<path d="M13.4 9.91016H12.7V12.7002H15.49V12.0002C15.49 10.8502 14.55 9.91016 13.4 9.91016Z" fill="#292D32"/>
</svg>
