<svg width="24" height="24" viewBox="0 0 24 24" fill="none" xmlns="http://www.w3.org/2000/svg">
<path d="M12 22.71C11.84 22.71 11.68 22.69 11.52 22.64L5.44 20.9C4.75 20.7 4.26 20.12 4.18 19.41L2.38 3.19C2.33 2.7 2.48 2.19999 2.82 1.82999C3.15 1.45999 3.63 1.25 4.12 1.25H19.89C20.39 1.25 20.86 1.45999 21.19 1.82999C21.52 2.19999 21.68 2.7 21.63 3.19L19.83 19.41C19.75 20.12 19.26 20.7 18.57 20.9L12.49 22.64C12.32 22.69 12.16 22.71 12 22.71ZM4.12 2.75C4.02 2.75 3.96 2.79999 3.93 2.82999C3.9 2.85999 3.86 2.92999 3.87 3.01999L5.67 19.24C5.68 19.34 5.75 19.43 5.85 19.45L11.93 21.19C11.97 21.2 12.02 21.2 12.07 21.19L18.15 19.45C18.25 19.42 18.32 19.34 18.33 19.24L20.13 3.01999C20.14 2.91999 20.1 2.85999 20.07 2.82999C20.04 2.79999 19.98 2.75 19.88 2.75H4.12Z" fill="black"/>
<path d="M12 17.75C11.93 17.75 11.86 17.74 11.79 17.72L8.29001 16.72C8.03001 16.65 7.83001 16.44 7.77001 16.18L7.27001 14.18C7.17001 13.78 7.41001 13.37 7.82001 13.27C8.22001 13.17 8.63001 13.41 8.73001 13.82L9.13001 15.4L12.01 16.22L14.82 15.42L15.67 7.74997L7.51001 7.72998C7.10001 7.72998 6.76001 7.38998 6.76001 6.97998C6.76001 6.56998 7.10001 6.22998 7.51001 6.22998L16.51 6.24997C16.72 6.24997 16.93 6.33997 17.07 6.49997C17.21 6.65997 17.28 6.86996 17.26 7.07996L16.26 16.08C16.23 16.38 16.01 16.63 15.72 16.72L12.22 17.72C12.14 17.74 12.07 17.75 12 17.75Z" fill="black"/>
<path d="M16.06 11.75H8C7.59 11.75 7.25 11.41 7.25 11C7.25 10.59 7.59 10.25 8 10.25H16.06C16.47 10.25 16.81 10.59 16.81 11C16.81 11.41 16.47 11.75 16.06 11.75Z" fill="black"/>
</svg>
