<svg width="24" height="24" viewBox="0 0 24 24" fill="none" xmlns="http://www.w3.org/2000/svg">
<path d="M12 22.71C11.84 22.71 11.68 22.69 11.52 22.64L5.44 20.9C4.75 20.7 4.25999 20.12 4.17999 19.41L2.38 3.19C2.33 2.7 2.48 2.2 2.82 1.83C3.15 1.46 3.62999 1.25 4.11999 1.25H19.89C20.39 1.25 20.86 1.46 21.19 1.83C21.52 2.2 21.68 2.7 21.63 3.19L19.83 19.41C19.75 20.12 19.26 20.7 18.57 20.9L12.49 22.64C12.32 22.69 12.16 22.71 12 22.71ZM4.11999 2.75C4.01999 2.75 3.95999 2.8 3.92999 2.83C3.89999 2.86 3.85999 2.93 3.86999 3.02L5.66998 19.24C5.67998 19.34 5.74997 19.43 5.84997 19.45L11.93 21.19C11.97 21.2 12.02 21.2 12.07 21.19L18.15 19.45C18.25 19.42 18.32 19.34 18.33 19.24L20.13 3.02C20.14 2.92 20.09 2.86 20.07 2.83C20.04 2.8 19.98 2.75 19.88 2.75H4.11999Z" fill="black"/>
<path d="M11.7501 18C11.6801 18 11.61 17.99 11.54 17.97L8.04005 16.97C7.72005 16.88 7.50007 16.58 7.50007 16.25V14.25C7.50007 13.84 7.84007 13.5 8.25007 13.5C8.66007 13.5 9.00007 13.84 9.00007 14.25V15.68L11.7501 16.47L14.5501 15.67L14.9201 12H8.25007C7.87007 12 7.55007 11.71 7.50007 11.33L7.00007 6.83C6.98007 6.62 7.04007 6.41 7.19007 6.25C7.33007 6.09 7.54007 6 7.75007 6H16.2501C16.6601 6 17.0001 6.34 17.0001 6.75C17.0001 7.16 16.6601 7.5 16.2501 7.5H8.5901L8.92005 10.5H15.7501C15.9601 10.5 16.1601 10.59 16.3101 10.75C16.4501 10.91 16.5201 11.12 16.5001 11.33L16.0001 16.33C15.9701 16.64 15.7601 16.89 15.4601 16.98L11.9601 17.98C11.8901 17.99 11.8201 18 11.7501 18Z" fill="black"/>
</svg>
