<svg width="24" height="24" viewBox="0 0 24 24" fill="none" xmlns="http://www.w3.org/2000/svg">
<path d="M14.76 22.72C14.59 22.72 14.4299 22.68 14.2999 22.6C13.8499 22.3101 11.61 20.76 11.2 18.4C10.98 17.09 11.3499 15.79 12.3099 14.55C15.0999 10.94 15.4099 9.89005 15.4199 9.85005C15.4599 9.57005 15.6499 9.37005 15.9199 9.28005C16.1899 9.19005 16.4699 9.28005 16.6799 9.48005C18.9599 11.69 20 13.97 19.76 16.26C19.38 19.85 15.9 22.2 15.21 22.63C15.09 22.68 14.92 22.72 14.76 22.72ZM16.3799 11.3101C15.9199 12.1201 15.0799 13.42 13.4999 15.45C12.7899 16.36 12.5299 17.24 12.6799 18.13C12.9199 19.52 14.14 20.61 14.77 21.08C15.76 20.39 18 18.57 18.26 16.06C18.43 14.52 17.7999 12.9301 16.3799 11.3101Z" fill="black"/>
<path d="M10.2801 22.7299C10.0201 22.7299 9.76008 22.6599 9.57008 22.6099C7.36008 21.9799 5.36009 19.9599 4.58009 17.5899C3.78009 15.1599 4.27004 12.6199 5.97004 10.4299C9.07004 6.36988 10.1001 3.09988 10.3401 2.19988C10.4501 1.76988 10.7701 1.43988 11.2101 1.30988C11.6601 1.18988 12.1501 1.31988 12.4901 1.65988C12.5201 1.67988 12.5401 1.70988 12.5601 1.73988C13.5001 2.99988 14.5101 5.24988 14.5101 7.78988C14.5101 9.52988 13.2901 11.1099 12.1101 12.6299C10.8601 14.2499 9.5701 15.9199 9.7101 17.7299C9.8401 19.0699 10.4201 20.0899 10.8101 20.7699C11.1401 21.3399 11.4501 21.8799 11.0601 22.3899C10.8501 22.6499 10.5701 22.7299 10.2801 22.7299ZM9.75007 21.9699H9.76008H9.75007ZM11.6501 3.05988C11.1901 4.56988 9.99005 7.62988 7.16005 11.3499C5.39005 13.6399 5.56008 15.7599 6.01008 17.1299C6.54008 18.7399 7.74009 20.1399 9.14009 20.8399C8.76009 20.0999 8.34004 19.0999 8.22004 17.8599C8.04004 15.4599 9.57007 13.4699 10.9301 11.7099C12.0001 10.3199 13.0101 9.00988 13.0101 7.77988C13.0101 5.87988 12.3301 4.13988 11.6501 3.05988ZM11.7901 2.56988C11.7901 2.56988 11.7901 2.57988 11.7901 2.56988C11.7901 2.57988 11.7901 2.56988 11.7901 2.56988Z" fill="black"/>
</svg>
