<svg width="24" height="24" viewBox="0 0 24 24" fill="none" xmlns="http://www.w3.org/2000/svg">
<path d="M12.82 16.72C12.51 16.72 12.21 16.52 12.11 16.21L10.08 10.11L7.34 16.28C7.17 16.66 6.73 16.83 6.35 16.66C5.97 16.49 5.8 16.05 5.97 15.67L9.5 7.73999C9.63 7.45999 9.9 7.26999 10.22 7.29999C10.53 7.30999 10.8 7.52 10.9 7.81L13.54 15.74C13.67 16.13 13.46 16.56 13.07 16.69C12.98 16.7 12.9 16.72 12.82 16.72Z" fill="black"/>
<path d="M11.94 12.5698H7.53003V14.0698H11.94V12.5698Z" fill="black"/>
<path d="M16.3501 16.7202C15.9401 16.7202 15.6001 16.3802 15.6001 15.9702V10.6802C15.6001 10.2702 15.9401 9.93018 16.3501 9.93018C16.7601 9.93018 17.1001 10.2702 17.1001 10.6802V15.9702C17.1001 16.3802 16.7601 16.7202 16.3501 16.7202Z" fill="black"/>
<path d="M16.3501 9.03002C16.0801 9.03002 15.8301 8.93001 15.6401 8.74001C15.5501 8.65001 15.4701 8.54003 15.4201 8.42003C15.3701 8.29003 15.3501 8.17002 15.3501 8.03002C15.3501 7.90002 15.3701 7.77001 15.4201 7.65001C15.4801 7.53001 15.5501 7.42 15.6401 7.33C15.7301 7.23 15.8401 7.16 15.9601 7.11C16.3301 6.96 16.7801 7.05 17.0501 7.33C17.1501 7.42 17.2201 7.53001 17.2701 7.65001C17.3201 7.77001 17.3501 7.90002 17.3501 8.03002C17.3501 8.17002 17.3201 8.30003 17.2701 8.42003C17.2201 8.54003 17.1501 8.65001 17.0501 8.74001C16.9601 8.83001 16.8501 8.91001 16.7301 8.96001C16.6101 9.01001 16.4801 9.03002 16.3501 9.03002Z" fill="black"/>
<path d="M15 22.75H9C3.57 22.75 1.25 20.43 1.25 15V9C1.25 3.57 3.57 1.25 9 1.25H15C20.43 1.25 22.75 3.57 22.75 9V15C22.75 20.43 20.43 22.75 15 22.75ZM9 2.75C4.39 2.75 2.75 4.39 2.75 9V15C2.75 19.61 4.39 21.25 9 21.25H15C19.61 21.25 21.25 19.61 21.25 15V9C21.25 4.39 19.61 2.75 15 2.75H9Z" fill="black"/>
</svg>
