<svg width="24" height="24" viewBox="0 0 24 24" fill="none" xmlns="http://www.w3.org/2000/svg">
<path d="M22.0199 16.8198L18.8899 9.49978C18.3199 8.15978 17.4699 7.39978 16.4999 7.34978C15.5399 7.29978 14.6099 7.96978 13.8999 9.24978L11.9999 12.6598C11.5999 13.3798 11.0299 13.8098 10.4099 13.8598C9.77989 13.9198 9.14989 13.5898 8.63989 12.9398L8.41989 12.6598C7.70989 11.7698 6.82989 11.3398 5.92989 11.4298C5.02989 11.5198 4.25989 12.1398 3.74989 13.1498L2.01989 16.5998C1.39989 17.8498 1.45989 19.2998 2.18989 20.4798C2.91989 21.6598 4.18989 22.3698 5.57989 22.3698H18.3399C19.6799 22.3698 20.9299 21.6998 21.6699 20.5798C22.4299 19.4598 22.5499 18.0498 22.0199 16.8198Z" fill="#292D32"/>
<path d="M6.97009 8.38012C8.83681 8.38012 10.3501 6.86684 10.3501 5.00012C10.3501 3.13339 8.83681 1.62012 6.97009 1.62012C5.10337 1.62012 3.59009 3.13339 3.59009 5.00012C3.59009 6.86684 5.10337 8.38012 6.97009 8.38012Z" fill="#292D32"/>
</svg>
