<svg width="24" height="24" viewBox="0 0 24 24" fill="none" xmlns="http://www.w3.org/2000/svg">
<path d="M18.3601 22.7499H5.59011C4.07011 22.7499 2.68011 21.9799 1.88011 20.6799C1.08011 19.3799 1.01011 17.7999 1.69011 16.4299L3.41011 12.9799C3.97011 11.8599 4.87011 11.1599 5.88011 11.0499C6.89011 10.9399 7.92011 11.4399 8.70011 12.4099L8.92011 12.6899C9.36011 13.2299 9.87011 13.5199 10.3701 13.4699C10.8701 13.4299 11.3301 13.0699 11.6701 12.4599L13.5601 9.04993C14.3401 7.63993 15.3801 6.90993 16.5101 6.95993C17.6301 7.01993 18.5901 7.85993 19.2301 9.33993L22.3601 16.6499C22.9401 17.9999 22.8001 19.5399 21.9901 20.7699C21.1901 22.0199 19.8301 22.7499 18.3601 22.7499ZM6.16011 12.5499C6.12011 12.5499 6.08011 12.5499 6.04011 12.5599C5.54011 12.6099 5.08011 13.0099 4.75011 13.6599L3.03011 17.1099C2.58011 17.9999 2.63011 19.0499 3.15011 19.8999C3.67011 20.7499 4.59011 21.2599 5.59011 21.2599H18.3501C19.3301 21.2599 20.2001 20.7899 20.7401 19.9699C21.2801 19.1499 21.3701 18.1699 20.9801 17.2699L17.8501 9.95993C17.4701 9.05993 16.9401 8.50993 16.4301 8.48993C15.9601 8.45993 15.3501 8.95993 14.8701 9.80993L12.9801 13.2199C12.4001 14.2599 11.4901 14.9099 10.5001 14.9999C9.51011 15.0799 8.50011 14.5999 7.75011 13.6599L7.53011 13.3799C7.11011 12.8299 6.63011 12.5499 6.16011 12.5499Z" fill="#292D32"/>
<path d="M6.96997 8.75C4.90997 8.75 3.21997 7.07 3.21997 5C3.21997 2.93 4.89997 1.25 6.96997 1.25C9.03997 1.25 10.72 2.93 10.72 5C10.72 7.07 9.03997 8.75 6.96997 8.75ZM6.96997 2.75C5.72997 2.75 4.71997 3.76 4.71997 5C4.71997 6.24 5.72997 7.25 6.96997 7.25C8.20997 7.25 9.21997 6.24 9.21997 5C9.21997 3.76 8.20997 2.75 6.96997 2.75Z" fill="#292D32"/>
</svg>
