<svg width="24" height="24" viewBox="0 0 24 24" fill="none" xmlns="http://www.w3.org/2000/svg">
<path d="M12.01 22.7398C11.38 22.7398 10.76 22.5298 10.27 22.1098L8.68999 20.7598C8.52999 20.6198 8.13 20.4798 7.92 20.4798H6.17C4.69 20.4798 3.49 19.2798 3.49 17.7998V16.0898C3.49 15.8798 3.35 15.4798 3.22 15.3298L1.86 13.7298C1.04 12.7598 1.04 11.2398 1.86 10.2598L3.22 8.65982C3.35 8.50982 3.49 8.10982 3.49 7.89982V6.19982C3.49 4.71982 4.69 3.51982 6.17 3.51982H7.9C8.11 3.51982 8.5 3.36982 8.67 3.22982L10.25 1.87982C11.23 1.04982 12.76 1.04982 13.74 1.87982L15.32 3.22982C15.48 3.36982 15.89 3.50982 16.1 3.50982H17.8C19.28 3.50982 20.48 4.70982 20.48 6.18982V7.88982C20.48 8.09982 20.63 8.48982 20.77 8.65982L22.12 10.2398C22.96 11.2298 22.95 12.7598 22.12 13.7298L20.77 15.3098C20.63 15.4798 20.49 15.8698 20.49 16.0798V17.7798C20.49 19.2598 19.29 20.4598 17.81 20.4598H16.11C15.9 20.4598 15.51 20.6098 15.33 20.7498L13.75 22.0998C13.26 22.5298 12.63 22.7398 12.01 22.7398ZM6.17 5.01982C5.52 5.01982 4.98999 5.54982 4.98999 6.19982V7.89982C4.98999 8.46982 4.73 9.18982 4.36 9.62982L3 11.2298C2.66 11.6398 2.66 12.3598 3 12.7598L4.34999 14.3498C4.70999 14.7598 4.98 15.5098 4.98 16.0798V17.7898C4.98 18.4398 5.50999 18.9698 6.16 18.9698H7.9C8.46 18.9698 9.2 19.2398 9.64 19.6098L11.23 20.9698C11.64 21.3198 12.36 21.3198 12.77 20.9698L14.35 19.6198C14.8 19.2398 15.53 18.9798 16.09 18.9798H17.79C18.44 18.9798 18.97 18.4498 18.97 17.7998V16.0998C18.97 15.5398 19.24 14.8098 19.61 14.3598L20.97 12.7698C21.32 12.3598 21.32 11.6398 20.97 11.2298L19.62 9.64982C19.24 9.19982 18.98 8.46982 18.98 7.90982V6.19982C18.98 5.54982 18.45 5.01982 17.8 5.01982H16.1C15.53 5.01982 14.79 4.74982 14.35 4.37982L12.76 3.01982C12.35 2.66982 11.64 2.66982 11.22 3.01982L9.64999 4.37982C9.2 4.74982 8.47 5.01982 7.9 5.01982H6.17Z" fill="#292D32"/>
<path d="M12 16.8701C11.45 16.8701 11 16.4201 11 15.8701C11 15.3201 11.44 14.8701 12 14.8701C12.55 14.8701 13 15.3201 13 15.8701C13 16.4201 12.56 16.8701 12 16.8701Z" fill="#292D32"/>
<path d="M12 13.7199C11.59 13.7199 11.25 13.3799 11.25 12.9699V8.12988C11.25 7.71988 11.59 7.37988 12 7.37988C12.41 7.37988 12.75 7.71988 12.75 8.12988V12.9599C12.75 13.3799 12.42 13.7199 12 13.7199Z" fill="#292D32"/>
</svg>
