<svg width="53" height="53" viewBox="0 0 53 53" fill="none" xmlns="http://www.w3.org/2000/svg">
<path fill-rule="evenodd" clip-rule="evenodd" d="M26.0377 52.0755C40.418 52.0755 52.0755 40.418 52.0755 26.0377C52.0755 11.6575 40.418 0 26.0377 0C11.6575 0 0 11.6575 0 26.0377C0 40.418 11.6575 52.0755 26.0377 52.0755ZM25.7802 11.3442C21.5165 11.3442 20.9829 11.3613 19.3091 11.4383H19.3076C17.6381 11.5153 16.4966 11.7804 15.4978 12.1666C14.4511 12.5607 13.503 13.1779 12.7195 13.9754C11.9206 14.7583 11.3022 15.7058 10.9073 16.7519C10.5206 17.7496 10.2538 18.8899 10.1782 20.5604C10.1025 22.2308 10.084 22.7639 10.084 27.0228C10.084 31.2802 10.1011 31.8133 10.1782 33.488C10.2552 35.1556 10.5206 36.2959 10.9073 37.2936C11.3016 38.3396 11.9196 39.2872 12.7181 40.0701C13.5026 40.8673 14.4517 41.484 15.4992 41.8775C16.498 42.2651 17.6396 42.5317 19.3091 42.6072C20.9829 42.6828 21.5165 42.7013 25.7802 42.7013C30.0439 42.7013 30.5775 42.6842 32.2527 42.6072C33.9222 42.5303 35.0638 42.2651 36.0626 41.8775C37.1086 41.4841 38.0575 40.8683 38.8423 40.0701C39.6403 39.2865 40.2578 38.3385 40.6516 37.2922C41.0398 36.2945 41.3066 35.1542 41.3822 33.4866C41.4579 31.8147 41.4764 31.2816 41.4764 27.0228C41.4764 22.7653 41.4593 22.2323 41.3822 20.5575C41.3052 18.8899 41.0398 17.7496 40.6516 16.7519C40.2578 15.7057 39.6414 14.7593 38.8423 13.9768C38.0575 13.1786 37.1086 12.5615 36.0626 12.1666C35.0638 11.7804 33.9222 11.5139 32.2499 11.4383C30.5775 11.3628 30.0439 11.3442 25.7802 11.3442ZM25.7802 14.1692C29.9711 14.1692 30.4677 14.1849 32.1229 14.2604C33.654 14.3303 34.4845 14.5854 35.0381 14.8006C35.7198 15.0518 36.3365 15.4521 36.8432 15.9723C37.3925 16.521 37.7307 17.0441 38.0161 17.7753C38.2316 18.3283 38.487 19.1578 38.5569 20.6872C38.6325 22.3406 38.6482 22.8366 38.6482 27.0228C38.6482 31.2089 38.6325 31.7049 38.5569 33.3583C38.487 34.8877 38.2316 35.7172 38.0161 36.2702C37.765 36.9501 37.364 37.5673 36.8432 38.0733C36.2938 38.622 35.7701 38.9598 35.0381 39.2449C34.4845 39.4601 33.654 39.7152 32.1229 39.7851C30.4677 39.8606 29.9725 39.8763 25.7802 39.8763C21.5879 39.8763 21.0927 39.8606 19.4375 39.7851C17.9064 39.7152 17.0759 39.4601 16.5223 39.2449C15.8416 38.994 15.2238 38.5935 14.7172 38.0733C14.1964 37.5673 13.7954 36.9501 13.5443 36.2702C13.3288 35.7172 13.0734 34.8877 13.0035 33.3583C12.9279 31.7049 12.9122 31.2089 12.9122 27.0228C12.9122 22.8366 12.9279 22.3406 13.0035 20.6872C13.0734 19.1578 13.3288 18.3283 13.5443 17.7753C13.7957 17.0944 14.1965 16.4783 14.7172 15.9723C15.2666 15.4235 15.7903 15.0857 16.5223 14.8006C17.0759 14.5854 17.9064 14.3303 19.4375 14.2604C21.0927 14.1849 21.5893 14.1692 25.7802 14.1692ZM27.3026 32.0338C26.1417 32.3844 24.895 32.3216 23.7754 31.856C23.0602 31.5598 22.4197 31.1089 21.9 30.5358C21.3802 29.9626 20.9942 29.2815 20.7696 28.5415C20.545 27.8014 20.4875 27.0208 20.6012 26.2559C20.7149 25.491 20.9969 24.7607 21.4271 24.1177C21.8572 23.4748 22.4247 22.9351 23.0887 22.5375C23.7527 22.1399 24.4968 21.8943 25.2672 21.8184C26.0377 21.7425 26.8154 21.8381 27.5444 22.0985C28.2733 22.3588 28.9355 22.7774 29.4831 23.3241C30.3421 24.1792 30.8772 25.3057 30.9971 26.5112C31.117 27.7167 30.8141 28.9264 30.1403 29.9336C29.4665 30.9409 28.4635 31.6832 27.3026 32.0338ZM22.6927 19.5774C21.7139 19.9824 20.8245 20.576 20.0753 21.3243C18.5623 22.8356 17.7123 24.8854 17.7123 27.0228C17.7123 29.1601 18.5623 31.2099 20.0753 32.7212C21.5884 34.2325 23.6405 35.0816 25.7802 35.0816C27.9199 35.0816 29.972 34.2325 31.4851 32.7212C32.2342 31.9729 32.8285 31.0845 33.234 30.1067C33.6394 29.129 33.8481 28.0811 33.8481 27.0228C33.8481 25.9645 33.6394 24.9165 33.234 23.9388C32.8285 22.9611 32.2342 22.0727 31.4851 21.3243C30.7359 20.576 29.8465 19.9824 28.8676 19.5774C27.8888 19.1724 26.8397 18.964 25.7802 18.964C24.7207 18.964 23.6716 19.1724 22.6927 19.5774ZM36.0745 19.5455C35.9717 19.7788 35.8231 19.9892 35.6374 20.1641C35.2764 20.5043 34.7968 20.6906 34.3005 20.6834C33.8042 20.6761 33.3302 20.476 32.9793 20.1254C32.6283 19.7748 32.4279 19.3014 32.4207 18.8057C32.4135 18.31 32.5999 17.8309 32.9405 17.4703C33.1156 17.2848 33.3262 17.1364 33.5598 17.0337C33.7934 16.931 34.0453 16.8762 34.3005 16.8725C34.5557 16.8687 34.809 16.9162 35.0455 17.0121C35.282 17.1079 35.4968 17.2502 35.6773 17.4304C35.8578 17.6107 36.0002 17.8253 36.0961 18.0615C36.1921 18.2977 36.2396 18.5508 36.2359 18.8057C36.2322 19.0606 36.1773 19.3122 36.0745 19.5455Z" fill="white"/>
</svg>
