<svg width="24" height="24" viewBox="0 0 24 24" fill="none" xmlns="http://www.w3.org/2000/svg">
<path d="M12 22.4301C11.52 22.4301 11.04 22.3001 10.61 22.0501L4.10999 18.2301C3.26999 17.7401 2.75 16.8301 2.75 15.8601V8.15012C2.75 7.18012 3.26999 6.27013 4.10999 5.78013L10.61 1.96014C11.47 1.45014 12.54 1.45014 13.4 1.96014L19.9 5.78013C20.74 6.27013 21.26 7.18012 21.26 8.15012V15.8601C21.26 16.8301 20.74 17.7401 19.9 18.2301L13.4 22.0501C12.96 22.3001 12.48 22.4301 12 22.4301ZM11.37 3.24014L4.87 7.06013C4.49 7.28013 4.25 7.70013 4.25 8.14013V15.8501C4.25 16.2901 4.49 16.7001 4.87 16.9301L11.37 20.7501C11.76 20.9801 12.25 20.9801 12.64 20.7501L19.14 16.9301C19.52 16.7101 19.76 16.2901 19.76 15.8501V8.14013C19.76 7.70013 19.52 7.29013 19.14 7.06013L12.64 3.24014C12.24 3.01014 11.76 3.01014 11.37 3.24014Z" fill="black"/>
<path d="M12 18.7501C11.87 18.7501 11.73 18.7101 11.61 18.6401L6.60999 15.6401C6.24999 15.4301 6.13998 14.9701 6.34998 14.6101C6.55998 14.2501 7.02 14.1401 7.38 14.3501L11.99 17.1201L15.53 14.9901L6.59998 9.63012C6.36998 9.49012 6.23999 9.25012 6.23999 8.99012C6.23999 8.73012 6.37998 8.48012 6.59998 8.35012L11.6 5.35012C11.84 5.21012 12.14 5.21012 12.37 5.35012L17.37 8.35012C17.73 8.56012 17.84 9.02012 17.63 9.38012C17.42 9.73012 16.96 9.85011 16.6 9.64011L11.99 6.87011L8.45001 9.00011L17.38 14.3601C17.61 14.5001 17.74 14.7401 17.74 15.0001C17.74 15.2601 17.6 15.5101 17.38 15.6401L12.38 18.6401C12.27 18.7101 12.13 18.7501 12 18.7501Z" fill="black"/>
<path d="M9.49997 12.7499C9.30997 12.7499 9.11994 12.6799 8.96994 12.5299C8.67994 12.2399 8.67994 11.7599 8.96994 11.4699L10.9699 9.46994C11.2599 9.17994 11.74 9.17994 12.03 9.46994C12.32 9.75994 12.32 10.2399 12.03 10.5299L10.03 12.5299C9.88 12.6799 9.68997 12.7499 9.49997 12.7499Z" fill="black"/>
<path d="M12.5 14.7499C12.31 14.7499 12.1199 14.6799 11.9699 14.5299C11.6799 14.2399 11.6799 13.7599 11.9699 13.4699L13.9699 11.4699C14.2599 11.1799 14.74 11.1799 15.03 11.4699C15.32 11.7599 15.32 12.2399 15.03 12.5299L13.03 14.5299C12.88 14.6799 12.69 14.7499 12.5 14.7499Z" fill="black"/>
</svg>
