<svg width="24" height="24" viewBox="0 0 24 24" fill="none" xmlns="http://www.w3.org/2000/svg">
<path d="M15.25 16.75H13.5C12.12 16.75 11 15.63 11 14.25C11 13.84 11.34 13.5 11.75 13.5C12.16 13.5 12.5 13.84 12.5 14.25C12.5 14.8 12.95 15.25 13.5 15.25H15.25C15.8 15.25 16.25 14.8 16.25 14.25C16.25 13.7 15.8 13.25 15.25 13.25H13.5C12.12 13.25 11 12.13 11 10.75C11 9.37 12.12 8.25 13.5 8.25H15.25C16.63 8.25 17.75 9.37 17.75 10.75C17.75 11.16 17.41 11.5 17 11.5C16.59 11.5 16.25 11.16 16.25 10.75C16.25 10.2 15.8 9.75 15.25 9.75H13.5C12.95 9.75 12.5 10.2 12.5 10.75C12.5 11.3 12.95 11.75 13.5 11.75H15.25C16.63 11.75 17.75 12.87 17.75 14.25C17.75 15.63 16.63 16.75 15.25 16.75Z" fill="black"/>
<path d="M12 22.61C11.71 22.61 11.42 22.54 11.15 22.39L9.66998 21.68C9.29998 21.5 9.14001 21.05 9.32001 20.68C9.50001 20.31 9.94001 20.15 10.32 20.33L11.83 21.06C11.94 21.12 12.04 21.12 12.11 21.08L20.11 16.64C20.19 16.6 20.24 16.51 20.24 16.42V7.60003C20.24 7.51003 20.19 7.43003 20.11 7.38003L12.11 2.94003C12.03 2.90003 11.94 2.90003 11.87 2.94003L3.87 7.38003C3.79 7.42003 3.73999 7.51003 3.73999 7.60003V16.42C3.73999 16.51 3.79 16.59 3.87 16.64L6.38 18.03C6.77 18.25 7.23 18.24 7.62 18.01C8.01 17.78 8.23999 17.38 8.23999 16.93L8.25 9.00002C8.25 8.59002 8.59 8.25002 9 8.25002C9.41 8.25002 9.75 8.59002 9.75 9.00002L9.73999 16.93C9.73999 17.91 9.23 18.8 8.38 19.3C7.53 19.8 6.51002 19.81 5.65002 19.33L3.14001 17.94C2.58001 17.63 2.23999 17.04 2.23999 16.41V7.59002C2.23999 6.96002 2.58001 6.37002 3.14001 6.06002L11.14 1.62002C11.67 1.32002 12.31 1.32002 12.84 1.62002L20.84 6.06002C21.4 6.37002 21.74 6.96002 21.74 7.59002V16.41C21.74 17.04 21.4 17.63 20.84 17.94L12.84 22.38C12.58 22.53 12.29 22.61 12 22.61Z" fill="black"/>
</svg>
