<svg width="24" height="24" viewBox="0 0 24 24" fill="none" xmlns="http://www.w3.org/2000/svg">
<path d="M20.54 19.04C20.39 19.19 20.2 19.26 20.01 19.26C19.82 19.26 19.63 19.19 19.48 19.04L14.53 14.09L15.06 13.56L15.59 13.03L20.54 17.98C20.83 18.27 20.83 18.75 20.54 19.04Z" fill="#292D32"/>
<path d="M6.47 9.28009L12.27 15.0801C12.66 15.4701 12.66 16.1001 12.27 16.4901L11.37 17.4001C10.56 18.2001 9.28 18.2001 8.48 17.4001L4.14 13.0601C3.35 12.2701 3.35 10.9801 4.14 10.1801L5.05 9.27009C5.44 8.89009 6.08 8.89009 6.47 9.28009Z" fill="#292D32"/>
<path d="M18.59 10.1899L14.78 13.9899C14.38 14.3899 13.74 14.3899 13.34 13.9899L7.55999 8.20993C7.15999 7.80993 7.15999 7.16993 7.55999 6.76993L11.37 2.95993C12.16 2.16993 13.45 2.16993 14.25 2.95993L18.59 7.29993C19.38 8.09993 19.38 9.37993 18.59 10.1899Z" fill="#292D32"/>
<path d="M8 21.75H2C1.59 21.75 1.25 21.41 1.25 21C1.25 20.59 1.59 20.25 2 20.25H8C8.41 20.25 8.75 20.59 8.75 21C8.75 21.41 8.41 21.75 8 21.75Z" fill="#292D32"/>
</svg>
