<svg width="24" height="24" viewBox="0 0 24 24" fill="none" xmlns="http://www.w3.org/2000/svg">
<path d="M19.7899 4.22007C16.8299 1.27007 12.0299 1.27007 9.0899 4.22007C7.0199 6.27007 6.3999 9.22007 7.1999 11.8201L2.4999 16.5201C2.1699 16.8601 1.9399 17.5301 2.0099 18.0101L2.3099 20.1901C2.4199 20.9101 3.0899 21.5901 3.8099 21.6901L5.9899 21.9901C6.4699 22.0601 7.1399 21.8401 7.4799 21.4901L8.2999 20.6701C8.4999 20.4801 8.4999 20.1601 8.2999 19.9601L6.3599 18.0201C6.0699 17.7301 6.0699 17.2501 6.3599 16.9601C6.6499 16.6701 7.1299 16.6701 7.4199 16.9601L9.3699 18.9101C9.5599 19.1001 9.8799 19.1001 10.0699 18.9101L12.1899 16.8001C14.7799 17.6101 17.7299 16.9801 19.7899 14.9301C22.7399 11.9801 22.7399 7.17007 19.7899 4.22007ZM14.4999 12.0001C13.1199 12.0001 11.9999 10.8801 11.9999 9.50007C11.9999 8.12007 13.1199 7.00007 14.4999 7.00007C15.8799 7.00007 16.9999 8.12007 16.9999 9.50007C16.9999 10.8801 15.8799 12.0001 14.4999 12.0001Z" fill="#292D32"/>
</svg>
