<svg width="24" height="24" viewBox="0 0 24 24" fill="none" xmlns="http://www.w3.org/2000/svg">
<path d="M17.8201 8.70003C18.5301 8.31003 19.4001 8.82004 19.3901 9.63004L19.3501 15.05C19.3401 15.87 18.4501 16.37 17.7501 15.95L13.0701 13.15C12.3701 12.73 12.3901 11.71 13.1001 11.32L17.8201 8.70003Z" fill="black"/>
<path d="M19.25 6.28016C19.4 6.66016 19.17 7.05017 18.81 7.25017L13.18 10.3602C12.38 10.8002 11.44 10.0902 11.64 9.21017L12.86 3.68016C13.01 2.98016 13.8 2.64017 14.42 2.99017L18.3401 5.23016C18.7701 5.48016 19.08 5.85016 19.25 6.28016Z" fill="black"/>
<path d="M12.0101 2.67019L9.94012 11.9702C9.91012 12.1102 9.91012 12.2602 9.94012 12.4102L11.6701 21.0902C11.7901 21.6902 11.2802 22.2602 10.7802 21.8902L5.49011 18.1202C4.93011 17.7202 4.6001 17.0802 4.6001 16.4002V7.09019C4.6001 6.33019 5.0001 5.63019 5.6701 5.25019L10.9601 2.2402C11.1101 2.1502 11.2701 2.09018 11.4301 2.04018C11.8101 1.91018 12.0901 2.29019 12.0101 2.67019Z" fill="black"/>
<path d="M17.6302 16.8102C18.2802 17.2002 18.3202 18.1302 17.7102 18.5702L14.2401 21.0902C13.6201 21.5402 12.7302 21.2002 12.5802 20.4402L11.5601 15.2402C11.3801 14.3402 12.3502 13.6602 13.1402 14.1302L17.6302 16.8102Z" fill="black"/>
</svg>
