<svg width="24" height="24" viewBox="0 0 24 24" fill="none" xmlns="http://www.w3.org/2000/svg">
<path d="M15.7 4.35007L6.39997 13.6501C5.92997 14.1201 5.10997 14.0201 4.80997 13.4201C4.26997 12.3501 3.96997 11.1801 3.96997 10.0501C3.96997 7.60007 5.05997 5.31007 6.96997 3.77007C8.87997 2.23007 11.38 1.66007 13.83 2.20007C14.37 2.32007 14.9 2.49007 15.4 2.72007C16.04 3.01007 16.2 3.85007 15.7 4.35007Z" fill="#292D32"/>
<path d="M15.45 20.6299C13.19 19.9899 10.81 19.9899 8.55002 20.6299C8.18002 20.7399 7.96002 21.1199 8.07002 21.4899C8.18002 21.8599 8.56002 22.0699 8.93002 21.9699C10.94 21.3999 13.05 21.3999 15.06 21.9699C15.12 21.9899 15.19 21.9999 15.25 21.9999C15.55 21.9999 15.83 21.7999 15.92 21.4899C16.03 21.1199 15.82 20.7399 15.45 20.6299Z" fill="#292D32"/>
<path d="M20.56 1.94992C20.27 1.65992 19.79 1.65992 19.5 1.94992L3.65 17.7999C3.36 18.0899 3.36 18.5699 3.65 18.8599C3.8 19.0099 3.98999 19.0799 4.17999 19.0799C4.36999 19.0799 4.56 19.0099 4.71 18.8599L7.17 16.3999C7.39 16.5799 7.62 16.7599 7.86 16.9199V17.7499C7.85 18.0299 7.84 18.4599 8.17 18.8099C8.52 19.1599 9.04 19.2099 9.45 19.2099H14.58C15.12 19.2099 15.53 19.0599 15.81 18.7799C16.2 18.3799 16.18 17.8799 16.17 17.6199V16.9199C19.28 14.8299 21.23 10.4199 19.21 6.35992C18.99 5.92992 18.72 5.51992 18.42 5.13992L20.55 3.00992C20.85 2.71992 20.85 2.23992 20.56 1.94992Z" fill="#292D32"/>
</svg>
