<svg width="24" height="24" viewBox="0 0 24 24" fill="none" xmlns="http://www.w3.org/2000/svg">
<path d="M19.3701 4.89012L13.5101 2.28012C12.6501 1.90012 11.3501 1.90012 10.4901 2.28012L4.63005 4.89012C3.15005 5.55012 2.93005 6.45012 2.93005 6.93012C2.93005 7.41012 3.15005 8.31012 4.63005 8.97012L10.4901 11.5801C10.9201 11.7701 11.4601 11.8701 12.0001 11.8701C12.5401 11.8701 13.0801 11.7701 13.5101 11.5801L19.3701 8.97012C20.8501 8.31012 21.0701 7.41012 21.0701 6.93012C21.0701 6.45012 20.8601 5.55012 19.3701 4.89012Z" fill="#292D32"/>
<path d="M11.9999 17.04C11.6199 17.04 11.2399 16.96 10.8899 16.81L4.14995 13.81C3.11995 13.35 2.31995 12.12 2.31995 10.99C2.31995 10.58 2.64995 10.25 3.05995 10.25C3.46995 10.25 3.79995 10.58 3.79995 10.99C3.79995 11.53 4.24995 12.23 4.74995 12.45L11.4899 15.45C11.8099 15.59 12.1799 15.59 12.4999 15.45L19.2399 12.45C19.7399 12.23 20.1899 11.54 20.1899 10.99C20.1899 10.58 20.5199 10.25 20.9299 10.25C21.3399 10.25 21.6699 10.58 21.6699 10.99C21.6699 12.11 20.8699 13.35 19.8399 13.81L13.0999 16.81C12.7599 16.96 12.3799 17.04 11.9999 17.04Z" fill="#292D32"/>
<path d="M11.9999 22C11.6199 22 11.2399 21.92 10.8899 21.77L4.14995 18.77C3.03995 18.28 2.31995 17.17 2.31995 15.95C2.31995 15.54 2.64995 15.21 3.05995 15.21C3.46995 15.21 3.79995 15.54 3.79995 15.95C3.79995 16.58 4.16995 17.15 4.74995 17.41L11.4899 20.41C11.8099 20.55 12.1799 20.55 12.4999 20.41L19.2399 17.41C19.8099 17.16 20.1899 16.58 20.1899 15.95C20.1899 15.54 20.5199 15.21 20.9299 15.21C21.3399 15.21 21.6699 15.54 21.6699 15.95C21.6699 17.17 20.9499 18.27 19.8399 18.77L13.0999 21.77C12.7599 21.92 12.3799 22 11.9999 22Z" fill="#292D32"/>
</svg>
