<svg width="24" height="24" viewBox="0 0 24 24" fill="none" xmlns="http://www.w3.org/2000/svg">
<path d="M7.49997 12C7.49997 11.3369 7.64788 10.7071 7.91075 10.1372C8.11425 9.69593 8.07923 9.15924 7.73563 8.81564L5.15856 6.23857C4.7485 5.82851 4.07238 5.85004 3.74139 6.32622C2.62095 7.93817 1.96997 9.89396 1.96997 12C1.96997 14.1044 2.61994 16.0587 3.73274 17.67C4.06275 18.1478 4.7399 18.1709 5.15104 17.7608L7.73411 15.1843C8.07848 14.8408 8.1139 14.3035 7.91029 13.8618C7.64771 13.2921 7.49997 12.6627 7.49997 12Z" fill="#292D32"/>
<path d="M12 7.5C12.6631 7.5 13.2928 7.64791 13.8628 7.91078C14.304 8.11428 14.8407 8.07926 15.1843 7.73566L17.7335 5.18643C18.1428 4.77717 18.1223 4.10256 17.6476 3.77141C16.0415 2.65097 14.0844 2 11.97 2C9.86577 2 7.91868 2.64985 6.30974 3.76248C5.83212 4.09277 5.809 4.76993 6.2191 5.18107L8.78017 7.74868C9.12607 8.09546 9.66803 8.12873 10.1116 7.92105C10.6854 7.6524 11.3237 7.5 12 7.5Z" fill="#292D32"/>
<path d="M19.8901 5.90633C19.7124 5.6767 19.3751 5.66475 19.1695 5.8698L15.9507 9.08034C15.7773 9.25329 15.7574 9.52498 15.8813 9.73622C16.2717 10.4017 16.5 11.1724 16.5 12.0002C16.5 12.8283 16.2716 13.5992 15.881 14.2647C15.7572 14.4757 15.7769 14.7471 15.9499 14.9201L19.1695 18.1397C19.375 18.3452 19.7127 18.3334 19.8905 18.1035C21.1957 16.4152 21.97 14.2971 21.97 12.0002C21.97 9.7032 21.1956 7.5934 19.8901 5.90633Z" fill="#292D32"/>
<path d="M12 16.4999C11.1719 16.4999 10.401 16.2715 9.73546 15.8809C9.52445 15.7571 9.25306 15.7768 9.08006 15.9498L5.83049 19.1994C5.625 19.4049 5.63675 19.7426 5.86665 19.9204C7.55497 21.2256 9.67312 21.9999 11.97 21.9999C14.2771 21.9999 16.3969 21.2249 18.0778 19.9107C18.3057 19.7324 18.3164 19.3963 18.1117 19.1917L14.8871 15.9671C14.7153 15.7953 14.4463 15.7745 14.2358 15.8959C13.5727 16.2785 12.8113 16.4999 12 16.4999Z" fill="#292D32"/>
</svg>
