<svg width="24" height="24" viewBox="0 0 24 24" fill="none" xmlns="http://www.w3.org/2000/svg">
<path d="M16.28 22.1H12.48C11.92 22.1 10.7 21.93 10.05 21.28L7.01999 18.94L7.93999 17.75L11.04 20.15C11.29 20.39 11.92 20.59 12.48 20.59H16.28C17.18 20.59 18.15 19.87 18.35 19.06L20.77 11.71C20.93 11.27 20.9 10.87 20.69 10.58C20.47 10.27 20.07 10.09 19.58 10.09H15.58C15.06 10.09 14.58 9.86999 14.25 9.48999C13.91 9.09999 13.76 8.57999 13.84 8.03999L14.34 4.82999C14.46 4.26999 14.08 3.63999 13.54 3.45999C13.05 3.27999 12.42 3.53999 12.2 3.85999L8.09999 9.95999L6.85999 9.12999L10.96 3.02999C11.59 2.08999 12.97 1.63999 14.05 2.04999C15.3 2.45999 16.1 3.83999 15.82 5.11999L15.33 8.26999C15.32 8.33999 15.32 8.43999 15.39 8.51999C15.44 8.56999 15.51 8.59999 15.59 8.59999H19.59C20.57 8.59999 21.42 9.00999 21.92 9.71999C22.41 10.41 22.51 11.32 22.19 12.2L19.8 19.48C19.43 20.93 17.89 22.1 16.28 22.1Z" fill="#292D32"/>
<path d="M5.38 20.9999H4.38C2.53 20.9999 1.63 20.1299 1.63 18.3499V8.5499C1.63 6.7699 2.53 5.8999 4.38 5.8999H5.38C7.23 5.8999 8.13 6.7699 8.13 8.5499V18.3499C8.13 20.1299 7.23 20.9999 5.38 20.9999ZM4.38 7.3999C3.29 7.3999 3.13001 7.6599 3.13001 8.5499V18.3499C3.13001 19.2399 3.29 19.4999 4.38 19.4999H5.38C6.47001 19.4999 6.63 19.2399 6.63 18.3499V8.5499C6.63 7.6599 6.47001 7.3999 5.38 7.3999H4.38Z" fill="#292D32"/>
</svg>
