<svg width="24" height="24" viewBox="0 0 24 24" fill="none" xmlns="http://www.w3.org/2000/svg">
<path d="M21.56 10.7401L20.2 9.16006C19.94 8.86006 19.73 8.30006 19.73 7.90006V6.20006C19.73 5.14006 18.86 4.27006 17.8 4.27006H16.1C15.71 4.27006 15.14 4.06006 14.84 3.80006L13.26 2.44006C12.57 1.85006 11.44 1.85006 10.74 2.44006L9.17 3.81006C8.87 4.06006 8.3 4.27006 7.91 4.27006H6.18C5.12 4.27006 4.25 5.14006 4.25 6.20006V7.91006C4.25 8.30006 4.04 8.86006 3.79 9.16006L2.44 10.7501C1.86 11.4401 1.86 12.5601 2.44 13.2501L3.79 14.8401C4.04 15.1401 4.25 15.7001 4.25 16.0901V17.8001C4.25 18.8601 5.12 19.7301 6.18 19.7301H7.91C8.3 19.7301 8.87 19.9401 9.17 20.2001L10.75 21.5601C11.44 22.1501 12.57 22.1501 13.27 21.5601L14.85 20.2001C15.15 19.9401 15.71 19.7301 16.11 19.7301H17.81C18.87 19.7301 19.74 18.8601 19.74 17.8001V16.1001C19.74 15.7101 19.95 15.1401 20.21 14.8401L21.57 13.2601C22.15 12.5701 22.15 11.4301 21.56 10.7401ZM16.68 12.0001L15.51 15.5601C15.36 16.1501 14.73 16.6301 14.09 16.6301H12.24C11.92 16.6301 11.47 16.5201 11.27 16.3201L9.8 15.1701C9.77 15.8101 9.48001 16.0801 8.77001 16.0801H8.29C7.55 16.0801 7.25 15.7901 7.25 15.0901V10.3101C7.25 9.61006 7.55 9.32006 8.29 9.32006H8.78C9.52 9.32006 9.82 9.61006 9.82 10.3101V10.6701L11.76 7.79006C11.96 7.48006 12.47 7.26006 12.9 7.43006C13.37 7.59006 13.67 8.11006 13.57 8.57006L13.33 10.1301C13.31 10.2701 13.34 10.4001 13.43 10.5001C13.51 10.5901 13.63 10.6501 13.76 10.6501H15.71C16.09 10.6501 16.41 10.8001 16.6 11.0701C16.77 11.3301 16.8 11.6601 16.68 12.0001Z" fill="#292D32"/>
</svg>
