<svg width="24" height="24" viewBox="0 0 24 24" fill="none" xmlns="http://www.w3.org/2000/svg">
<path d="M19.0698 14.2401C18.7798 14.5301 18.3198 14.5301 18.0398 14.2401C17.7498 13.9501 17.7498 13.4901 18.0398 13.2101C20.0398 11.2101 20.0398 7.9601 18.0398 5.9701C16.0398 3.9801 12.7898 3.9701 10.7998 5.9701C8.80978 7.9701 8.79978 11.2201 10.7998 13.2101C11.0898 13.5001 11.0898 13.9601 10.7998 14.2401C10.5098 14.5301 10.0498 14.5301 9.76979 14.2401C7.19979 11.6701 7.19979 7.4901 9.76979 4.9301C12.3398 2.3701 16.5198 2.3601 19.0798 4.9301C21.6398 7.5001 21.6398 11.6701 19.0698 14.2401Z" fill="#292D32"/>
<path d="M4.93022 9.75998C5.22022 9.46998 5.68022 9.46998 5.96022 9.75998C6.25022 10.05 6.25022 10.51 5.96022 10.79C3.96022 12.79 3.96022 16.04 5.96022 18.03C7.96022 20.02 11.2102 20.03 13.2002 18.03C15.1902 16.03 15.2002 12.78 13.2002 10.79C12.9102 10.5 12.9102 10.04 13.2002 9.75998C13.4902 9.46998 13.9502 9.46998 14.2302 9.75998C16.8002 12.33 16.8002 16.51 14.2302 19.07C11.6602 21.63 7.48022 21.64 4.92022 19.07C2.36022 16.5 2.36022 12.33 4.93022 9.75998Z" fill="#292D32"/>
</svg>
