<svg width="51" height="53" viewBox="0 0 51 53" fill="none" xmlns="http://www.w3.org/2000/svg">
<path d="M25.4193 0C11.3804 0 0 11.6966 0 26.1254C0 40.5543 11.3804 52.2508 25.4193 52.2508C39.4582 52.2508 50.8386 40.5543 50.8386 26.1254C50.8386 11.6966 39.4582 0 25.4193 0ZM19.1969 36.9538H14.0495V19.9288H19.1969V36.9538ZM16.5914 17.8388C14.9656 17.8388 13.9144 16.6549 13.9144 15.1908C13.9144 13.6968 14.9974 12.5484 16.6576 12.5484C18.3178 12.5484 19.3346 13.6968 19.3663 15.1908C19.3663 16.6549 18.3178 17.8388 16.5914 17.8388ZM37.9966 36.9538H32.8491L33.1863 27.5188C33.1863 25.3226 32.1025 23.8313 30.241 23.8313C28.8191 23.8313 27.9745 24.8409 27.6011 25.8124C27.4634 26.1581 27.429 26.6479 27.429 27.135V36.9511H22.279V25.358C22.279 23.2326 22.2128 21.4555 22.1439 19.9261H26.6161L26.8518 22.291H26.955C27.6329 21.1806 29.2931 19.5423 32.0707 19.5423C35.4573 19.5423 37.9966 21.8746 37.9966 26.8874V36.9538Z" fill="white"/>
</svg>
