<svg width="24" height="24" viewBox="0 0 24 24" fill="none" xmlns="http://www.w3.org/2000/svg">
<path d="M15.6699 17.8899H7.96992C7.72992 17.8899 7.50992 17.7799 7.36992 17.5899C7.22992 17.3999 7.17992 17.1599 7.24992 16.9299L10.3299 6.14986C10.4199 5.82986 10.7199 5.60986 11.0499 5.60986H14.0899C14.3199 5.60986 14.5399 5.71986 14.6899 5.89986C14.8299 6.08986 14.8799 6.32987 14.8199 6.54987L12.9499 13.5499H16.1999C16.4199 13.5499 16.6299 13.6499 16.7799 13.8199C16.9199 13.9899 16.9799 14.2199 16.9399 14.4299L16.4299 17.2699C16.3399 17.6299 16.0299 17.8899 15.6699 17.8899ZM8.95991 16.3899H15.0399L15.2799 15.0499H11.9599C11.7299 15.0499 11.5099 14.9399 11.3599 14.7599C11.2199 14.5699 11.1699 14.3299 11.2299 14.1099L13.0999 7.10986H11.5999L8.95991 16.3899Z" fill="black"/>
<path d="M7.32014 13.2698C6.97014 13.2698 6.66013 13.0198 6.59013 12.6698C6.51013 12.2598 6.77012 11.8698 7.18012 11.7898L14.8801 10.2498C15.2801 10.1698 15.6801 10.4298 15.7601 10.8398C15.8401 11.2498 15.5801 11.6398 15.1701 11.7198L7.47013 13.2598C7.42013 13.2698 7.37014 13.2698 7.32014 13.2698Z" fill="black"/>
<path d="M12 22.75C6.07 22.75 1.25 17.93 1.25 12C1.25 6.07 6.07 1.25 12 1.25C17.93 1.25 22.75 6.07 22.75 12C22.75 17.93 17.93 22.75 12 22.75ZM12 2.75C6.9 2.75 2.75 6.9 2.75 12C2.75 17.1 6.9 21.25 12 21.25C17.1 21.25 21.25 17.1 21.25 12C21.25 6.9 17.1 2.75 12 2.75Z" fill="black"/>
</svg>
