<svg width="24" height="24" viewBox="0 0 24 24" fill="none" xmlns="http://www.w3.org/2000/svg">
<path d="M15.7799 20.98C14.7199 22 13.3599 22.51 11.9999 22.51C10.6399 22.51 9.27989 21.99 8.21989 20.97C7.85989 20.63 7.49989 20.25 7.13989 19.86L20.0399 6.95996C20.2899 7.49996 20.4799 8.06996 20.6199 8.69996C21.7899 13.86 18.6299 18.22 15.7799 20.98Z" fill="#292D32"/>
<path d="M21.7699 2.22988C21.4699 1.92988 20.9799 1.92988 20.6799 2.22988L2.22988 20.6899C1.92988 20.9899 1.92988 21.4799 2.22988 21.7799C2.37988 21.9199 2.56988 21.9999 2.76988 21.9999C2.96988 21.9999 3.15988 21.9199 3.30988 21.7699L21.7699 3.30988C22.0799 3.00988 22.0799 2.52988 21.7699 2.22988Z" fill="#292D32"/>
<path d="M8.85011 10.31C8.85011 8.57 10.2601 7.16 12.0001 7.16C13.3101 7.16 14.4301 7.96 14.9101 9.1L18.8901 5.12C17.1201 2.98 14.4401 2 12.0001 2C10.2301 2 8.34011 2.52 6.76011 3.61C5.18011 4.71 3.90011 6.38 3.38011 8.69C2.54011 12.36 3.90011 15.64 5.79011 18.21L10.7901 13.21C9.65011 12.74 8.85011 11.61 8.85011 10.31Z" fill="#292D32"/>
</svg>
