<svg width="24" height="24" viewBox="0 0 24 24" fill="none" xmlns="http://www.w3.org/2000/svg">
<path d="M20.62 8.7C19.58 4.07 15.54 2 12 2C12 2 12 2 11.99 2C8.45999 2 4.42999 4.07 3.37999 8.69C2.19999 13.85 5.35999 18.22 8.21999 20.98C9.27999 22 10.64 22.51 12 22.51C13.36 22.51 14.72 22 15.77 20.98C18.63 18.22 21.79 13.86 20.62 8.7ZM15.28 9.53L11.28 13.53C11.13 13.68 10.94 13.75 10.75 13.75C10.56 13.75 10.37 13.68 10.22 13.53L8.71999 12.03C8.42999 11.74 8.42999 11.26 8.71999 10.97C9.00999 10.68 9.48999 10.68 9.77999 10.97L10.75 11.94L14.22 8.47C14.51 8.18 14.99 8.18 15.28 8.47C15.57 8.76 15.57 9.24 15.28 9.53Z" fill="#292D32"/>
</svg>
