<svg width="24" height="24" viewBox="0 0 24 24" fill="none" xmlns="http://www.w3.org/2000/svg">
<path d="M20.62 8.7C19.58 4.07 15.54 2 12 2C12 2 12 2 11.99 2C8.45999 2 4.42999 4.07 3.37999 8.69C2.19999 13.85 5.35999 18.22 8.21999 20.98C9.27999 22 10.64 22.51 12 22.51C13.36 22.51 14.72 22 15.77 20.98C18.63 18.22 21.79 13.86 20.62 8.7ZM14.75 11.75H9.24999C8.83999 11.75 8.49999 11.41 8.49999 11C8.49999 10.59 8.83999 10.25 9.24999 10.25H14.75C15.16 10.25 15.5 10.59 15.5 11C15.5 11.41 15.16 11.75 14.75 11.75Z" fill="#292D32"/>
</svg>
