<svg width="24" height="24" viewBox="0 0 24 24" fill="none" xmlns="http://www.w3.org/2000/svg">
<path d="M11.9999 22.76C10.5199 22.76 9.02993 22.2 7.86993 21.09C4.91993 18.25 1.65993 13.72 2.88993 8.33C3.99993 3.44 8.26993 1.25 11.9999 1.25C11.9999 1.25 11.9999 1.25 12.0099 1.25C15.7399 1.25 20.0099 3.44 21.1199 8.34C22.3399 13.73 19.0799 18.25 16.1299 21.09C14.9699 22.2 13.4799 22.76 11.9999 22.76ZM11.9999 2.75C9.08993 2.75 5.34993 4.3 4.35993 8.66C3.27993 13.37 6.23993 17.43 8.91993 20C10.6499 21.67 13.3599 21.67 15.0899 20C17.7599 17.43 20.7199 13.37 19.6599 8.66C18.6599 4.3 14.9099 2.75 11.9999 2.75Z" fill="#292D32"/>
<path d="M10.7499 13.7499C10.5599 13.7499 10.3699 13.6799 10.2199 13.5299L8.71994 12.0299C8.42994 11.7399 8.42994 11.2599 8.71994 10.9699C9.00994 10.6799 9.48994 10.6799 9.77994 10.9699L10.7499 11.9399L14.2199 8.46994C14.5099 8.17994 14.9899 8.17994 15.2799 8.46994C15.5699 8.75994 15.5699 9.23994 15.2799 9.52994L11.2799 13.5299C11.1299 13.6799 10.9399 13.7499 10.7499 13.7499Z" fill="#292D32"/>
</svg>
