<svg width="24" height="24" viewBox="0 0 24 24" fill="none" xmlns="http://www.w3.org/2000/svg">
<path d="M20.62 8.7C19.58 4.07 15.54 2 12 2C12 2 12 2 11.99 2C8.45999 2 4.42999 4.07 3.37999 8.69C2.19999 13.85 5.35999 18.22 8.21999 20.98C9.27999 22 10.64 22.51 12 22.51C13.36 22.51 14.72 22 15.77 20.98C18.63 18.22 21.79 13.86 20.62 8.7ZM14.53 13.49C14.38 13.64 14.19 13.71 14 13.71C13.81 13.71 13.62 13.64 13.47 13.49L12.02 12.04L10.53 13.53C10.38 13.68 10.19 13.75 9.99999 13.75C9.80999 13.75 9.61999 13.68 9.46999 13.53C9.17999 13.24 9.17999 12.76 9.46999 12.47L10.96 10.98L9.50999 9.53C9.21999 9.24 9.21999 8.76 9.50999 8.47C9.79999 8.18 10.28 8.18 10.57 8.47L12.02 9.92L13.42 8.52C13.71 8.23 14.19 8.23 14.48 8.52C14.77 8.81 14.77 9.29 14.48 9.58L13.08 10.98L14.53 12.43C14.82 12.72 14.82 13.19 14.53 13.49Z" fill="#292D32"/>
</svg>
