<svg width="24" height="24" viewBox="0 0 24 24" fill="none" xmlns="http://www.w3.org/2000/svg">
<path d="M11.9999 22.76C10.5199 22.76 9.02993 22.2 7.86993 21.09C4.91993 18.25 1.65993 13.72 2.88993 8.33C3.99993 3.44 8.26993 1.25 11.9999 1.25C11.9999 1.25 11.9999 1.25 12.0099 1.25C15.7399 1.25 20.0099 3.44 21.1199 8.34C22.3399 13.73 19.0799 18.25 16.1299 21.09C14.9699 22.2 13.4799 22.76 11.9999 22.76ZM11.9999 2.75C9.08993 2.75 5.34993 4.3 4.35993 8.66C3.27993 13.37 6.23993 17.43 8.91993 20C10.6499 21.67 13.3599 21.67 15.0899 20C17.7599 17.43 20.7199 13.37 19.6599 8.66C18.6599 4.3 14.9099 2.75 11.9999 2.75Z" fill="#292D32"/>
<path d="M14 13.7099C13.81 13.7099 13.62 13.6399 13.47 13.4899L9.50998 9.52994C9.21998 9.23994 9.21998 8.75994 9.50998 8.46994C9.79998 8.17994 10.28 8.17994 10.57 8.46994L14.53 12.4299C14.82 12.7199 14.82 13.1999 14.53 13.4899C14.38 13.6299 14.19 13.7099 14 13.7099Z" fill="#292D32"/>
<path d="M9.99994 13.75C9.80994 13.75 9.61994 13.68 9.46994 13.53C9.17994 13.24 9.17994 12.76 9.46994 12.47L13.4299 8.50998C13.7199 8.21998 14.1999 8.21998 14.4899 8.50998C14.7799 8.79998 14.7799 9.27998 14.4899 9.56998L10.5299 13.53C10.3799 13.68 10.1899 13.75 9.99994 13.75Z" fill="#292D32"/>
</svg>
