<svg width="24" height="24" viewBox="0 0 24 24" fill="none" xmlns="http://www.w3.org/2000/svg">
<path d="M7.87999 12.07C7.87999 11.66 8.21999 11.32 8.62999 11.32H14.11V2.86C14.1 2.38 13.72 2 13.24 2C7.34999 2 3.23999 6.11 3.23999 12C3.23999 17.89 7.34999 22 13.24 22C13.71 22 14.1 21.62 14.1 21.14V12.81H8.62999C8.20999 12.82 7.87999 12.48 7.87999 12.07Z" fill="#292D32"/>
<path d="M20.5401 11.5399L17.7001 8.68991C17.4101 8.39991 16.9301 8.39991 16.6401 8.68991C16.3501 8.97991 16.3501 9.45991 16.6401 9.74991L18.2001 11.3099H14.1001V12.8099H18.1901L16.6301 14.3699C16.3401 14.6599 16.3401 15.1399 16.6301 15.4299C16.7801 15.5799 16.9701 15.6499 17.1601 15.6499C17.3501 15.6499 17.5401 15.5799 17.6901 15.4299L20.5301 12.5799C20.8301 12.2999 20.8301 11.8299 20.5401 11.5399Z" fill="#292D32"/>
</svg>
