<svg width="24" height="24" viewBox="0 0 24 24" fill="none" xmlns="http://www.w3.org/2000/svg">
<path d="M17.4399 15.3699C17.2499 15.3699 17.0599 15.2999 16.9099 15.1499C16.6199 14.8599 16.6199 14.3799 16.9099 14.0899L18.9399 12.0599L16.9099 10.0299C16.6199 9.73994 16.6199 9.25994 16.9099 8.96994C17.1999 8.67994 17.6799 8.67994 17.9699 8.96994L20.5299 11.5299C20.8199 11.8199 20.8199 12.2999 20.5299 12.5899L17.9699 15.1499C17.8199 15.2999 17.6299 15.3699 17.4399 15.3699Z" fill="#292D32"/>
<path d="M19.93 12.8101H9.76001C9.35001 12.8101 9.01001 12.4701 9.01001 12.0601C9.01001 11.6501 9.35001 11.3101 9.76001 11.3101H19.93C20.34 11.3101 20.68 11.6501 20.68 12.0601C20.68 12.4701 20.34 12.8101 19.93 12.8101Z" fill="#292D32"/>
<path d="M11.76 20.75C6.61001 20.75 3.01001 17.15 3.01001 12C3.01001 6.85 6.61001 3.25 11.76 3.25C12.17 3.25 12.51 3.59 12.51 4C12.51 4.41 12.17 4.75 11.76 4.75C7.49001 4.75 4.51001 7.73 4.51001 12C4.51001 16.27 7.49001 19.25 11.76 19.25C12.17 19.25 12.51 19.59 12.51 20C12.51 20.41 12.17 20.75 11.76 20.75Z" fill="#292D32"/>
</svg>
