<svg width="24" height="24" viewBox="0 0 24 24" fill="none" xmlns="http://www.w3.org/2000/svg">
<path d="M18.8 9.90991C17.67 9.90991 16.66 10.4599 16.03 11.2999C15.4 10.4599 14.39 9.90991 13.26 9.90991C11.35 9.90991 9.8 11.4699 9.8 13.3899C9.8 14.1299 9.92 14.8199 10.12 15.4499C11.1 18.5599 14.14 20.4299 15.64 20.9399C15.85 21.0099 16.2 21.0099 16.41 20.9399C17.91 20.4299 20.95 18.5699 21.93 15.4499C22.14 14.8099 22.25 14.1299 22.25 13.3899C22.26 11.4699 20.71 9.90991 18.8 9.90991Z" fill="#292D32"/>
<path d="M20.75 8.3401C20.75 8.5701 20.52 8.7201 20.3 8.6601C18.95 8.3101 17.47 8.6001 16.35 9.4001C16.13 9.5601 15.83 9.5601 15.62 9.4001C14.83 8.8201 13.87 8.5001 12.86 8.5001C10.28 8.5001 8.18 10.6101 8.18 13.2101C8.18 16.0301 9.53 18.1401 10.89 19.5501C10.96 19.6201 10.9 19.7401 10.81 19.7001C8.08 18.7701 2 14.9101 2 8.3401C2 5.4401 4.33 3.1001 7.21 3.1001C8.92 3.1001 10.43 3.9201 11.38 5.1901C12.34 3.9201 13.85 3.1001 15.55 3.1001C18.42 3.1001 20.75 5.4401 20.75 8.3401Z" fill="#292D32"/>
</svg>
