<svg width="24" height="24" viewBox="0 0 24 24" fill="none" xmlns="http://www.w3.org/2000/svg">
<path d="M17.29 4.14004L17.22 7.93004C17.21 8.45004 17.54 9.14004 17.96 9.45004L20.44 11.33C22.03 12.53 21.77 14 19.87 14.6L16.64 15.61C16.1 15.78 15.53 16.37 15.39 16.92L14.62 19.86C14.01 22.18 12.49 22.41 11.23 20.37L9.47 17.52C9.15 17 8.39 16.61 7.79 16.64L4.45 16.81C2.06 16.93 1.38 15.55 2.94 13.73L4.92 11.43C5.29 11 5.46 10.2 5.29 9.66004L4.27 6.42004C3.68 4.52004 4.74 3.47004 6.63 4.09004L9.58 5.06004C10.08 5.22004 10.83 5.11004 11.25 4.80004L14.33 2.58004C16 1.39004 17.33 2.09004 17.29 4.14004Z" fill="#292D32"/>
<path d="M21.44 20.4699L18.41 17.4399C18.12 17.1499 17.64 17.1499 17.35 17.4399C17.06 17.7299 17.06 18.2099 17.35 18.4999L20.38 21.5299C20.53 21.6799 20.72 21.7499 20.91 21.7499C21.1 21.7499 21.29 21.6799 21.44 21.5299C21.73 21.2399 21.73 20.7599 21.44 20.4699Z" fill="#292D32"/>
</svg>
