<svg width="24" height="24" viewBox="0 0 24 24" fill="none" xmlns="http://www.w3.org/2000/svg">
<path d="M16.51 5.01L14.55 3.05C13.15 1.65 10.85 1.65 9.45001 3.05L7.49001 5.01C7.10001 5.4 7.10001 6.04 7.49001 6.43L11.3 10.24C11.69 10.63 12.32 10.63 12.71 10.24L16.52 6.43C16.9 6.04 16.9 5.4 16.51 5.01Z" fill="#292D32"/>
<path d="M5.01 7.48977L3.05 9.44977C1.65 10.8498 1.65 13.1498 3.05 14.5498L5.01 16.5098C5.4 16.8998 6.03 16.8998 6.42 16.5098L10.23 12.6998C10.62 12.3098 10.62 11.6798 10.23 11.2898L6.43 7.48977C6.04 7.09977 5.4 7.09977 5.01 7.48977Z" fill="#292D32"/>
<path d="M20.95 9.44977L18.99 7.48977C18.6 7.09977 17.97 7.09977 17.58 7.48977L13.77 11.2998C13.38 11.6898 13.38 12.3198 13.77 12.7098L17.58 16.5198C17.97 16.9098 18.6 16.9098 18.99 16.5198L20.95 14.5598C22.35 13.1498 22.35 10.8498 20.95 9.44977Z" fill="#292D32"/>
<path d="M7.49005 18.99L9.45005 20.95C10.8501 22.35 13.1501 22.35 14.5501 20.95L16.5101 18.99C16.9001 18.6 16.9001 17.97 16.5101 17.58L12.7001 13.77C12.3101 13.38 11.6801 13.38 11.2901 13.77L7.48005 17.58C7.10005 17.96 7.10005 18.6 7.49005 18.99Z" fill="#292D32"/>
</svg>
