<svg width="24" height="24" viewBox="0 0 24 24" fill="none" xmlns="http://www.w3.org/2000/svg">
<path d="M7.63004 3.57018C7.80942 3.47233 8.00004 3.62286 8.00004 3.82719V17.383C8.00004 17.6063 7.84762 17.795 7.65024 17.8993C7.64347 17.9029 7.63673 17.9065 7.63004 17.9102L5.28004 19.2502C3.64004 20.1902 2.29004 19.4102 2.29004 17.5102V7.78018C2.29004 7.15018 2.74004 6.37018 3.30004 6.05018L7.63004 3.57018Z" fill="#292D32"/>
<path d="M14.7219 6.10241C14.8922 6.18676 15 6.3604 15 6.55047V19.7036C15 20.0721 14.615 20.314 14.283 20.1541L10.033 18.1065C9.85998 18.0231 9.75 17.8481 9.75 17.656V4.44571C9.75 4.07486 10.1396 3.83306 10.4719 3.99765L14.7219 6.10241Z" fill="#292D32"/>
<path d="M22 6.49006V16.2201C22 16.8501 21.55 17.6301 20.99 17.9501L17.4986 19.951C17.1653 20.1421 16.75 19.9014 16.75 19.5172V6.33038C16.75 6.15087 16.8462 5.98513 17.0021 5.89615L19.01 4.75006C20.65 3.81006 22 4.59006 22 6.49006Z" fill="#292D32"/>
</svg>
