<svg width="24" height="24" viewBox="0 0 24 24" fill="none" xmlns="http://www.w3.org/2000/svg">
<path d="M21.7002 6.39014H14.4302C14.0202 6.39014 13.6802 6.05014 13.6802 5.64014C13.6802 5.23014 14.0202 4.89014 14.4302 4.89014H21.7002C22.1102 4.89014 22.4502 5.23014 22.4502 5.64014C22.4502 6.05014 22.1102 6.39014 21.7002 6.39014Z" fill="#292D32"/>
<path d="M9.5798 6.39014H2.2998C1.8898 6.39014 1.5498 6.05014 1.5498 5.64014C1.5498 5.23014 1.8898 4.89014 2.2998 4.89014H9.5698C9.9798 4.89014 10.3198 5.23014 10.3198 5.64014C10.3198 6.05014 9.9898 6.39014 9.5798 6.39014Z" fill="#292D32"/>
<path d="M21.7002 16.0801H14.4302C14.0202 16.0801 13.6802 15.7401 13.6802 15.3301C13.6802 14.9201 14.0202 14.5801 14.4302 14.5801H21.7002C22.1102 14.5801 22.4502 14.9201 22.4502 15.3301C22.4502 15.7401 22.1102 16.0801 21.7002 16.0801Z" fill="#292D32"/>
<path d="M21.7002 22.1401H14.4302C14.0202 22.1401 13.6802 21.8001 13.6802 21.3901C13.6802 20.9801 14.0202 20.6401 14.4302 20.6401H21.7002C22.1102 20.6401 22.4502 20.9801 22.4502 21.3901C22.4502 21.8001 22.1102 22.1401 21.7002 22.1401Z" fill="#292D32"/>
<path d="M18.0898 10.02C17.6798 10.02 17.3398 9.68 17.3398 9.27V2C17.3398 1.59 17.6798 1.25 18.0898 1.25C18.4998 1.25 18.8398 1.59 18.8398 2V9.27C18.8398 9.69 18.5098 10.02 18.0898 10.02Z" fill="#292D32"/>
<path d="M2.30023 22.7499C2.11023 22.7499 1.92023 22.6799 1.77023 22.5299C1.48023 22.2399 1.48023 21.7599 1.77023 21.4699L9.04023 14.1999C9.33023 13.9099 9.81024 13.9099 10.1002 14.1999C10.3902 14.4899 10.3902 14.9699 10.1002 15.2599L2.83023 22.5299C2.69023 22.6799 2.50023 22.7499 2.30023 22.7499Z" fill="#292D32"/>
<path d="M9.58 22.7499C9.39 22.7499 9.2 22.6799 9.05 22.5299L1.78 15.2599C1.49 14.9699 1.49 14.4899 1.78 14.1999C2.07 13.9099 2.55 13.9099 2.84 14.1999L10.11 21.4699C10.4 21.7599 10.4 22.2399 10.11 22.5299C9.96 22.6799 9.77 22.7499 9.58 22.7499Z" fill="#292D32"/>
</svg>
