<svg width="24" height="24" viewBox="0 0 24 24" fill="none" xmlns="http://www.w3.org/2000/svg">
<path d="M21.25 18.4701L19.6 18.8601C19.23 18.9501 18.94 19.2301 18.86 19.6001L18.51 21.0701C18.32 21.8701 17.3 22.1201 16.77 21.4901L13.78 18.0501C13.54 17.7701 13.67 17.3301 14.03 17.2401C15.8 16.8101 17.39 15.8201 18.56 14.4101C18.75 14.1801 19.09 14.1501 19.3 14.3601L21.52 16.5801C22.28 17.3401 22.01 18.2901 21.25 18.4701Z" fill="#292D32"/>
<path d="M2.69999 18.4701L4.34999 18.8601C4.72 18.9501 5.01 19.2301 5.09 19.6001L5.44 21.0701C5.63 21.8701 6.64999 22.1201 7.17999 21.4901L10.17 18.0501C10.41 17.7701 10.28 17.3301 9.91999 17.2401C8.14999 16.8101 6.55999 15.8201 5.38999 14.4101C5.19999 14.1801 4.86 14.1501 4.65 14.3601L2.42999 16.5801C1.66999 17.3401 1.93999 18.2901 2.69999 18.4701Z" fill="#292D32"/>
<path d="M12 2C8.13 2 5 5.13 5 9C5 10.45 5.43 11.78 6.17 12.89C7.25 14.49 8.96 15.62 10.95 15.91C11.29 15.97 11.64 16 12 16C12.36 16 12.71 15.97 13.05 15.91C15.04 15.62 16.75 14.49 17.83 12.89C18.57 11.78 19 10.45 19 9C19 5.13 15.87 2 12 2ZM15.06 8.78L14.23 9.61C14.09 9.75 14.01 10.02 14.06 10.22L14.3 11.25C14.49 12.06 14.06 12.38 13.34 11.95L12.34 11.36C12.16 11.25 11.86 11.25 11.68 11.36L10.68 11.95C9.96 12.37 9.53 12.06 9.72 11.25L9.96 10.22C10 10.03 9.93 9.75 9.79 9.61L8.94 8.78C8.45 8.29 8.61 7.8 9.29 7.69L10.36 7.51C10.54 7.48 10.75 7.32 10.83 7.16L11.42 5.98C11.74 5.34 12.26 5.34 12.58 5.98L13.17 7.16C13.25 7.32 13.46 7.48 13.65 7.51L14.72 7.69C15.39 7.8 15.55 8.29 15.06 8.78Z" fill="#292D32"/>
</svg>
