<svg width="24" height="24" viewBox="0 0 24 24" fill="none" xmlns="http://www.w3.org/2000/svg">
<path d="M17 2.43018H7C4 2.43018 2 4.43018 2 7.43018V13.4302C2 16.4302 4 18.4302 7 18.4302H11L15.45 21.3902C16.11 21.8302 17 21.3602 17 20.5602V18.4302C20 18.4302 22 16.4302 22 13.4302V7.43018C22 4.43018 20 2.43018 17 2.43018ZM15.5 11.2502H8.5C8.09 11.2502 7.75 10.9102 7.75 10.5002C7.75 10.0902 8.09 9.75018 8.5 9.75018H15.5C15.91 9.75018 16.25 10.0902 16.25 10.5002C16.25 10.9102 15.91 11.2502 15.5 11.2502Z" fill="#292D32"/>
</svg>
