<svg width="24" height="24" viewBox="0 0 24 24" fill="none" xmlns="http://www.w3.org/2000/svg">
<path d="M16 1.97021H8C4 1.97021 2 3.97021 2 7.97021V12.9702C2 17.9702 4 18.9702 8 18.9702H8.5C8.78 18.9702 9.14 19.1502 9.3 19.3702L10.8 21.3702C11.46 22.2502 12.54 22.2502 13.2 21.3702L14.7 19.3702C14.89 19.1202 15.19 18.9702 15.5 18.9702H16C20 18.9702 22 16.9702 22 12.9702V7.97021C22 3.97021 20 1.97021 16 1.97021ZM8.53 12.1702C8.82 12.4602 8.82 12.9402 8.53 13.2302C8.38 13.3802 8.19 13.4502 8 13.4502C7.81 13.4502 7.62 13.3802 7.47 13.2302L5.47 11.2302C5.18 10.9402 5.18 10.4602 5.47 10.1702L7.47 8.17021C7.76 7.88021 8.24 7.88021 8.53 8.17021C8.82 8.46021 8.82 8.94021 8.53 9.23021L7.06 10.7002L8.53 12.1702ZM13.69 8.66021L11.69 13.3302C11.57 13.6102 11.29 13.7802 11 13.7802C10.9 13.7802 10.8 13.7602 10.7 13.7202C10.32 13.5602 10.14 13.1202 10.31 12.7302L12.31 8.06021C12.47 7.68021 12.91 7.50021 13.3 7.67021C13.68 7.84021 13.85 8.28021 13.69 8.66021ZM18.53 11.2302L16.53 13.2302C16.38 13.3802 16.19 13.4502 16 13.4502C15.81 13.4502 15.62 13.3802 15.47 13.2302C15.18 12.9402 15.18 12.4602 15.47 12.1702L16.94 10.7002L15.47 9.23021C15.18 8.94021 15.18 8.46021 15.47 8.17021C15.76 7.88021 16.24 7.88021 16.53 8.17021L18.53 10.1702C18.82 10.4602 18.82 10.9402 18.53 11.2302Z" fill="#292D32"/>
</svg>
