<svg width="24" height="24" viewBox="0 0 24 24" fill="none" xmlns="http://www.w3.org/2000/svg">
<path d="M17 2.42993H7C4 2.42993 2 4.42993 2 7.42993V13.4299C2 16.4299 4 18.4299 7 18.4299V20.5599C7 21.3599 7.89 21.8399 8.55 21.3899L13 18.4299H17C20 18.4299 22 16.4299 22 13.4299V7.42993C22 4.42993 20 2.42993 17 2.42993ZM12 14.5999C11.58 14.5999 11.25 14.2599 11.25 13.8499C11.25 13.4399 11.58 13.0999 12 13.0999C12.42 13.0999 12.75 13.4399 12.75 13.8499C12.75 14.2599 12.42 14.5999 12 14.5999ZM13.26 10.4499C12.87 10.7099 12.75 10.8799 12.75 11.1599V11.3699C12.75 11.7799 12.41 12.1199 12 12.1199C11.59 12.1199 11.25 11.7799 11.25 11.3699V11.1599C11.25 9.99993 12.1 9.42993 12.42 9.20993C12.79 8.95993 12.91 8.78993 12.91 8.52993C12.91 8.02993 12.5 7.61993 12 7.61993C11.5 7.61993 11.09 8.02993 11.09 8.52993C11.09 8.93993 10.75 9.27993 10.34 9.27993C9.93 9.27993 9.59 8.93993 9.59 8.52993C9.59 7.19993 10.67 6.11993 12 6.11993C13.33 6.11993 14.41 7.19993 14.41 8.52993C14.41 9.66993 13.57 10.2399 13.26 10.4499Z" fill="#292D32"/>
</svg>
