<svg width="24" height="24" viewBox="0 0 24 24" fill="none" xmlns="http://www.w3.org/2000/svg">
<path d="M12 16.25C9.38 16.25 7.25 14.12 7.25 11.5V6C7.25 3.38 9.38 1.25 12 1.25C14.62 1.25 16.75 3.38 16.75 6V11.5C16.75 14.12 14.62 16.25 12 16.25ZM12 2.75C10.21 2.75 8.75 4.21 8.75 6V11.5C8.75 13.29 10.21 14.75 12 14.75C13.79 14.75 15.25 13.29 15.25 11.5V6C15.25 4.21 13.79 2.75 12 2.75Z" fill="#292D32"/>
<path d="M12.0001 19.7499C7.3701 19.7499 3.6001 15.9799 3.6001 11.3499V9.6499C3.6001 9.2399 3.9401 8.8999 4.3501 8.8999C4.7601 8.8999 5.1001 9.2399 5.1001 9.6499V11.3499C5.1001 15.1499 8.2001 18.2499 12.0001 18.2499C15.8001 18.2499 18.9001 15.1499 18.9001 11.3499V9.6499C18.9001 9.2399 19.2401 8.8999 19.6501 8.8999C20.0601 8.8999 20.4001 9.2399 20.4001 9.6499V11.3499C20.4001 15.9799 16.6301 19.7499 12.0001 19.7499Z" fill="#292D32"/>
<path d="M13.3901 7.17982C13.3101 7.17982 13.2201 7.16982 13.1301 7.13982C12.4001 6.86982 11.6001 6.86982 10.8701 7.13982C10.4801 7.27982 10.0501 7.07982 9.91012 6.68982C9.77012 6.29982 9.97012 5.86982 10.3601 5.72982C11.4201 5.34982 12.5901 5.34982 13.6501 5.72982C14.0401 5.86982 14.2401 6.29982 14.1001 6.68982C13.9801 6.98982 13.6901 7.17982 13.3901 7.17982Z" fill="#292D32"/>
<path d="M12.8001 9.29982C12.7301 9.29982 12.6701 9.28982 12.6001 9.26982C12.2001 9.15982 11.7901 9.15982 11.3901 9.26982C10.9901 9.37982 10.5801 9.13982 10.4701 8.73982C10.3601 8.34982 10.6001 7.93982 11.0001 7.82982C11.6501 7.64982 12.3501 7.64982 13.0001 7.82982C13.4001 7.93982 13.6401 8.34982 13.5301 8.74982C13.4401 9.07982 13.1301 9.29982 12.8001 9.29982Z" fill="#292D32"/>
<path d="M12 22.75C11.59 22.75 11.25 22.41 11.25 22V19C11.25 18.59 11.59 18.25 12 18.25C12.41 18.25 12.75 18.59 12.75 19V22C12.75 22.41 12.41 22.75 12 22.75Z" fill="#292D32"/>
</svg>
