<svg width="24" height="24" viewBox="0 0 24 24" fill="none" xmlns="http://www.w3.org/2000/svg">
<path d="M14.84 10.9001L20.5 7.11008C21.07 6.73008 21.22 5.95008 20.84 5.39008L19.02 2.68008C18.64 2.11008 17.86 1.96008 17.3 2.34008L11.64 6.13008L14.84 10.9001Z" fill="#292D32"/>
<path d="M14.52 10.4201L12.76 11.6001L10.09 13.3901L9.73999 13.6201L9.57999 13.3801L7.33999 10.0401L7.17999 9.8001L11.96 6.6001L14.52 10.4201Z" fill="#292D32"/>
<path d="M5.64001 16.02L9.59001 13.38L7.35001 10.04L3.40001 12.68C2.94001 12.99 2.82001 13.61 3.13001 14.07L4.26001 15.75C4.56001 16.21 5.18001 16.33 5.64001 16.02Z" fill="#292D32"/>
<path d="M16.56 21.8101C16.46 21.8501 16.35 21.8801 16.25 21.8801C15.96 21.8801 15.69 21.7101 15.56 21.4301L11.83 13.1901L8.04999 21.4401C7.91999 21.7101 7.64999 21.8801 7.35999 21.8801C7.25999 21.8801 7.14999 21.8501 7.04999 21.8101C6.67999 21.6301 6.50999 21.1901 6.67999 20.8101L10.09 13.3901L12.76 11.6001L16.93 20.8201C17.1 21.1901 16.93 21.6401 16.56 21.8101Z" fill="#292D32"/>
</svg>
