<svg id="Layer_1" data-name="Layer 1" xmlns="http://www.w3.org/2000/svg" xmlns:xlink="http://www.w3.org/1999/xlink" viewBox="0 0 502.5 490.82"><defs><style>.cls-1{fill:#881421;}.cls-2{fill:#af2031;}.cls-3{fill:#c94f60;}.cls-4{fill:#e08095;}.cls-5{opacity:0.1;}.cls-5,.cls-6{isolation:isolate;}.cls-6{opacity:0.2;}.cls-7{fill:url(#linear-gradient);}.cls-8{fill:#fff;}</style><linearGradient id="linear-gradient" x1="44.66" y1="-1337" x2="212.43" y2="-1046.43" gradientTransform="translate(0 1437.12)" gradientUnits="userSpaceOnUse"><stop offset="0" stop-color="#b72c3f"/><stop offset="0.5" stop-color="#b12334"/><stop offset="1" stop-color="#9d1623"/></linearGradient></defs><title>microsoft-access</title><path class="cls-1" d="M116.86,315.53V432.39c0,32.26,86.33,58.43,192.82,58.43S502.5,464.65,502.5,432.39V315.53Z"/><path class="cls-2" d="M116.86,187V315.53c0,32.26,86.33,58.43,192.82,58.43S502.5,347.79,502.5,315.53V187Z"/><path class="cls-3" d="M116.86,58.43V187c0,32.26,86.33,58.43,192.82,58.43S502.5,219.24,502.5,187V58.43Z"/><ellipse class="cls-4" cx="309.68" cy="58.43" rx="192.82" ry="58.43"/><path class="cls-5" d="M259.05,105.18H116.86V397.33H259.05a21.5,21.5,0,0,0,21.42-21.42V126.6A21.48,21.48,0,0,0,259.05,105.18Z"/><path class="cls-6" d="M247.36,116.86H116.86V409h130.5a21.48,21.48,0,0,0,21.42-21.42V138.28A21.5,21.5,0,0,0,247.36,116.86Z"/><path class="cls-6" d="M247.36,116.86H116.86V385.64h130.5a21.49,21.49,0,0,0,21.42-21.42V138.28A21.5,21.5,0,0,0,247.36,116.86Z"/><path class="cls-6" d="M235.67,116.86H116.86V385.64H235.67a21.48,21.48,0,0,0,21.42-21.42V138.28A21.48,21.48,0,0,0,235.67,116.86Z"/><path class="cls-7" d="M21.42,116.86H235.67a21.42,21.42,0,0,1,21.42,21.42V352.54A21.42,21.42,0,0,1,235.67,374H21.42A21.42,21.42,0,0,1,0,352.54V138.28A21.42,21.42,0,0,1,21.42,116.86Z"/><path class="cls-8" d="M113.16,175.77h31.55L195.4,315H165.6l-11.17-33.21H102.28L91.3,315H61.69Zm34.56,84.6L131.52,210a65.57,65.57,0,0,1-3-11.37H128a63.66,63.66,0,0,1-2.91,11.69l-16.36,50.11Z"/></svg>