<svg width="24" height="24" viewBox="0 0 24 24" fill="none" xmlns="http://www.w3.org/2000/svg">
<path d="M8 11.75C7.59 11.75 7.25 11.41 7.25 11V6C7.25 3.38 9.38 1.25 12 1.25C14.62 1.25 16.75 3.38 16.75 6V6.3C16.75 6.71 16.41 7.05 16 7.05C15.59 7.05 15.25 6.71 15.25 6.3V6C15.25 4.21 13.79 2.75 12 2.75C10.21 2.75 8.75 4.21 8.75 6V11C8.75 11.41 8.41 11.75 8 11.75Z" fill="#292D32"/>
<path d="M11.9999 16.25C10.6599 16.25 9.37991 15.68 8.47991 14.69C8.19991 14.38 8.22991 13.91 8.52991 13.63C8.83991 13.35 9.30991 13.38 9.58991 13.68C10.1999 14.36 11.0799 14.75 11.9999 14.75C13.7899 14.75 15.2499 13.29 15.2499 11.5V11C15.2499 10.59 15.5899 10.25 15.9999 10.25C16.4099 10.25 16.7499 10.59 16.7499 11V11.5C16.7499 14.12 14.6199 16.25 11.9999 16.25Z" fill="#292D32"/>
<path d="M12.0001 19.7499C9.87006 19.7499 7.83006 18.9499 6.27006 17.4999C5.97006 17.2199 5.95006 16.7399 6.23006 16.4399C6.52006 16.1299 7.00006 16.1199 7.30006 16.3999C8.58006 17.5899 10.2501 18.2499 12.0001 18.2499C15.8001 18.2499 18.9001 15.1499 18.9001 11.3499V9.6499C18.9001 9.2399 19.2401 8.8999 19.6501 8.8999C20.0601 8.8999 20.4001 9.2399 20.4001 9.6499V11.3499C20.4001 15.9799 16.6301 19.7499 12.0001 19.7499Z" fill="#292D32"/>
<path d="M4.9501 15.0799C4.6601 15.0799 4.3801 14.9099 4.2601 14.6199C3.8201 13.5799 3.6001 12.4899 3.6001 11.3499V9.6499C3.6001 9.2399 3.9401 8.8999 4.3501 8.8999C4.7601 8.8999 5.1001 9.2399 5.1001 9.6499V11.3499C5.1001 12.2799 5.2801 13.1799 5.6401 14.0299C5.8001 14.4099 5.6201 14.8499 5.2401 15.0099C5.1501 15.0599 5.0501 15.0799 4.9501 15.0799Z" fill="#292D32"/>
<path d="M3.92011 19.7398C3.73011 19.7398 3.54011 19.6698 3.39011 19.5198C3.10011 19.2298 3.10011 18.7498 3.39011 18.4598L19.5401 2.30979C19.8301 2.01979 20.3101 2.01979 20.6001 2.30979C20.8901 2.59979 20.8901 3.07979 20.6001 3.36979L4.46011 19.5198C4.31011 19.6698 4.12011 19.7398 3.92011 19.7398Z" fill="#292D32"/>
<path d="M11 6.75C10.59 6.75 10.25 6.41 10.25 6V3C10.25 2.59 10.59 2.25 11 2.25C11.41 2.25 11.75 2.59 11.75 3V6C11.75 6.41 11.41 6.75 11 6.75Z" fill="#292D32"/>
<path d="M12 22.75C11.59 22.75 11.25 22.41 11.25 22V19C11.25 18.59 11.59 18.25 12 18.25C12.41 18.25 12.75 18.59 12.75 19V22C12.75 22.41 12.41 22.75 12 22.75Z" fill="#292D32"/>
</svg>
