<svg width="24" height="24" viewBox="0 0 24 24" fill="none" xmlns="http://www.w3.org/2000/svg">
<path opacity="0.4" d="M20.71 17.52C20.34 18.74 19.61 19.68 18.57 20.26C18.53 20.1 18.51 19.93 18.51 19.76C18.51 18.54 19.5 17.54 20.71 17.52Z" fill="#292D32"/>
<path d="M21 7.52V9.48397C21 10.0065 20.586 10.4294 20.08 10.56L17.13 11.38C15.57 11.78 14.53 13.13 14.53 14.74V16.2849C14.53 16.7595 14.1873 17.1556 13.7612 17.3644C12.7457 17.8619 11.9698 18.8714 11.677 20.0107C11.5395 20.5456 11.1023 21 10.55 21H7.52C4.07 21 2 18.94 2 15.48V7.52C2 4.06 4.07 2 7.52 2H15.48C18.93 2 21 4.06 21 7.52Z" fill="#292D32"/>
<path d="M22.31 12.25C22.05 12.06 21.63 11.86 21 11.92C20.84 11.93 20.67 11.96 20.48 12.01L17.5 12.83C16.61 13.06 16.03 13.81 16.03 14.74V18.65C15.8 18.57 15.55 18.52 15.29 18.52C14.05 18.52 13.04 19.52 13.04 20.76C13.04 20.84 13.04 20.92 13.05 21C13.17 22.12 14.13 23 15.29 23C16.51 23 17.5 22.01 17.52 20.8C17.52 20.78 17.53 20.77 17.53 20.76V17.07L20.98 16.12L21.5 15.98V17.66C21.27 17.58 21.02 17.52 20.75 17.52H20.71C19.5 17.54 18.51 18.54 18.51 19.76C18.51 19.93 18.53 20.1 18.57 20.26C18.8 21.26 19.69 22.01 20.75 22.01C21.98 22.01 22.97 21.02 22.99 19.8C22.99 19.79 23 19.78 23 19.76V13.93C23 13.17 22.77 12.61 22.31 12.25ZM15.29 21.5C14.96 21.5 14.68 21.29 14.59 21C14.55 20.93 14.54 20.84 14.54 20.76C14.54 20.35 14.88 20.02 15.29 20.02C15.69 20.02 16.03 20.35 16.03 20.76C16.03 20.84 16.02 20.91 15.99 20.98C15.9 21.28 15.62 21.5 15.29 21.5ZM20.75 20.51C20.35 20.51 20.01 20.17 20.01 19.76C20.01 19.36 20.35 19.02 20.75 19.02C21.16 19.02 21.5 19.36 21.5 19.76C21.5 20.17 21.16 20.51 20.75 20.51Z" fill="#292D32"/>
</svg>
