<svg width="24" height="24" viewBox="0 0 24 24" fill="none" xmlns="http://www.w3.org/2000/svg">
<path d="M11.92 22.75C5.99998 22.75 1.16998 17.93 1.16998 12C1.16998 6.07 5.99998 1.25 11.92 1.25C17.84 1.25 22.67 6.07 22.67 12C22.67 17.93 17.85 22.75 11.92 22.75ZM11.92 2.75C6.81998 2.75 2.66998 6.9 2.66998 12C2.66998 17.1 6.81998 21.25 11.92 21.25C17.02 21.25 21.17 17.1 21.17 12C21.17 6.9 17.02 2.75 11.92 2.75Z" fill="#292D32"/>
<path d="M15.92 12.75H7.91998C7.50998 12.75 7.16998 12.41 7.16998 12C7.16998 11.59 7.50998 11.25 7.91998 11.25H15.92C16.33 11.25 16.67 11.59 16.67 12C16.67 12.41 16.34 12.75 15.92 12.75Z" fill="#292D32"/>
</svg>
