<svg width="24" height="24" viewBox="0 0 24 24" fill="none" xmlns="http://www.w3.org/2000/svg">
<path d="M18 13C15.24 13 13 15.24 13 18C13 20.76 15.24 23 18 23C20.76 23 23 20.76 23 18C23 15.24 20.76 13 18 13ZM17.16 19.27C17.41 19.52 17.41 19.93 17.16 20.19C17.03 20.32 16.87 20.38 16.7 20.38C16.53 20.38 16.37 20.32 16.24 20.19L14.51 18.46C14.26 18.21 14.26 17.8 14.51 17.54L16.24 15.81C16.49 15.56 16.9 15.56 17.16 15.81C17.41 16.06 17.41 16.47 17.16 16.73L15.89 18L17.16 19.27ZM21.48 18.46L19.75 20.19C19.62 20.32 19.46 20.38 19.29 20.38C19.12 20.38 18.96 20.32 18.83 20.19C18.58 19.94 18.58 19.53 18.83 19.27L20.11 18L18.84 16.73C18.59 16.48 18.59 16.07 18.84 15.81C19.09 15.56 19.5 15.56 19.76 15.81L21.49 17.54C21.73 17.8 21.73 18.2 21.48 18.46Z" fill="#292D32"/>
<path d="M21 6.9998V11.4698C21 11.8198 20.66 12.0598 20.34 11.9398C19.23 11.5098 17.99 11.3698 16.69 11.6298C14.09 12.1498 12.02 14.2798 11.59 16.8998C11.33 18.4998 11.65 20.0098 12.38 21.2398C12.58 21.5798 12.34 21.9998 11.95 21.9998H8C4.5 21.9998 3 19.9998 3 16.9998V6.9998C3 4.3398 4.18 2.4698 6.89 2.0798C7.18 2.0398 7.44 2.2698 7.45 2.5698L7.48 3.5798C7.51 5.1798 8.86 6.4998 10.48 6.4998H13.5C15.15 6.4998 16.5 5.1498 16.5 3.4998V2.5698C16.5 2.2698 16.76 2.0298 17.05 2.0698C19.8 2.4398 21 4.3198 21 6.9998Z" fill="#292D32"/>
<path d="M15 3V3.5C15 4.32 14.32 5 13.5 5H10.47C9.65999 5 8.98999 4.35 8.96999 3.54L8.95999 3.03C8.93999 2.46 9.38999 2 9.95999 2H14C14.55 2 15 2.45 15 3Z" fill="#292D32"/>
</svg>
