<svg xmlns="http://www.w3.org/2000/svg" shape-rendering="geometricPrecision" text-rendering="geometricPrecision" image-rendering="optimizeQuality" fill-rule="evenodd" clip-rule="evenodd" viewBox="0 0 377 511.84"><path d="M55.31 0c7.45 0 14.6 1.5 21.13 4.2 6.81 2.82 12.9 6.93 17.98 12l.3.33a55.507 55.507 0 0 1 11.7 17.65c2.7 6.54 4.2 13.68 4.2 21.13 0 7.45-1.5 14.6-4.2 21.13a55.532 55.532 0 0 1-12 17.98 55.532 55.532 0 0 1-17.98 12c-6.53 2.7-13.68 4.2-21.13 4.2-7.45 0-14.6-1.5-21.13-4.2-6.8-2.82-12.9-6.93-17.98-12a55.532 55.532 0 0 1-12-17.98C1.5 69.91 0 62.76 0 55.31c0-7.45 1.5-14.59 4.2-21.13 2.82-6.8 6.93-12.9 12-17.98a55.639 55.639 0 0 1 17.98-12C40.71 1.5 47.86 0 55.31 0zm269.61 77.02c-3.07 0-6.03-.13-8.9-.4s-5.53-.65-7.98-1.15v-8.95h12.51c1.5 0 2.65-.08 3.48-.23.82-.16 1.38-.41 1.69-.75.31-.34.46-.82.46-1.43v-1.1c0-.68-.17-1.24-.52-1.66-.34-.42-.84-.74-1.49-.95-.65-.21-1.46-.33-2.41-.37l-10.22-.46v-8.61l9.7-.63c1.53-.12 2.66-.35 3.39-.69.72-.34 1.09-.96 1.09-1.84v-.51c0-1.11-.38-1.9-1.15-2.36-.76-.46-2.18-.69-4.25-.69h-11.71v-8.95c2.49-.42 5.11-.82 7.87-1.18 2.75-.36 5.55-.51 8.38-.43 2.45.04 4.56.45 6.34 1.23 1.78.79 3.15 1.98 4.1 3.56.96 1.59 1.44 3.61 1.44 6.06v2.87c0 .96-.09 1.84-.26 2.67-.17.82-.45 1.57-.83 2.24-.38.67-.88 1.25-1.49 1.75s-1.36.9-2.24 1.2c.92.27 1.71.7 2.38 1.3a7.93 7.93 0 0 1 1.67 2.09c.44.81.77 1.71 1 2.73.23 1.01.34 2.09.34 3.24v1.67c0 3.48-1.09 6.14-3.3 7.98-2.2 1.83-5.23 2.75-9.09 2.75zM185.04 478.2c-2.6 0-4.77-.46-6.51-1.37-1.75-.92-3.04-2.25-3.88-4-.84-1.74-1.26-3.81-1.26-6.22v-19.58c0-2.64.45-4.86 1.35-6.66.89-1.8 2.22-3.17 3.98-4.1 1.77-.94 3.89-1.41 6.38-1.41h9.3c2.41 0 4.45.47 6.11 1.41 1.67.93 2.93 2.3 3.79 4.1.86 1.8 1.29 4.02 1.29 6.66v19.58c0 3.59-.96 6.43-2.9 8.49-1.93 2.07-4.71 3.1-8.35 3.1h-9.3zm2.76-9.99h3.44c1.03 0 1.83-.25 2.38-.77.56-.52.84-1.37.84-2.55v-16.71c0-1.34-.27-2.23-.81-2.67-.53-.44-1.18-.66-1.95-.66h-4.31c-.99 0-1.72.27-2.18.8-.46.54-.69 1.38-.69 2.53v16.65c0 1.22.27 2.09.81 2.61.53.52 1.36.77 2.47.77zM45.91 343.89l11.14-31.52H41.14v-11.14h27.62l2.7 4.48-13.15 38.18h-12.4zm275.16.34c-2.03 0-3.98-.1-5.86-.29a38.52 38.52 0 0 1-5.16-.86v-8.84h9.7c2.6 0 4.41-.65 5.42-1.95 1.02-1.3 1.53-3.14 1.53-5.51-.69.3-1.4.55-2.13.74-.73.2-1.57.32-2.52.38-.96.05-2.15.08-3.56.08-2.99 0-5.27-.46-6.83-1.37-1.58-.92-2.65-2.17-3.25-3.74-.59-1.57-.89-3.31-.89-5.22v-6.2c0-2.49.45-4.51 1.35-6.06.9-1.55 2.17-2.69 3.82-3.41 1.64-.73 3.58-1.09 5.8-1.09h5.91c2.26 0 4.23.31 5.91.94 1.69.64 3.08 1.72 4.19 3.25 1.11 1.53 1.94 3.64 2.5 6.34.55 2.7.83 6.09.83 10.19 0 4.4-.37 8.07-1.12 11-.74 2.92-1.84 5.24-3.3 6.94-1.45 1.7-3.21 2.91-5.28 3.62-2.07.71-4.42 1.06-7.06 1.06zm.69-25.66h4.94c0-1.53-.08-2.8-.23-3.79-.16-1-.41-1.78-.78-2.35-.36-.58-.83-.98-1.4-1.21-.58-.23-1.31-.34-2.19-.34h-.97c-.61 0-1.1.11-1.47.34-.36.23-.62.56-.77.98-.16.42-.23.95-.23 1.6v1.61c0 .8.08 1.44.26 1.9.17.46.49.78.94.97.46.19 1.09.29 1.9.29zm-135.77 25.66c-1.46 0-2.89-.13-4.31-.37-1.41-.25-2.69-.72-3.82-1.41-1.12-.69-2.02-1.67-2.69-2.95-.67-1.29-1.01-2.98-1.01-5.09v-5.68c0-.92.14-1.84.4-2.75.27-.93.71-1.75 1.33-2.48.61-.72 1.45-1.2 2.52-1.43-1.15-.61-1.96-1.3-2.44-2.07-.48-.76-.76-1.6-.83-2.52-.08-.92-.12-1.88-.12-2.87v-4.82c0-2.19.49-3.93 1.47-5.23.97-1.3 2.25-2.24 3.84-2.81 1.59-.58 3.28-.86 5.08-.86h8.16c1.83 0 3.54.28 5.1.86 1.57.57 2.85 1.51 3.82 2.81.98 1.3 1.47 3.04 1.47 5.23v4.82c0 .38-.04.92-.12 1.6-.07.69-.23 1.41-.46 2.16-.23.74-.57 1.38-1.03 1.92-.46.54-1.07.86-1.84.98 1.34.3 2.31.93 2.9 1.86.6.94.98 1.92 1.15 2.96.17 1.03.26 1.91.26 2.64v5.68c0 2.8-.52 4.89-1.55 6.29-1.03 1.4-2.39 2.33-4.08 2.81-1.68.48-3.5.72-5.45.72h-7.75zm2.01-9.42h2.98c1.27 0 2.03-.23 2.3-.71s.4-1.12.4-1.93v-2.69c0-.77-.22-1.41-.66-1.93-.44-.51-1.08-.77-1.92-.77H188c-.46 0-.86.07-1.21.2-.34.13-.62.32-.83.57-.21.25-.37.54-.49.86-.11.33-.17.68-.17 1.07v2.69c0 1 .2 1.69.6 2.07.41.38 1.1.57 2.1.57zm0-17.45h2.98c.69 0 1.18-.1 1.47-.31.28-.21.46-.55.54-1.01.08-.46.12-1.03.12-1.72v-1.78c0-1.11-.22-1.76-.66-1.95-.44-.19-.93-.29-1.47-.29H188c-.69 0-1.22.11-1.58.32-.37.21-.55.85-.55 1.92v1.78c0 1.38.17 2.23.49 2.55.33.33.87.49 1.64.49zM58.85 210.26v-7.86H41.11l-1.95-5 12.35-29.79h11.36l-10.45 25.37h6.43v-6.31l2.13-5.51h9.01v11.82h3.45v7.69l-3.45 1.73v7.86H58.85zm262.11.34c-2.26 0-4.24-.31-5.92-.94-1.68-.64-3.08-1.72-4.19-3.25-1.11-1.53-1.94-3.64-2.5-6.34-.55-2.7-.83-6.09-.83-10.19 0-4.4.38-8.07 1.12-11 .75-2.92 1.85-5.24 3.3-6.94 1.46-1.7 3.22-2.91 5.28-3.62 2.07-.71 4.42-1.06 7.07-1.06 2.02 0 3.98.09 5.88.26 1.89.17 3.61.47 5.14.89v8.84h-9.71c-2.6 0-4.41.65-5.42 1.95-1.01 1.3-1.52 3.14-1.52 5.51.73-.34 1.44-.6 2.15-.77.71-.18 1.54-.29 2.5-.35.96-.05 2.14-.08 3.56-.08 2.98 0 5.27.46 6.86 1.37 1.59.92 2.67 2.17 3.24 3.74.57 1.56.86 3.31.86 5.22v6.2c0 2.49-.45 4.51-1.35 6.06a8.023 8.023 0 0 1-3.82 3.41c-1.64.73-3.57 1.09-5.79 1.09h-5.91zm2.29-9.99h.98c.65 0 1.14-.11 1.49-.34.34-.23.59-.56.75-1 .15-.45.23-.97.23-1.58v-1.61c0-.84-.09-1.48-.26-1.92-.18-.44-.48-.76-.92-.95-.44-.19-1.08-.29-1.92-.29h-4.94c0 1.53.07 2.8.23 3.79.15.99.41 1.78.77 2.35.37.58.84.98 1.44 1.21.59.23 1.31.34 2.15.34zm-133.96 9.82c-2.14 0-4.51-.12-7.09-.37s-5.1-.51-7.55-.78v-8.84h15.16c1.18 0 2.01-.2 2.46-.6.47-.4.73-.88.81-1.43.07-.56.11-1.03.11-1.41v-1.78c0-.96-.18-1.7-.54-2.24-.37-.54-1.06-.8-2.1-.8h-2.52c-.92 0-1.58.17-1.98.51-.41.35-.65.84-.72 1.49h-10.57l1.21-26.75h26.58v9.99H185.5l-.29 6.49c.65-.5 1.44-.81 2.36-.95.92-.13 1.83-.2 2.75-.2h4.36c2.23 0 4.04.46 5.46 1.38 1.42.92 2.47 2.16 3.16 3.73.69 1.57 1.03 3.33 1.03 5.28v6.26c0 2.6-.54 4.72-1.64 6.34-1.09 1.63-2.74 2.82-4.96 3.56-2.22.75-5.03 1.12-8.44 1.12zM54.12 76.81V44.37h-6.78v-7.12l8.04-3.44h9.88v43H54.12zm120.62 0v-8.84L188 54.42c.84-.84 1.55-1.63 2.12-2.35.57-.73 1.02-1.44 1.35-2.13.33-.69.49-1.39.49-2.12 0-.8-.16-1.46-.46-1.98-.31-.52-.78-.89-1.41-1.12-.63-.23-1.44-.35-2.44-.35h-12.23v-8.84c1.88-.42 3.98-.81 6.29-1.17 2.32-.37 5-.55 8.07-.55 3.36 0 6.01.46 7.95 1.38 1.93.92 3.31 2.28 4.13 4.07.82 1.8 1.24 4 1.24 6.61 0 1.87-.25 3.57-.75 5.11-.5 1.53-1.22 2.96-2.15 4.3-.94 1.34-2.08 2.68-3.42 4.02l-7.35 7.52h14.81v9.99h-29.5zM372.8 167.8c2.7 6.53 4.2 13.68 4.2 21.13 0 7.46-1.5 14.6-4.2 21.13a55.425 55.425 0 0 1-12 17.98 55.32 55.32 0 0 1-17.98 12 55.085 55.085 0 0 1-21.13 4.2c-7.45 0-14.6-1.49-21.13-4.2a55.32 55.32 0 0 1-17.98-12 55.425 55.425 0 0 1-12-17.98c-2.7-6.53-4.2-13.67-4.2-21.13 0-7.45 1.5-14.6 4.2-21.13 2.82-6.8 6.93-12.9 12-17.98a55.346 55.346 0 0 1 17.98-11.99 55.054 55.054 0 0 1 21.13-4.21c7.45 0 14.6 1.5 21.13 4.21a55.24 55.24 0 0 1 17.98 11.99 55.639 55.639 0 0 1 12 17.98zm-72.24 103.65c6.53-2.71 13.68-4.2 21.13-4.2 7.45 0 14.6 1.49 21.13 4.2 6.8 2.81 12.89 6.91 17.98 12a55.425 55.425 0 0 1 12 17.98c2.7 6.53 4.2 13.67 4.2 21.13 0 7.45-1.5 14.6-4.2 21.13-2.82 6.8-6.93 12.9-12 17.98a55.639 55.639 0 0 1-17.98 12c-6.54 2.7-13.68 4.2-21.13 4.2-7.45 0-14.6-1.5-21.13-4.2-6.8-2.82-12.9-6.93-17.98-12a55.639 55.639 0 0 1-12-17.98c-2.7-6.53-4.2-13.68-4.2-21.13 0-7.46 1.5-14.6 4.2-21.13a55.425 55.425 0 0 1 12-17.98 55.372 55.372 0 0 1 17.98-12zM188.5 401.22c7.45 0 14.6 1.5 21.13 4.2a55.32 55.32 0 0 1 17.98 12l.3.33a55.507 55.507 0 0 1 11.7 17.65c2.7 6.53 4.2 13.68 4.2 21.13 0 7.46-1.5 14.6-4.2 21.13-2.82 6.8-6.93 12.9-12 17.98a55.618 55.618 0 0 1-17.95 12l-.31.11a55.235 55.235 0 0 1-41.98-.11c-6.8-2.82-12.9-6.93-17.98-12a55.639 55.639 0 0 1-12-17.98c-2.7-6.54-4.2-13.68-4.2-21.13 0-7.45 1.5-14.6 4.2-21.13 2.82-6.8 6.93-12.91 12-17.98a55.639 55.639 0 0 1 17.98-12c6.53-2.7 13.68-4.2 21.13-4.2zM377 55.31c0 7.45-1.5 14.6-4.2 21.13a55.532 55.532 0 0 1-12 17.98 55.639 55.639 0 0 1-17.98 12c-6.54 2.7-13.68 4.2-21.13 4.2-7.45 0-14.6-1.5-21.13-4.2-6.8-2.82-12.9-6.93-17.98-12a55.532 55.532 0 0 1-12-17.98c-2.7-6.53-4.2-13.68-4.2-21.13 0-7.45 1.5-14.59 4.2-21.13 2.82-6.8 6.93-12.9 12-17.98a55.639 55.639 0 0 1 17.98-12c6.53-2.7 13.68-4.2 21.13-4.2 7.45 0 14.59 1.5 21.13 4.2 6.8 2.82 12.9 6.93 17.98 12C370.81 26.21 377 40.04 377 55.31zM188.5 267.25c7.45 0 14.6 1.49 21.13 4.2 6.8 2.81 12.89 6.91 17.98 12l.3.32a55.55 55.55 0 0 1 11.7 17.66c2.7 6.53 4.2 13.67 4.2 21.13 0 7.45-1.5 14.6-4.2 21.13-2.82 6.8-6.93 12.9-12 17.98a55.639 55.639 0 0 1-17.98 12c-6.53 2.7-13.68 4.2-21.13 4.2-7.45 0-14.6-1.5-21.13-4.2-6.8-2.82-12.9-6.93-17.98-12a55.639 55.639 0 0 1-12-17.98c-2.7-6.53-4.2-13.68-4.2-21.13 0-7.46 1.5-14.6 4.2-21.13a55.425 55.425 0 0 1 12-17.98 55.479 55.479 0 0 1 17.98-12c6.53-2.71 13.68-4.2 21.13-4.2zm0-133.63c7.45 0 14.6 1.5 21.13 4.21a55.24 55.24 0 0 1 17.98 11.99l.3.33a55.507 55.507 0 0 1 11.7 17.65c2.7 6.54 4.2 13.68 4.2 21.13 0 7.46-1.5 14.6-4.2 21.13a55.425 55.425 0 0 1-12 17.98 55.32 55.32 0 0 1-17.98 12 55.047 55.047 0 0 1-21.13 4.2c-7.45 0-14.6-1.49-21.13-4.2a55.32 55.32 0 0 1-17.98-12 55.425 55.425 0 0 1-12-17.98c-2.7-6.53-4.2-13.67-4.2-21.13 0-7.45 1.5-14.6 4.2-21.13 2.82-6.8 6.93-12.9 12-17.98a55.452 55.452 0 0 1 17.98-11.99 55.054 55.054 0 0 1 21.13-4.21zM55.31 267.25c7.45 0 14.6 1.49 21.13 4.2 6.8 2.81 12.89 6.91 17.98 12l.3.32a55.55 55.55 0 0 1 11.7 17.66c2.7 6.53 4.2 13.67 4.2 21.13 0 7.45-1.5 14.6-4.2 21.13-2.82 6.8-6.93 12.9-12 17.98a55.532 55.532 0 0 1-17.98 12c-6.53 2.7-13.68 4.2-21.13 4.2-7.45 0-14.6-1.5-21.13-4.2-6.8-2.82-12.9-6.93-17.98-12a55.639 55.639 0 0 1-12-17.98C1.5 337.16 0 330.01 0 322.56c0-7.46 1.5-14.6 4.2-21.13a55.425 55.425 0 0 1 12-17.98 55.479 55.479 0 0 1 17.98-12c6.54-2.71 13.68-4.2 21.13-4.2zM188.5 0c7.45 0 14.6 1.5 21.13 4.2 6.8 2.82 12.9 6.93 17.98 12l.3.33a55.507 55.507 0 0 1 11.7 17.65c2.7 6.54 4.2 13.68 4.2 21.13 0 7.45-1.5 14.6-4.2 21.13a55.532 55.532 0 0 1-12 17.98 55.639 55.639 0 0 1-17.98 12c-6.53 2.7-13.68 4.2-21.13 4.2-7.45 0-14.6-1.5-21.13-4.2-6.8-2.82-12.9-6.93-17.98-12a55.532 55.532 0 0 1-12-17.98c-2.7-6.53-4.2-13.68-4.2-21.13 0-15.25 6.2-29.08 16.21-39.1C159.4 6.19 173.23 0 188.5 0zM55.31 133.62c7.45 0 14.6 1.5 21.13 4.21a55.24 55.24 0 0 1 17.98 11.99l.3.33a55.507 55.507 0 0 1 11.7 17.65c2.7 6.54 4.2 13.68 4.2 21.13 0 7.46-1.5 14.6-4.2 21.13a55.425 55.425 0 0 1-12 17.98 55.214 55.214 0 0 1-17.98 12 55.047 55.047 0 0 1-21.13 4.2c-7.45 0-14.6-1.49-21.13-4.2a55.32 55.32 0 0 1-17.98-12 55.425 55.425 0 0 1-12-17.98C1.5 203.53 0 196.39 0 188.93c0-7.45 1.5-14.6 4.2-21.13 2.82-6.8 6.93-12.9 12-17.98a55.452 55.452 0 0 1 17.98-11.99 55.092 55.092 0 0 1 21.13-4.21z"/></svg>