<svg width="24" height="24" viewBox="0 0 24 24" fill="none" xmlns="http://www.w3.org/2000/svg">
<path d="M3.17996 15.03C2.82996 15.03 2.57996 15.38 2.70996 15.7C4.17996 19.4 7.78996 22 12 22C16.22 22 19.83 19.38 21.3 15.67C21.43 15.35 21.17 15 20.83 15H17.5C17.22 15 17 14.78 17 14.5V11.76C17 10.84 15.85 10.41 15.25 11.11L12.38 14.54C12.18 14.78 11.81 14.78 11.61 14.54L8.73996 11.11C8.14996 10.41 6.99996 10.84 6.99996 11.76V14.5C6.99996 14.78 6.77996 15 6.49996 15L3.17996 15.03Z" fill="black"/>
<path d="M22 12.1402C22 12.4502 21.98 12.7602 21.94 13.0602C21.91 13.3102 21.69 13.5002 21.43 13.5002H19C18.72 13.5002 18.5 13.2802 18.5 13.0002V11.9002C18.5 10.8902 17.96 9.91021 17.04 9.49021C16.01 9.02021 14.84 9.28022 14.1 10.1502L12.38 12.2002C12.18 12.4402 11.81 12.4402 11.61 12.2002L9.88 10.1302C9.16 9.28021 8 9.02021 6.96 9.49021C6.04 9.91021 5.5 10.8902 5.5 11.9002V12.8802C5.5 13.3002 5.28 13.5202 5 13.5202L2.56 13.5302C2.31 13.5302 2.08 13.3402 2.05 13.0902C2.02 12.7302 2 12.3702 2 12.0002C2 5.95022 7.39 1.14021 13.63 2.13021C18.46 2.89021 22.07 7.24021 22 12.1402Z" fill="black"/>
</svg>
