<svg width="24" height="24" viewBox="0 0 24 24" fill="none" xmlns="http://www.w3.org/2000/svg">
<path d="M19.17 6.64002C18.74 4.47002 17.13 3.52002 14.89 3.52002H6.10996C3.46996 3.52002 1.70996 4.84002 1.70996 7.92002V13.07C1.70996 15.29 2.61996 16.59 4.11996 17.15C4.33996 17.23 4.57996 17.3 4.82996 17.34C5.22996 17.43 5.65996 17.47 6.10996 17.47H14.9C17.54 17.47 19.3 16.15 19.3 13.07V7.92002C19.3 7.45002 19.26 7.03002 19.17 6.64002ZM5.52996 12C5.52996 12.41 5.18996 12.75 4.77996 12.75C4.36996 12.75 4.02996 12.41 4.02996 12V9.00002C4.02996 8.59002 4.36996 8.25002 4.77996 8.25002C5.18996 8.25002 5.52996 8.59002 5.52996 9.00002V12ZM10.5 13.14C9.03996 13.14 7.85996 11.96 7.85996 10.5C7.85996 9.04002 9.03996 7.86002 10.5 7.86002C11.96 7.86002 13.14 9.04002 13.14 10.5C13.14 11.96 11.96 13.14 10.5 13.14ZM16.96 12C16.96 12.41 16.62 12.75 16.21 12.75C15.8 12.75 15.46 12.41 15.46 12V9.00002C15.46 8.59002 15.8 8.25002 16.21 8.25002C16.62 8.25002 16.96 8.59002 16.96 9.00002V12Z" fill="#292D32"/>
<path d="M22.2998 10.9198V16.0698C22.2998 19.1498 20.5398 20.4798 17.8898 20.4798H9.10977C8.35977 20.4798 7.68977 20.3698 7.10977 20.1498C6.63977 19.9798 6.22977 19.7298 5.89977 19.4098C5.71977 19.2398 5.85977 18.9698 6.10977 18.9698H14.8898C18.5898 18.9698 20.7898 16.7698 20.7898 13.0798V7.91979C20.7898 7.67979 21.0598 7.52979 21.2298 7.70979C21.9098 8.42979 22.2998 9.47979 22.2998 10.9198Z" fill="#292D32"/>
</svg>
