<svg width="24" height="24" viewBox="0 0 24 24" fill="none" xmlns="http://www.w3.org/2000/svg">
<path d="M21.5302 15.9301C21.3702 15.6601 20.9202 15.2401 19.8002 15.4401C19.1802 15.5501 18.5502 15.6001 17.9202 15.5701C15.5902 15.4701 13.4802 14.4001 12.0102 12.7501C10.7102 11.3001 9.9102 9.41012 9.9002 7.37012C9.9002 6.23012 10.1202 5.13012 10.5702 4.09012C11.0102 3.08012 10.7002 2.55012 10.4802 2.33012C10.2502 2.10012 9.7102 1.78012 8.6502 2.22012C4.5602 3.94012 2.0302 8.04012 2.3302 12.4301C2.6302 16.5601 5.5302 20.0901 9.3702 21.4201C10.2902 21.7401 11.2602 21.9301 12.2602 21.9701C12.4202 21.9801 12.5802 21.9901 12.7402 21.9901C16.0902 21.9901 19.2302 20.4101 21.2102 17.7201C21.8802 16.7901 21.7002 16.2001 21.5302 15.9301Z" fill="#292D32"/>
</svg>
