<svg width="24" height="24" viewBox="0 0 24 24" fill="none" xmlns="http://www.w3.org/2000/svg">
<path d="M12 10.07C10.4 10.07 9.09003 8.76 9.09003 7.16C9.09003 5.56 10.4 4.25 12 4.25C13.6 4.25 14.91 5.56 14.91 7.16C14.91 8.76 13.6 10.07 12 10.07ZM12 5.75C11.22 5.75 10.59 6.38 10.59 7.16C10.59 7.94 11.22 8.57 12 8.57C12.78 8.57 13.41 7.94 13.41 7.16C13.41 6.38 12.78 5.75 12 5.75Z" fill="#292D32"/>
<path d="M6.79 19.7502C5.19 19.7502 3.88 18.4402 3.88 16.8402C3.88 15.2402 5.19 13.9302 6.79 13.9302C8.39 13.9302 9.7 15.2402 9.7 16.8402C9.7 18.4402 8.39 19.7502 6.79 19.7502ZM6.79 15.4302C6.01 15.4302 5.38 16.0602 5.38 16.8402C5.38 17.6202 6.01 18.2502 6.79 18.2502C7.57 18.2502 8.2 17.6202 8.2 16.8402C8.2 16.0602 7.56 15.4302 6.79 15.4302Z" fill="#292D32"/>
<path d="M17.21 19.7502C15.61 19.7502 14.3 18.4402 14.3 16.8402C14.3 15.2402 15.61 13.9302 17.21 13.9302C18.81 13.9302 20.12 15.2402 20.12 16.8402C20.12 18.4402 18.82 19.7502 17.21 19.7502ZM17.21 15.4302C16.43 15.4302 15.8 16.0602 15.8 16.8402C15.8 17.6202 16.43 18.2502 17.21 18.2502C17.99 18.2502 18.62 17.6202 18.62 16.8402C18.62 16.0602 17.99 15.4302 17.21 15.4302Z" fill="#292D32"/>
</svg>
