<svg width="24" height="24" viewBox="0 0 24 24" fill="none" xmlns="http://www.w3.org/2000/svg">
<path d="M13.2978 2.11565C13.0064 2.06437 12.75 2.29691 12.75 2.59282V5.4536C12.75 5.65196 12.8709 5.82662 13.0359 5.93681C13.5391 6.27299 13.87 6.84695 13.87 7.50004V9.50004C13.87 10.53 13.03 11.38 12 11.38C10.96 11.38 10.12 10.53 10.12 9.50004V7.50004C10.12 6.84676 10.4583 6.27265 10.9639 5.93651C11.1291 5.8267 11.25 5.65196 11.25 5.4536V2.59347C11.25 2.29732 10.9935 2.06468 10.7019 2.1161C9.15243 2.38932 7.76579 3.13425 6.7 4.20004C5.34 5.56004 4.5 7.44004 4.5 9.50004V14.5C4.5 18.63 7.87 22 12 22C16.13 22 19.5 18.63 19.5 14.5V9.50004C19.5 5.80955 16.813 2.73426 13.2978 2.11565Z" fill="#292D32"/>
</svg>
