<svg width="24" height="24" viewBox="0 0 24 24" fill="none" xmlns="http://www.w3.org/2000/svg">
<path d="M22 3.75H2C1.59 3.75 1.25 3.41 1.25 3C1.25 2.59 1.59 2.25 2 2.25H22C22.41 2.25 22.75 2.59 22.75 3C22.75 3.41 22.41 3.75 22 3.75Z" fill="#292D32"/>
<path d="M11 9.75H2C1.59 9.75 1.25 9.41 1.25 9C1.25 8.59 1.59 8.25 2 8.25H11C11.41 8.25 11.75 8.59 11.75 9C11.75 9.41 11.41 9.75 11 9.75Z" fill="#292D32"/>
<path d="M8 15.75H2C1.59 15.75 1.25 15.41 1.25 15C1.25 14.59 1.59 14.25 2 14.25H8C8.41 14.25 8.75 14.59 8.75 15C8.75 15.41 8.41 15.75 8 15.75Z" fill="#292D32"/>
<path d="M6 21.75H2C1.59 21.75 1.25 21.41 1.25 21C1.25 20.59 1.59 20.25 2 20.25H6C6.41 20.25 6.75 20.59 6.75 21C6.75 21.41 6.41 21.75 6 21.75Z" fill="#292D32"/>
<path d="M21.8599 7.68021C21.2699 7.23021 20.4599 7.14021 19.5099 7.40021L15.1599 8.58021C13.9899 8.90021 13.2699 9.85021 13.2699 11.0502V13.6002V17.2802C12.8499 17.0402 12.3599 16.8902 11.8399 16.8902C10.2299 16.8902 8.90991 18.2002 8.90991 19.8202C8.90991 21.4302 10.2199 22.7502 11.8399 22.7502C13.4599 22.7502 14.7699 21.4402 14.7699 19.8202V14.1702L21.2499 12.4002V15.8302C20.8299 15.5902 20.3399 15.4402 19.8199 15.4402C18.2099 15.4402 16.8899 16.7502 16.8899 18.3702C16.8899 19.9802 18.1999 21.3002 19.8199 21.3002C21.4399 21.3002 22.7499 19.9902 22.7499 18.3702V11.4202V9.87021C22.7499 8.86021 22.4499 8.12021 21.8599 7.68021ZM11.8399 21.2502C11.0499 21.2502 10.4099 20.6102 10.4099 19.8202C10.4099 19.0302 11.0499 18.3902 11.8399 18.3902C12.6299 18.3902 13.2699 19.0302 13.2699 19.8202C13.2699 20.6102 12.6299 21.2502 11.8399 21.2502ZM19.8199 19.8002C19.0299 19.8002 18.3899 19.1602 18.3899 18.3702C18.3899 17.5802 19.0299 16.9402 19.8199 16.9402C20.6099 16.9402 21.2499 17.5802 21.2499 18.3702C21.2499 19.1602 20.6099 19.8002 19.8199 19.8002Z" fill="#292D32"/>
</svg>
