<svg width="24" height="24" viewBox="0 0 24 24" fill="none" xmlns="http://www.w3.org/2000/svg">
<path d="M6.27991 22.7498C4.14991 22.7498 2.40991 21.0098 2.40991 18.8798C2.40991 16.7498 4.14991 15.0098 6.27991 15.0098C8.40991 15.0098 10.1499 16.7498 10.1499 18.8798C10.1499 21.0098 8.40991 22.7498 6.27991 22.7498ZM6.27991 16.5098C4.96991 16.5098 3.90991 17.5698 3.90991 18.8798C3.90991 20.1898 4.96991 21.2498 6.27991 21.2498C7.58991 21.2498 8.64991 20.1898 8.64991 18.8798C8.64991 17.5698 7.58991 16.5098 6.27991 16.5098Z" fill="#292D32"/>
<path d="M9.3999 19.6301C8.9899 19.6301 8.6499 19.2901 8.6499 18.8801V6.30013C8.6499 4.72013 9.5999 3.48013 11.1199 3.07013L17.3599 1.37013C18.6299 1.02013 19.6999 1.15013 20.4499 1.73013C21.2099 2.31013 21.5899 3.28013 21.5899 4.61013V16.8101C21.5899 17.2201 21.2499 17.5601 20.8399 17.5601C20.4299 17.5601 20.0899 17.2201 20.0899 16.8101V4.60013C20.0899 4.02013 19.9899 3.26013 19.5399 2.92013C19.0499 2.54013 18.2099 2.69013 17.7499 2.82013L11.5099 4.52013C10.6399 4.76013 10.1499 5.41013 10.1499 6.31013V18.8901C10.1499 19.2901 9.8099 19.6301 9.3999 19.6301Z" fill="#292D32"/>
<path d="M17.7201 20.6702C15.5901 20.6702 13.8501 18.9302 13.8501 16.8002C13.8501 14.6702 15.5901 12.9302 17.7201 12.9302C19.8501 12.9302 21.5901 14.6702 21.5901 16.8002C21.5901 18.9302 19.8501 20.6702 17.7201 20.6702ZM17.7201 14.4302C16.4101 14.4302 15.3501 15.4902 15.3501 16.8002C15.3501 18.1102 16.4101 19.1702 17.7201 19.1702C19.0301 19.1702 20.0901 18.1102 20.0901 16.8002C20.0901 15.4902 19.0301 14.4302 17.7201 14.4302Z" fill="#292D32"/>
<path d="M9.40005 10.2698C9.07005 10.2698 8.77005 10.0498 8.68005 9.71978C8.57005 9.31978 8.80005 8.89978 9.20005 8.78978L20.64 5.66978C21.04 5.55978 21.45 5.79978 21.56 6.19978C21.67 6.59978 21.43 7.00978 21.03 7.11978L9.60005 10.2398C9.53005 10.2598 9.46005 10.2698 9.40005 10.2698Z" fill="#292D32"/>
</svg>
