<svg width="24" height="24" viewBox="0 0 24 24" fill="none" xmlns="http://www.w3.org/2000/svg">
<path d="M19.21 15.0098C18.12 14.9398 17 15.3398 16.17 16.1698C14.61 17.7298 14.61 20.2598 16.17 21.8298C16.7 22.3598 17.35 22.7098 18.04 22.8798C18.42 22.9798 18.82 23.0098 19.22 22.9898C20.17 22.9498 21.1 22.5698 21.83 21.8398C22.86 20.8098 23.21 19.3598 22.88 18.0498C22.72 17.3598 22.36 16.7098 21.83 16.1798C21.11 15.4498 20.17 15.0598 19.21 15.0098ZM21.24 18.9798C21.24 19.1898 21.16 19.3698 21.02 19.5098C20.88 19.6498 20.7 19.7298 20.49 19.7298H19.75V20.5098C19.75 20.7198 19.67 20.8998 19.53 21.0398C19.39 21.1798 19.21 21.2598 19 21.2598C18.59 21.2598 18.25 20.9198 18.25 20.5098V19.7298H17.5C17.09 19.7298 16.75 19.3898 16.75 18.9798C16.75 18.5698 17.09 18.2298 17.5 18.2298H18.25V17.5198C18.25 17.1098 18.59 16.7698 19 16.7698C19.41 16.7698 19.75 17.1098 19.75 17.5198V18.2298H20.49C20.91 18.2298 21.24 18.5698 21.24 18.9798Z" fill="#292D32"/>
<path d="M12.23 12.0698C11.82 12.0698 11.49 12.3998 11.49 12.8098C11.49 13.2198 11.82 13.5498 12.23 13.5498C12.64 13.5498 12.97 13.2198 12.97 12.8098C12.97 12.3998 12.64 12.0698 12.23 12.0698Z" fill="#292D32"/>
<path d="M6.76002 13.0601C6.35002 13.0601 6.02002 13.3901 6.02002 13.8001C6.02002 14.2101 6.35002 14.5401 6.76002 14.5401C7.17002 14.5401 7.50002 14.2101 7.50002 13.8001C7.50002 13.3901 7.17002 13.0601 6.76002 13.0601Z" fill="#292D32"/>
<path d="M16.19 2H7.81C7.53 2 7.26 2.01 7 2.05C3.85 2.34 2 4.45 2 7.81V16.19C2 19.55 3.85 21.66 7 21.95C7.26 21.99 7.53 22 7.81 22H13.5C13.89 22 14.14 21.56 13.99 21.2C13.7 20.51 13.5 19.71 13.5 19C13.5 15.97 15.97 13.5 19 13.5C19.76 13.5 20.5 13.65 21.18 13.95C21.55 14.11 22 13.86 22 13.46V7.81C22 4.17 19.83 2 16.19 2ZM14.48 8.05V12.81C14.48 12.82 14.47 12.83 14.47 12.85C14.45 14.07 13.46 15.06 12.23 15.06C10.99 15.06 9.99 14.05 9.99 12.82C9.99 11.58 11 10.58 12.23 10.58C12.49 10.58 12.74 10.63 12.98 10.72V9.03L9.01 10.11V13.81C9.01 13.82 9 13.83 9 13.84C8.98 15.06 7.99 16.04 6.76 16.04C5.52 16.04 4.52 15.03 4.52 13.8C4.52 12.57 5.53 11.56 6.76 11.56C7.02 11.56 7.27 11.61 7.5 11.7V9.54V7.79C7.5 6.86 8.08 6.11 8.97 5.87L11.95 5.05C12.88 4.8 13.45 5.05 13.77 5.29C14.23 5.64 14.46 6.21 14.46 6.97V8.05H14.48Z" fill="#292D32"/>
</svg>
