<svg width="24" height="24" viewBox="0 0 24 24" fill="none" xmlns="http://www.w3.org/2000/svg">
<path d="M20.8901 5.18007V16.4801C20.8901 18.4601 19.2801 20.0701 17.3001 20.0701C15.3301 20.0701 13.7101 18.4601 13.7101 16.4801C13.7101 14.5101 15.3301 12.9001 17.3001 12.9001C18.1401 12.9001 18.8901 13.1901 19.5001 13.6701V7.72007L10.2901 10.3401V18.4101C10.2901 20.3901 8.67011 22.0001 6.70011 22.0001C4.72011 22.0001 3.11011 20.3901 3.11011 18.4101C3.11011 16.4401 4.72011 14.8301 6.70011 14.8301C7.53011 14.8301 8.28011 15.1201 8.89011 15.5901V6.75007C8.89011 5.28007 9.78011 4.14007 11.1901 3.76007L16.9701 2.18007C18.1401 1.86007 19.1301 1.97007 19.8301 2.51007C20.5401 3.04007 20.8901 3.94007 20.8901 5.18007Z" fill="#292D32"/>
</svg>
