<svg width="24" height="24" viewBox="0 0 24 24" fill="none" xmlns="http://www.w3.org/2000/svg">
<path d="M9.50001 13.9998C9.33001 13.9998 9.15002 13.9398 9.01002 13.8198C8.78002 13.6198 8.69001 13.3098 8.78001 13.0298L11.28 5.02982C11.37 4.72982 11.64 4.51981 11.95 4.50981C12.27 4.48981 12.55 4.66982 12.68 4.94982L15.18 10.4498C15.35 10.8198 15.19 11.2498 14.83 11.4298L9.82999 13.9298C9.72999 13.9698 9.61001 13.9998 9.50001 13.9998ZM12.13 7.34983L10.74 11.7898L13.52 10.3998L12.13 7.34983Z" fill="black"/>
<path d="M13.5 15.4999C13.42 15.4999 13.34 15.4899 13.26 15.4599L5.75998 12.9599C5.46998 12.8599 5.26997 12.5999 5.24997 12.2999C5.22997 11.9999 5.38997 11.7099 5.65997 11.5799L9.65997 9.57994C10.03 9.39994 10.48 9.54994 10.67 9.91994C10.86 10.2899 10.71 10.7399 10.33 10.9299L7.94998 12.1199L13.42 13.9399L16.14 12.4299L13.85 11.6699C13.46 11.5399 13.24 11.1199 13.37 10.7199C13.5 10.3299 13.92 10.1099 14.32 10.2399L18.24 11.5299C18.52 11.6199 18.72 11.8799 18.75 12.1699C18.78 12.4699 18.63 12.7499 18.37 12.8999L13.87 15.3999C13.75 15.4699 13.63 15.4999 13.5 15.4999Z" fill="black"/>
<path d="M12 18.9999C11.72 18.9999 11.47 18.8499 11.34 18.5999L8.84003 13.9199C8.64003 13.5499 8.78003 13.0998 9.15003 12.8998C9.52003 12.6998 9.97005 12.8399 10.1701 13.2099L11.85 16.3499L12.3 14.9999C12.43 14.6099 12.86 14.3999 13.25 14.5299C13.64 14.6599 13.85 15.0898 13.72 15.4798L12.72 18.4798C12.63 18.7598 12.37 18.9599 12.07 18.9899C12.04 18.9999 12.02 18.9999 12 18.9999Z" fill="black"/>
<path d="M12 22.75C6.07 22.75 1.25 17.93 1.25 12C1.25 6.07 6.07 1.25 12 1.25C17.93 1.25 22.75 6.07 22.75 12C22.75 17.93 17.93 22.75 12 22.75ZM12 2.75C6.9 2.75 2.75 6.9 2.75 12C2.75 17.1 6.9 21.25 12 21.25C17.1 21.25 21.25 17.1 21.25 12C21.25 6.9 17.1 2.75 12 2.75Z" fill="black"/>
</svg>
