<svg width="24" height="24" viewBox="0 0 24 24" fill="none" xmlns="http://www.w3.org/2000/svg">
<path d="M12.03 22.85L11.66 22.67C11.56 22.62 1.23999 17.32 1.23999 5.00005V4.58005L1.59998 4.36005C1.69998 4.30005 12.11 -1.79995 22.37 4.36005L22.73 4.58005V5.00005C22.73 5.47005 22.61 16.5 12.37 22.64L12.03 22.85ZM2.75 5.44005C2.96 15.28 10.27 20.13 11.98 21.13C20.06 16.05 21.1 7.42004 21.23 5.42004C12.92 0.700044 4.59 4.49005 2.75 5.44005Z" fill="black"/>
<path d="M7.09984 13.21C6.75984 13.21 6.41987 13.17 6.06987 13.09C3.98987 12.6 2.41987 10.65 1.37987 7.28998C1.25987 6.88998 1.47987 6.46998 1.87987 6.34998C2.27987 6.22998 2.69987 6.44998 2.81987 6.84998C3.68987 9.65998 4.89985 11.27 6.41985 11.63C8.22985 12.05 10.2899 10.58 11.1999 9.72998C10.3799 3.43998 15.8598 2.20998 15.9198 2.19997L16.5199 2.07998C16.9199 1.99998 17.3199 2.26998 17.3999 2.66998C17.4799 3.06998 17.2099 3.46998 16.8099 3.54998L16.2198 3.65998C16.0598 3.69998 11.8799 4.66998 12.7399 9.85998C12.7799 10.09 12.7098 10.33 12.5398 10.5C12.4298 10.64 9.94984 13.21 7.09984 13.21Z" fill="black"/>
<path d="M16.3501 19.2601C16.2401 19.2601 16.1301 19.2401 16.0301 19.1901C15.6601 19.0101 15.5001 18.5701 15.6801 18.1901C15.6901 18.1701 16.5401 16.3301 15.7901 14.3601C15.2101 12.8401 13.8401 11.6101 11.7101 10.6901C11.3301 10.5301 11.1501 10.0901 11.3201 9.71012C11.4901 9.33012 11.9201 9.15012 12.3101 9.32012C14.8401 10.4001 16.4801 11.9301 17.2101 13.8601C18.1801 16.4401 17.0901 18.7501 17.0401 18.8501C16.9001 19.1001 16.6301 19.2601 16.3501 19.2601Z" fill="black"/>
</svg>
