<svg width="24" height="24" viewBox="0 0 24 24" fill="none" xmlns="http://www.w3.org/2000/svg">
<path d="M15.07 17.8798L14.0599 20.0998C13.7999 20.6598 13.4199 21.1498 12.9099 21.4898C12.3899 21.8398 11.7099 21.8698 11.1699 21.5298C9.52993 20.4898 5.94998 17.8198 3.77998 13.1898C3.69998 13.0298 3.91995 12.8698 4.05995 12.9698C4.62995 13.3698 5.23992 13.6498 5.90992 13.8098C6.31992 13.8998 6.73997 13.9398 7.13997 13.9398C8.99997 13.9398 10.6799 12.9898 11.7999 12.1698C12.1299 11.9298 12.5699 11.8798 12.9099 12.0898C14.0299 12.7898 14.78 13.6298 15.15 14.5798C15.79 16.2598 15.09 17.8098 15.07 17.8798Z" fill="black"/>
<path d="M16.8499 18.0502C16.7699 18.1402 16.61 18.0402 16.65 17.9302C17.09 16.4702 17.66 12.6202 12.56 10.1802C12.25 10.0302 12.0199 9.75016 11.9799 9.41016C11.3599 3.85016 16.15 2.85015 16.15 2.85015C16.54 2.77015 16.95 2.77015 17.33 2.88015C18.41 3.17015 19.51 3.57016 20.62 4.11016C21.57 4.57016 22.1199 5.57016 21.9799 6.62016C21.6499 9.10016 20.5499 13.8802 16.8499 18.0502Z" fill="black"/>
<path d="M10.56 10.21L10.5901 10.41C10.6601 10.79 10.5 11.18 10.18 11.38C8.03003 12.73 4.51002 13.75 2.36002 7.83998C2.16002 7.29998 2.04003 6.89999 2.00003 6.31999C1.95003 5.55999 2.38003 4.68999 3.06003 4.36999C4.82003 3.54999 8.54006 2.11999 13.0301 2.24999C13.2301 2.25999 13.3 2.51999 13.14 2.62999C11.41 3.94999 9.92003 6.32999 10.56 10.21Z" fill="black"/>
</svg>
