<svg width="24" height="24" viewBox="0 0 24 24" fill="none" xmlns="http://www.w3.org/2000/svg">
<path d="M12.02 20.5299C9.69001 20.5299 7.36001 20.1599 5.15001 19.4199C4.31001 19.1299 3.67001 18.5399 3.39001 17.7699C3.10001 16.9999 3.20001 16.1499 3.66001 15.3899L4.81001 13.4799C5.05001 13.0799 5.27001 12.2799 5.27001 11.8099V8.91992C5.27001 5.19992 8.30001 2.16992 12.02 2.16992C15.74 2.16992 18.77 5.19992 18.77 8.91992V11.8099C18.77 12.2699 18.99 13.0799 19.23 13.4899L20.37 15.3899C20.8 16.1099 20.88 16.9799 20.59 17.7699C20.3 18.5599 19.67 19.1599 18.88 19.4199C16.68 20.1599 14.35 20.5299 12.02 20.5299ZM12.02 3.66992C9.13001 3.66992 6.77001 6.01992 6.77001 8.91992V11.8099C6.77001 12.5399 6.47001 13.6199 6.10001 14.2499L4.95001 16.1599C4.73001 16.5299 4.67001 16.9199 4.80001 17.2499C4.92001 17.5899 5.22001 17.8499 5.63001 17.9899C9.81001 19.3899 14.24 19.3899 18.42 17.9899C18.78 17.8699 19.06 17.5999 19.19 17.2399C19.32 16.8799 19.29 16.4899 19.09 16.1599L17.94 14.2499C17.56 13.5999 17.27 12.5299 17.27 11.7999V8.91992C17.27 6.01992 14.92 3.66992 12.02 3.66992Z" fill="#292D32"/>
<path d="M13.88 3.94018C13.81 3.94018 13.74 3.93018 13.67 3.91018C13.38 3.83018 13.1 3.77018 12.83 3.73018C11.98 3.62018 11.16 3.68018 10.39 3.91018C10.11 4.00018 9.80999 3.91018 9.61999 3.70018C9.42999 3.49018 9.36999 3.19018 9.47999 2.92018C9.88999 1.87018 10.89 1.18018 12.03 1.18018C13.17 1.18018 14.17 1.86018 14.58 2.92018C14.68 3.19018 14.63 3.49018 14.44 3.70018C14.29 3.86018 14.08 3.94018 13.88 3.94018Z" fill="#292D32"/>
<path d="M12.02 22.8101C11.03 22.8101 10.07 22.4101 9.37 21.7101C8.67 21.0101 8.27 20.0501 8.27 19.0601H9.77C9.77 19.6501 10.01 20.2301 10.43 20.6501C10.85 21.0701 11.43 21.3101 12.02 21.3101C13.26 21.3101 14.27 20.3001 14.27 19.0601H15.77C15.77 21.1301 14.09 22.8101 12.02 22.8101Z" fill="#292D32"/>
</svg>
