<svg width="24" height="24" viewBox="0 0 24 24" fill="none" xmlns="http://www.w3.org/2000/svg">
<path d="M12 10.5199C11.59 10.5199 11.25 10.1799 11.25 9.76994V6.43994C11.25 6.02994 11.59 5.68994 12 5.68994C12.41 5.68994 12.75 6.02994 12.75 6.43994V9.76994C12.75 10.1899 12.41 10.5199 12 10.5199Z" fill="#292D32"/>
<path d="M12.02 20.3502C9.44 20.3502 6.87 19.9402 4.42 19.1202C3.51 18.8202 2.82 18.1702 2.52 17.3502C2.22 16.5302 2.32 15.5902 2.81 14.7702L4.08 12.6502C4.36 12.1802 4.61 11.3002 4.61 10.7502V8.65023C4.61 4.56023 7.93 1.24023 12.02 1.24023C16.11 1.24023 19.43 4.56023 19.43 8.65023V10.7502C19.43 11.2902 19.68 12.1802 19.96 12.6502L21.23 14.7702C21.7 15.5502 21.78 16.4802 21.47 17.3302C21.16 18.1802 20.48 18.8302 19.62 19.1202C17.17 19.9502 14.6 20.3502 12.02 20.3502ZM12.02 2.75023C8.76 2.75023 6.11 5.40023 6.11 8.66023V10.7602C6.11 11.5702 5.79 12.7402 5.37 13.4302L4.1 15.5602C3.84 15.9902 3.78 16.4502 3.93 16.8502C4.08 17.2502 4.42 17.5502 4.9 17.7102C9.5 19.2402 14.56 19.2402 19.16 17.7102C19.59 17.5702 19.92 17.2502 20.07 16.8302C20.23 16.4102 20.18 15.9502 19.95 15.5602L18.68 13.4402C18.26 12.7502 17.94 11.5802 17.94 10.7702V8.67023C17.93 5.40023 15.28 2.75023 12.02 2.75023Z" fill="#292D32"/>
<path d="M12 22.8998C10.93 22.8998 9.88 22.4598 9.12 21.6998C8.36 20.9398 7.92 19.8898 7.92 18.8198H9.42C9.42 19.4998 9.7 20.1598 10.18 20.6398C10.66 21.1198 11.32 21.3998 12 21.3998C13.42 21.3998 14.58 20.2398 14.58 18.8198H16.08C16.08 21.0698 14.25 22.8998 12 22.8998Z" fill="#292D32"/>
</svg>
