<svg width="24" height="24" viewBox="0 0 24 24" fill="none" xmlns="http://www.w3.org/2000/svg">
<path d="M10.06 21.5802C9.06001 21.5802 8.05001 20.9002 6.70001 19.5602L3.24001 16.1002C0.300006 13.1602 0.600006 12.0302 3.24001 9.3802L8.81001 3.8002C10.78 1.8302 12.41 0.680196 15.53 3.8002L18.99 7.2602C21.8 10.0702 21.12 11.8502 18.99 13.9802L13.42 19.5502C12.07 20.9002 11.07 21.5802 10.06 21.5802ZM4.30001 15.0302L7.76001 18.4902C9.88001 20.6102 10.23 20.6202 12.36 18.4902L17.93 12.9202C19.6 11.2502 20.03 10.4202 17.93 8.3202L14.47 4.8602C12.28 2.6702 11.62 3.1202 9.87001 4.8602L4.30001 10.4302C2.18001 12.5602 2.00001 12.7302 4.30001 15.0302Z" fill="#292D32"/>
<path d="M20.1401 21.4599C19.0001 21.4599 18.1001 21.0199 17.6601 20.2499C17.2201 19.4799 17.3101 18.4799 17.9001 17.4999L18.5601 16.4099C18.9501 15.7699 19.5201 15.3999 20.1401 15.3999C20.7601 15.3999 21.3401 15.7699 21.7201 16.4099L22.3801 17.4999C22.9701 18.4799 23.0501 19.4799 22.6201 20.2499C22.1901 21.0199 21.2701 21.4599 20.1401 21.4599ZM20.1401 16.8999C20.0901 16.8999 19.9701 16.9799 19.8401 17.1799L19.1801 18.2699C18.8801 18.7699 18.8001 19.2199 18.9601 19.5099C19.1201 19.7999 19.5501 19.9599 20.1301 19.9599C20.7101 19.9599 21.1401 19.7999 21.3001 19.5099C21.4601 19.2199 21.3801 18.7799 21.0801 18.2699L20.4201 17.1799C20.3101 16.9699 20.1901 16.8999 20.1401 16.8999Z" fill="#292D32"/>
<path d="M2.00001 12.9901C1.67001 12.9901 1.37001 12.7701 1.28001 12.4401C1.17001 12.0401 1.41001 11.6301 1.81001 11.5201C7.48001 9.98011 13.49 9.93011 19.19 11.3901L19.69 11.5201C20.09 11.6201 20.33 12.0301 20.23 12.4301C20.13 12.8301 19.72 13.0701 19.32 12.9701L18.82 12.8401C13.37 11.4401 7.63001 11.4901 2.21001 12.9701C2.13001 12.9901 2.06001 12.9901 2.00001 12.9901Z" fill="#292D32"/>
</svg>
