<svg width="24" height="24" viewBox="0 0 24 24" fill="none" xmlns="http://www.w3.org/2000/svg">
<path d="M15.04 13.0198C14.85 13.0198 14.65 12.9398 14.51 12.7998L11.22 9.50978C10.97 9.25978 10.93 8.87978 11.12 8.57978L12.15 6.94978C12.48 6.41978 13 6.08978 13.59 6.02978C14.24 5.95978 14.92 6.21978 15.44 6.73978L17.29 8.58978C17.79 9.08978 18.04 9.76978 17.97 10.4398C17.9 11.0398 17.58 11.5598 17.08 11.8798L15.45 12.9098C15.31 12.9898 15.17 13.0198 15.04 13.0198ZM12.7 8.86978L15.15 11.3198L16.27 10.6098C16.41 10.5198 16.46 10.3798 16.47 10.2698C16.49 10.0598 16.4 9.81978 16.22 9.63978L14.37 7.79978C14.17 7.59978 13.94 7.49978 13.75 7.51978C13.61 7.53978 13.5 7.60978 13.41 7.74978L12.7 8.86978Z" fill="#292D32"/>
<path d="M8.28996 17.98C7.66996 17.98 7.08996 17.75 6.67996 17.34C6.19996 16.86 5.96996 16.16 6.05996 15.42L6.65996 10.35C6.85996 8.66003 7.67995 7.98003 9.39995 8.09003L11.79 8.23003C12.2 8.26003 12.52 8.61003 12.49 9.02003C12.46 9.43003 12.11 9.75003 11.7 9.72003L9.29996 9.59003C8.32996 9.53003 8.23996 9.68003 8.13996 10.53L7.53996 15.6C7.50996 15.88 7.57996 16.13 7.72996 16.28C7.88996 16.44 8.12996 16.51 8.40996 16.47L13.48 15.87C14.4 15.76 14.51 15.62 14.43 14.74L14.28 12.32C14.26 11.91 14.57 11.55 14.98 11.53C15.39 11.5 15.75 11.82 15.77 12.23L15.91 14.62C16.08 16.3 15.38 17.16 13.65 17.36L8.57996 17.96C8.48996 17.98 8.38996 17.98 8.28996 17.98Z" fill="#292D32"/>
<path d="M7.49005 17.2699C7.30005 17.2699 7.11005 17.1999 6.96005 17.0499C6.67005 16.7599 6.67005 16.2799 6.96005 15.9899L8.81005 14.1399C9.10005 13.8499 9.58005 13.8499 9.87005 14.1399C10.1601 14.4299 10.1601 14.9099 9.87005 15.1999L8.02005 17.0499C7.88005 17.1999 7.69005 17.2699 7.49005 17.2699Z" fill="#292D32"/>
<path d="M15 22.75H9C3.57 22.75 1.25 20.43 1.25 15V9C1.25 3.57 3.57 1.25 9 1.25H15C20.43 1.25 22.75 3.57 22.75 9V15C22.75 20.43 20.43 22.75 15 22.75ZM9 2.75C4.39 2.75 2.75 4.39 2.75 9V15C2.75 19.61 4.39 21.25 9 21.25H15C19.61 21.25 21.25 19.61 21.25 15V9C21.25 4.39 19.61 2.75 15 2.75H9Z" fill="#292D32"/>
</svg>
