<svg width="24" height="24" viewBox="0 0 24 24" fill="none" xmlns="http://www.w3.org/2000/svg">
<path d="M16.98 13.2001C16.79 13.2001 16.59 13.1201 16.45 12.9801L11.05 7.57006C10.8 7.32006 10.76 6.94006 10.95 6.64006L12.64 3.97006C13.11 3.23006 13.82 2.77006 14.65 2.68006C15.58 2.59006 16.54 2.95006 17.29 3.70006L20.32 6.73006C21.04 7.45006 21.4 8.42006 21.29 9.38006C21.2 10.2201 20.75 10.9501 20.05 11.3901L17.38 13.0801C17.26 13.1601 17.12 13.2001 16.98 13.2001ZM12.53 6.94006L17.09 11.5001L19.26 10.1301C19.57 9.93006 19.77 9.61006 19.81 9.22006C19.87 8.72006 19.66 8.19006 19.27 7.80006L16.24 4.77006C15.81 4.34006 15.29 4.11006 14.82 4.18006C14.44 4.22006 14.13 4.43006 13.91 4.78006L12.53 6.94006Z" fill="#292D32"/>
<path d="M5.89001 21.34C5.00001 21.34 4.20001 21.02 3.60001 20.43C2.90001 19.73 2.59001 18.76 2.72001 17.68L3.70001 9.35003C4.00001 6.83003 5.11001 5.91003 7.70001 6.06003L11.62 6.29003C12.03 6.32003 12.35 6.67003 12.32 7.08003C12.29 7.49003 11.94 7.81003 11.53 7.78003L7.61001 7.56003C5.83001 7.45003 5.39001 7.80003 5.19001 9.53003L4.21001 17.85C4.14001 18.46 4.30001 19 4.66001 19.36C5.03001 19.72 5.57001 19.89 6.18001 19.81L14.5 18.83C16.25 18.62 16.64 18.16 16.47 16.44L16.23 12.49C16.21 12.08 16.52 11.72 16.93 11.7C17.34 11.67 17.7 11.99 17.72 12.4L17.95 16.32C18.19 18.81 17.21 20.01 14.66 20.32L6.34001 21.3C6.20001 21.33 6.04001 21.34 5.89001 21.34Z" fill="#292D32"/>
<path d="M4.61005 20.1698C4.42005 20.1698 4.23005 20.0998 4.08005 19.9498C3.79005 19.6598 3.79005 19.1798 4.08005 18.8898L7.12005 15.8498C7.41005 15.5598 7.89005 15.5598 8.18005 15.8498C8.47005 16.1398 8.47005 16.6198 8.18005 16.9098L5.14005 19.9498C4.99005 20.0998 4.80005 20.1698 4.61005 20.1698Z" fill="#292D32"/>
</svg>
