<svg width="24" height="24" viewBox="0 0 24 24" fill="none" xmlns="http://www.w3.org/2000/svg">
<path d="M19 7C19 7.18 18.99 7.34999 18.97 7.51999C18.85 8.96999 18.21 10.28 17.24 11.24C16.16 12.33 14.66 13 13 13H9.86996C9.36996 13 8.94997 13.37 8.87997 13.86L8.11996 19.14C8.05996 19.53 7.77997 19.85 7.40997 19.95C7.31997 19.99 7.22997 20 7.12997 20H5.17996C4.55996 20 4.08997 19.45 4.18997 18.84L6.57995 4.51001C6.81995 3.06001 8.06998 2 9.53998 2H14C16.76 2 19 4.24 19 7Z" fill="black"/>
<path d="M21 11.0001C21 12.3801 20.44 13.6302 19.54 14.5402C18.63 15.4402 17.38 16.0001 16 16.0001H13.85C13.36 16.0001 12.94 16.3501 12.86 16.8401L12.14 21.1601C12.06 21.6501 11.64 22.0001 11.15 22.0001H8.21998C8.03998 22.0001 7.87997 21.9602 7.73997 21.8802C7.51997 21.7602 7.65998 21.4701 7.89998 21.3701C8.79998 21.0801 9.45999 20.3102 9.59999 19.3502L10.24 14.9301C10.28 14.6801 10.49 14.5001 10.73 14.5001H13C15.01 14.5001 16.9 13.7201 18.3 12.3101C19.13 11.4901 19.75 10.4802 20.11 9.39016C20.19 9.14016 20.52 9.09015 20.63 9.32015C20.87 9.84015 21 10.4001 21 11.0001Z" fill="black"/>
</svg>
