<svg width="24" height="24" viewBox="0 0 24 24" fill="none" xmlns="http://www.w3.org/2000/svg">
<path d="M7.13003 20.75H5.18002C4.66002 20.75 4.18002 20.53 3.84002 20.13C3.51002 19.74 3.36004 19.22 3.45004 18.72L5.84002 4.39001C6.14002 2.57001 7.70004 1.25 9.54004 1.25H14C17.17 1.25 19.75 3.83 19.75 7C19.75 7.21 19.74 7.40999 19.71 7.60999C19.58 9.16999 18.89 10.66 17.76 11.78C16.5 13.05 14.8 13.76 12.99 13.76H9.86001C9.74001 13.76 9.63001 13.85 9.61001 13.98L8.85003 19.26C8.75003 19.93 8.28002 20.48 7.65002 20.67C7.45002 20.74 7.26003 20.75 7.13003 20.75ZM9.54004 2.75C8.43004 2.75 7.50004 3.54 7.32004 4.63L4.93002 18.96C4.91002 19.06 4.96002 19.13 4.99002 19.16C5.02002 19.19 5.08002 19.25 5.18002 19.25H7.13003C7.30003 19.2 7.36003 19.12 7.38003 19.03L8.14004 13.76C8.26004 12.9 9.01002 12.26 9.87002 12.26H13C14.41 12.26 15.72 11.71 16.71 10.72C17.59 9.85 18.12 8.7 18.23 7.47C18.25 7.3 18.26 7.16001 18.26 7.01001C18.26 4.67001 16.35 2.76001 14.01 2.76001H9.54004V2.75Z" fill="black"/>
<path d="M11.1501 22.75H8.2201C7.7001 22.75 7.2101 22.52 6.8701 22.11C6.5301 21.7 6.4001 21.17 6.5001 20.65L6.76011 19.34L7.21009 19.22C7.29009 19.2 7.36011 19.12 7.38011 19.02L8.14012 13.75C8.26012 12.89 9.0101 12.25 9.8701 12.25H13.0001C14.4101 12.25 15.7201 11.7 16.7101 10.71C17.5901 9.84002 18.1201 8.69002 18.2301 7.46002L18.3301 6.29004L19.3501 6.87003C20.8401 7.72003 21.7601 9.30003 21.7601 11C21.7601 12.53 21.1601 13.97 20.0801 15.07C18.9801 16.16 17.5401 16.75 16.0101 16.75H13.8601C13.7301 16.75 13.6301 16.84 13.6101 16.96L12.8901 21.28C12.7401 22.13 12.0101 22.75 11.1501 22.75ZM8.07011 20.47L7.9701 20.95C7.9501 21.05 8.0001 21.13 8.0301 21.16C8.0601 21.2 8.1201 21.25 8.2201 21.25H11.1501C11.2801 21.25 11.3801 21.16 11.4001 21.04L12.1201 16.72C12.2601 15.87 12.9901 15.25 13.8501 15.25H16.0001C17.1301 15.25 18.2001 14.81 19.0101 14.01C19.8101 13.21 20.2501 12.13 20.2501 11C20.2501 10.22 19.9701 9.48002 19.4701 8.90002C19.1601 9.98002 18.5701 10.98 17.7601 11.78C16.5001 13.05 14.8001 13.76 12.9901 13.76H9.86009C9.74009 13.76 9.63009 13.85 9.61009 13.98L8.85011 19.26C8.78011 19.76 8.49011 20.2 8.07011 20.47Z" fill="black"/>
</svg>
