<svg width="24" height="24" viewBox="0 0 24 24" fill="none" xmlns="http://www.w3.org/2000/svg">
<path d="M20.98 10.7C20.76 6.8 17.87 3.55 14.01 2.89C13.95 2.12 13.31 1.5 12.52 1.5H11.52C10.73 1.5 10.1 2.11 10.03 2.88C6.15002 3.52 3.24002 6.78 3.02002 10.7C2.31002 10.82 1.77002 11.43 1.77002 12.17V13.17C1.77002 14 2.44002 14.67 3.27002 14.67H4.27002C5.10002 14.67 5.77002 14 5.77002 13.17V12.17C5.77002 11.43 5.23002 10.82 4.52002 10.7C4.73002 7.58 7.02002 4.99 10.08 4.39C10.25 5.03 10.83 5.5 11.52 5.5H12.52C13.21 5.5 13.78 5.03 13.96 4.4C17 5.01 19.27 7.6 19.48 10.7C18.77 10.82 18.23 11.43 18.23 12.17V13.17C18.23 14 18.9 14.67 19.73 14.67H20.73C21.56 14.67 22.23 14 22.23 13.17V12.17C22.23 11.43 21.69 10.81 20.98 10.7Z" fill="#292D32"/>
<path d="M15.77 16.5502L14.13 18.0002H9.87996L8.23996 16.5502C7.28996 15.7702 7.28996 15.1702 8.00996 14.2502L10.9 10.5902C11.1 10.3402 11.33 10.1702 11.59 10.0802C11.86 9.9902 12.15 9.9902 12.43 10.0802C12.68 10.1702 12.91 10.3402 13.12 10.5902L16 14.2402C16.73 15.1602 16.69 15.7302 15.77 16.5502Z" fill="#292D32"/>
<path d="M13.3199 22.0003H10.7299C9.80992 22.0003 9.11992 21.2503 9.29992 20.4503L9.60992 19.0603C9.66992 18.7803 9.91992 18.5903 10.1999 18.5903H13.8499C14.1299 18.5903 14.3699 18.7803 14.4399 19.0603L14.7499 20.4503C14.9399 21.3003 14.2999 22.0003 13.3199 22.0003Z" fill="#292D32"/>
</svg>
