<svg width="24" height="24" viewBox="0 0 24 24" fill="none" xmlns="http://www.w3.org/2000/svg">
<path d="M20.55 9.44004H19.45C19.3 9.44004 19.15 9.47004 19.01 9.51004L14.02 4.52004C14.5 3.90004 14.46 3.01004 13.89 2.45004L13.11 1.67004C12.52 1.08004 11.48 1.08004 10.88 1.67004L10.1 2.45004C9.54 3.01004 9.49999 3.90004 9.97999 4.52004L4.99 9.51004C4.84999 9.47004 4.7 9.44004 4.55 9.44004H3.45C2.58 9.44004 1.87 10.15 1.87 11.02V12.12C1.87 12.99 2.58 13.7 3.45 13.7H4.55C5.42 13.7 6.13 12.99 6.13 12.12V11.02C6.13 10.87 6.1 10.72 6.06 10.58L11.05 5.59004C11.32 5.80004 11.66 5.91004 12 5.91004C12.34 5.91004 12.68 5.79004 12.96 5.58004L17.95 10.57C17.91 10.71 17.88 10.86 17.88 11.01V12.11C17.88 12.98 18.59 13.69 19.46 13.69H20.56C21.43 13.69 22.14 12.98 22.14 12.11V11.01C22.12 10.14 21.42 9.44004 20.55 9.44004Z" fill="#292D32"/>
<path d="M15.75 16.5502L14.11 18.0002H9.85005L8.21005 16.5502C7.26005 15.7702 7.26005 15.1702 7.98005 14.2502L10.87 10.5902C11.07 10.3402 11.3001 10.1702 11.5601 10.0802C11.83 9.9902 12.12 9.9902 12.4 10.0802C12.65 10.1702 12.88 10.3402 13.09 10.5902L15.98 14.2502C16.7 15.1602 16.67 15.7302 15.75 16.5502Z" fill="#292D32"/>
<path d="M13.29 21.9998H10.7C9.78002 21.9998 9.09002 21.2498 9.27002 20.4498L9.58002 19.0598C9.64002 18.7798 9.89002 18.5898 10.17 18.5898H13.82C14.1 18.5898 14.34 18.7798 14.41 19.0598L14.72 20.4498C14.92 21.2998 14.27 21.9998 13.29 21.9998Z" fill="#292D32"/>
</svg>
