<svg width="24" height="24" viewBox="0 0 24 24" fill="none" xmlns="http://www.w3.org/2000/svg">
<path d="M6.5 2C5.44 2 4.46 2.37 3.69 2.99C2.65 3.81 2 5.08 2 6.5C2 7.34 2.24 8.14 2.65 8.82C3.19 9.72 4.04 10.42 5.06 10.76C5.51 10.92 5.99 11 6.5 11C7.64 11 8.67 10.58 9.46 9.88C9.81 9.58 10.11 9.22 10.35 8.82C10.56 8.47 10.72 8.1 10.83 7.7C10.94 7.32 11 6.91 11 6.5C11 4.01 8.99 2 6.5 2ZM8.16 7.25H7.27V8.18C7.27 8.59 6.93 8.93 6.52 8.93C6.11 8.93 5.77 8.6 5.77 8.18V7.25H4.8C4.39 7.25 4.05 6.91 4.05 6.5C4.05 6.09 4.39 5.75 4.8 5.75H5.77V4.82C5.77 4.41 6.11 4.07 6.52 4.07C6.93 4.07 7.27 4.4 7.27 4.82V5.75H8.16C8.57 5.75 8.91 6.09 8.91 6.5C8.91 6.91 8.58 7.25 8.16 7.25Z" fill="#292D32"/>
<path d="M16 21.2902L6.63997 22.3902C5.98997 22.4702 5.40997 22.3702 4.91997 22.1302C4.39997 21.8702 3.98997 21.4702 3.72997 20.9402C3.48997 20.4502 3.39997 19.8802 3.46997 19.2402L4.31997 12.0902C4.39997 12.1202 4.47997 12.1502 4.55997 12.1702C5.16997 12.3902 5.81997 12.5002 6.49997 12.5002C7.95997 12.5002 9.36997 11.9702 10.44 11.0202C10.9 10.6202 11.31 10.1402 11.64 9.59016C11.92 9.12016 12.13 8.62016 12.27 8.13016C12.34 7.87016 12.4 7.59016 12.44 7.31016C12.45 7.26016 12.45 7.21016 12.45 7.16016L12.62 7.17016L18.7 13.2602L18.96 17.6802C19.21 20.1602 18.35 21.0202 16 21.2902Z" fill="#292D32"/>
<path d="M22 10.2799L19.93 11.5899C19.54 11.8299 19.04 11.7799 18.72 11.4499L14.29 7.0199C13.97 6.6999 13.91 6.1999 14.15 5.8099L15.46 3.7399C16.26 2.4799 17.86 2.4199 19.05 3.5899L22.16 6.6999C23.25 7.8099 23.18 9.5299 22 10.2799Z" fill="#292D32"/>
</svg>
