<svg width="24" height="24" viewBox="0 0 24 24" fill="none" xmlns="http://www.w3.org/2000/svg">
<path d="M17.53 7.77C17.46 7.76 17.39 7.76 17.32 7.77C15.77 7.72 14.54 6.45 14.54 4.89C14.54 3.3 15.83 2 17.43 2C19.02 2 20.32 3.29 20.32 4.89C20.31 6.45 19.08 7.72 17.53 7.77Z" fill="#292D32"/>
<path d="M20.7901 14.6999C19.6701 15.4499 18.1001 15.7299 16.6501 15.5399C17.0301 14.7199 17.2301 13.8099 17.2401 12.8499C17.2401 11.8499 17.0201 10.8999 16.6001 10.0699C18.0801 9.86991 19.6501 10.1499 20.7801 10.8999C22.3601 11.9399 22.3601 13.6499 20.7901 14.6999Z" fill="#292D32"/>
<path d="M6.43991 7.77C6.50991 7.76 6.57991 7.76 6.64991 7.77C8.19991 7.72 9.42991 6.45 9.42991 4.89C9.42991 3.29 8.13991 2 6.53991 2C4.94991 2 3.65991 3.29 3.65991 4.89C3.65991 6.45 4.88991 7.72 6.43991 7.77Z" fill="#292D32"/>
<path d="M6.55012 12.8501C6.55012 13.8201 6.76012 14.7401 7.14012 15.5701C5.73012 15.7201 4.26012 15.4201 3.18012 14.7101C1.60012 13.6601 1.60012 11.9501 3.18012 10.9001C4.25012 10.1801 5.76012 9.8901 7.18012 10.0501C6.77012 10.8901 6.55012 11.8401 6.55012 12.8501Z" fill="#292D32"/>
<path d="M12.12 15.87C12.04 15.86 11.95 15.86 11.86 15.87C10.02 15.81 8.55005 14.3 8.55005 12.44C8.56005 10.54 10.09 9 12 9C13.9 9 15.44 10.54 15.44 12.44C15.43 14.3 13.97 15.81 12.12 15.87Z" fill="#292D32"/>
<path d="M8.87005 17.9399C7.36005 18.9499 7.36005 20.6099 8.87005 21.6099C10.59 22.7599 13.41 22.7599 15.13 21.6099C16.64 20.5999 16.64 18.9399 15.13 17.9399C13.42 16.7899 10.6 16.7899 8.87005 17.9399Z" fill="#292D32"/>
</svg>
