<svg width="24" height="24" viewBox="0 0 24 24" fill="none" xmlns="http://www.w3.org/2000/svg">
<path d="M21 22.75H3C2.59 22.75 2.25 22.41 2.25 22C2.25 21.59 2.59 21.25 3 21.25H21C21.41 21.25 21.75 21.59 21.75 22C21.75 22.41 21.41 22.75 21 22.75Z" fill="#292D32"/>
<path d="M21 2.75H3C2.59 2.75 2.25 2.41 2.25 2C2.25 1.59 2.59 1.25 3 1.25H21C21.41 1.25 21.75 1.59 21.75 2C21.75 2.41 21.41 2.75 21 2.75Z" fill="#292D32"/>
<path d="M14.2999 15.3599L12.7499 16.9099V6.6999L14.2999 8.2499C14.4499 8.3999 14.6399 8.4699 14.8299 8.4699C15.0199 8.4699 15.2099 8.3999 15.3599 8.2499C15.6499 7.9599 15.6499 7.4799 15.3599 7.1899L12.5299 4.3599C12.2499 4.0799 11.7499 4.0799 11.4699 4.3599L8.63986 7.1899C8.34986 7.4799 8.34986 7.9599 8.63986 8.2499C8.92986 8.5399 9.40986 8.5399 9.69986 8.2499L11.2499 6.6999V16.9099L9.69986 15.3599C9.40986 15.0699 8.92986 15.0699 8.63986 15.3599C8.34986 15.6499 8.34986 16.1299 8.63986 16.4199L11.4699 19.2499C11.6099 19.3899 11.7999 19.4699 11.9999 19.4699C12.1999 19.4699 12.3899 19.3899 12.5299 19.2499L15.3599 16.4199C15.6499 16.1299 15.6499 15.6499 15.3599 15.3599C15.0699 15.0699 14.5899 15.0699 14.2999 15.3599Z" fill="#292D32"/>
</svg>
