<svg width="24" height="24" viewBox="0 0 24 24" fill="none" xmlns="http://www.w3.org/2000/svg">
<path d="M21 22.75H3C2.59 22.75 2.25 22.41 2.25 22C2.25 21.59 2.59 21.25 3 21.25H21C21.41 21.25 21.75 21.59 21.75 22C21.75 22.41 21.41 22.75 21 22.75Z" fill="#292D32"/>
<path d="M21 2.75H3C2.59 2.75 2.25 2.41 2.25 2C2.25 1.59 2.59 1.25 3 1.25H21C21.41 1.25 21.75 1.59 21.75 2C21.75 2.41 21.41 2.75 21 2.75Z" fill="#292D32"/>
<path d="M12 18.75C11.59 18.75 11.25 18.41 11.25 18V6C11.25 5.59 11.59 5.25 12 5.25C12.41 5.25 12.75 5.59 12.75 6V18C12.75 18.41 12.41 18.75 12 18.75Z" fill="#292D32"/>
<path d="M14.8299 8.4699C14.6399 8.4699 14.4499 8.3999 14.2999 8.2499L11.9999 5.9499L9.69986 8.2499C9.40986 8.5399 8.92986 8.5399 8.63986 8.2499C8.34986 7.9599 8.34986 7.4799 8.63986 7.1899L11.4699 4.3599C11.7499 4.0799 12.2499 4.0799 12.5299 4.3599L15.3599 7.1899C15.6499 7.4799 15.6499 7.9599 15.3599 8.2499C15.2099 8.3999 15.0199 8.4699 14.8299 8.4699Z" fill="#292D32"/>
<path d="M11.9999 19.4701C11.7999 19.4701 11.6099 19.3901 11.4699 19.2501L8.63986 16.4201C8.34986 16.1301 8.34986 15.6501 8.63986 15.3601C8.92986 15.0701 9.40986 15.0701 9.69986 15.3601L11.9999 17.6601L14.2999 15.3601C14.5899 15.0701 15.0699 15.0701 15.3599 15.3601C15.6499 15.6501 15.6499 16.1301 15.3599 16.4201L12.5299 19.2501C12.3899 19.3901 12.1999 19.4701 11.9999 19.4701Z" fill="#292D32"/>
</svg>
