<svg width="24" height="24" viewBox="0 0 24 24" fill="none" xmlns="http://www.w3.org/2000/svg">
<path d="M10.51 11.22L8.31 2.39C8.26 2.16 8.05 2 7.81 2C4.6 2 2 4.6 2 7.81V13.51C2 13.85 2.33 14.1 2.66 14L10.16 11.83C10.42 11.76 10.58 11.49 10.51 11.22Z" fill="#292D32"/>
<path d="M11.12 13.6799C11.05 13.3999 10.76 13.2299 10.48 13.3099L2.37 15.6699C2.15 15.7399 2 15.9399 2 16.1699V16.1899C2 19.3999 4.6 21.9999 7.81 21.9999H12.53C12.86 21.9999 13.11 21.6899 13.03 21.3599L11.12 13.6799Z" fill="#292D32"/>
<path d="M16.1901 2H10.4401C10.1101 2 9.86007 2.31 9.94007 2.64L14.6801 21.61C14.7401 21.84 14.9401 22 15.1801 22H16.1801C19.4001 22 22.0001 19.4 22.0001 16.19V7.81C22.0001 4.6 19.4001 2 16.1901 2Z" fill="#292D32"/>
</svg>
