<svg width="24" height="24" viewBox="0 0 24 24" fill="none" xmlns="http://www.w3.org/2000/svg">
<path d="M17.49 9.60014L5.6 16.7701C4.9 17.1901 4 16.6901 4 15.8701V7.87014C4 4.38014 7.77 2.20014 10.8 3.94014L15.39 6.58014L17.48 7.78014C18.17 8.19014 18.18 9.19014 17.49 9.60014Z" fill="#292D32"/>
<path d="M18.0901 15.4601L14.0401 17.8001L10.0001 20.1301C8.55005 20.9601 6.91005 20.7901 5.72005 19.9501C5.14005 19.5501 5.21006 18.6601 5.82006 18.3001L18.5301 10.6801C19.1301 10.3201 19.9201 10.6601 20.0301 11.3501C20.2801 12.9001 19.6401 14.5701 18.0901 15.4601Z" fill="#292D32"/>
</svg>
