<svg width="24" height="24" viewBox="0 0 24 24" fill="none" xmlns="http://www.w3.org/2000/svg">
<path d="M21.28 15.72C20.63 15.27 19.84 15 19 15C18.06 15 17.19 15.33 16.5 15.88C15.58 16.61 15 17.74 15 19C15 19.75 15.21 20.46 15.58 21.06C15.62 21.13 15.67 21.2 15.73 21.27C16.43 22.31 17.63 23 19 23C20.01 23 20.93 22.63 21.63 22C21.94 21.74 22.21 21.42 22.42 21.06C22.79 20.46 23 19.75 23 19C23 17.64 22.32 16.44 21.28 15.72ZM20.6 20.58C20.45 20.73 20.26 20.8 20.07 20.8C19.88 20.8 19.69 20.73 19.54 20.58L19.01 20.05L18.46 20.6C18.31 20.75 18.12 20.82 17.93 20.82C17.74 20.82 17.55 20.75 17.4 20.6C17.11 20.31 17.11 19.83 17.4 19.54L17.95 18.99L17.42 18.46C17.13 18.17 17.13 17.69 17.42 17.4C17.71 17.11 18.19 17.11 18.48 17.4L19.01 17.93L19.51 17.43C19.8 17.14 20.28 17.14 20.57 17.43C20.86 17.72 20.86 18.2 20.57 18.49L20.07 18.99L20.6 19.52C20.89 19.81 20.89 20.28 20.6 20.58Z" fill="#292D32"/>
<path d="M21.85 10.2502C21.07 5.80016 17.24 2.35016 12.73 2.03016C6.62996 1.59016 1.58996 6.64016 2.02996 12.7302C2.34996 17.2402 5.79996 21.0602 10.25 21.8402C11.4 22.0402 12.52 22.0402 13.59 21.8602C13.9 21.8102 14.08 21.4702 13.96 21.1902C13.66 20.5102 13.5 19.7602 13.5 18.9902C13.5 17.3002 14.25 15.7402 15.57 14.7002C16.54 13.9202 17.76 13.4902 19 13.4902C19.78 13.4902 20.52 13.6502 21.19 13.9502C21.48 14.0802 21.81 13.8902 21.87 13.5802C22.05 12.5202 22.05 11.4002 21.85 10.2502ZM14.5 13.5702L13.3 14.2602L12.1 14.9502C10.61 15.8102 9.38996 15.1102 9.38996 13.3802V12.0002V10.6102C9.38996 8.89016 10.61 8.18016 12.1 9.04016L13.3 9.73016L14.5 10.4202C15.99 11.3002 15.99 12.7002 14.5 13.5702Z" fill="#292D32"/>
</svg>
