<svg width="24" height="24" viewBox="0 0 24 24" fill="none" xmlns="http://www.w3.org/2000/svg">
<path d="M8.00001 21.75C7.98001 21.75 7.96 21.75 7.95 21.75C7.56 21.72 7.25001 21.4 7.25001 21C7.25001 20.43 7.32001 19.9 7.47001 19.41L9.26001 6.89C9.32001 6.48 9.70001 6.2 10.11 6.25C10.52 6.31 10.81 6.69 10.75 7.1L9.33001 17.01C10.57 16.26 11.92 16.25 12 16.25C15.72 16.25 18.75 13.22 18.75 9.5C18.75 5.78 15.72 2.75 12 2.75C8.28001 2.75 5.25001 5.78 5.25001 9.5C5.25001 10.6 5.52001 11.69 6.03001 12.65C6.22001 13.02 6.08001 13.47 5.72001 13.66C5.35001 13.85 4.90001 13.71 4.71001 13.35C4.09001 12.17 3.76001 10.84 3.76001 9.5C3.76001 4.95 7.46001 1.25 12.01 1.25C16.56 1.25 20.26 4.95 20.26 9.5C20.26 14.05 16.56 17.75 12.01 17.75C11.92 17.75 9.80001 17.79 9.04001 19.5C9.01001 19.58 8.97 19.66 8.95 19.74L8.76001 21.1C8.69001 21.48 8.37001 21.75 8.00001 21.75Z" fill="black"/>
<path d="M14 21.9999C13.74 21.9999 13.48 21.8899 13.29 21.7099C13.11 21.5199 13 21.2599 13 20.9999C13 20.8699 13.03 20.7399 13.08 20.6199C13.13 20.4899 13.2 20.3899 13.29 20.2899C13.57 20.0099 14.01 19.9199 14.38 20.0799C14.51 20.1299 14.61 20.1999 14.71 20.2899C14.8 20.3899 14.87 20.4899 14.92 20.6199C14.97 20.7399 15 20.8699 15 20.9999C15 21.2599 14.89 21.5199 14.71 21.7099C14.61 21.7999 14.51 21.8699 14.38 21.9199C14.26 21.9699 14.13 21.9999 14 21.9999Z" fill="black"/>
</svg>
