<svg width="24" height="24" viewBox="0 0 24 24" fill="none" xmlns="http://www.w3.org/2000/svg">
<path d="M7.49998 15.4502C7.36998 15.4502 7.23998 15.4202 7.11998 15.3502L2.61998 12.7502C2.38998 12.6202 2.23999 12.3702 2.23999 12.1002V6.90023C2.23999 6.63023 2.37998 6.38023 2.61998 6.25023L7.11998 3.65023C7.34998 3.52023 7.63998 3.52023 7.86998 3.65023L12.37 6.25023C12.6 6.38023 12.75 6.63023 12.75 6.90023V8.47023C12.75 8.88023 12.41 9.22023 12 9.22023C11.59 9.22023 11.25 8.88023 11.25 8.47023V7.33023L7.49998 5.16024L3.74998 7.33023V11.6602L7.49998 13.8302L11.62 11.4502C11.98 11.2402 12.44 11.3702 12.64 11.7202C12.85 12.0802 12.72 12.5402 12.37 12.7402L7.86998 15.3402C7.75998 15.4102 7.62998 15.4502 7.49998 15.4502Z" fill="black"/>
<path d="M16.5 20.6399C16.37 20.6399 16.24 20.6099 16.12 20.5399L11.62 17.9399C11.39 17.8099 11.24 17.5599 11.24 17.2899V15.6399C11.24 15.2299 11.58 14.8899 11.99 14.8899C12.4 14.8899 12.74 15.2299 12.74 15.6399V16.8599L16.49 19.0299L20.24 16.8599V12.5299L16.49 10.3599L12.37 12.7399C12.01 12.9499 11.55 12.8199 11.35 12.4699C11.14 12.1099 11.27 11.6499 11.62 11.4499L16.12 8.84994C16.35 8.71994 16.64 8.71994 16.87 8.84994L21.37 11.4499C21.6 11.5799 21.75 11.8299 21.75 12.0999V17.2999C21.75 17.5699 21.61 17.8199 21.37 17.9499L16.87 20.5499C16.76 20.6099 16.63 20.6399 16.5 20.6399Z" fill="black"/>
</svg>
