<svg width="24" height="24" viewBox="0 0 24 24" fill="none" xmlns="http://www.w3.org/2000/svg">
<path d="M6 7C4 7 3 8 3 10V15C3 17 4 18 6 18L8 16V15H9L17 7H6ZM7 11.75C6.59 11.75 6.25 11.41 6.25 11C6.25 10.59 6.59 10.25 7 10.25H9C9.41 10.25 9.75 10.59 9.75 11C9.75 11.41 9.41 11.75 9 11.75H7Z" fill="#292D32"/>
<path d="M9 15L8 16V15H9Z" fill="#292D32"/>
<path d="M17 5V7H7V5C7 3.34 8.34 2 10 2H14C15.66 2 17 3.34 17 5Z" fill="#292D32"/>
<path d="M22.53 1.46994C22.24 1.17994 21.76 1.17994 21.47 1.46994L1.47 21.4699C1.18 21.7599 1.18 22.2399 1.47 22.5299C1.62 22.6799 1.81 22.7499 2 22.7499C2.19 22.7499 2.38 22.6799 2.53 22.5299L22.53 2.52994C22.82 2.23994 22.82 1.75994 22.53 1.46994Z" fill="#292D32"/>
<path d="M17 14.25H12.9571C12.8245 14.25 12.6973 14.3027 12.6035 14.3964L12 15L11.25 15.75L8.79999 18.2C8.15999 18.84 8.02999 20 8.54999 20.74C9.08999 21.5 9.98999 22 11 22H13C14.66 22 16 20.66 16 19V15.75H17C17.41 15.75 17.75 15.41 17.75 15C17.75 14.59 17.41 14.25 17 14.25Z" fill="#292D32"/>
<path d="M19.02 7.98012L15.46 11.5401C14.83 12.1701 15.28 13.2501 16.17 13.2501H16.91C17.78 13.2501 18.59 13.8401 18.73 14.7001C18.8812 15.6155 18.313 16.4391 17.4934 16.6796C17.2284 16.7573 17 16.974 17 17.2501V17.5001C17 17.7763 17.2239 18.0001 17.5 18.0001H18C19.66 18.0001 21 16.6601 21 15.0001V10.0001C21 9.21012 20.84 8.57012 20.53 8.09012C20.19 7.58012 19.45 7.55012 19.02 7.98012Z" fill="#292D32"/>
</svg>
