<svg width="24" height="24" viewBox="0 0 24 24" fill="none" xmlns="http://www.w3.org/2000/svg">
<path d="M12 2C9.38 2 7.25 4.13 7.25 6.75C7.25 9.32 9.26 11.4 11.88 11.49C11.96 11.48 12.04 11.48 12.1 11.49C12.12 11.49 12.13 11.49 12.15 11.49C12.16 11.49 12.16 11.49 12.17 11.49C14.73 11.4 16.74 9.32 16.75 6.75C16.75 4.13 14.62 2 12 2Z" fill="#292D32"/>
<path d="M17.08 14.1599C14.29 12.2999 9.73996 12.2999 6.92996 14.1599C5.65996 14.9999 4.95996 16.1499 4.95996 17.3799C4.95996 18.6099 5.65996 19.7499 6.91996 20.5899C8.31996 21.5299 10.16 21.9999 12 21.9999C13.84 21.9999 15.68 21.5299 17.08 20.5899C18.34 19.7399 19.04 18.5999 19.04 17.3599C19.03 16.1399 18.34 14.9899 17.08 14.1599ZM14.33 16.5599L11.81 19.0799C11.69 19.1999 11.53 19.2599 11.37 19.2599C11.21 19.2599 11.05 19.1899 10.93 19.0799L9.66996 17.8199C9.42996 17.5799 9.42996 17.1799 9.66996 16.9399C9.90996 16.6999 10.31 16.6999 10.55 16.9399L11.37 17.7599L13.45 15.6799C13.69 15.4399 14.09 15.4399 14.33 15.6799C14.58 15.9199 14.58 16.3199 14.33 16.5599Z" fill="#292D32"/>
</svg>
