<svg width="24" height="24" viewBox="0 0 24 24" fill="none" xmlns="http://www.w3.org/2000/svg">
<path d="M15.59 21.6598C15.4 21.6598 15.21 21.5898 15.06 21.4398C14.77 21.1498 14.77 20.6698 15.06 20.3798L17.88 17.5598C18.17 17.2698 18.65 17.2698 18.94 17.5598C19.23 17.8498 19.23 18.3298 18.94 18.6198L16.12 21.4398C15.97 21.5898 15.78 21.6598 15.59 21.6598Z" fill="#292D32"/>
<path d="M18.41 21.6598C18.22 21.6598 18.03 21.5898 17.88 21.4398L15.06 18.6198C14.77 18.3298 14.77 17.8498 15.06 17.5598C15.35 17.2698 15.83 17.2698 16.12 17.5598L18.94 20.3798C19.23 20.6698 19.23 21.1498 18.94 21.4398C18.79 21.5898 18.6 21.6598 18.41 21.6598Z" fill="#292D32"/>
<path d="M12.1598 11.62C12.1298 11.62 12.1098 11.62 12.0798 11.62C12.0298 11.61 11.9598 11.61 11.8998 11.62C8.99981 11.53 6.80981 9.25 6.80981 6.44C6.80981 3.58 9.13981 1.25 11.9998 1.25C14.8598 1.25 17.1898 3.58 17.1898 6.44C17.1798 9.25 14.9798 11.53 12.1898 11.62C12.1798 11.62 12.1698 11.62 12.1598 11.62ZM11.9998 2.75C9.96981 2.75 8.30981 4.41 8.30981 6.44C8.30981 8.44 9.86981 10.05 11.8598 10.12C11.9198 10.11 12.0498 10.11 12.1798 10.12C14.1398 10.03 15.6798 8.42 15.6898 6.44C15.6898 4.41 14.0298 2.75 11.9998 2.75Z" fill="#292D32"/>
<path d="M11.9999 22.5602C9.95992 22.5602 8.02992 22.0302 6.56992 21.0502C5.17992 20.1202 4.41992 18.8502 4.41992 17.4802C4.41992 16.1102 5.18992 14.8502 6.56992 13.9302C9.55992 11.9302 14.4199 11.9302 17.4099 13.9302C17.7499 14.1602 17.8499 14.6302 17.6199 14.9702C17.3899 15.3202 16.9199 15.4102 16.5799 15.1802C14.0899 13.5202 9.88992 13.5202 7.39992 15.1802C6.43992 15.8202 5.91992 16.6302 5.91992 17.4802C5.91992 18.3302 6.44992 19.1602 7.39992 19.8002C8.60992 20.6102 10.2399 21.0502 11.9899 21.0502C12.3999 21.0502 12.7399 21.3902 12.7399 21.8002C12.7399 22.2102 12.4099 22.5602 11.9999 22.5602Z" fill="#292D32"/>
</svg>
