<svg width="24" height="24" viewBox="0 0 24 24" fill="none" xmlns="http://www.w3.org/2000/svg">
<path d="M12 2C9.38 2 7.25 4.13 7.25 6.75C7.25 9.32 9.26 11.4 11.88 11.49C11.96 11.48 12.04 11.48 12.1 11.49C12.12 11.49 12.13 11.49 12.15 11.49C12.16 11.49 12.16 11.49 12.17 11.49C14.73 11.4 16.74 9.32 16.75 6.75C16.75 4.13 14.62 2 12 2Z" fill="#292D32"/>
<path d="M17.08 14.1599C14.29 12.2999 9.73996 12.2999 6.92996 14.1599C5.65996 14.9999 4.95996 16.1499 4.95996 17.3799C4.95996 18.6099 5.65996 19.7499 6.91996 20.5899C8.31996 21.5299 10.16 21.9999 12 21.9999C13.84 21.9999 15.68 21.5299 17.08 20.5899C18.34 19.7399 19.04 18.5999 19.04 17.3599C19.03 16.1399 18.34 14.9899 17.08 14.1599ZM13.83 18.0699H10.18C9.79996 18.0699 9.48996 17.7599 9.48996 17.3799C9.48996 16.9999 9.79996 16.6899 10.18 16.6899H13.83C14.21 16.6899 14.52 16.9999 14.52 17.3799C14.52 17.7599 14.21 18.0699 13.83 18.0699Z" fill="#292D32"/>
</svg>
