<svg width="24" height="24" viewBox="0 0 24 24" fill="none" xmlns="http://www.w3.org/2000/svg">
<path d="M18.5 20.25H14.5C14.09 20.25 13.75 19.91 13.75 19.5C13.75 19.09 14.09 18.75 14.5 18.75H18.5C18.91 18.75 19.25 19.09 19.25 19.5C19.25 19.91 18.91 20.25 18.5 20.25Z" fill="#292D32"/>
<path d="M16.5 22.25C16.09 22.25 15.75 21.91 15.75 21.5V17.5C15.75 17.09 16.09 16.75 16.5 16.75C16.91 16.75 17.25 17.09 17.25 17.5V21.5C17.25 21.91 16.91 22.25 16.5 22.25Z" fill="#292D32"/>
<path d="M12.16 11.62C12.13 11.62 12.11 11.62 12.08 11.62C12.03 11.61 11.96 11.61 11.9 11.62C8.99995 11.53 6.80995 9.25 6.80995 6.44C6.79995 5.06 7.33995 3.76 8.31995 2.78C9.29995 1.8 10.6 1.25 11.99 1.25C14.85 1.25 17.18 3.58 17.18 6.44C17.18 9.25 14.99 11.52 12.19 11.62C12.18 11.62 12.17 11.62 12.16 11.62ZM11.99 2.75C11 2.75 10.08 3.14 9.37995 3.83C8.68995 4.53 8.30995 5.45 8.30995 6.43C8.30995 8.43 9.86995 10.05 11.86 10.11C11.92 10.1 12.05 10.1 12.18 10.11C14.15 10.02 15.68 8.41 15.68 6.43C15.68 4.41 14.02 2.75 11.99 2.75Z" fill="#292D32"/>
<path d="M11.9899 22.5602C9.94991 22.5602 8.01991 22.0302 6.55991 21.0502C5.16991 20.1202 4.40991 18.8502 4.40991 17.4802C4.40991 16.1102 5.17991 14.8502 6.55991 13.9302C9.54991 11.9302 14.4099 11.9302 17.3999 13.9302C17.7399 14.1602 17.8399 14.6302 17.6099 14.9702C17.3799 15.3202 16.9099 15.4102 16.5699 15.1802C14.0799 13.5202 9.87991 13.5202 7.38991 15.1802C6.42991 15.8202 5.90991 16.6302 5.90991 17.4802C5.90991 18.3302 6.42991 19.1602 7.38991 19.8002C8.59991 20.6102 10.2299 21.0502 11.9799 21.0502C12.3899 21.0502 12.7299 21.3902 12.7299 21.8002C12.7299 22.2102 12.3999 22.5602 11.9899 22.5602Z" fill="#292D32"/>
</svg>
