<svg width="24" height="24" viewBox="0 0 24 24" fill="none" xmlns="http://www.w3.org/2000/svg">
<path d="M19.5 19.75H15.5C15.09 19.75 14.75 19.41 14.75 19C14.75 18.59 15.09 18.25 15.5 18.25H19.5C19.91 18.25 20.25 18.59 20.25 19C20.25 19.41 19.91 19.75 19.5 19.75Z" fill="#292D32"/>
<path d="M12.1498 11.62C12.1198 11.62 12.0998 11.62 12.0698 11.62C12.0098 11.61 11.9498 11.62 11.8898 11.62C8.9898 11.53 6.7998 9.25 6.7998 6.44C6.7998 3.58 9.1298 1.25 11.9898 1.25C14.8498 1.25 17.1798 3.58 17.1798 6.44C17.1698 9.25 14.9698 11.53 12.1798 11.62C12.1698 11.62 12.1598 11.62 12.1498 11.62ZM11.9898 2.75C9.9598 2.75 8.2998 4.41 8.2998 6.44C8.2998 8.44 9.8598 10.05 11.8498 10.12C11.9098 10.11 12.0398 10.11 12.1698 10.12C14.1298 10.03 15.6698 8.42 15.6798 6.44C15.6798 4.41 14.0198 2.75 11.9898 2.75Z" fill="#292D32"/>
<path d="M11.9899 22.5602C9.94991 22.5602 8.01991 22.0302 6.55991 21.0502C5.16991 20.1202 4.40991 18.8502 4.40991 17.4802C4.40991 16.1102 5.17991 14.8502 6.55991 13.9302C9.54991 11.9302 14.4099 11.9302 17.3999 13.9302C17.7399 14.1602 17.8399 14.6302 17.6099 14.9702C17.3799 15.3202 16.9099 15.4102 16.5699 15.1802C14.0799 13.5202 9.87991 13.5202 7.38991 15.1802C6.42991 15.8202 5.90991 16.6302 5.90991 17.4802C5.90991 18.3302 6.42991 19.1602 7.38991 19.8002C8.59991 20.6102 10.2299 21.0502 11.9799 21.0502C12.3899 21.0502 12.7299 21.3902 12.7299 21.8002C12.7299 22.2102 12.3999 22.5602 11.9899 22.5602Z" fill="#292D32"/>
</svg>
