<svg width="24" height="24" viewBox="0 0 24 24" fill="none" xmlns="http://www.w3.org/2000/svg">
<path d="M5.75 16.11V7.89C7.04 7.56 8 6.4 8 5C8 3.34 6.66 2 5 2C3.34 2 2 3.34 2 5C2 6.4 2.96 7.56 4.25 7.89V16.1C2.96 16.44 2 17.6 2 19C2 20.66 3.34 22 5 22C6.66 22 8 20.66 8 19C8 17.6 7.04 16.44 5.75 16.11Z" fill="#292D32"/>
<path d="M19.75 16.1102V6.50018C19.75 4.98018 18.52 3.75018 17 3.75018H14.07L15.48 2.58018C15.8 2.31018 15.84 1.84018 15.58 1.52018C15.31 1.20018 14.84 1.16018 14.52 1.42018L11.52 3.92018C11.35 4.06018 11.25 4.27018 11.25 4.50018C11.25 4.73018 11.35 4.93018 11.52 5.08018L14.52 7.58018C14.66 7.70018 14.83 7.75018 15 7.75018C15.21 7.75018 15.43 7.66018 15.58 7.48018C15.85 7.16018 15.8 6.69018 15.48 6.42018L14.07 5.25018H17C17.69 5.25018 18.25 5.81018 18.25 6.50018V16.1102C16.96 16.4402 16 17.6002 16 19.0002C16 20.6602 17.34 22.0002 19 22.0002C20.66 22.0002 22 20.6602 22 19.0002C22 17.6002 21.04 16.4402 19.75 16.1102Z" fill="#292D32"/>
</svg>
