<svg width="24" height="24" viewBox="0 0 24 24" fill="none" xmlns="http://www.w3.org/2000/svg">
<path d="M15.02 2.23006C13.02 1.92006 10.9801 1.92006 8.98006 2.23006C8.16006 2.36006 7.56005 3.06005 7.56005 3.88005V7.56005H3.88005C3.06005 7.56005 2.36006 8.16006 2.23006 8.98006C1.92006 10.9801 1.92006 13.02 2.23006 15.02C2.36006 15.84 3.06005 16.4401 3.88005 16.4401H5.56005C5.84005 16.4401 6.06005 16.2201 6.06005 15.9401V14.22C6.06005 12.17 7.73005 10.5 9.78005 10.5H14.22C14.62 10.5 14.9401 10.18 14.9401 9.78005V6.56005C14.9401 6.28005 15.1601 6.06005 15.4401 6.06005H15.9401C16.2201 6.06005 16.4401 5.84005 16.4401 5.56005V3.88005C16.4401 3.06005 15.84 2.36006 15.02 2.23006ZM10.33 5.58003C9.92003 5.58003 9.53005 5.19005 9.53005 4.78005C9.53005 4.36005 9.92003 3.97005 10.33 3.97005C10.53 3.97005 10.7501 4.06006 10.8901 4.20006C11.0401 4.34006 11.1401 4.57005 11.1401 4.78005C11.1401 5.19005 10.75 5.58003 10.33 5.58003Z" fill="black"/>
<path d="M21.7701 8.98007C21.6401 8.16007 20.9401 7.56006 20.1201 7.56006H16.9401C16.6601 7.56006 16.4401 7.78006 16.4401 8.06006V9.78006C16.4401 11.0001 15.4501 12.0001 14.2201 12.0001H9.78006C8.55006 12.0001 7.56006 12.9901 7.56006 14.2201V20.1201C7.56006 20.9401 8.16007 21.6401 8.98007 21.7701C10.9801 22.0801 13.0201 22.0801 15.0201 21.7701C15.8401 21.6401 16.4401 20.9401 16.4401 20.1201V16.4401H20.1201C20.9401 16.4401 21.6401 15.8401 21.7701 15.0201C22.0801 13.0201 22.0801 10.9801 21.7701 8.98007ZM13.6701 20.0301C13.2601 20.0301 12.86 19.6401 12.86 19.2201C12.86 18.8001 13.2501 18.4101 13.6701 18.4101C13.8601 18.4101 14.0901 18.5001 14.2301 18.6301C14.3801 18.7701 14.4801 19.0101 14.4801 19.2101C14.4701 19.6401 14.0801 20.0301 13.6701 20.0301Z" fill="black"/>
</svg>
