<svg width="24" height="24" viewBox="0 0 24 24" fill="none" xmlns="http://www.w3.org/2000/svg">
<path d="M22.0001 12.4H16.2001C14.3001 12.4 12.8701 10.97 12.8701 9.07001V5.84998C12.8701 3.94998 14.3001 2.52002 16.2001 2.52002H19.4201C21.2501 2.52002 22.7501 4.00998 22.7501 5.84998V11.65C22.7501 12.07 22.4101 12.4 22.0001 12.4ZM16.2001 4.03003C15.1401 4.03003 14.3701 4.79999 14.3701 5.85999V9.08002C14.3701 10.14 15.1401 10.91 16.2001 10.91H21.2501V5.85999C21.2501 4.84999 20.4301 4.03003 19.4201 4.03003H16.2001Z" fill="#292D32"/>
<path d="M17.47 21.4698C17.21 21.4698 16.96 21.3399 16.82 21.0999C16.61 20.7399 16.73 20.2799 17.08 20.0699C20.31 18.1499 21.25 17.3499 21.25 11.6499C21.25 11.2399 21.59 10.8999 22 10.8999C22.41 10.8999 22.75 11.2399 22.75 11.6499C22.75 17.8999 21.48 19.2099 17.85 21.3599C17.73 21.4399 17.6 21.4698 17.47 21.4698Z" fill="#292D32"/>
<path d="M10.3702 12.4H4.57023C2.67023 12.4 1.24023 10.97 1.24023 9.07001V5.84998C1.24023 3.94998 2.67023 2.52002 4.57023 2.52002H7.80023C9.63023 2.52002 11.1302 4.00998 11.1302 5.84998V11.65C11.1202 12.07 10.7902 12.4 10.3702 12.4ZM4.58023 4.03003C3.52023 4.03003 2.75023 4.79999 2.75023 5.85999V9.08002C2.75023 10.14 3.52023 10.91 4.58023 10.91H9.63023V5.85999C9.63023 4.84999 8.81024 4.03003 7.80023 4.03003H4.58023Z" fill="#292D32"/>
<path d="M5.84013 21.4698C5.58013 21.4698 5.33013 21.3399 5.19013 21.0999C4.98013 20.7399 5.10013 20.2799 5.45013 20.0699C8.68013 18.1499 9.62013 17.3499 9.62013 11.6499C9.62013 11.2399 9.96013 10.8999 10.3701 10.8999C10.7801 10.8999 11.1201 11.2399 11.1201 11.6499C11.1201 17.8999 9.85013 19.2099 6.22013 21.3599C6.10013 21.4399 5.97013 21.4698 5.84013 21.4698Z" fill="#292D32"/>
</svg>
