<svg width="24" height="24" viewBox="0 0 24 24" fill="none" xmlns="http://www.w3.org/2000/svg">
<path d="M7.79999 21.4698H4.58002C2.75002 21.4698 1.25 19.9798 1.25 18.1398V12.3398C1.25 11.9298 1.59 11.5898 2 11.5898H7.79999C9.69999 11.5898 11.13 13.0198 11.13 14.9198V18.1398C11.12 20.0398 9.68999 21.4698 7.79999 21.4698ZM2.75 13.0998V18.1498C2.75 19.1598 3.57002 19.9798 4.58002 19.9798H7.79999C8.85999 19.9798 9.63 19.2098 9.63 18.1498V14.9298C9.63 13.8698 8.85999 13.0998 7.79999 13.0998H2.75Z" fill="#292D32"/>
<path d="M2 13.0998C1.59 13.0998 1.25 12.7598 1.25 12.3498C1.25 6.0998 2.52002 4.78984 6.15002 2.63984C6.51002 2.42984 6.96999 2.54985 7.17999 2.89985C7.38999 3.25985 7.26998 3.71982 6.91998 3.92982C3.67998 5.84981 2.75 6.6498 2.75 12.3498C2.75 12.7598 2.41 13.0998 2 13.0998Z" fill="#292D32"/>
<path d="M19.4201 21.4698H16.2001C14.3701 21.4698 12.8701 19.9798 12.8701 18.1398V12.3398C12.8701 11.9298 13.2101 11.5898 13.6201 11.5898H19.4201C21.3201 11.5898 22.7501 13.0198 22.7501 14.9198V18.1398C22.7501 20.0398 21.3201 21.4698 19.4201 21.4698ZM14.3801 13.0998V18.1498C14.3801 19.1598 15.2001 19.9798 16.2101 19.9798H19.4301C20.4901 19.9798 21.2601 19.2098 21.2601 18.1498V14.9298C21.2601 13.8698 20.4901 13.0998 19.4301 13.0998H14.3801Z" fill="#292D32"/>
<path d="M13.6299 13.0998C13.2199 13.0998 12.8799 12.7598 12.8799 12.3498C12.8799 6.0998 14.1499 4.78984 17.7799 2.63984C18.1399 2.42984 18.5999 2.54985 18.8099 2.89985C19.0199 3.25985 18.8999 3.71982 18.5499 3.92982C15.3099 5.84981 14.3799 6.6498 14.3799 12.3498C14.3799 12.7598 14.0399 13.0998 13.6299 13.0998Z" fill="#292D32"/>
</svg>
