<svg width="24" height="24" viewBox="0 0 24 24" fill="none" xmlns="http://www.w3.org/2000/svg">
<path d="M15.5 22.75H8.5C4.79 22.75 2.75 20.71 2.75 17V7C2.75 3.29 4.79 1.25 8.5 1.25H15.5C19.15 1.25 21.25 3.35 21.25 7V8C21.25 8.96 20.46 9.75 19.5 9.75C19.36 9.75 19.25 9.86 19.25 10V12.17C19.25 12.5 19.38 12.82 19.62 13.05L20.45 13.88C20.97 14.4 21.26 15.09 21.26 15.82V17C21.25 20.65 19.15 22.75 15.5 22.75ZM8.5 2.75C5.64 2.75 4.25 4.14 4.25 7V17C4.25 19.86 5.64 21.25 8.5 21.25H15.5C18.32 21.25 19.75 19.82 19.75 17V15.83C19.75 15.5 19.62 15.18 19.38 14.95L18.55 14.12C18.03 13.6 17.74 12.91 17.74 12.18V10C17.74 9.04 18.53 8.25 19.49 8.25C19.63 8.25 19.74 8.14 19.74 8V7C19.74 4.18 18.31 2.75 15.49 2.75H8.5Z" fill="#292D32"/>
<path d="M16.01 22.7202C15.6 22.7202 15.26 22.3902 15.26 21.9802L15.23 18.9902C15.23 18.3002 14.66 17.7502 13.98 17.7502H9.98001C9.65001 17.7502 9.33001 17.8802 9.09001 18.1202C8.86001 18.3502 8.73001 18.6702 8.73001 19.0002L8.74001 21.9702C8.74001 22.3802 8.41001 22.7202 7.99001 22.7202C7.58001 22.7202 7.24001 22.3902 7.24001 21.9702L7.23001 19.0002C7.23001 18.2602 7.51001 17.5702 8.03001 17.0502C8.55001 16.5302 9.24001 16.2402 9.98001 16.2402H13.99C15.5 16.2402 16.73 17.4702 16.74 18.9702L16.77 21.9502C16.77 22.3802 16.43 22.7202 16.01 22.7202C16.02 22.7202 16.01 22.7202 16.01 22.7202Z" fill="#292D32"/>
<path d="M13.97 8.52978H7.97C7.56 8.52978 7.22 8.18979 7.22 7.77979C7.22 7.36979 7.56 7.02979 7.97 7.02979H13.97C14.38 7.02979 14.72 7.36979 14.72 7.77979C14.72 8.18979 14.39 8.52978 13.97 8.52978Z" fill="#292D32"/>
</svg>
