<svg width="24" height="24" viewBox="0 0 24 24" fill="none" xmlns="http://www.w3.org/2000/svg">
<path d="M7.00049 2H6.00049C3.00049 2 2.00049 3.79 2.00049 6V7V21C2.00049 21.83 2.94049 22.3 3.60049 21.8L5.31049 20.52C5.71049 20.22 6.27049 20.26 6.63049 20.62L8.29049 22.29C8.68049 22.68 9.32049 22.68 9.71049 22.29L11.3905 20.61C11.7405 20.26 12.3005 20.22 12.6905 20.52L14.4005 21.8C15.0605 22.29 16.0005 21.82 16.0005 21V4C16.0005 2.9 16.9005 2 18.0005 2H7.00049ZM11.7505 10.75H6.25049C5.84049 10.75 5.50049 10.41 5.50049 10C5.50049 9.59 5.84049 9.25 6.25049 9.25H11.7505C12.1605 9.25 12.5005 9.59 12.5005 10C12.5005 10.41 12.1605 10.75 11.7505 10.75Z" fill="#292D32"/>
<path d="M18.0105 2V3.5C18.6705 3.5 19.3005 3.77 19.7605 4.22C20.2405 4.71 20.5005 5.34 20.5005 6V8.42C20.5005 9.16 20.1705 9.5 19.4205 9.5H17.5005V4.01C17.5005 3.73 17.7305 3.5 18.0105 3.5V2ZM18.0105 2C16.9005 2 16.0005 2.9 16.0005 4.01V11H19.4205C21.0005 11 22.0005 10 22.0005 8.42V6C22.0005 4.9 21.5505 3.9 20.8305 3.17C20.1005 2.45 19.1105 2.01 18.0105 2C18.0205 2 18.0105 2 18.0105 2Z" fill="#292D32"/>
</svg>
