<svg width="24" height="24" viewBox="0 0 24 24" fill="none" xmlns="http://www.w3.org/2000/svg">
<path d="M11.97 22.75C6.04997 22.75 1.21997 17.93 1.21997 12C1.21997 6.07 6.04997 1.25 11.97 1.25C17.89 1.25 22.72 6.07 22.72 12C22.72 17.93 17.9 22.75 11.97 22.75ZM11.97 2.75C6.86997 2.75 2.71997 6.9 2.71997 12C2.71997 17.1 6.86997 21.25 11.97 21.25C17.07 21.25 21.22 17.1 21.22 12C21.22 6.9 17.07 2.75 11.97 2.75Z" fill="#292D32"/>
<path d="M12 16.98C9.25002 16.98 7.02002 14.75 7.02002 12C7.02002 9.25002 9.25002 7.02002 12 7.02002C14.75 7.02002 16.98 9.25002 16.98 12C16.98 14.75 14.75 16.98 12 16.98ZM12 8.52002C10.08 8.52002 8.52002 10.08 8.52002 12C8.52002 13.92 10.08 15.48 12 15.48C13.92 15.48 15.48 13.92 15.48 12C15.48 10.08 13.92 8.52002 12 8.52002Z" fill="#292D32"/>
</svg>
