<svg width="24" height="24" viewBox="0 0 24 24" fill="none" xmlns="http://www.w3.org/2000/svg">
<path d="M19.6299 7.23991C19.9299 7.70991 19.7699 8.33991 19.2899 8.62991L18.6999 8.97991L5.58991 16.8399C5.10991 17.1299 4.47991 16.9699 4.19991 16.4799C3.19991 14.7399 2.74991 12.6199 3.13991 10.3999C3.79991 6.62991 6.89991 3.62991 10.6899 3.08991C14.4399 2.55991 17.8299 4.35991 19.6299 7.23991Z" fill="#292D32"/>
<path d="M20.8899 13.4298C20.2099 17.6798 16.4499 20.9298 12.1399 20.9998C10.2399 21.0298 8.47991 20.4798 7.01991 19.4898C6.39991 19.0798 6.41991 18.1598 7.05991 17.7798L19.4699 10.4898C20.1199 10.1098 20.9199 10.5498 20.9799 11.2998C21.0299 11.9998 20.9999 12.7098 20.8899 13.4298Z" fill="#292D32"/>
</svg>
