<svg width="24" height="24" viewBox="0 0 24 24" fill="none" xmlns="http://www.w3.org/2000/svg">
<path d="M21.97 18V19C21.97 20.65 21.97 22 18.97 22H4.97C1.97 22 1.97 20.65 1.97 19V18C1.97 17.45 2.42 17 2.97 17H20.97C21.52 17 21.97 17.45 21.97 18Z" fill="#292D32"/>
<path d="M14.41 5.18002C14.46 4.98002 14.49 4.79002 14.5 4.58002C14.53 3.42002 13.82 2.40002 12.7 2.10002C11.02 1.64002 9.49999 2.90002 9.49999 4.50002C9.49999 4.74002 9.52999 4.96002 9.58999 5.18002C5.97999 5.95002 3.26999 9.16002 3.26999 13V14.5C3.26999 15.05 3.71999 15.5 4.26999 15.5H19.72C20.27 15.5 20.72 15.05 20.72 14.5V13C20.72 9.16002 18.02 5.96002 14.41 5.18002ZM15 11.75H8.99999C8.58999 11.75 8.24999 11.41 8.24999 11C8.24999 10.59 8.58999 10.25 8.99999 10.25H15C15.41 10.25 15.75 10.59 15.75 11C15.75 11.41 15.41 11.75 15 11.75Z" fill="#292D32"/>
</svg>
