<svg width="24" height="24" viewBox="0 0 24 24" fill="none" xmlns="http://www.w3.org/2000/svg">
<path d="M11.75 22.75H7.25C3.1 22.75 1.25 20.9 1.25 16.75V12.25C1.25 8.1 3.1 6.25 7.25 6.25H11.75C15.9 6.25 17.75 8.1 17.75 12.25V16.75C17.75 20.9 15.9 22.75 11.75 22.75ZM7.25 7.75C3.93 7.75 2.75 8.93 2.75 12.25V16.75C2.75 20.07 3.93 21.25 7.25 21.25H11.75C15.07 21.25 16.25 20.07 16.25 16.75V12.25C16.25 8.93 15.07 7.75 11.75 7.75H7.25Z" fill="#292D32"/>
<path d="M22.0001 9.75C21.5901 9.75 21.2501 9.41 21.2501 9C21.2501 6.04 19.1901 3.56 16.4201 2.91L16.6901 3.36C16.9001 3.72 16.7901 4.18 16.4301 4.39C16.0701 4.6 15.6101 4.49 15.4001 4.13L14.3501 2.38C14.2101 2.15 14.2101 1.86 14.3401 1.63C14.4801 1.4 14.7301 1.25 15.0001 1.25C19.2701 1.25 22.7501 4.73 22.7501 9C22.7501 9.41 22.4101 9.75 22.0001 9.75Z" fill="#292D32"/>
</svg>
