<svg width="25" height="24" viewBox="0 0 25 24" fill="none" xmlns="http://www.w3.org/2000/svg">
<path d="M11.9999 19.75H9.31994C8.15994 19.75 7.14994 19.05 6.74994 17.97C6.33994 16.89 6.63994 15.7 7.50994 14.93L15.4999 7.94C15.9799 7.52 15.9899 6.95 15.8499 6.56C15.6999 6.17 15.3199 5.75 14.6799 5.75H11.9999C11.5899 5.75 11.2499 5.41 11.2499 5C11.2499 4.59 11.5899 4.25 11.9999 4.25H14.6799C15.8399 4.25 16.8499 4.95 17.2499 6.03C17.6599 7.11 17.3599 8.3 16.4899 9.07L8.49994 16.06C8.01994 16.48 8.00994 17.05 8.14994 17.44C8.29994 17.83 8.67994 18.25 9.31994 18.25H11.9999C12.4099 18.25 12.7499 18.59 12.7499 19C12.7499 19.41 12.4099 19.75 11.9999 19.75Z" fill="#292D32"/>
<path d="M20 15H17C15.9 15 15 15.9 15 17V20C15 21.1 15.9 22 17 22H20C21.1 22 22 21.1 22 20V17C22 15.9 21.1 15 20 15ZM18.51 19.5C17.96 19.5 17.51 19.05 17.51 18.5C17.51 17.95 17.95 17.5 18.51 17.5H18.52C19.07 17.5 19.52 17.95 19.52 18.5C19.52 19.05 19.07 19.5 18.51 19.5Z" fill="#292D32"/>
<path d="M5.46997 2C3.53997 2 1.96997 3.57 1.96997 5.5C1.96997 7.43 3.53997 9 5.46997 9C7.39997 9 8.96997 7.43 8.96997 5.5C8.96997 3.57 7.40997 2 5.46997 2ZM5.50997 6.5C4.95997 6.5 4.50997 6.05 4.50997 5.5C4.50997 4.95 4.94997 4.5 5.50997 4.5H5.51997C6.06997 4.5 6.51997 4.95 6.51997 5.5C6.51997 6.05 6.06997 6.5 5.50997 6.5Z" fill="#292D32"/>
</svg>
