<svg width="24" height="24" viewBox="0 0 24 24" fill="none" xmlns="http://www.w3.org/2000/svg">
<path d="M23 15.3699V17.5599C23 19.9999 21.22 22.2999 18.8 22.9699C18.63 23.0099 18.45 23.0099 18.29 22.9699C17.11 22.6499 16.07 21.9299 15.34 20.9999C14.55 20.0199 14.09 18.8099 14.09 17.5599V15.3699C14.09 14.9499 14.4 14.4899 14.78 14.3299L17.56 13.1899C18.19 12.9399 18.89 12.9399 19.52 13.1899L20.52 13.5999L22.31 14.3299C22.69 14.4899 23 14.9499 23 15.3699Z" fill="#292D32"/>
<path d="M20.95 11.01L20.77 12.08L20.07 11.8C19.08 11.4 18 11.4 16.99 11.8L14.2 12.95C13.25 13.35 12.59 14.34 12.59 15.37V17.56C12.59 18.75 12.92 19.94 13.53 21H6.17997C4.80997 21 3.51997 19.91 3.28997 18.56L2.02997 11.01C1.86997 10.08 2.33997 8.83003 3.07997 8.24003L9.65997 2.98004C10.67 2.17004 12.31 2.17004 13.32 2.99004L19.9 8.24003C20.63 8.83003 21.11 10.08 20.95 11.01Z" fill="#292D32"/>
</svg>
