<svg width="24" height="24" viewBox="0 0 24 24" fill="none" xmlns="http://www.w3.org/2000/svg">
<path d="M22 5.11V16.47C22 17.92 20.96 18.53 19.69 17.83L17.76 16.75C17.6 16.66 17.5 16.49 17.5 16.31V8.99C17.5 6.45 15.43 4.38 12.89 4.38H8.82002C8.45002 4.38 8.19002 3.99 8.36002 3.67C8.88002 2.68 9.92002 2 11.11 2H18.89C20.6 2 22 3.4 22 5.11Z" fill="#292D32"/>
<path d="M12.89 5.87988H5.11C3.4 5.87988 2 7.27988 2 8.98988V20.3499C2 21.7999 3.04 22.4099 4.31 21.7099L8.24 19.5199C8.66 19.2899 9.34 19.2899 9.76 19.5199L13.69 21.7099C14.96 22.4099 16 21.7999 16 20.3499V8.98988C16 7.27988 14.6 5.87988 12.89 5.87988ZM11 12.7499H7C6.59 12.7499 6.25 12.4099 6.25 11.9999C6.25 11.5899 6.59 11.2499 7 11.2499H11C11.41 11.2499 11.75 11.5899 11.75 11.9999C11.75 12.4099 11.41 12.7499 11 12.7499Z" fill="#292D32"/>
</svg>
