<svg width="24" height="24" viewBox="0 0 24 24" fill="none" xmlns="http://www.w3.org/2000/svg">
<path d="M22 5.11V16.47C22 17.92 20.96 18.53 19.69 17.83L17.76 16.75C17.6 16.66 17.5 16.49 17.5 16.31V8.99C17.5 6.45 15.43 4.38 12.89 4.38H8.82002C8.45002 4.38 8.19002 3.99 8.36002 3.67C8.88002 2.68 9.92002 2 11.11 2H18.89C20.6 2 22 3.4 22 5.11Z" fill="#292D32"/>
<path d="M12.89 5.87988H5.11C3.4 5.87988 2 7.27988 2 8.98988V20.3499C2 21.7999 3.04 22.4099 4.31 21.7099L8.24 19.5199C8.66 19.2899 9.34 19.2899 9.76 19.5199L13.69 21.7099C14.96 22.4099 16 21.7999 16 20.3499V8.98988C16 7.27988 14.6 5.87988 12.89 5.87988ZM10.94 12.8799C11.23 13.1699 11.23 13.6499 10.94 13.9399C10.79 14.0899 10.6 14.1599 10.41 14.1599C10.22 14.1599 10.03 14.0899 9.88 13.9399L9 13.0599L8.12 13.9399C7.97 14.0899 7.78 14.1599 7.59 14.1599C7.4 14.1599 7.21 14.0899 7.06 13.9399C6.77 13.6499 6.77 13.1699 7.06 12.8799L7.94 11.9999L7.06 11.1199C6.77 10.8299 6.77 10.3499 7.06 10.0599C7.35 9.76988 7.83 9.76988 8.12 10.0599L9 10.9399L9.88 10.0599C10.17 9.76988 10.65 9.76988 10.94 10.0599C11.23 10.3499 11.23 10.8299 10.94 11.1199L10.06 11.9999L10.94 12.8799Z" fill="#292D32"/>
</svg>
