<svg width="24" height="24" viewBox="0 0 24 24" fill="none" xmlns="http://www.w3.org/2000/svg">
<path d="M15 22.75H9C3.57 22.75 1.25 20.43 1.25 15V9C1.25 3.57 3.57 1.25 9 1.25H15C20.43 1.25 22.75 3.57 22.75 9V15C22.75 20.43 20.43 22.75 15 22.75ZM9 2.75C4.39 2.75 2.75 4.39 2.75 9V15C2.75 19.61 4.39 21.25 9 21.25H15C19.61 21.25 21.25 19.61 21.25 15V9C21.25 4.39 19.61 2.75 15 2.75H9Z" fill="#292D32"/>
<path d="M9.60001 15.7799C9.41001 15.7799 9.22001 15.7099 9.07001 15.5599L6.58001 13.0699C5.99001 12.4799 5.99001 11.5299 6.58001 10.9399L9.07001 8.44992C9.36001 8.15992 9.84001 8.15992 10.13 8.44992C10.42 8.73992 10.42 9.21992 10.13 9.50992L7.64001 11.9999L10.13 14.4999C10.42 14.7899 10.42 15.2699 10.13 15.5599C9.98001 15.6999 9.79001 15.7799 9.60001 15.7799Z" fill="#292D32"/>
<path d="M14.4 15.7802C14.21 15.7802 14.02 15.7102 13.87 15.5602C13.58 15.2702 13.58 14.7902 13.87 14.5002L16.36 12.0002L13.87 9.50016C13.58 9.21016 13.58 8.73016 13.87 8.44016C14.16 8.15016 14.64 8.15016 14.93 8.44016L17.42 10.9302C18.01 11.5202 18.01 12.4702 17.42 13.0602L14.93 15.5502C14.79 15.7002 14.59 15.7802 14.4 15.7802Z" fill="#292D32"/>
</svg>
