<svg width="24" height="24" viewBox="0 0 24 24" fill="none" xmlns="http://www.w3.org/2000/svg">
<path d="M21.3001 22.0001C21.1201 22.0001 20.9401 21.9301 20.8101 21.8001L18.9501 19.9401C18.6801 19.6701 18.6801 19.2301 18.9501 18.9501C19.2201 18.6801 19.6601 18.6801 19.9401 18.9501L21.8001 20.8101C22.0701 21.0801 22.0701 21.5201 21.8001 21.8001C21.6601 21.9301 21.4801 22.0001 21.3001 22.0001Z" fill="#292D32"/>
<path d="M11.5 2C6.26 2 2 6.26 2 11.5C2 16.74 6.26 21 11.5 21C16.74 21 21 16.74 21 11.5C21 6.26 16.74 2 11.5 2ZM14.68 12.06C14.12 13.84 12.17 14.81 11.5 14.81C10.81 14.81 8.9 13.88 8.32 12.06C7.94 10.87 8.37 9.32 9.73 8.89C10.35 8.69 11.01 8.81 11.5 9.18C11.98 8.81 12.65 8.69 13.28 8.89C14.63 9.33 15.06 10.88 14.68 12.06Z" fill="#292D32"/>
</svg>
