<svg width="24" height="24" viewBox="0 0 24 24" fill="none" xmlns="http://www.w3.org/2000/svg">
<path d="M11 1.98999C6.02999 1.98999 1.98999 6.02999 1.98999 11C1.98999 15.97 6.02999 20.01 11 20.01C15.97 20.01 20.01 15.97 20.01 11C20.01 6.02999 15.97 1.98999 11 1.98999ZM11 13.25H7.99999C7.58999 13.25 7.24999 12.91 7.24999 12.5C7.24999 12.09 7.58999 11.75 7.99999 11.75H11C11.41 11.75 11.75 12.09 11.75 12.5C11.75 12.91 11.41 13.25 11 13.25ZM14 10.25H7.99999C7.58999 10.25 7.24999 9.90999 7.24999 9.49999C7.24999 9.08999 7.58999 8.74999 7.99999 8.74999H14C14.41 8.74999 14.75 9.08999 14.75 9.49999C14.75 9.90999 14.41 10.25 14 10.25Z" fill="#292D32"/>
<path d="M21.9901 18.95C21.6601 18.34 20.9601 18 20.0201 18C19.3101 18 18.7001 18.29 18.3401 18.79C17.9801 19.29 17.9001 19.96 18.1201 20.63C18.5501 21.93 19.3001 22.22 19.7101 22.27C19.7701 22.28 19.8301 22.28 19.9001 22.28C20.3401 22.28 21.0201 22.09 21.6801 21.1C22.2101 20.33 22.3101 19.56 21.9901 18.95Z" fill="#292D32"/>
</svg>
