<svg width="24" height="24" viewBox="0 0 24 24" fill="none" xmlns="http://www.w3.org/2000/svg">
<path d="M11.5 21.75C5.85 21.75 1.25 17.15 1.25 11.5C1.25 5.85 5.85 1.25 11.5 1.25C11.91 1.25 12.25 1.59 12.25 2C12.25 2.41 11.91 2.75 11.5 2.75C6.67 2.75 2.75 6.68 2.75 11.5C2.75 16.32 6.67 20.25 11.5 20.25C16.33 20.25 20.25 16.32 20.25 11.5C20.25 11.09 20.59 10.75 21 10.75C21.41 10.75 21.75 11.09 21.75 11.5C21.75 17.15 17.15 21.75 11.5 21.75Z" fill="#292D32"/>
<path d="M21.9999 22.7499C21.8099 22.7499 21.6199 22.6799 21.4699 22.5299L19.4699 20.5299C19.1799 20.2399 19.1799 19.7599 19.4699 19.4699C19.7599 19.1799 20.2399 19.1799 20.5299 19.4699L22.5299 21.4699C22.8199 21.7599 22.8199 22.2399 22.5299 22.5299C22.3799 22.6799 22.1899 22.7499 21.9999 22.7499Z" fill="#292D32"/>
<path d="M17.5 9.54018C16.58 9.54018 14.44 8.42018 13.78 6.36018C13.33 4.95018 13.85 3.10018 15.48 2.57018C16.18 2.34018 16.91 2.45018 17.49 2.82018C18.06 2.45018 18.81 2.35018 19.51 2.57018C21.14 3.10018 21.67 4.95018 21.21 6.36018C20.56 8.46018 18.31 9.54018 17.5 9.54018ZM15.21 5.91018C15.67 7.36018 17.23 8.02018 17.51 8.05018C17.83 8.02018 19.36 7.28018 19.78 5.92018C20.01 5.19018 19.78 4.25018 19.05 4.01018C18.74 3.91018 18.32 3.97018 18.12 4.26018C17.98 4.47018 17.76 4.59018 17.51 4.60018C17.29 4.61018 17.03 4.49018 16.89 4.29018C16.66 3.96018 16.24 3.91018 15.94 4.00018C15.22 4.24018 14.98 5.18018 15.21 5.91018Z" fill="#292D32"/>
</svg>
