<svg width="24" height="24" viewBox="0 0 24 24" fill="none" xmlns="http://www.w3.org/2000/svg">
<path d="M11 1.98999C6.02999 1.98999 1.98999 6.02999 1.98999 11C1.98999 15.97 6.02999 20.01 11 20.01C15.97 20.01 20.01 15.97 20.01 11C20.01 6.02999 15.97 1.98999 11 1.98999ZM14.18 11.56C13.62 13.34 11.67 14.31 11 14.31C10.31 14.31 8.39999 13.38 7.81999 11.56C7.43999 10.37 7.86999 8.81999 9.22999 8.38999C9.84999 8.18999 10.51 8.30999 11 8.67999C11.48 8.30999 12.15 8.18999 12.78 8.38999C14.13 8.82999 14.56 10.38 14.18 11.56Z" fill="#292D32"/>
<path d="M21.9901 18.95C21.6601 18.34 20.9601 18 20.0201 18C19.3101 18 18.7001 18.29 18.3401 18.79C17.9801 19.29 17.9001 19.96 18.1201 20.63C18.5501 21.93 19.3001 22.22 19.7101 22.27C19.7701 22.28 19.8301 22.28 19.9001 22.28C20.3401 22.28 21.0201 22.09 21.6801 21.1C22.2101 20.33 22.3101 19.56 21.9901 18.95Z" fill="#292D32"/>
</svg>
