<svg width="24" height="24" viewBox="0 0 24 24" fill="none" xmlns="http://www.w3.org/2000/svg">
<path d="M20.9101 11.1201V6.73007C20.9101 5.91007 20.2901 4.98007 19.5201 4.67007L13.9501 2.39007C12.7001 1.88007 11.2901 1.88007 10.0401 2.39007L4.47009 4.67007C3.71009 4.98007 3.09009 5.91007 3.09009 6.73007V11.1201C3.09009 16.0101 6.64009 20.5901 11.4901 21.9301C11.8201 22.0201 12.1801 22.0201 12.5101 21.9301C17.3601 20.5901 20.9101 16.0101 20.9101 11.1201ZM12.7501 12.8701V15.5001C12.7501 15.9101 12.4101 16.2501 12.0001 16.2501C11.5901 16.2501 11.2501 15.9101 11.2501 15.5001V12.8701C10.2401 12.5501 9.50009 11.6101 9.50009 10.5001C9.50009 9.12007 10.6201 8.00007 12.0001 8.00007C13.3801 8.00007 14.5001 9.12007 14.5001 10.5001C14.5001 11.6201 13.7601 12.5501 12.7501 12.8701Z" fill="#292D32"/>
</svg>
