<svg width="24" height="24" viewBox="0 0 24 24" fill="none" xmlns="http://www.w3.org/2000/svg">
<path d="M13.49 13.3799H11C10.7 13.3799 10.46 13.6199 10.46 13.9199C10.46 14.2199 10.7 14.4599 11 14.4599H13.49C13.79 14.4599 14.03 14.2199 14.03 13.9199C14.03 13.6199 13.79 13.3799 13.49 13.3799Z" fill="#292D32"/>
<path d="M9.4399 13.3799H8.1899C7.8899 13.3799 7.6499 13.6199 7.6499 13.9199C7.6499 14.2199 7.8899 14.4599 8.1899 14.4599H9.4399C9.7399 14.4599 9.9799 14.2199 9.9799 13.9199C9.9799 13.6199 9.7399 13.3799 9.4399 13.3799Z" fill="#292D32"/>
<path d="M18.5398 4.21994L13.0398 2.15994C12.4698 1.94994 11.5398 1.94994 10.9698 2.15994L5.4698 4.21994C4.4098 4.61994 3.5498 5.85994 3.5498 6.98994V15.0899C3.5498 15.8999 4.0798 16.9699 4.7298 17.4499L10.2298 21.5599C11.1998 22.2899 12.7898 22.2899 13.7598 21.5599L19.2598 17.4499C19.9098 16.9599 20.4398 15.8999 20.4398 15.0899V6.98994C20.4498 5.85994 19.5898 4.61994 18.5398 4.21994ZM18.1698 13.6499C18.1498 15.7199 17.5798 16.2399 15.4298 16.2399H8.5798C6.3898 16.2399 5.8398 15.6999 5.8398 13.5299V11.1999C5.8398 10.9199 6.0598 10.6999 6.3398 10.6999H17.6698C17.9498 10.6999 18.1698 10.9199 18.1698 11.1999V13.6499ZM18.1698 9.10994C18.1698 9.38994 17.9498 9.60994 17.6698 9.60994H6.3398C6.0598 9.60994 5.8398 9.38994 5.8398 9.10994V8.46994C5.8398 6.50994 6.2998 5.87994 8.0098 5.76994C8.1898 5.76994 8.3798 5.75994 8.5798 5.75994H15.4298C17.6198 5.75994 18.1698 6.29994 18.1698 8.46994V9.10994Z" fill="#292D32"/>
</svg>
