<svg width="24" height="24" viewBox="0 0 24 24" fill="none" xmlns="http://www.w3.org/2000/svg">
<path d="M12 8.25C10.21 8.25 8.75 9.71 8.75 11.5C8.75 13.29 10.21 14.75 12 14.75C13.79 14.75 15.25 13.29 15.25 11.5C15.25 9.71 13.79 8.25 12 8.25ZM13 11.18C13 11.79 12.67 12.37 12.15 12.68L11.38 13.14C11.26 13.21 11.13 13.25 10.99 13.25C10.74 13.25 10.49 13.12 10.35 12.89C10.14 12.53 10.25 12.07 10.61 11.86L11.37 11.4C11.45 11.35 11.49 11.27 11.49 11.19V10.26C11.49 9.85 11.83 9.51 12.24 9.51C12.65 9.51 13 9.84 13 10.25V11.18Z" fill="#292D32"/>
<path d="M18.54 4.16989L13.04 2.10989C12.47 1.89989 11.54 1.89989 10.97 2.10989L5.46999 4.16989C4.40999 4.56989 3.54999 5.80989 3.54999 6.93989V15.0399C3.54999 15.8499 4.07999 16.9199 4.72999 17.3999L10.23 21.5099C11.2 22.2399 12.79 22.2399 13.76 21.5099L19.26 17.3999C19.91 16.9099 20.44 15.8499 20.44 15.0399V6.93989C20.45 5.80989 19.59 4.56989 18.54 4.16989ZM12 16.2499C9.37999 16.2499 7.24999 14.1199 7.24999 11.4999C7.24999 8.87989 9.37999 6.74989 12 6.74989C14.62 6.74989 16.75 8.87989 16.75 11.4999C16.75 14.1199 14.62 16.2499 12 16.2499Z" fill="#292D32"/>
</svg>
