<svg width="24" height="24" viewBox="0 0 24 24" fill="none" xmlns="http://www.w3.org/2000/svg">
<path d="M15 22.75H9C3.57 22.75 1.25 20.43 1.25 15V9C1.25 3.57 3.57 1.25 9 1.25H15C20.43 1.25 22.75 3.57 22.75 9V15C22.75 20.43 20.43 22.75 15 22.75ZM9 2.75C4.39 2.75 2.75 4.39 2.75 9V15C2.75 19.61 4.39 21.25 9 21.25H15C19.61 21.25 21.25 19.61 21.25 15V9C21.25 4.39 19.61 2.75 15 2.75H9Z" fill="#292D32"/>
<path d="M15.58 19.2501C15.17 19.2501 14.83 18.9101 14.83 18.5001V14.6001C14.83 14.1901 15.17 13.8501 15.58 13.8501C15.99 13.8501 16.33 14.1901 16.33 14.6001V18.5001C16.33 18.9101 15.99 19.2501 15.58 19.2501Z" fill="#292D32"/>
<path d="M15.58 8.2C15.17 8.2 14.83 7.86 14.83 7.45V5.5C14.83 5.09 15.17 4.75 15.58 4.75C15.99 4.75 16.33 5.09 16.33 5.5V7.45C16.33 7.86 15.99 8.2 15.58 8.2Z" fill="#292D32"/>
<path d="M15.58 13.4002C13.73 13.4002 12.23 11.9002 12.23 10.0502C12.23 8.2002 13.73 6.7002 15.58 6.7002C17.43 6.7002 18.93 8.2002 18.93 10.0502C18.93 11.9002 17.42 13.4002 15.58 13.4002ZM15.58 8.2002C14.56 8.2002 13.73 9.0302 13.73 10.0502C13.73 11.0702 14.56 11.9002 15.58 11.9002C16.6 11.9002 17.43 11.0702 17.43 10.0502C17.43 9.0302 16.59 8.2002 15.58 8.2002Z" fill="#292D32"/>
<path d="M8.42001 19.2498C8.01001 19.2498 7.67001 18.9098 7.67001 18.4998V16.5498C7.67001 16.1398 8.01001 15.7998 8.42001 15.7998C8.83001 15.7998 9.17001 16.1398 9.17001 16.5498V18.4998C9.17001 18.9098 8.84001 19.2498 8.42001 19.2498Z" fill="#292D32"/>
<path d="M8.42001 10.15C8.01001 10.15 7.67001 9.81 7.67001 9.4V5.5C7.67001 5.09 8.01001 4.75 8.42001 4.75C8.83001 4.75 9.17001 5.09 9.17001 5.5V9.4C9.17001 9.81 8.84001 10.15 8.42001 10.15Z" fill="#292D32"/>
<path d="M8.42001 17.3001C6.57001 17.3001 5.07001 15.8001 5.07001 13.9501C5.07001 12.1001 6.57001 10.6001 8.42001 10.6001C10.27 10.6001 11.77 12.1001 11.77 13.9501C11.77 15.8001 10.27 17.3001 8.42001 17.3001ZM8.42001 12.1001C7.40001 12.1001 6.57001 12.9301 6.57001 13.9501C6.57001 14.9701 7.40001 15.8001 8.42001 15.8001C9.44001 15.8001 10.27 14.9701 10.27 13.9501C10.27 12.9301 9.45001 12.1001 8.42001 12.1001Z" fill="#292D32"/>
</svg>
