<svg width="24" height="24" viewBox="0 0 24 24" fill="none" xmlns="http://www.w3.org/2000/svg">
<path d="M18.51 8.2498C19.01 8.2498 19.41 7.8498 19.41 7.3498V2.6998C19.41 2.1998 19.01 1.7998 18.51 1.7998C18.01 1.7998 17.61 2.1998 17.61 2.6998V7.3498C17.61 7.8398 18.02 8.2498 18.51 8.2498Z" fill="#292D32"/>
<path d="M12 15.75C11.5 15.75 11.1 16.15 11.1 16.65V21.3C11.1 21.8 11.5 22.2 12 22.2C12.5 22.2 12.9 21.8 12.9 21.3V16.65C12.9 16.16 12.5 15.75 12 15.75Z" fill="#292D32"/>
<path d="M5.49003 8.2498C5.99003 8.2498 6.39003 7.8498 6.39003 7.3498V2.6998C6.39003 2.1998 5.99003 1.7998 5.49003 1.7998C4.99003 1.7998 4.59003 2.1998 4.59003 2.6998V7.3498C4.59003 7.8398 4.99003 8.2498 5.49003 8.2498Z" fill="#292D32"/>
<path d="M7.34998 10.1699H3.62998C3.12998 10.1699 2.72998 10.5699 2.72998 11.0699C2.72998 11.5699 3.12998 11.9699 3.62998 11.9699H4.58998V21.2999C4.58998 21.7999 4.98998 22.1999 5.48998 22.1999C5.98998 22.1999 6.38998 21.7999 6.38998 21.2999V11.9699H7.34998C7.84998 11.9699 8.24998 11.5699 8.24998 11.0699C8.24998 10.5699 7.83998 10.1699 7.34998 10.1699Z" fill="#292D32"/>
<path d="M20.37 10.1699H16.65C16.15 10.1699 15.75 10.5699 15.75 11.0699C15.75 11.5699 16.15 11.9699 16.65 11.9699H17.61V21.2999C17.61 21.7999 18.01 22.1999 18.51 22.1999C19.01 22.1999 19.41 21.7999 19.41 21.2999V11.9699H20.37C20.87 11.9699 21.27 11.5699 21.27 11.0699C21.27 10.5699 20.87 10.1699 20.37 10.1699Z" fill="#292D32"/>
<path d="M13.86 12.0298H12.9V2.6998C12.9 2.1998 12.5 1.7998 12 1.7998C11.5 1.7998 11.1 2.1998 11.1 2.6998V12.0298H10.14C9.63999 12.0298 9.23999 12.4298 9.23999 12.9298C9.23999 13.4298 9.63999 13.8298 10.14 13.8298H13.86C14.36 13.8298 14.76 13.4298 14.76 12.9298C14.76 12.4298 14.36 12.0298 13.86 12.0298Z" fill="#292D32"/>
</svg>
