<svg width="24" height="24" viewBox="0 0 24 24" fill="none" xmlns="http://www.w3.org/2000/svg">
<path d="M21.3 7.58018H15.72C15.33 7.58018 15.02 7.27018 15.02 6.88018C15.02 6.49018 15.33 6.18018 15.72 6.18018H21.3C21.69 6.18018 22 6.49018 22 6.88018C22 7.27018 21.69 7.58018 21.3 7.58018Z" fill="#292D32"/>
<path d="M6.42 7.58018H2.7C2.31 7.58018 2 7.27018 2 6.88018C2 6.49018 2.31 6.18018 2.7 6.18018H6.42C6.81 6.18018 7.12 6.49018 7.12 6.88018C7.12 7.27018 6.8 7.58018 6.42 7.58018Z" fill="#292D32"/>
<path d="M10.14 10.8302C12.3215 10.8302 14.09 9.0617 14.09 6.88018C14.09 4.69865 12.3215 2.93018 10.14 2.93018C7.95848 2.93018 6.19 4.69865 6.19 6.88018C6.19 9.0617 7.95848 10.8302 10.14 10.8302Z" fill="#292D32"/>
<path d="M21.3 17.8102H17.58C17.19 17.8102 16.88 17.5002 16.88 17.1102C16.88 16.7202 17.19 16.4102 17.58 16.4102H21.3C21.69 16.4102 22 16.7202 22 17.1102C22 17.5002 21.69 17.8102 21.3 17.8102Z" fill="#292D32"/>
<path d="M8.28 17.8102H2.7C2.31 17.8102 2 17.5002 2 17.1102C2 16.7202 2.31 16.4102 2.7 16.4102H8.28C8.67 16.4102 8.98 16.7202 8.98 17.1102C8.98 17.5002 8.66 17.8102 8.28 17.8102Z" fill="#292D32"/>
<path d="M13.86 21.0699C16.0415 21.0699 17.81 19.3014 17.81 17.1199C17.81 14.9384 16.0415 13.1699 13.86 13.1699C11.6785 13.1699 9.91 14.9384 9.91 17.1199C9.91 19.3014 11.6785 21.0699 13.86 21.0699Z" fill="#292D32"/>
</svg>
