<svg width="24" height="24" viewBox="0 0 24 24" fill="none" xmlns="http://www.w3.org/2000/svg">
<path d="M13.43 14.9999H4.39997C2.57997 14.9999 1.41997 13.0499 2.29997 11.4499L4.62997 7.20994L6.80997 3.23994C7.71997 1.58994 10.1 1.58994 11.01 3.23994L13.2 7.20994L14.25 9.11994L15.53 11.4499C16.41 13.0499 15.25 14.9999 13.43 14.9999Z" fill="#292D32"/>
<path d="M22.65 16C22.65 19.59 19.74 22.5 16.15 22.5C13.1 22.5 10.55 20.41 9.84002 17.57C9.77002 17.27 10 17 10.31 17H14.08C15.47 17 16.73 16.28 17.44 15.09C18.14 13.89 18.17 12.45 17.49 11.23L16.99 10.31C16.8 9.96995 17.07 9.55995 17.45 9.62995C20.41 10.23 22.65 12.85 22.65 16Z" fill="#292D32"/>
</svg>
