<svg width="24" height="24" viewBox="0 0 24 24" fill="none" xmlns="http://www.w3.org/2000/svg">
<path d="M11.75 7H11H7C4.24 7 2 9.24 2 12V17C2 19.76 4.24 22 7 22H12C14.76 22 17 19.76 17 17V13V12.25C17 9.35 14.65 7 11.75 7Z" fill="#292D32"/>
<path d="M21.88 6.32984C22.4046 8.88943 21.1622 11.2118 19.1592 12.3055C18.8515 12.4735 18.5 12.2338 18.5 11.8834V11.7498C18.5 8.30984 15.69 5.49984 12.25 5.49984H12.1165C11.766 5.49984 11.5264 5.1483 11.6943 4.8407C12.7881 2.83762 15.1104 1.59526 17.67 2.11984C19.76 2.54984 21.45 4.23984 21.88 6.32984Z" fill="#292D32"/>
</svg>
