<svg width="24" height="24" viewBox="0 0 24 24" fill="none" xmlns="http://www.w3.org/2000/svg">
<path d="M20.36 12.7301C19.99 12.7301 19.68 12.4501 19.64 12.0801C19.4 9.88007 18.22 7.90007 16.4 6.64007C16.07 6.41007 15.99 5.96007 16.22 5.63007C16.45 5.30007 16.9 5.22007 17.23 5.45007C19.4 6.96007 20.8 9.32007 21.09 11.9301C21.13 12.3301 20.84 12.6901 20.44 12.7301C20.41 12.7301 20.39 12.7301 20.36 12.7301Z" fill="#292D32"/>
<path d="M3.73998 12.78C3.71998 12.78 3.68998 12.78 3.66998 12.78C3.26998 12.74 2.97998 12.38 3.01998 11.98C3.28998 9.36996 4.66998 7.00996 6.81998 5.48996C7.13998 5.25996 7.59998 5.33996 7.82998 5.65996C8.05998 5.98996 7.97998 6.43996 7.65998 6.66996C5.85998 7.94996 4.68998 9.92996 4.46998 12.12C4.42998 12.5 4.10998 12.78 3.73998 12.78Z" fill="#292D32"/>
<path d="M15.99 21.1001C14.76 21.6901 13.44 21.9901 12.06 21.9901C10.62 21.9901 9.24998 21.6701 7.96998 21.0201C7.60998 20.8501 7.46998 20.4101 7.64998 20.0501C7.81998 19.6901 8.25998 19.5501 8.61998 19.7201C9.24998 20.0401 9.91998 20.2601 10.6 20.3901C11.52 20.5701 12.46 20.5801 13.38 20.4201C14.06 20.3001 14.73 20.0901 15.35 19.7901C15.72 19.6201 16.16 19.7601 16.32 20.1301C16.5 20.4901 16.36 20.9301 15.99 21.1001Z" fill="#292D32"/>
<path d="M12.05 2.01001C10.5 2.01001 9.22998 3.27001 9.22998 4.83001C9.22998 6.39001 10.49 7.65001 12.05 7.65001C13.61 7.65001 14.87 6.39001 14.87 4.83001C14.87 3.27001 13.61 2.01001 12.05 2.01001Z" fill="#292D32"/>
<path d="M5.04998 13.8701C3.49998 13.8701 2.22998 15.1301 2.22998 16.6901C2.22998 18.2501 3.48998 19.5101 5.04998 19.5101C6.60998 19.5101 7.86998 18.2501 7.86998 16.6901C7.86998 15.1301 6.59998 13.8701 5.04998 13.8701Z" fill="#292D32"/>
<path d="M18.95 13.8701C17.4 13.8701 16.13 15.1301 16.13 16.6901C16.13 18.2501 17.39 19.5101 18.95 19.5101C20.51 19.5101 21.77 18.2501 21.77 16.6901C21.77 15.1301 20.51 13.8701 18.95 13.8701Z" fill="#292D32"/>
</svg>
