<svg width="24" height="24" viewBox="0 0 24 24" fill="none" xmlns="http://www.w3.org/2000/svg">
<path d="M20.62 13.0699C20.24 13.0699 19.92 12.7799 19.87 12.3999C19.63 10.1399 18.41 8.08986 16.53 6.78986C16.19 6.54986 16.11 6.08986 16.34 5.74986C16.58 5.40986 17.05 5.32986 17.38 5.55986C19.62 7.10986 21.06 9.54986 21.35 12.2399C21.39 12.6499 21.1 13.0199 20.68 13.0699C20.67 13.0699 20.64 13.0699 20.62 13.0699Z" fill="#292D32"/>
<path d="M3.49003 13.1198C3.46003 13.1198 3.44003 13.1198 3.41003 13.1198C3.00003 13.0698 2.70003 12.6998 2.74003 12.2898C3.01003 9.59977 4.44003 7.16977 6.65003 5.59977C6.99003 5.35977 7.46003 5.43977 7.70003 5.77977C7.94003 6.11977 7.86003 6.58977 7.52003 6.82977C5.66003 8.13977 4.46003 10.1898 4.23003 12.4498C4.20003 12.8298 3.87003 13.1198 3.49003 13.1198Z" fill="#292D32"/>
<path d="M12.06 22.61C10.58 22.61 9.17003 22.27 7.85003 21.61C7.48003 21.42 7.33003 20.97 7.52003 20.6C7.71003 20.23 8.16003 20.08 8.53003 20.27C10.69 21.36 13.29 21.38 15.47 20.33C15.84 20.15 16.29 20.31 16.47 20.68C16.65 21.05 16.49 21.5 16.12 21.68C14.84 22.3 13.48 22.61 12.06 22.61Z" fill="#292D32"/>
<path d="M12.06 8.43988C10.11 8.43988 8.53003 6.85988 8.53003 4.90988C8.53003 2.95988 10.11 1.37988 12.06 1.37988C14.01 1.37988 15.59 2.95988 15.59 4.90988C15.59 6.85988 14 8.43988 12.06 8.43988ZM12.06 2.88988C10.94 2.88988 10.03 3.79988 10.03 4.91988C10.03 6.03988 10.94 6.94988 12.06 6.94988C13.18 6.94988 14.09 6.03988 14.09 4.91988C14.09 3.79988 13.17 2.88988 12.06 2.88988Z" fill="#292D32"/>
<path d="M4.82999 20.6699C2.87999 20.6699 1.29999 19.0899 1.29999 17.1399C1.29999 15.1999 2.87999 13.6099 4.82999 13.6099C6.77999 13.6099 8.35999 15.1899 8.35999 17.1399C8.35999 19.0799 6.77999 20.6699 4.82999 20.6699ZM4.82999 15.1099C3.70999 15.1099 2.79999 16.0199 2.79999 17.1399C2.79999 18.2599 3.70999 19.1699 4.82999 19.1699C5.94999 19.1699 6.85999 18.2599 6.85999 17.1399C6.85999 16.0199 5.94999 15.1099 4.82999 15.1099Z" fill="#292D32"/>
<path d="M19.17 20.6699C17.22 20.6699 15.64 19.0899 15.64 17.1399C15.64 15.1999 17.22 13.6099 19.17 13.6099C21.12 13.6099 22.7 15.1899 22.7 17.1399C22.69 19.0799 21.11 20.6699 19.17 20.6699ZM19.17 15.1099C18.05 15.1099 17.14 16.0199 17.14 17.1399C17.14 18.2599 18.05 19.1699 19.17 19.1699C20.29 19.1699 21.2 18.2599 21.2 17.1399C21.19 16.0199 20.29 15.1099 19.17 15.1099Z" fill="#292D32"/>
</svg>
