<svg width="24" height="24" viewBox="0 0 24 24" fill="none" xmlns="http://www.w3.org/2000/svg">
<path d="M18.54 4.16989L13.04 2.10989C12.47 1.89989 11.54 1.89989 10.97 2.10989L5.47005 4.16989C4.41005 4.56989 3.55005 5.80989 3.55005 6.93989V15.0399C3.55005 15.8499 4.08005 16.9199 4.73005 17.3999L10.23 21.5099C11.2 22.2399 12.79 22.2399 13.76 21.5099L19.26 17.3999C19.91 16.9099 20.4401 15.8499 20.4401 15.0399V6.93989C20.4501 5.80989 19.59 4.56989 18.54 4.16989ZM12.75 12.8699V15.4999C12.75 15.9099 12.41 16.2499 12 16.2499C11.59 16.2499 11.25 15.9099 11.25 15.4999V12.8699C10.24 12.5499 9.50005 11.6099 9.50005 10.4999C9.50005 9.11989 10.62 7.99989 12 7.99989C13.38 7.99989 14.5 9.11989 14.5 10.4999C14.5 11.6199 13.76 12.5499 12.75 12.8699Z" fill="#292D32"/>
</svg>
