<svg width="24" height="24" viewBox="0 0 24 24" fill="none" xmlns="http://www.w3.org/2000/svg">
<path d="M18.54 4.12009L13.04 2.06009C12.47 1.85009 11.54 1.85009 10.97 2.06009L5.47005 4.12009C4.41005 4.52009 3.55005 5.76009 3.55005 6.89009V14.9901C3.55005 15.8001 4.08005 16.8701 4.73005 17.3501L10.23 21.4601C11.2 22.1901 12.79 22.1901 13.76 21.4601L19.26 17.3501C19.91 16.8601 20.4401 15.8001 20.4401 14.9901V6.89009C20.4501 5.76009 19.59 4.52009 18.54 4.12009ZM14.68 13.9701C14.53 14.1201 14.34 14.1901 14.15 14.1901C13.96 14.1901 13.77 14.1201 13.62 13.9701L12.03 12.3801L10.39 14.0201C10.24 14.1701 10.05 14.2401 9.86005 14.2401C9.67005 14.2401 9.48005 14.1701 9.33005 14.0201C9.04005 13.7301 9.04005 13.2501 9.33005 12.9601L10.97 11.3201L9.37005 9.72009C9.08005 9.43009 9.08005 8.95009 9.37005 8.66009C9.66005 8.37009 10.14 8.37009 10.43 8.66009L12.02 10.2501L13.57 8.70009C13.86 8.41009 14.34 8.41009 14.63 8.70009C14.92 8.99009 14.92 9.47009 14.63 9.76009L13.08 11.3101L14.67 12.9001C14.97 13.2001 14.97 13.6701 14.68 13.9701Z" fill="#292D32"/>
</svg>
