<svg width="24" height="24" viewBox="0 0 24 24" fill="none" xmlns="http://www.w3.org/2000/svg">
<path d="M22.36 8.27L22.07 5.5C21.65 2.48 20.28 1.25 17.35 1.25H14.99H13.51H10.47H8.99002H6.59002C3.65002 1.25 2.29002 2.48 1.86002 5.53L1.59002 8.28C1.49002 9.35 1.78002 10.39 2.41002 11.2C3.17002 12.19 4.34002 12.75 5.64002 12.75C6.90002 12.75 8.11002 12.12 8.87002 11.11C9.55002 12.12 10.71 12.75 12 12.75C13.29 12.75 14.42 12.15 15.11 11.15C15.88 12.14 17.07 12.75 18.31 12.75C19.64 12.75 20.84 12.16 21.59 11.12C22.19 10.32 22.46 9.31 22.36 8.27Z" fill="#292D32"/>
<path d="M11.35 16.66C10.08 16.79 9.12 17.87 9.12 19.15V21.89C9.12 22.16 9.33999 22.38 9.60999 22.38H14.38C14.65 22.38 14.87 22.16 14.87 21.89V19.5C14.88 17.41 13.65 16.42 11.35 16.66Z" fill="#292D32"/>
<path d="M21.37 14.4001V17.3801C21.37 20.1401 19.13 22.3801 16.37 22.3801C16.1 22.3801 15.88 22.1601 15.88 21.8901V19.5001C15.88 18.2201 15.49 17.2201 14.73 16.5401C14.06 15.9301 13.15 15.6301 12.02 15.6301C11.77 15.6301 11.52 15.6401 11.25 15.6701C9.47001 15.8501 8.12 17.3501 8.12 19.1501V21.8901C8.12 22.1601 7.9 22.3801 7.63 22.3801C4.87 22.3801 2.63 20.1401 2.63 17.3801V14.4201C2.63 13.7201 3.32 13.2501 3.97 13.4801C4.24 13.5701 4.51 13.6401 4.79 13.6801C4.91 13.7001 5.04 13.7201 5.16 13.7201C5.32 13.7401 5.48 13.7501 5.64 13.7501C6.8 13.7501 7.94 13.3201 8.84 12.5801C9.70001 13.3201 10.82 13.7501 12 13.7501C13.19 13.7501 14.29 13.3401 15.15 12.6001C16.05 13.3301 17.17 13.7501 18.31 13.7501C18.49 13.7501 18.67 13.7401 18.84 13.7201C18.96 13.7101 19.07 13.7001 19.18 13.6801C19.49 13.6401 19.77 13.5501 20.05 13.4601C20.7 13.2401 21.37 13.7201 21.37 14.4001Z" fill="#292D32"/>
</svg>
