<svg width="24" height="24" viewBox="0 0 24 24" fill="none" xmlns="http://www.w3.org/2000/svg">
<path d="M7.79999 22.15C5.14999 22.15 2.98999 20 2.98999 17.34V14.5C2.98999 13.83 3.64999 13.38 4.27999 13.6C4.53999 13.69 4.79999 13.75 5.06999 13.79C5.18999 13.81 5.30999 13.83 5.42999 13.83C5.57999 13.85 5.73999 13.86 5.88999 13.86C6.99999 13.86 8.09999 13.45 8.96999 12.74C9.79999 13.45 10.87 13.86 12.01 13.86C13.15 13.86 14.21 13.47 15.04 12.75C15.9 13.45 16.98 13.86 18.08 13.86C18.25 13.86 18.43 13.85 18.59 13.83C18.71 13.82 18.81 13.81 18.92 13.79C19.22 13.75 19.49 13.67 19.76 13.58C20.38 13.37 21.03 13.83 21.03 14.48V17.34C21.03 19.99 18.88 22.15 16.22 22.15H7.79999Z" fill="#292D32"/>
<path d="M21.98 8.5901L21.7 5.9301C21.3 3.0301 19.98 1.8501 17.16 1.8501H14.9H13.48H10.56H9.12997H6.81997C3.99997 1.8501 2.68997 3.0301 2.27997 5.9601L2.01997 8.6001C1.91997 9.6301 2.19997 10.6301 2.80997 11.4101C3.53997 12.3601 4.65997 12.9001 5.90997 12.9001C7.11997 12.9001 8.27997 12.2901 9.00997 11.3201C9.65997 12.2901 10.78 12.9001 12.02 12.9001C13.26 12.9001 14.35 12.3201 15.01 11.3601C15.75 12.3101 16.89 12.9001 18.09 12.9001C19.37 12.9001 20.52 12.3301 21.24 11.3301C21.82 10.5601 22.08 9.5901 21.98 8.5901ZM13.5 7.7301H12.75V8.5101C12.75 8.9301 12.41 9.2601 12 9.2601C11.59 9.2601 11.25 8.9301 11.25 8.5101V7.7301H10.5C10.09 7.7301 9.74997 7.4001 9.74997 6.9801C9.74997 6.5701 10.09 6.2301 10.5 6.2301H11.25V5.5201C11.25 5.1101 11.59 4.7701 12 4.7701C12.41 4.7701 12.75 5.1101 12.75 5.5201V6.2301H13.5C13.91 6.2301 14.25 6.5701 14.25 6.9801C14.25 7.4001 13.91 7.7301 13.5 7.7301Z" fill="#292D32"/>
</svg>
