<svg width="24" height="24" viewBox="0 0 24 24" fill="none" xmlns="http://www.w3.org/2000/svg">
<path d="M21.75 17.9799C21.75 17.9599 21.74 17.9399 21.74 17.9199C21.73 17.8399 21.72 17.7599 21.69 17.6899C21.65 17.5999 21.6 17.5299 21.54 17.4599C21.54 17.4599 21.54 17.4499 21.53 17.4499C21.46 17.3799 21.38 17.3299 21.29 17.2899C21.2 17.2499 21.1 17.2299 21 17.2299L16.33 17.2499C16.33 17.2499 16.33 17.2499 16.32 17.2499C15.72 17.2499 15.14 16.9699 14.78 16.4899L13.56 14.9199C13.31 14.5899 12.84 14.5299 12.51 14.7899C12.18 15.0499 12.12 15.5099 12.38 15.8399L13.6 17.4099C14.25 18.2499 15.27 18.7499 16.33 18.7499H16.34L19.19 18.7399L18.48 19.4499C18.19 19.7399 18.19 20.2199 18.48 20.5099C18.63 20.6599 18.82 20.7299 19.01 20.7299C19.2 20.7299 19.39 20.6599 19.54 20.5099L21.54 18.5099C21.61 18.4399 21.66 18.3599 21.7 18.2699C21.73 18.1699 21.75 18.0699 21.75 17.9799Z" fill="#292D32"/>
<path d="M8.42 6.68977C7.77 5.78977 6.73 5.25977 5.62 5.25977C5.61 5.25977 5.61 5.25977 5.6 5.25977L3 5.26977C2.59 5.26977 2.25 5.60977 2.25 6.01977C2.25 6.42977 2.59 6.76977 3 6.76977L5.61 6.75977H5.62C6.25 6.75977 6.84 7.05977 7.2 7.56977L8.28 9.06977C8.43 9.26976 8.66 9.37977 8.89 9.37977C9.04 9.37977 9.2 9.32977 9.33 9.23977C9.67 8.98977 9.74 8.51976 9.5 8.18976L8.42 6.68977Z" fill="#292D32"/>
<path d="M21.74 6.08021C21.74 6.06021 21.75 6.04022 21.75 6.03022C21.75 5.93022 21.73 5.83021 21.69 5.74021C21.65 5.65021 21.6 5.57021 21.53 5.50021L19.53 3.50021C19.24 3.21021 18.76 3.21021 18.47 3.50021C18.18 3.79021 18.18 4.27021 18.47 4.56021L19.18 5.27021L16.45 5.26022C16.44 5.26022 16.44 5.26022 16.43 5.26022C15.28 5.26022 14.2 5.83021 13.56 6.80022L7.17 16.3802C6.81 16.9202 6.2 17.2502 5.55 17.2502H5.54L3 17.2302C2.59 17.2302 2.25 17.5602 2.25 17.9802C2.25 18.3902 2.58 18.7302 3 18.7302L5.55 18.7402C5.56 18.7402 5.56 18.7402 5.57 18.7402C6.73 18.7402 7.8 18.1702 8.44 17.2002L14.83 7.62021C15.19 7.08021 15.8 6.75021 16.45 6.75021H16.46L21 6.77021C21.1 6.77021 21.19 6.75021 21.29 6.71021C21.38 6.67021 21.46 6.62021 21.53 6.55022C21.53 6.55022 21.53 6.54021 21.54 6.54021C21.6 6.47021 21.66 6.40021 21.69 6.31021C21.72 6.24021 21.73 6.16021 21.74 6.08021Z" fill="#292D32"/>
</svg>
