<svg width="24" height="24" viewBox="0 0 24 24" fill="none" xmlns="http://www.w3.org/2000/svg">
<path d="M14.97 22.75H8.96997C3.53997 22.75 1.21997 20.43 1.21997 15V9C1.21997 3.57 3.53997 1.25 8.96997 1.25H14.97C20.4 1.25 22.72 3.57 22.72 9V15C22.72 20.43 20.41 22.75 14.97 22.75ZM8.96997 2.75C4.35997 2.75 2.71997 4.39 2.71997 9V15C2.71997 19.61 4.35997 21.25 8.96997 21.25H14.97C19.58 21.25 21.22 19.61 21.22 15V9C21.22 4.39 19.58 2.75 14.97 2.75H8.96997Z" fill="#292D32"/>
<path d="M7.96997 22.75C7.55997 22.75 7.21997 22.41 7.21997 22V2C7.21997 1.59 7.55997 1.25 7.96997 1.25C8.37997 1.25 8.71997 1.59 8.71997 2V22C8.71997 22.41 8.38997 22.75 7.96997 22.75Z" fill="#292D32"/>
<path d="M14.97 15.3099C14.78 15.3099 14.59 15.2399 14.44 15.0899L11.88 12.5299C11.59 12.2399 11.59 11.7599 11.88 11.4699L14.44 8.90988C14.73 8.61988 15.21 8.61988 15.5 8.90988C15.79 9.19988 15.79 9.67988 15.5 9.96988L13.48 11.9999L15.51 14.0299C15.8 14.3199 15.8 14.7999 15.51 15.0899C15.36 15.2399 15.17 15.3099 14.97 15.3099Z" fill="#292D32"/>
</svg>
