<svg width="24" height="24" viewBox="0 0 24 24" fill="none" xmlns="http://www.w3.org/2000/svg">
<path d="M3.05002 19.8698C3.34002 20.2898 3.71002 20.6598 4.13002 20.9498C5.08002 21.6398 6.32002 21.9998 7.81002 21.9998H16.19C19.63 21.9998 21.76 20.0598 21.97 16.7798H2.02002C2.10002 18.0098 2.45002 19.0498 3.05002 19.8698Z" fill="#292D32"/>
<path d="M20.95 4.13C20.66 3.71 20.29 3.34 19.87 3.05C18.92 2.36 17.68 2 16.19 2H7.81C4.17 2 2 4.17 2 7.81V15.28H22V7.81C22 6.32 21.64 5.08 20.95 4.13ZM15.09 9.56L12.53 12.12C12.24 12.41 11.76 12.41 11.47 12.12L8.91 9.56C8.76 9.41 8.69 9.22 8.69 9.03C8.69 8.84 8.76 8.64 8.91 8.5C9.2 8.2 9.68 8.2 9.97 8.5L12 10.52L14.03 8.49C14.32 8.2 14.8 8.2 15.09 8.49C15.38 8.78 15.38 9.26 15.09 9.56Z" fill="#292D32"/>
</svg>
