<svg width="24" height="24" viewBox="0 0 24 24" fill="none" xmlns="http://www.w3.org/2000/svg">
<path d="M20.95 4.13C20.66 3.71 20.29 3.34 19.87 3.05C18.92 2.36 17.68 2 16.19 2H7.81003C4.37003 2 2.24003 3.94 2.03003 7.22H21.98C21.9 5.99 21.55 4.95 20.95 4.13Z" fill="#292D32"/>
<path d="M2 16.1902C2 17.6802 2.36 18.9202 3.05 19.8702C3.34 20.2902 3.71 20.6602 4.13 20.9502C5.08 21.6402 6.32 22.0002 7.81 22.0002H16.19C19.83 22.0002 22 19.8302 22 16.1902V8.72021H2V16.1902ZM8.91 14.4402L11.47 11.8802C11.76 11.5902 12.24 11.5902 12.53 11.8802L15.09 14.4402C15.24 14.5902 15.31 14.7802 15.31 14.9702C15.31 15.1602 15.24 15.3502 15.09 15.5002C14.8 15.7902 14.32 15.7902 14.03 15.5002L12 13.4802L9.97 15.5002C9.68 15.7902 9.2 15.7902 8.91 15.5002C8.62 15.2102 8.62 14.7402 8.91 14.4402Z" fill="#292D32"/>
</svg>
