<svg width="24" height="24" viewBox="0 0 24 24" fill="none" xmlns="http://www.w3.org/2000/svg">
<path d="M2 7.80978V16.1898C2 17.6798 2.36 18.9198 3.05 19.8698C3.34 20.2898 3.71 20.6598 4.13 20.9498C4.95 21.5498 5.99 21.8998 7.22 21.9798V2.02979C3.94 2.23979 2 4.36978 2 7.80978Z" fill="#292D32"/>
<path d="M20.95 4.13C20.66 3.71 20.29 3.34 19.87 3.05C18.92 2.36 17.68 2 16.19 2H8.71997V22H16.19C19.83 22 22 19.83 22 16.19V7.81C22 6.32 21.64 5.08 20.95 4.13ZM15.5 14.03C15.79 14.32 15.79 14.8 15.5 15.09C15.35 15.24 15.16 15.31 14.97 15.31C14.78 15.31 14.59 15.24 14.44 15.09L11.88 12.53C11.59 12.24 11.59 11.76 11.88 11.47L14.44 8.91C14.73 8.62 15.21 8.62 15.5 8.91C15.79 9.2 15.79 9.68 15.5 9.97L13.48 12L15.5 14.03Z" fill="#292D32"/>
</svg>
