<svg width="24" height="24" viewBox="0 0 24 24" fill="none" xmlns="http://www.w3.org/2000/svg">
<path d="M7.81 2C6.32 2 5.08 2.36 4.13 3.05C3.71 3.34 3.34 3.71 3.05 4.13C2.36 5.08 2 6.32 2 7.81V16.19C2 19.83 4.17 22 7.81 22H15.28V2H7.81ZM12.12 12.53L9.56 15.09C9.41 15.24 9.22 15.31 9.03 15.31C8.84 15.31 8.65 15.24 8.5 15.09C8.21 14.8 8.21 14.32 8.5 14.03L10.52 12L8.5 9.97C8.2 9.68 8.2 9.2 8.5 8.91C8.8 8.62 9.27 8.62 9.56 8.91L12.12 11.47C12.41 11.76 12.41 12.24 12.12 12.53Z" fill="#292D32"/>
<path d="M16.78 2.02979V21.9798C18.01 21.8998 19.05 21.5498 19.87 20.9498C20.29 20.6598 20.66 20.2898 20.95 19.8698C21.64 18.9198 22 17.6798 22 16.1898V7.80978C22 4.36978 20.06 2.23979 16.78 2.02979Z" fill="#292D32"/>
</svg>
