<svg width="24" height="24" viewBox="0 0 24 24" fill="none" xmlns="http://www.w3.org/2000/svg">
<path d="M18.34 14.13L16.16 12.38C15.85 12.14 15.46 12 15.06 12H12.75V9H17.22C18.19 9 18.97 8.22 18.97 7.25V3.75C18.97 2.78 18.19 2 17.22 2H8.96003C8.57003 2 8.18003 2.14 7.87003 2.38L5.68003 4.13C4.81003 4.83 4.81003 6.17 5.68003 6.87L7.87003 8.62C8.18003 8.86 8.57003 9 8.96003 9H11.25V12H6.80003C5.83003 12 5.05003 12.78 5.05003 13.75V17.25C5.05003 18.22 5.83003 19 6.80003 19H11.25V21.25H9.00003C8.59003 21.25 8.25003 21.59 8.25003 22C8.25003 22.41 8.59003 22.75 9.00003 22.75H15C15.41 22.75 15.75 22.41 15.75 22C15.75 21.59 15.41 21.25 15 21.25H12.75V19H15.06C15.46 19 15.85 18.86 16.16 18.62L18.34 16.87C19.22 16.17 19.22 14.83 18.34 14.13Z" fill="#292D32"/>
</svg>
