<svg width="24" height="24" viewBox="0 0 24 24" fill="none" xmlns="http://www.w3.org/2000/svg">
<path d="M14.5401 1.87988C13.3101 1.87988 12.3101 2.87986 12.3101 4.10986V8.74988C12.3101 9.97988 13.3101 10.9799 14.5401 10.9799C15.7701 10.9799 16.7701 9.97988 16.7701 8.74988V4.10986C16.7701 2.88986 15.7701 1.87988 14.5401 1.87988Z" fill="black"/>
<path d="M20.18 7.10986C19.11 7.10986 18.24 7.97987 18.24 9.04987V10.6199C18.24 10.8299 18.41 10.9999 18.62 10.9999H20.19C21.26 10.9999 22.13 10.1299 22.13 9.05988C22.13 7.98988 21.25 7.10986 20.18 7.10986Z" fill="black"/>
<path d="M8.49988 6.99023H3.85988C2.62988 6.99023 1.62988 7.99025 1.62988 9.22025C1.62988 10.4502 2.62988 11.4503 3.85988 11.4503H8.49988C9.72988 11.4503 10.7299 10.4502 10.7299 9.22025C10.7299 7.99025 9.72988 6.99023 8.49988 6.99023Z" fill="black"/>
<path d="M8.79008 1.62012C7.72008 1.62012 6.8501 2.49012 6.8501 3.56012C6.8501 4.63012 7.72008 5.50012 8.79008 5.50012H10.3601C10.5701 5.50012 10.7401 5.33012 10.7401 5.12012V3.55011C10.7301 2.50011 9.86008 1.62012 8.79008 1.62012Z" fill="black"/>
<path d="M9.42995 13.0298C8.19995 13.0298 7.19995 14.0298 7.19995 15.2598V19.8998C7.19995 21.1298 8.19995 22.1298 9.42995 22.1298C10.6599 22.1298 11.66 21.1298 11.66 19.8998V15.2598C11.66 14.0298 10.6599 13.0298 9.42995 13.0298Z" fill="black"/>
<path d="M5.36009 13.0298H3.79008C2.72008 13.0298 1.8501 13.8998 1.8501 14.9698C1.8501 16.0398 2.72008 16.9098 3.79008 16.9098C4.86008 16.9098 5.73009 16.0398 5.73009 14.9698V13.3998C5.73009 13.1998 5.56009 13.0298 5.36009 13.0298Z" fill="black"/>
<path d="M20.11 12.5698H15.47C14.24 12.5698 13.24 13.5698 13.24 14.7998C13.24 16.0298 14.24 17.0298 15.47 17.0298H20.11C21.34 17.0298 22.34 16.0298 22.34 14.7998C22.34 13.5698 21.34 12.5698 20.11 12.5698Z" fill="black"/>
<path d="M15.18 18.4702H13.61C13.4 18.4702 13.23 18.6402 13.23 18.8502V20.4202C13.23 21.4902 14.1 22.3602 15.17 22.3602C16.24 22.3602 17.11 21.4902 17.11 20.4202C17.12 19.3402 16.25 18.4702 15.18 18.4702Z" fill="black"/>
</svg>
