<svg width="24" height="24" viewBox="0 0 24 24" fill="none" xmlns="http://www.w3.org/2000/svg">
<path d="M9 22H15C16.66 22 18 20.66 18 19V5C18 3.34 16.66 2 15 2H9C7.34 2 6 3.34 6 5V19C6 20.66 7.34 22 9 22Z" fill="#292D32"/>
<path d="M4.5 5.93021V18.0702C4.5 18.3902 4.21 18.6202 3.9 18.5602C2.42 18.2902 2 17.4302 2 15.3302V8.67021C2 6.57021 2.42 5.71021 3.9 5.44021C4.21 5.38021 4.5 5.61021 4.5 5.93021Z" fill="#292D32"/>
<path d="M22 8.67021V15.3302C22 17.4302 21.58 18.2902 20.1 18.5602C19.79 18.6202 19.5 18.3802 19.5 18.0702V5.93021C19.5 5.61021 19.79 5.38021 20.1 5.44021C21.58 5.71021 22 6.57021 22 8.67021Z" fill="#292D32"/>
</svg>
