<svg width="24" height="24" viewBox="0 0 24 24" fill="none" xmlns="http://www.w3.org/2000/svg">
<path d="M18.9401 3.5H5.06006C4.65006 3.5 4.31006 3.16 4.31006 2.75C4.31006 2.34 4.65006 2 5.06006 2H18.9401C19.3501 2 19.6901 2.34 19.6901 2.75C19.6901 3.16 19.3501 3.5 18.9401 3.5Z" fill="#292D32"/>
<path d="M18.9401 22H5.06006C4.65006 22 4.31006 21.66 4.31006 21.25C4.31006 20.84 4.65006 20.5 5.06006 20.5H18.9401C19.3501 20.5 19.6901 20.84 19.6901 21.25C19.6901 21.66 19.3501 22 18.9401 22Z" fill="#292D32"/>
<path d="M2.75 8V16C2.75 17.66 4.09 19 5.75 19H18.25C19.91 19 21.25 17.66 21.25 16V8C21.25 6.34 19.91 5 18.25 5H5.75C4.09 5 2.75 6.34 2.75 8Z" fill="#292D32"/>
</svg>
