<svg width="24" height="24" viewBox="0 0 24 24" fill="none" xmlns="http://www.w3.org/2000/svg">
<path d="M17 18.75H7C6.25 18.75 5.7 18.72 5.23 18.65C1.91 18.29 1.25 16.3 1.25 13V11C1.25 7.7 1.91 5.71 5.26 5.34C5.7 5.28 6.25 5.25 7 5.25H17C17.75 5.25 18.3 5.28 18.77 5.35C22.1 5.72 22.75 7.7 22.75 11V13C22.75 16.3 22.09 18.29 18.74 18.66C18.3 18.72 17.75 18.75 17 18.75ZM7 6.75C6.32 6.75 5.84 6.78 5.45 6.83C3.42 7.06 2.75 7.69 2.75 11V13C2.75 16.31 3.42 16.94 5.42 17.17C5.84 17.23 6.32 17.25 7 17.25H17C17.68 17.25 18.16 17.22 18.55 17.17C20.58 16.95 21.25 16.31 21.25 13V11C21.25 7.69 20.58 7.06 18.58 6.83C18.16 6.77 17.68 6.75 17 6.75H7Z" fill="#292D32"/>
<path d="M15.33 22.7502H8.66996C5.56996 22.7502 4.57996 21.7602 4.57996 18.6702V18.3302C4.57996 18.1602 4.57996 18.0102 4.58996 17.8602C4.59996 17.6502 4.69996 17.4602 4.86996 17.3302C5.02996 17.2002 5.23996 17.1402 5.44996 17.1702C5.84996 17.2302 6.32996 17.2502 6.99996 17.2502H17C17.68 17.2502 18.16 17.2202 18.55 17.1702C18.76 17.1402 18.97 17.2002 19.13 17.3302C19.29 17.4602 19.39 17.6502 19.41 17.8602C19.42 18.0202 19.42 18.1602 19.42 18.3302V18.6702C19.42 21.7602 18.43 22.7502 15.33 22.7502ZM6.07996 18.7302C6.08996 20.9202 6.43996 21.2502 8.66996 21.2502H15.33C17.56 21.2502 17.91 20.9202 17.92 18.7302C17.65 18.7402 17.35 18.7502 17 18.7502H6.99996C6.64996 18.7502 6.34996 18.7402 6.07996 18.7302Z" fill="#292D32"/>
<path d="M18.66 6.84C18.62 6.84 18.59 6.84 18.55 6.83C18.15 6.77 17.67 6.75 17 6.75H6.99996C6.31996 6.75 5.83996 6.78 5.44996 6.83C5.23996 6.86 5.02996 6.8 4.86996 6.67C4.70996 6.54 4.60996 6.35 4.58996 6.14C4.57996 5.98 4.57996 5.84 4.57996 5.67V5.33C4.57996 2.24 5.56996 1.25 8.66996 1.25H15.33C18.43 1.25 19.42 2.24 19.42 5.33V5.67C19.42 5.84 19.42 5.99 19.41 6.14C19.4 6.35 19.3 6.54 19.13 6.67C19 6.78 18.83 6.84 18.66 6.84ZM6.99996 5.25H17C17.35 5.25 17.65 5.26 17.92 5.27C17.91 3.08 17.56 2.75 15.33 2.75H8.66996C6.43996 2.75 6.08996 3.08 6.07996 5.27C6.34996 5.26 6.64996 5.25 6.99996 5.25Z" fill="#292D32"/>
</svg>
