<svg width="24" height="24" viewBox="0 0 24 24" fill="none" xmlns="http://www.w3.org/2000/svg">
<path d="M18.7099 9.49C18.6099 9.49 18.5099 9.47001 18.4099 9.43001C18.0299 9.26 17.8599 8.82 18.0199 8.44C18.2099 8.01 18.0999 7.38 17.7499 6.86C17.3999 6.33 16.8699 5.97 16.3899 6C15.9499 6 15.6399 5.67 15.6299 5.26C15.6299 4.84 15.9599 4.51 16.3699 4.5C17.3999 4.48 18.3699 5.07 18.9999 6.02C19.6399 6.98 19.7899 8.13 19.3999 9.03C19.2799 9.32 18.9999 9.49 18.7099 9.49Z" fill="#292D32"/>
<path d="M21.8199 10.4801C21.7499 10.4801 21.6899 10.4701 21.6199 10.4501C21.2199 10.3401 20.9899 9.9301 21.0999 9.5301C21.4799 8.1701 21.1599 6.5501 20.2499 5.1901C19.3399 3.8301 17.9599 2.9201 16.5499 2.7501C16.1399 2.7001 15.8499 2.3301 15.8999 1.9201C15.9499 1.5101 16.3299 1.2101 16.7299 1.2701C18.5599 1.4901 20.3399 2.6501 21.4899 4.3701C22.6399 6.0901 23.0299 8.1701 22.5399 9.9501C22.4499 10.2601 22.1499 10.4801 21.8199 10.4801Z" fill="#292D32"/>
<path d="M17.1201 11.78C17.1201 12.08 16.8701 12.33 16.5701 12.33H3.43013C3.13013 12.33 2.88013 12.08 2.88013 11.78C2.88013 11.48 3.13013 11.23 3.43013 11.23H4.17013L4.45013 9.90996C4.71013 8.62996 5.26013 7.45996 7.44013 7.45996H12.5701C14.7501 7.45996 15.2901 8.63996 15.5601 9.90996L15.8401 11.23H16.5801C16.8701 11.23 17.1201 11.48 17.1201 11.78Z" fill="#292D32"/>
<path d="M17.43 15.9099C17.32 14.7099 17 13.4199 14.66 13.4199H5.34005C3.00005 13.4199 2.68005 14.7099 2.57005 15.9099L2.16005 20.3599C2.11005 20.9099 2.29005 21.4699 2.67005 21.8899C3.06005 22.3099 3.60005 22.5499 4.19005 22.5499H5.56005C6.74005 22.5499 6.97005 21.8699 7.12005 21.4299L7.27005 20.9899C7.44005 20.4899 7.48005 20.3599 8.14005 20.3599H11.88C12.54 20.3599 12.56 20.4299 12.75 20.9899L12.9 21.4299C13.05 21.8799 13.27 22.5499 14.46 22.5499H15.83C16.41 22.5499 16.96 22.3099 17.35 21.8899C17.73 21.4699 17.91 20.9199 17.86 20.3599L17.43 15.9099ZM7.81005 17.4299H5.62005C5.32005 17.4299 5.07005 17.1799 5.07005 16.8799C5.07005 16.5799 5.32005 16.3299 5.62005 16.3299H7.81005C8.11005 16.3299 8.36005 16.5799 8.36005 16.8799C8.36005 17.1799 8.11005 17.4299 7.81005 17.4299ZM14.38 17.4299H12.19C11.89 17.4299 11.64 17.1799 11.64 16.8799C11.64 16.5799 11.89 16.3299 12.19 16.3299H14.38C14.68 16.3299 14.93 16.5799 14.93 16.8799C14.93 17.1799 14.68 17.4299 14.38 17.4299Z" fill="#292D32"/>
</svg>
