<svg width="24" height="24" viewBox="0 0 24 24" fill="none" xmlns="http://www.w3.org/2000/svg">
<path d="M19.48 2.82022L19.76 3.39022C19.9 3.67022 20.25 3.93022 20.56 3.99022L20.94 4.05022C22.08 4.24022 22.35 5.08022 21.53 5.91022L21.18 6.26022C20.95 6.50022 20.82 6.96022 20.89 7.28022L20.94 7.49022C21.25 8.87022 20.52 9.40022 19.32 8.68022L19.06 8.53022C18.75 8.35022 18.25 8.35022 17.94 8.53022L17.68 8.68022C16.47 9.41022 15.74 8.87022 16.06 7.49022L16.11 7.28022C16.18 6.96022 16.05 6.50022 15.82 6.26022L15.47 5.90022C14.65 5.07022 14.92 4.23022 16.06 4.04022L16.44 3.98022C16.74 3.93022 17.1 3.66022 17.24 3.38022L17.52 2.81022C18.06 1.73022 18.94 1.73022 19.48 2.82022Z" fill="#292D32"/>
<path d="M21.57 10.09C21.21 10.35 20.2 10.83 18.76 10.09C18.6 10.01 18.4 10 18.24 10.09C17.67 10.38 17.15 10.5 16.74 10.5C16.1 10.5 15.65 10.25 15.43 10.09C15.06 9.82 14.28 9.05 14.55 7.42C14.58 7.25 14.53 7.08 14.42 6.95C13.73 6.16 13.35 5.1 13.62 4.27C13.72 3.94 13.51 3.5 13.17 3.5H7C4 3.5 2 5 2 8.5V15.5C2 19 4 20.5 7 20.5H17C20 20.5 22 19 22 15.5V10.27C22 10.08 21.73 9.98 21.57 10.09ZM14.34 12.09C13.68 12.62 12.84 12.88 12 12.88C11.16 12.88 10.31 12.62 9.66 12.09L6.53 9.59C6.21 9.33 6.16 8.85 6.41 8.53C6.67 8.21 7.14 8.15 7.46 8.41L10.59 10.91C11.35 11.52 12.64 11.52 13.4 10.91C13.72 10.65 14.19 10.7 14.45 11.03C14.72 11.35 14.67 11.83 14.34 12.09Z" fill="#292D32"/>
</svg>
