<svg width="24" height="24" viewBox="0 0 24 24" fill="none" xmlns="http://www.w3.org/2000/svg">
<path d="M12 22.75C6.07 22.75 1.25 17.93 1.25 12C1.25 6.07 6.07 1.25 12 1.25C17.93 1.25 22.75 6.07 22.75 12C22.75 17.93 17.93 22.75 12 22.75ZM12 2.75C6.9 2.75 2.75 6.9 2.75 12C2.75 17.1 6.9 21.25 12 21.25C17.1 21.25 21.25 17.1 21.25 12C21.25 6.9 17.1 2.75 12 2.75Z" fill="black"/>
<path d="M17.48 11.4202C17.33 11.4202 17.18 11.3701 17.04 11.2801C14.06 9.14014 10.24 8.67014 6.83998 10.0301C6.44998 10.1801 6.01998 9.99013 5.86998 9.61013C5.71998 9.23013 5.90997 8.79016 6.28997 8.64016C10.17 7.10016 14.52 7.63015 17.92 10.0701C18.26 10.3101 18.33 10.7801 18.09 11.1201C17.95 11.3101 17.72 11.4202 17.48 11.4202Z" fill="black"/>
<path d="M15.9101 14.1102C15.7601 14.1102 15.6101 14.0602 15.4701 13.9702C13.3501 12.4502 10.6401 12.1202 8.2101 13.0802C7.8301 13.2302 7.39009 13.0402 7.24009 12.6602C7.09009 12.2702 7.28009 11.8402 7.66009 11.6902C10.5601 10.5402 13.8101 10.9402 16.3401 12.7602C16.6801 13.0002 16.7501 13.4702 16.5101 13.8102C16.3701 14.0002 16.1401 14.1102 15.9101 14.1102Z" fill="black"/>
<path d="M14.81 16.9C14.66 16.9 14.51 16.8501 14.37 16.7601C12.83 15.6601 10.86 15.42 9.09999 16.11C8.71999 16.26 8.27999 16.0701 8.12999 15.6901C7.97999 15.3001 8.16998 14.8701 8.54998 14.7201C10.79 13.8301 13.29 14.1401 15.24 15.5401C15.58 15.7801 15.65 16.2501 15.41 16.5901C15.28 16.7901 15.05 16.9 14.81 16.9Z" fill="black"/>
</svg>
