<svg width="24" height="24" viewBox="0 0 24 24" fill="none" xmlns="http://www.w3.org/2000/svg">
<path d="M16.5 11.25H7.5C7.09 11.25 6.75 10.91 6.75 10.5C6.75 10.09 7.09 9.75 7.5 9.75H16.5C16.91 9.75 17.25 10.09 17.25 10.5C17.25 10.91 16.91 11.25 16.5 11.25Z" fill="black"/>
<path d="M11.82 11.2498C11.58 11.2498 11.35 11.1398 11.21 10.9298L8.39006 6.9298C8.15006 6.5898 8.23005 6.11981 8.57005 5.88981C8.91005 5.64981 9.38003 5.72981 9.61003 6.06981L12.43 10.0698C12.67 10.4098 12.59 10.8798 12.25 11.1098C12.12 11.2098 11.97 11.2498 11.82 11.2498Z" fill="black"/>
<path d="M12 11.2498C11.85 11.2498 11.7 11.2098 11.57 11.1098C11.23 10.8698 11.1501 10.3998 11.3901 10.0698L14.21 6.06981C14.45 5.72981 14.92 5.64981 15.25 5.88981C15.59 6.12981 15.67 6.5998 15.43 6.9298L12.61 10.9298C12.47 11.1398 12.23 11.2498 12 11.2498Z" fill="black"/>
<path d="M16.5 14.25H7.5C7.09 14.25 6.75 13.91 6.75 13.5C6.75 13.09 7.09 12.75 7.5 12.75H16.5C16.91 12.75 17.25 13.09 17.25 13.5C17.25 13.91 16.91 14.25 16.5 14.25Z" fill="black"/>
<path d="M9.00004 18.2498C8.85004 18.2498 8.70005 18.2098 8.57005 18.1098C8.23005 17.8698 8.15006 17.3998 8.39006 17.0698L11.21 13.0698C11.45 12.7298 11.92 12.6498 12.25 12.8898C12.59 13.1298 12.67 13.5998 12.43 13.9298L9.61003 17.9298C9.47003 18.1398 9.23004 18.2498 9.00004 18.2498Z" fill="black"/>
<path d="M14.82 18.2498C14.58 18.2498 14.35 18.1398 14.21 17.9298L11.3901 13.9298C11.1501 13.5898 11.23 13.1198 11.57 12.8898C11.91 12.6498 12.38 12.7298 12.61 13.0698L15.43 17.0698C15.67 17.4098 15.59 17.8798 15.25 18.1098C15.12 18.2098 14.97 18.2498 14.82 18.2498Z" fill="black"/>
<path d="M12 22.75C6.07 22.75 1.25 17.93 1.25 12C1.25 6.07 6.07 1.25 12 1.25C17.93 1.25 22.75 6.07 22.75 12C22.75 17.93 17.93 22.75 12 22.75ZM12 2.75C6.9 2.75 2.75 6.9 2.75 12C2.75 17.1 6.9 21.25 12 21.25C17.1 21.25 21.25 17.1 21.25 12C21.25 6.9 17.1 2.75 12 2.75Z" fill="black"/>
</svg>
