<svg width="24" height="24" viewBox="0 0 24 24" fill="none" xmlns="http://www.w3.org/2000/svg">
<path d="M5.28 19.4001C5.22 19.4001 5.17 19.3901 5.11 19.3801C4.71 19.2901 4.45 18.8801 4.55 18.4801L5.12 16.0201C5.2 15.7001 5.04 15.1501 4.8 14.9101L2.32 12.4301C1.08 11.1901 1.18 10.1301 1.35 9.61008C1.52 9.09008 2.06 8.17008 3.78 7.88008L6.97 7.35008C7.27 7.29008 7.7 6.97008 7.83 6.70008L9.6 3.17008C10.4 1.56008 11.45 1.33008 12 1.33008C12.55 1.33008 13.6 1.57008 14.4 3.17008L16.16 6.69008C16.22 6.81008 16.35 6.95008 16.5 7.07008C16.83 7.32008 16.89 7.80008 16.63 8.12008C16.38 8.45008 15.91 8.51008 15.58 8.25008C15.34 8.07008 15.02 7.76008 14.82 7.36008L13.06 3.84008C12.75 3.21008 12.35 2.83008 12 2.83008C11.65 2.83008 11.25 3.21008 10.94 3.85008L9.17 7.37008C8.82 8.07008 7.98 8.69008 7.21 8.82008L4.03 9.35008C3.35 9.46008 2.89 9.73008 2.78 10.0601C2.67 10.3901 2.9 10.8801 3.39 11.3601L5.87 13.8401C6.47 14.4401 6.78 15.5201 6.59 16.3501L6.02 18.8101C5.93 19.1601 5.63 19.4001 5.28 19.4001Z" fill="#292D32"/>
<path d="M17.66 22.6701C17.13 22.6701 16.45 22.5001 15.6 22.0001L12.61 20.2301C12.3 20.0501 11.7 20.0501 11.4 20.2301L8.4 22.0001C8.05 22.2101 7.58 22.0901 7.37 21.7401C7.16 21.3801 7.28 20.9201 7.63 20.7101L10.62 18.9401C11.4 18.4801 12.58 18.4801 13.36 18.9401L16.35 20.7101C17.22 21.2301 17.77 21.2301 17.98 21.0801C18.19 20.9301 18.34 20.4001 18.12 19.4201L17.41 16.3501C17.22 15.5201 17.53 14.4501 18.13 13.8401L20.61 11.3601C21.1 10.8701 21.32 10.3901 21.22 10.0601C21.11 9.73015 20.65 9.46015 19.97 9.35015C19.56 9.28015 19.29 8.90015 19.35 8.49015C19.42 8.08015 19.8 7.81015 20.21 7.87015C21.94 8.16015 22.48 9.08015 22.64 9.60015C22.8 10.1201 22.9 11.1801 21.67 12.4201L19.2 14.9001C18.96 15.1401 18.81 15.6801 18.88 16.0101L19.59 19.0801C20.05 21.0801 19.34 21.9501 18.88 22.2901C18.63 22.4701 18.23 22.6701 17.66 22.6701Z" fill="#292D32"/>
<path d="M2 22.7499C1.81 22.7499 1.62 22.6799 1.47 22.5299C1.18 22.2399 1.18 21.7599 1.47 21.4699L21.47 1.46994C21.76 1.17994 22.24 1.17994 22.53 1.46994C22.82 1.75994 22.82 2.23994 22.53 2.52994L2.53 22.5299C2.38 22.6799 2.19 22.7499 2 22.7499Z" fill="#292D32"/>
</svg>
