<svg width="24" height="24" viewBox="0 0 24 24" fill="none" xmlns="http://www.w3.org/2000/svg">
<path d="M22.66 4.64C22.46 4.28 22.0001 4.14 21.6401 4.34L4.70008 13.66C4.58008 13.12 4.50007 12.56 4.50007 12C4.50007 7.86 7.86007 4.5 12.0001 4.5C13.4101 4.5 14.7801 4.89 15.9601 5.63C16.3101 5.85 16.7701 5.74 16.9901 5.39C17.2101 5.04 17.1001 4.58 16.7501 4.36C15.3301 3.47 13.6901 3 12.0001 3C7.04007 3 3.00007 7.04 3.00007 12C3.00007 12.81 3.11007 13.61 3.32007 14.39C3.32007 14.4 3.33008 14.4 3.33008 14.41L1.64008 15.34C1.28008 15.54 1.14009 16 1.34009 16.36C1.48009 16.61 1.73007 16.75 2.00007 16.75C2.12007 16.75 2.25005 16.72 2.36005 16.66L22.3601 5.66C22.7201 5.46 22.86 5 22.66 4.64Z" fill="black"/>
<path d="M22.66 8.14009C22.46 7.78009 22.0001 7.64009 21.6401 7.84009L19.5301 9.00009C19.5001 9.02009 19.4601 9.03009 19.4301 9.06009L1.64008 18.8401C1.28008 19.0401 1.14009 19.5001 1.34009 19.8601C1.48009 20.1101 1.73007 20.2501 2.00007 20.2501C2.12007 20.2501 2.25005 20.2201 2.36005 20.1601L19.3901 10.7901C19.4501 11.1901 19.5001 11.5901 19.5001 12.0001C19.5001 16.1401 16.1401 19.5001 12.0001 19.5001C10.5801 19.5001 9.21008 19.1001 8.02008 18.3601C7.67008 18.1401 7.21006 18.2501 6.99006 18.6001C6.77006 18.9501 6.87005 19.4101 7.23005 19.6301C8.66005 20.5301 10.3101 21.0001 12.0101 21.0001C16.9701 21.0001 21.0101 16.9601 21.0101 12.0001C21.0101 11.3301 20.9101 10.6801 20.7701 10.0401L22.3701 9.1601C22.7201 8.9601 22.86 8.50009 22.66 8.14009Z" fill="black"/>
</svg>
