<svg width="24" height="24" viewBox="0 0 24 24" fill="none" xmlns="http://www.w3.org/2000/svg">
<path d="M16.42 7.95012C18.86 10.3901 18.86 14.3501 16.42 16.7901C13.98 19.2301 10.02 19.2301 7.58 16.7901C5.14 14.3501 5.14 10.3901 7.58 7.95012C10.02 5.51012 13.98 5.51012 16.42 7.95012Z" fill="#292D32"/>
<path d="M8.25 22.3901C8.16 22.3901 8.06 22.3701 7.97 22.3401C5.72 21.4401 3.9 19.8501 2.68 17.7501C1.5 15.7001 1.03 13.3801 1.34 11.0201C1.39 10.6101 1.78 10.3201 2.18 10.3701C2.59 10.4201 2.88 10.8001 2.83 11.2101C2.57 13.2401 2.97 15.2401 3.98 17.0001C5.02 18.8001 6.59 20.1701 8.52 20.9401C8.9 21.1001 9.09 21.5301 8.94 21.9201C8.83 22.2101 8.54 22.3901 8.25 22.3901Z" fill="#292D32"/>
<path d="M5.85 5.23011C5.63 5.23011 5.41 5.13011 5.26 4.94011C5 4.62011 5.06 4.15011 5.39 3.89011C7.29 2.40011 9.58 1.61011 12 1.61011C14.36 1.61011 16.61 2.37011 18.5 3.81011C18.83 4.06011 18.89 4.53011 18.64 4.86011C18.39 5.19011 17.92 5.25011 17.59 5.00011C15.96 3.76011 14.03 3.11011 12 3.11011C9.92 3.11011 7.95 3.79011 6.31 5.07011C6.17 5.18011 6.01 5.23011 5.85 5.23011Z" fill="#292D32"/>
<path d="M15.75 22.3901C15.45 22.3901 15.17 22.2101 15.05 21.9201C14.9 21.5401 15.08 21.1001 15.47 20.9401C17.4 20.1601 18.97 18.8001 20.01 17.0001C21.03 15.2401 21.43 13.2401 21.16 11.2201C21.11 10.8101 21.4 10.4301 21.81 10.3801C22.21 10.3301 22.6 10.6201 22.65 11.0301C22.95 13.3801 22.49 15.7101 21.31 17.7601C20.1 19.8601 18.27 21.4401 16.02 22.3501C15.94 22.3701 15.85 22.3901 15.75 22.3901Z" fill="#292D32"/>
</svg>
