<svg width="24" height="24" viewBox="0 0 24 24" fill="none" xmlns="http://www.w3.org/2000/svg">
<path d="M16.1905 2H7.81049C4.17049 2 2.00049 4.17 2.00049 7.81V16.18C2.00049 19.83 4.17049 22 7.81049 22H16.1805C19.8205 22 21.9905 19.83 21.9905 16.19V7.81C22.0005 4.17 19.8305 2 16.1905 2ZM19.0005 8.24C19.0005 8.79 18.5505 9.24 18.0005 9.24H16.0005C15.5905 9.24 15.2505 9.58 15.2505 9.99C15.2505 10.41 15.5905 10.74 16.0005 10.74H18.0005C18.5505 10.74 19.0005 11.19 19.0005 11.74V12.25C19.0005 12.8 18.5505 13.25 18.0005 13.25H16.0005C15.5905 13.25 15.2505 13.59 15.2505 14C15.2505 14.41 15.5905 14.75 16.0005 14.75H18.0005C18.5505 14.75 19.0005 15.2 19.0005 15.75V16C19.0005 17.66 17.6605 19 16.0005 19H8.00049C6.34049 19 5.00049 17.66 5.00049 16V15.5C5.00049 14.95 5.45049 14.5 6.00049 14.5H7.48049C8.95049 14.5 10.1205 13.24 9.97049 11.74C9.84049 10.44 8.65049 9.5 7.34049 9.5H6.00049C5.45049 9.5 5.00049 9.05 5.00049 8.5V8C5.00049 6.34 6.34049 5 8.00049 5H16.0005C17.6605 5 19.0005 6.34 19.0005 8V8.24ZM5.00049 12C5.00049 11.45 5.45049 11 6.00049 11H7.00049C7.55049 11 8.00049 11.45 8.00049 12C8.00049 12.55 7.55049 13 7.00049 13H6.00049C5.45049 13 5.00049 12.55 5.00049 12Z" fill="#292D32"/>
</svg>
