<svg width="24" height="24" viewBox="0 0 24 24" fill="none" xmlns="http://www.w3.org/2000/svg">
<path d="M17.88 6.1201L3.92003 20.0801C3.49003 20.5101 2.77003 20.4701 2.42003 19.9801C1.92003 19.2901 1.82003 18.3301 2.34003 17.5001L5.10003 13.0701C5.47003 12.4801 5.47003 11.5201 5.10003 10.9301L2.34003 6.5001C1.41003 5.0201 2.48003 3.1001 4.22003 3.1001H15.67C16.35 3.1001 17.19 3.5701 17.55 4.1401L18.02 4.8801C18.26 5.2801 18.21 5.7901 17.88 6.1201Z" fill="#292D32"/>
<path d="M21.63 13.11L16.45 20.01C16.09 20.5 15.29 20.9 14.67 20.9H7.50999C6.61999 20.9 6.16999 19.82 6.79999 19.19L18.32 7.67999C18.77 7.22999 19.54 7.30999 19.88 7.85999L21.73 10.83C22.13 11.47 22.09 12.5 21.63 13.11Z" fill="#292D32"/>
</svg>
