<svg width="24" height="24" viewBox="0 0 24 24" fill="none" xmlns="http://www.w3.org/2000/svg">
<path d="M20 19.2601H10.93C10.48 19.2601 10.11 18.8901 10.11 18.4401C10.11 17.9901 10.48 17.6201 10.93 17.6201H20C20.45 17.6201 20.82 17.9901 20.82 18.4401C20.82 18.9001 20.45 19.2601 20 19.2601Z" fill="#292D32"/>
<path d="M20 12.9701H10.93C10.48 12.9701 10.11 12.6001 10.11 12.1501C10.11 11.7001 10.48 11.3301 10.93 11.3301H20C20.45 11.3301 20.82 11.7001 20.82 12.1501C20.82 12.6001 20.45 12.9701 20 12.9701Z" fill="#292D32"/>
<path d="M20 6.66979H10.93C10.48 6.66979 10.11 6.29978 10.11 5.84978C10.11 5.39978 10.48 5.02979 10.93 5.02979H20C20.45 5.02979 20.82 5.39978 20.82 5.84978C20.82 6.29978 20.45 6.66979 20 6.66979Z" fill="#292D32"/>
<path d="M4.90999 8.02992C4.68999 8.02992 4.47999 7.93992 4.32999 7.78992L3.41999 6.87992C3.09999 6.55992 3.09999 6.03992 3.41999 5.71992C3.73999 5.39992 4.25999 5.39992 4.57999 5.71992L4.90999 6.04992L7.04999 3.90992C7.36999 3.58992 7.88999 3.58992 8.20999 3.90992C8.52999 4.22992 8.52999 4.74992 8.20999 5.06992L5.48999 7.78992C5.32999 7.93992 5.12999 8.02992 4.90999 8.02992Z" fill="#292D32"/>
<path d="M4.90999 14.3302C4.69999 14.3302 4.48999 14.2502 4.32999 14.0902L3.41999 13.1802C3.09999 12.8602 3.09999 12.3402 3.41999 12.0202C3.73999 11.7002 4.25999 11.7002 4.57999 12.0202L4.90999 12.3502L7.04999 10.2102C7.36999 9.89021 7.88999 9.89021 8.20999 10.2102C8.52999 10.5302 8.52999 11.0502 8.20999 11.3702L5.48999 14.0902C5.32999 14.2502 5.11999 14.3302 4.90999 14.3302Z" fill="#292D32"/>
<path d="M4.90999 20.3302C4.69999 20.3302 4.48999 20.2502 4.32999 20.0902L3.41999 19.1802C3.09999 18.8602 3.09999 18.3402 3.41999 18.0202C3.73999 17.7002 4.25999 17.7002 4.57999 18.0202L4.90999 18.3502L7.04999 16.2102C7.36999 15.8902 7.88999 15.8902 8.20999 16.2102C8.52999 16.5302 8.52999 17.0502 8.20999 17.3702L5.48999 20.0902C5.32999 20.2502 5.11999 20.3302 4.90999 20.3302Z" fill="#292D32"/>
</svg>
