<svg width="24" height="24" viewBox="0 0 24 24" fill="none" xmlns="http://www.w3.org/2000/svg">
<path d="M21 20.25H11C10.59 20.25 10.25 19.91 10.25 19.5C10.25 19.09 10.59 18.75 11 18.75H21C21.41 18.75 21.75 19.09 21.75 19.5C21.75 19.91 21.41 20.25 21 20.25Z" fill="#292D32"/>
<path d="M21 13.25H11C10.59 13.25 10.25 12.91 10.25 12.5C10.25 12.09 10.59 11.75 11 11.75H21C21.41 11.75 21.75 12.09 21.75 12.5C21.75 12.91 21.41 13.25 21 13.25Z" fill="#292D32"/>
<path d="M21 6.25H11C10.59 6.25 10.25 5.91 10.25 5.5C10.25 5.09 10.59 4.75 11 4.75H21C21.41 4.75 21.75 5.09 21.75 5.5C21.75 5.91 21.41 6.25 21 6.25Z" fill="#292D32"/>
<path d="M4 7.24994C3.81 7.24994 3.62 7.17994 3.47 7.02994L2.47 6.02994C2.18 5.73994 2.18 5.25994 2.47 4.96994C2.76 4.67994 3.24 4.67994 3.53 4.96994L4 5.43994L6.47 2.96994C6.76 2.67994 7.24 2.67994 7.53 2.96994C7.82 3.25994 7.82 3.73994 7.53 4.02994L4.53 7.02994C4.38 7.17994 4.19 7.24994 4 7.24994Z" fill="#292D32"/>
<path d="M4 14.2499C3.81 14.2499 3.62 14.1799 3.47 14.0299L2.47 13.0299C2.18 12.7399 2.18 12.2599 2.47 11.9699C2.76 11.6799 3.24 11.6799 3.53 11.9699L4 12.4399L6.47 9.96994C6.76 9.67994 7.24 9.67994 7.53 9.96994C7.82 10.2599 7.82 10.7399 7.53 11.0299L4.53 14.0299C4.38 14.1799 4.19 14.2499 4 14.2499Z" fill="#292D32"/>
<path d="M4 21.2499C3.81 21.2499 3.62 21.1799 3.47 21.0299L2.47 20.0299C2.18 19.7399 2.18 19.2599 2.47 18.9699C2.76 18.6799 3.24 18.6799 3.53 18.9699L4 19.4399L6.47 16.9699C6.76 16.6799 7.24 16.6799 7.53 16.9699C7.82 17.2599 7.82 17.7399 7.53 18.0299L4.53 21.0299C4.38 21.1799 4.19 21.2499 4 21.2499Z" fill="#292D32"/>
</svg>
