<svg width="24" height="24" viewBox="0 0 24 24" fill="none" xmlns="http://www.w3.org/2000/svg">
<path d="M15.2499 15.9999C15.0599 15.9999 14.8699 15.9299 14.7199 15.7799L11.9999 13.0599L9.27994 15.7799C8.98994 16.0699 8.50994 16.0699 8.21994 15.7799L4.96994 12.5299C4.67994 12.2399 4.67994 11.7599 4.96994 11.4699L8.21994 8.21994C8.50994 7.92994 8.98994 7.92994 9.27994 8.21994L11.9999 10.9399L14.7199 8.21994C15.0099 7.92994 15.4899 7.92994 15.7799 8.21994L19.0299 11.4699C19.3199 11.7599 19.3199 12.2399 19.0299 12.5299L15.7799 15.7799C15.6299 15.9299 15.4399 15.9999 15.2499 15.9999ZM13.0599 11.9999L15.2499 14.1899L17.4399 11.9999L15.2499 9.80994L13.0599 11.9999ZM6.55994 11.9999L8.74994 14.1899L10.9399 11.9999L8.74994 9.80994L6.55994 11.9999Z" fill="black"/>
<path d="M12 22.75C6.07 22.75 1.25 17.93 1.25 12C1.25 6.07 6.07 1.25 12 1.25C17.93 1.25 22.75 6.07 22.75 12C22.75 17.93 17.93 22.75 12 22.75ZM12 2.75C6.9 2.75 2.75 6.9 2.75 12C2.75 17.1 6.9 21.25 12 21.25C17.1 21.25 21.25 17.1 21.25 12C21.25 6.9 17.1 2.75 12 2.75Z" fill="black"/>
</svg>
