<svg width="24" height="24" viewBox="0 0 24 24" fill="none" xmlns="http://www.w3.org/2000/svg">
<path d="M12 21.3999C11.06 21.3999 10.12 21.0799 9.40998 20.4299L2.47997 14.1399C1.26997 13.0399 0.889967 11.0299 1.61997 9.56986L4.01998 4.74986C4.61998 3.54986 6.12997 2.60986 7.46997 2.60986H16.53C17.87 2.60986 19.38 3.54986 19.98 4.74986L22.38 9.56986C23.11 11.0299 22.73 13.0399 21.52 14.1399L14.59 20.4299C13.88 21.0699 12.94 21.3999 12 21.3999ZM7.46997 4.09986C6.68997 4.09986 5.70997 4.70986 5.35997 5.40986L2.95998 10.2299C2.53998 11.0799 2.77998 12.3799 3.48998 13.0199L10.42 19.3099C11.28 20.0899 12.73 20.0899 13.58 19.3099L20.51 13.0199C21.21 12.3799 21.46 11.0799 21.04 10.2299L18.64 5.40986C18.29 4.71986 17.31 4.10986 16.53 4.10986H7.46997V4.09986Z" fill="black"/>
<path d="M12 15.25C11.59 15.25 11.25 14.91 11.25 14.5V8.5C11.25 8.09 11.59 7.75 12 7.75C12.41 7.75 12.75 8.09 12.75 8.5V14.5C12.75 14.91 12.41 15.25 12 15.25Z" fill="black"/>
<path d="M16 9.25H8C7.59 9.25 7.25 8.91 7.25 8.5C7.25 8.09 7.59 7.75 8 7.75H16C16.41 7.75 16.75 8.09 16.75 8.5C16.75 8.91 16.41 9.25 16 9.25Z" fill="black"/>
</svg>
