<svg width="24" height="24" viewBox="0 0 24 24" fill="none" xmlns="http://www.w3.org/2000/svg">
<path d="M21.7101 9.89986L19.3101 5.07986C18.8401 4.12986 17.5901 3.35986 16.5301 3.35986H7.4701C6.4101 3.35986 5.1601 4.12986 4.6901 5.07986L2.29009 9.89986C1.71009 11.0599 2.03009 12.7099 2.98009 13.5799L9.9101 19.8699C11.0601 20.9099 12.9301 20.9099 14.0801 19.8699L21.0101 13.5799C21.9701 12.7099 22.2901 11.0499 21.7101 9.89986ZM16.0001 9.24986H12.7501V14.4999C12.7501 14.9099 12.4101 15.2499 12.0001 15.2499C11.5901 15.2499 11.2501 14.9099 11.2501 14.4999V9.24986H8.0001C7.5901 9.24986 7.2501 8.90986 7.2501 8.49986C7.2501 8.08986 7.5901 7.74986 8.0001 7.74986H16.0001C16.4101 7.74986 16.7501 8.08986 16.7501 8.49986C16.7501 8.90986 16.4101 9.24986 16.0001 9.24986Z" fill="black"/>
</svg>
