<svg width="24" height="24" viewBox="0 0 24 24" fill="none" xmlns="http://www.w3.org/2000/svg">
<path d="M18.8799 3.75H9.61988C9.20988 3.75 8.87988 3.41 8.87988 3C8.87988 2.59 9.21988 2.25 9.62988 2.25H18.8799C19.2899 2.25 19.6299 2.59 19.6299 3C19.6299 3.41 19.2899 3.75 18.8799 3.75Z" fill="#292D32"/>
<path d="M14.3801 21.75H5.12012C4.71012 21.75 4.37012 21.41 4.37012 21C4.37012 20.59 4.71012 20.25 5.12012 20.25H14.3701C14.7801 20.25 15.1201 20.59 15.1201 21C15.1201 21.41 14.7901 21.75 14.3801 21.75Z" fill="#292D32"/>
<path d="M9.7501 21.7501C9.6901 21.7501 9.6301 21.7401 9.5701 21.7301C9.1701 21.6301 8.9201 21.2201 9.0201 20.8201L13.5201 2.8201C13.6201 2.4201 14.0201 2.1701 14.4301 2.2701C14.8301 2.3701 15.0801 2.7801 14.9801 3.1801L10.4801 21.1801C10.3901 21.5201 10.0901 21.7501 9.7501 21.7501Z" fill="#292D32"/>
</svg>
