<svg width="24" height="24" viewBox="0 0 24 24" fill="none" xmlns="http://www.w3.org/2000/svg">
<path d="M11.3099 14.6902C9.03994 14.6902 7.18994 12.8402 7.18994 10.5702C7.18994 8.3002 9.03994 6.4502 11.3099 6.4502C13.5799 6.4502 15.4299 8.3002 15.4299 10.5702C15.4299 12.8402 13.5899 14.6902 11.3099 14.6902ZM11.3099 7.9402C9.85994 7.9402 8.68994 9.1202 8.68994 10.5602C8.68994 12.0002 9.86994 13.1802 11.3099 13.1802C12.7499 13.1802 13.9299 12.0002 13.9299 10.5602C13.9299 9.1202 12.7599 7.9402 11.3099 7.9402Z" fill="black"/>
<path d="M16.51 8.31006C15.96 8.31006 15.51 7.86006 15.51 7.31006C15.51 6.76006 15.95 6.31006 16.51 6.31006H16.52C17.07 6.31006 17.52 6.76006 17.52 7.31006C17.52 7.86006 17.06 8.31006 16.51 8.31006Z" fill="black"/>
<path d="M12.06 18.56C11.87 18.56 11.68 18.49 11.53 18.34C11.24 18.05 11.24 17.57 11.53 17.28L14.53 14.28C14.82 13.99 15.3 13.99 15.59 14.28C15.88 14.57 15.88 15.05 15.59 15.34L12.59 18.34C12.45 18.49 12.25 18.56 12.06 18.56Z" fill="black"/>
<path d="M12 22.75C6.07 22.75 1.25 17.93 1.25 12C1.25 6.07 6.07 1.25 12 1.25C17.93 1.25 22.75 6.07 22.75 12C22.75 17.93 17.93 22.75 12 22.75ZM12 2.75C6.9 2.75 2.75 6.9 2.75 12C2.75 17.1 6.9 21.25 12 21.25C17.1 21.25 21.25 17.1 21.25 12C21.25 6.9 17.1 2.75 12 2.75Z" fill="black"/>
</svg>
