<svg width="24" height="24" viewBox="0 0 24 24" fill="none" xmlns="http://www.w3.org/2000/svg">
<path d="M5.63994 22.7498C5.05994 22.7498 4.5199 22.4698 4.1599 21.9598C3.6499 21.2398 3.70993 20.3098 4.30993 19.6698L11.6399 11.7098L8.08996 8.11977C7.65996 7.68977 7.4799 7.06977 7.5999 6.46977C7.7199 5.86977 8.12993 5.37977 8.68993 5.13977L17.6299 1.38977C18.4199 1.05977 19.2899 1.29977 19.8099 1.97977C20.3199 2.66977 20.2999 3.56977 19.7599 4.23977L13.6899 11.6498L17.2699 15.2798C17.6999 15.7098 17.8799 16.3298 17.7599 16.9298C17.6399 17.5298 17.2299 18.0198 16.6699 18.2598L6.36992 22.5998C6.12992 22.6998 5.88994 22.7498 5.63994 22.7498ZM12.6899 12.7898L5.41991 20.6898C5.25991 20.8598 5.33994 21.0198 5.38994 21.1098C5.44994 21.1898 5.57991 21.3198 5.78991 21.2198L16.09 16.8798C16.23 16.8198 16.2699 16.6998 16.2899 16.6398C16.2999 16.5798 16.3099 16.4498 16.1999 16.3398L12.6899 12.7898ZM9.1599 7.06977L12.6299 10.5798L18.59 3.29977C18.73 3.12977 18.6599 2.96977 18.5999 2.88977C18.5399 2.80977 18.4199 2.68977 18.1999 2.77977L9.25994 6.52977C9.11994 6.58977 9.07993 6.70977 9.05993 6.76977C9.03993 6.82977 9.0599 6.95977 9.1599 7.06977Z" fill="black"/>
</svg>
