<svg width="24" height="24" viewBox="0 0 24 24" fill="none" xmlns="http://www.w3.org/2000/svg">
<path d="M17.1902 4.96C17.1902 4.97 17.1902 4.97 17.1902 4.98C16.9402 4.97 16.6902 4.96 16.4202 4.96H8.72021L9.79021 3.9C10.7702 2.91 11.8502 2 13.1002 2C14.3602 2 15.4402 2.91 16.4202 3.9L16.9802 4.46C17.1202 4.59 17.1902 4.77 17.1902 4.96Z" fill="#292D32"/>
<path d="M20.84 13.1702C21.23 13.1702 21.54 12.8502 21.54 12.4502V11.5702C21.54 7.6402 20.34 6.4502 16.42 6.4502H10.12H7.57996C3.65996 6.4502 2.45996 7.6502 2.45996 11.5702V12.0002C2.45996 12.4002 2.76996 12.7102 3.15996 12.7102C3.99996 12.7102 4.66996 13.3902 4.66996 14.2202C4.66996 15.0502 3.99996 15.7402 3.15996 15.7402C2.76996 15.7402 2.45996 16.0502 2.45996 16.4502V16.8802C2.45996 20.8102 3.65996 22.0002 7.57996 22.0002H10.11H16.41C20.33 22.0002 21.53 20.8002 21.53 16.8802C21.53 16.4902 21.22 16.1702 20.83 16.1702C19.99 16.1702 19.32 15.5002 19.32 14.6702C19.33 13.8402 20 13.1702 20.84 13.1702ZM10.82 18.8602C10.82 19.2502 10.5 19.5702 10.11 19.5702C9.71996 19.5702 9.39996 19.2502 9.39996 18.8602V16.1802C9.39996 15.7902 9.71996 15.4702 10.11 15.4702C10.5 15.4702 10.82 15.7902 10.82 16.1802V18.8602ZM10.82 12.2702C10.82 12.6602 10.5 12.9802 10.11 12.9802C9.71996 12.9802 9.39996 12.6602 9.39996 12.2702V9.5902C9.39996 9.2002 9.71996 8.8802 10.11 8.8802C10.5 8.8802 10.82 9.2002 10.82 9.5902V12.2702Z" fill="#292D32"/>
</svg>
