<svg width="24" height="24" viewBox="0 0 24 24" fill="none" xmlns="http://www.w3.org/2000/svg">
<path d="M16.6901 22.75H7.31012C3.14012 22.75 1.87012 21.48 1.87012 17.31V16.85C1.87012 16.44 2.21012 16.1 2.62012 16.1C3.50012 16.1 4.22012 15.38 4.22012 14.5C4.22012 13.62 3.50012 12.9 2.62012 12.9C2.21012 12.9 1.87012 12.56 1.87012 12.15V11.69C1.87012 7.52 3.14012 6.25 7.31012 6.25H16.6901C20.8601 6.25 22.1301 7.52 22.1301 11.69V12.63C22.1301 13.04 21.7901 13.38 21.3801 13.38C20.5001 13.38 19.7801 14.1 19.7801 14.98C19.7801 15.86 20.5001 16.57 21.3801 16.57C21.7901 16.57 22.1301 16.91 22.1301 17.32C22.1201 21.48 20.8501 22.75 16.6901 22.75ZM3.38012 17.51C3.40012 20.69 4.03012 21.25 7.32012 21.25H16.7001C19.8201 21.25 20.5401 20.74 20.6301 17.97C19.2901 17.63 18.2901 16.42 18.2901 14.97C18.2901 13.52 19.2901 12.3 20.6401 11.96V11.68C20.6401 8.33 20.0501 7.74 16.7001 7.74H7.31012C4.03012 7.74 3.40012 8.31 3.37012 11.48C4.72012 11.82 5.72012 13.04 5.72012 14.49C5.72012 15.94 4.72012 17.17 3.38012 17.51Z" fill="#292D32"/>
<path d="M10 10.25C9.59 10.25 9.25 9.91 9.25 9.5V7C9.25 6.59 9.59 6.25 10 6.25C10.41 6.25 10.75 6.59 10.75 7V9.5C10.75 9.91 10.41 10.25 10 10.25Z" fill="#292D32"/>
<path d="M10 16.9198C9.59 16.9198 9.25 16.5798 9.25 16.1698V12.8398C9.25 12.4298 9.59 12.0898 10 12.0898C10.41 12.0898 10.75 12.4298 10.75 12.8398V16.1698C10.75 16.5798 10.41 16.9198 10 16.9198Z" fill="#292D32"/>
<path d="M10 22.75C9.59 22.75 9.25 22.41 9.25 22V19.5C9.25 19.09 9.59 18.75 10 18.75C10.41 18.75 10.75 19.09 10.75 19.5V22C10.75 22.41 10.41 22.75 10 22.75Z" fill="#292D32"/>
<path d="M16.3302 7.75014H7.24017C6.94017 7.75014 6.66017 7.57014 6.55017 7.29014C6.44017 7.01014 6.50017 6.68014 6.71017 6.47014L9.64017 3.54014C12.3402 0.840137 13.9902 0.840137 16.6802 3.54014L17.2802 4.14014C17.4202 4.28014 17.5002 4.47014 17.5002 4.67014C17.5002 4.87014 17.4202 5.06014 17.2802 5.20014C16.8802 5.60014 16.7702 6.19014 17.0002 6.70014C17.1102 6.93014 17.0902 7.20014 16.9502 7.42014C16.8202 7.62014 16.5802 7.75014 16.3302 7.75014ZM9.05017 6.25014H15.3802C15.3602 5.72014 15.4902 5.19014 15.7602 4.73014L15.6302 4.60014C13.5402 2.51014 12.8002 2.51014 10.7102 4.60014L9.05017 6.25014Z" fill="#292D32"/>
</svg>
