<svg width="24" height="24" viewBox="0 0 24 24" fill="none" xmlns="http://www.w3.org/2000/svg">
<path d="M17.0002 20.75H7.00022C2.75022 20.75 1.36021 19.48 1.26021 15.52C1.26021 15.32 1.33021 15.12 1.47021 14.98C1.61021 14.84 1.80021 14.75 2.01021 14.75C3.52021 14.75 4.75021 13.51 4.75021 12C4.75021 10.49 3.52021 9.25 2.01021 9.25C1.81021 9.25 1.62021 9.17 1.47021 9.02C1.32021 8.87 1.25021 8.68 1.26021 8.48C1.36021 4.52 2.75022 3.25 7.00022 3.25H17.0002C21.4102 3.25 22.7502 4.59 22.7502 9V15C22.7502 19.41 21.4102 20.75 17.0002 20.75ZM2.79021 16.18C2.96021 18.72 3.82021 19.25 7.00022 19.25H17.0002C20.5802 19.25 21.2502 18.57 21.2502 15V9C21.2502 5.43 20.5802 4.75 17.0002 4.75H7.00022C3.82021 4.75 2.96021 5.29 2.79021 7.82C4.76021 8.2 6.25022 9.93 6.25022 12C6.25022 14.07 4.76021 15.8 2.79021 16.18Z" fill="#292D32"/>
<path d="M9 8.25C8.59 8.25 8.25 7.91 8.25 7.5V4C8.25 3.59 8.59 3.25 9 3.25C9.41 3.25 9.75 3.59 9.75 4V7.5C9.75 7.91 9.41 8.25 9 8.25Z" fill="#292D32"/>
<path d="M9 20.75C8.59 20.75 8.25 20.41 8.25 20V16.5C8.25 16.09 8.59 15.75 9 15.75C9.41 15.75 9.75 16.09 9.75 16.5V20C9.75 20.41 9.41 20.75 9 20.75Z" fill="#292D32"/>
<path d="M13.0401 15.6501C12.8001 15.6501 12.5601 15.5701 12.3601 15.4301C12.0001 15.1701 11.8201 14.7301 11.9001 14.2901L12.1101 13.1001L11.2401 12.2501C10.9201 11.9401 10.8101 11.4801 10.9401 11.0601C11.0801 10.6401 11.4401 10.3301 11.8801 10.2701L13.0801 10.0901L13.6201 9.0001C13.8201 8.6001 14.2201 8.3501 14.6601 8.3501C15.1101 8.3501 15.5101 8.6001 15.7001 9.0001L16.2401 10.0901L17.4401 10.2701C17.8801 10.3301 18.2401 10.6401 18.3801 11.0601C18.5201 11.4801 18.4001 11.9401 18.0801 12.2501L17.2101 13.1001L17.4201 14.2901C17.5001 14.7301 17.3201 15.1701 16.9601 15.4301C16.6001 15.6901 16.1301 15.7201 15.7401 15.5201L14.6701 14.9601L13.5901 15.5201C13.4201 15.6101 13.2301 15.6501 13.0401 15.6501ZM12.7701 11.6501L13.2801 12.1501C13.5601 12.4201 13.6801 12.8001 13.6201 13.1801L13.5001 13.8801L14.1301 13.5501C14.4701 13.3701 14.8701 13.3701 15.2101 13.5501L15.8401 13.8801L15.7201 13.1801C15.6601 12.7901 15.7801 12.4101 16.0601 12.1501L16.5701 11.6501L15.8701 11.5501C15.4901 11.4901 15.1601 11.2501 14.9901 10.9101L14.6801 10.2701L14.3701 10.9101C14.2001 11.2501 13.8701 11.4901 13.4901 11.5501L12.7701 11.6501Z" fill="#292D32"/>
</svg>
