<svg width="24" height="24" viewBox="0 0 24 24" fill="none" xmlns="http://www.w3.org/2000/svg">
<path d="M17.3802 20.75H10.9102C10.5002 20.75 10.1602 20.41 10.1602 20C10.1602 19.59 10.5002 19.25 10.9102 19.25H17.3802C20.4402 19.25 21.1602 18.75 21.2402 16.03C19.9202 15.69 18.9402 14.49 18.9402 13.07C18.9402 11.64 19.9202 10.43 21.2502 10.09V9.82996C21.2502 6.53996 20.6702 5.95996 17.3802 5.95996H11.7502V12C11.7502 12.41 11.4102 12.75 11.0002 12.75C10.5902 12.75 10.2502 12.41 10.2502 12V5.20996C10.2502 4.79996 10.5902 4.45996 11.0002 4.45996H17.3802C21.5002 4.45996 22.7502 5.70996 22.7502 9.82996V10.75C22.7502 11.16 22.4102 11.5 22.0002 11.5C21.1402 11.5 20.4402 12.2 20.4402 13.07C20.4402 13.93 21.1402 14.63 22.0002 14.63C22.4102 14.63 22.7502 14.97 22.7502 15.38C22.7502 19.5 21.5002 20.75 17.3802 20.75Z" fill="#292D32"/>
<path d="M10.9999 20.7502H8.22995C6.20995 20.7502 5.16995 19.2302 4.21995 16.9502L4.02995 16.4902C3.95995 16.3102 3.95995 16.1002 4.03995 15.9202C4.11995 15.7402 4.26995 15.5902 4.44995 15.5202C4.84995 15.3602 5.15995 15.0502 5.32995 14.6602C5.49995 14.2602 5.49995 13.8202 5.32995 13.4202C4.99995 12.5802 4.04995 12.1902 3.20995 12.5202C3.01995 12.6002 2.81995 12.5902 2.62995 12.5102C2.44995 12.4302 2.29995 12.2802 2.22995 12.1002L2.05995 11.6702C0.459948 7.78022 1.15995 6.11022 5.04995 4.50022L7.68995 3.42022C8.06995 3.26022 8.50995 3.45022 8.66995 3.83022L11.6999 11.1702C11.7399 11.2602 11.7599 11.3602 11.7599 11.4602V14.0002C11.7599 14.4102 11.4199 14.7502 11.0099 14.7502C10.5999 14.7502 10.2599 14.4102 10.2599 14.0002V11.6002L7.55995 5.09022L5.61995 5.89022C2.53995 7.16022 2.16995 7.94022 3.37995 10.9402C4.76995 10.7402 6.16995 11.4902 6.71995 12.8402C7.03995 13.6102 7.03995 14.4602 6.70995 15.2302C6.48995 15.7602 6.12995 16.2102 5.66995 16.5402C6.62995 18.8002 7.32995 19.2502 8.21995 19.2502H10.2399V17.0002C10.2399 16.5902 10.5799 16.2502 10.9899 16.2502C11.3999 16.2502 11.7399 16.5902 11.7399 17.0002V20.0002C11.7499 20.4102 11.4099 20.7502 10.9999 20.7502Z" fill="#292D32"/>
<path d="M8.17 20.75H8C7.59 20.75 7.25 20.41 7.25 20C7.25 19.59 7.59 19.25 8 19.25H8.17C8.58 19.25 8.92 19.59 8.92 20C8.92 20.41 8.58 20.75 8.17 20.75Z" fill="#292D32"/>
</svg>
