<svg width="24" height="24" viewBox="0 0 24 24" fill="none" xmlns="http://www.w3.org/2000/svg">
<path d="M16.6501 3.85986H9.91012V6.87986C9.91012 7.26986 9.59012 7.57986 9.21012 7.57986C8.83012 7.57986 8.51012 7.26986 8.51012 6.87986V3.85986H7.35012C3.40012 3.85986 2.10012 5.03986 2.01012 8.72986C2.00012 8.90986 2.08012 9.09986 2.21012 9.22986C2.34012 9.36986 2.51012 9.43986 2.71012 9.43986C4.11012 9.43986 5.26012 10.5999 5.26012 11.9999C5.26012 13.3999 4.11012 14.5599 2.71012 14.5599C2.52012 14.5599 2.34012 14.6299 2.21012 14.7699C2.08012 14.8999 2.00012 15.0899 2.01012 15.2699C2.10012 18.9599 3.40012 20.1399 7.35012 20.1399H8.51012V17.1199C8.51012 16.7299 8.83012 16.4199 9.21012 16.4199C9.59012 16.4199 9.91012 16.7299 9.91012 17.1199V20.1399H16.6501C20.7501 20.1399 22.0001 18.8899 22.0001 14.7899V9.20986C22.0001 5.10986 20.7501 3.85986 16.6501 3.85986ZM18.4701 11.8999L17.5401 12.7999C17.5001 12.8299 17.4901 12.8899 17.5001 12.9399L17.7201 14.2099C17.7601 14.4399 17.6701 14.6799 17.4701 14.8199C17.2801 14.9599 17.0301 14.9799 16.8201 14.8699L15.6701 14.2699C15.6301 14.2499 15.5701 14.2499 15.5301 14.2699L14.3801 14.8699C14.2901 14.9199 14.1901 14.9399 14.0901 14.9399C13.9601 14.9399 13.8401 14.8999 13.7301 14.8199C13.5401 14.6799 13.4401 14.4499 13.4801 14.2099L13.7001 12.9399C13.7101 12.8899 13.6901 12.8399 13.6601 12.7999L12.7301 11.8999C12.5601 11.7399 12.5001 11.4899 12.5701 11.2699C12.6401 11.0399 12.8301 10.8799 13.0701 10.8499L14.3501 10.6599C14.4001 10.6499 14.4401 10.6199 14.4701 10.5799L15.0401 9.41986C15.1501 9.20986 15.3601 9.07986 15.6001 9.07986C15.8401 9.07986 16.0501 9.20986 16.1501 9.41986L16.7201 10.5799C16.7401 10.6299 16.7801 10.6599 16.8301 10.6599L18.1101 10.8499C18.3501 10.8799 18.5401 11.0499 18.6101 11.2699C18.7001 11.4899 18.6401 11.7299 18.4701 11.8999Z" fill="#292D32"/>
</svg>
