<svg width="24" height="24" viewBox="0 0 24 24" fill="none" xmlns="http://www.w3.org/2000/svg">
<path d="M12 4.6499C7.21999 4.6499 3.32999 8.5399 3.32999 13.3199C3.32999 18.0999 7.21999 21.9999 12 21.9999C16.78 21.9999 20.67 18.1099 20.67 13.3299C20.67 8.5499 16.78 4.6499 12 4.6499ZM12.75 12.9999C12.75 13.4099 12.41 13.7499 12 13.7499C11.59 13.7499 11.25 13.4099 11.25 12.9999V7.9999C11.25 7.5899 11.59 7.2499 12 7.2499C12.41 7.2499 12.75 7.5899 12.75 7.9999V12.9999Z" fill="#292D32"/>
<path d="M14.89 3.45H9.11001C8.71001 3.45 8.39001 3.13 8.39001 2.73C8.39001 2.33 8.71001 2 9.11001 2H14.89C15.29 2 15.61 2.32 15.61 2.72C15.61 3.12 15.29 3.45 14.89 3.45Z" fill="#292D32"/>
</svg>
