<svg width="24" height="24" viewBox="0 0 24 24" fill="none" xmlns="http://www.w3.org/2000/svg">
<path d="M12 13.75C11.59 13.75 11.25 13.41 11.25 13V8C11.25 7.59 11.59 7.25 12 7.25C12.41 7.25 12.75 7.59 12.75 8V13C12.75 13.41 12.41 13.75 12 13.75Z" fill="#292D32"/>
<path d="M12 22.75C6.76 22.75 2.5 18.49 2.5 13.25C2.5 8.01 6.76 3.75 12 3.75C17.24 3.75 21.5 8.01 21.5 13.25C21.5 13.66 21.16 14 20.75 14C20.34 14 20 13.66 20 13.25C20 8.84 16.41 5.25 12 5.25C7.59 5.25 4 8.84 4 13.25C4 17.66 7.59 21.25 12 21.25C12.41 21.25 12.75 21.59 12.75 22C12.75 22.41 12.41 22.75 12 22.75Z" fill="#292D32"/>
<path d="M15 2.75H9C8.59 2.75 8.25 2.41 8.25 2C8.25 1.59 8.59 1.25 9 1.25H15C15.41 1.25 15.75 1.59 15.75 2C15.75 2.41 15.41 2.75 15 2.75Z" fill="#292D32"/>
<path d="M16.15 22.0198C15.8 22.0198 15.48 21.9398 15.19 21.7698C14.53 21.3898 14.15 20.6198 14.15 19.6598V17.3498C14.15 16.3898 14.53 15.6198 15.19 15.2398C15.85 14.8598 16.7 14.9198 17.53 15.3898L19.53 16.5498C20.36 17.0298 20.84 17.7398 20.84 18.4998C20.84 19.2598 20.36 19.9698 19.53 20.4498L17.53 21.6098C17.07 21.8798 16.6 22.0198 16.15 22.0198ZM16.16 16.4798C16.08 16.4798 16 16.4998 15.94 16.5298C15.76 16.6298 15.65 16.9398 15.65 17.3398V19.6498C15.65 20.0498 15.76 20.3598 15.94 20.4598C16.12 20.5598 16.44 20.5098 16.78 20.3098L18.78 19.1498C19.13 18.9498 19.34 18.6998 19.34 18.4998C19.34 18.2998 19.13 18.0498 18.78 17.8498L16.78 16.6898C16.55 16.5498 16.33 16.4798 16.16 16.4798Z" fill="#292D32"/>
</svg>
