<svg width="24" height="24" viewBox="0 0 24 24" fill="none" xmlns="http://www.w3.org/2000/svg">
<path d="M14.79 19.4199C14.68 19.4199 14.56 19.3899 14.46 19.3399C14.09 19.1499 13.94 18.6999 14.12 18.3299L16.26 14.0599C16.39 13.8099 16.65 13.6499 16.93 13.6499C17.21 13.6499 17.47 13.8099 17.6 14.0699L19.74 18.3399C19.93 18.7099 19.78 19.1599 19.4 19.3499C19.03 19.5399 18.58 19.3899 18.39 19.0099L16.93 16.0799L15.47 19.0099C15.33 19.2699 15.06 19.4199 14.79 19.4199Z" fill="#292D32"/>
<path d="M18.6801 18.6602H15.1602C14.7502 18.6602 14.4102 18.3202 14.4102 17.9102C14.4102 17.5002 14.7502 17.1602 15.1602 17.1602H18.6801C19.0901 17.1602 19.4301 17.5002 19.4301 17.9102C19.4301 18.3202 19.1001 18.6602 18.6801 18.6602Z" fill="#292D32"/>
<path d="M16.9198 22.7498C13.7098 22.7498 11.0898 20.1398 11.0898 16.9198C11.0898 13.6998 13.6998 11.0898 16.9198 11.0898C20.1298 11.0898 22.7498 13.6998 22.7498 16.9198C22.7498 20.1398 20.1398 22.7498 16.9198 22.7498ZM16.9198 12.5998C14.5298 12.5998 12.5898 14.5398 12.5898 16.9298C12.5898 19.3198 14.5298 21.2598 16.9198 21.2598C19.2998 21.2598 21.2498 19.3198 21.2498 16.9298C21.2498 14.5398 19.3098 12.5998 16.9198 12.5998Z" fill="#292D32"/>
<path d="M4.86 12.7003C3.75 12.7003 2.87 12.3902 2.25 11.7902C1.59 11.1502 1.25 10.1802 1.25 8.93024V5.01025C1.25 2.58025 2.59 1.24023 5.02 1.24023H8.94C10.19 1.24023 11.15 1.57023 11.8 2.24023C12.43 2.89023 12.74 3.83027 12.71 5.03027V8.93024C12.74 10.1502 12.43 11.1103 11.78 11.7603C11.13 12.4103 10.17 12.7102 8.92999 12.6902H5.03C4.96 12.7002 4.91 12.7003 4.86 12.7003ZM5.02 2.75024C3.41 2.75024 2.75 3.41026 2.75 5.02026V8.94025C2.75 9.77025 2.92999 10.3702 3.28999 10.7202C3.63999 11.0602 4.20001 11.2103 4.99001 11.2003H8.92999C9.76999 11.2203 10.35 11.0503 10.7 10.7003C11.05 10.3503 11.21 9.76026 11.19 8.95026V5.01025C11.21 4.21025 11.05 3.64022 10.71 3.29022C10.36 2.93022 9.75999 2.75024 8.92999 2.75024H5.02Z" fill="#292D32"/>
<path d="M8.99994 6.59961H4.93994C4.52994 6.59961 4.18994 6.25961 4.18994 5.84961C4.18994 5.43961 4.52994 5.09961 4.93994 5.09961H8.99994C9.40994 5.09961 9.74994 5.43961 9.74994 5.84961C9.74994 6.25961 9.41994 6.59961 8.99994 6.59961Z" fill="#292D32"/>
<path d="M6.97998 6.59991C6.56998 6.59991 6.22998 6.25991 6.22998 5.84991V5.16992C6.22998 4.75992 6.56998 4.41992 6.97998 4.41992C7.38998 4.41992 7.72998 4.75992 7.72998 5.16992V5.84991C7.72998 6.25991 7.38998 6.59991 6.97998 6.59991Z" fill="#292D32"/>
<path d="M4.93994 9.75983C4.52994 9.75983 4.18994 9.41983 4.18994 9.00983C4.18994 8.59983 4.52994 8.25983 4.93994 8.25983C6.20994 8.25983 7.23994 7.17984 7.23994 5.83984C7.23994 5.42984 7.57994 5.08984 7.98994 5.08984C8.39994 5.08984 8.73994 5.42984 8.73994 5.83984C8.73994 7.99984 7.03994 9.75983 4.93994 9.75983Z" fill="#292D32"/>
<path d="M9.00993 9.76007C8.07993 9.76007 7.18994 9.29008 6.55994 8.46008C6.30994 8.13008 6.37995 7.66003 6.70995 7.41003C7.03995 7.16003 7.50993 7.23005 7.75993 7.56005C8.09993 8.02005 8.54993 8.27008 9.00993 8.27008C9.41993 8.27008 9.75993 8.61008 9.75993 9.02008C9.75993 9.43008 9.41993 9.76007 9.00993 9.76007Z" fill="#292D32"/>
<path d="M9 22.75C4.73 22.75 1.25 19.27 1.25 15C1.25 14.59 1.59 14.25 2 14.25C2.41 14.25 2.75 14.59 2.75 15C2.75 17.96 4.81 20.44 7.58 21.09L7.31 20.64C7.1 20.28 7.21001 19.82 7.57001 19.61C7.92001 19.4 8.39001 19.51 8.60001 19.87L9.64999 21.62C9.78999 21.85 9.79 22.14 9.66 22.37C9.52 22.6 9.27 22.75 9 22.75Z" fill="#292D32"/>
<path d="M21.9999 9.75C21.5899 9.75 21.2499 9.41 21.2499 9C21.2499 6.04 19.1899 3.55997 16.4199 2.90997L16.6899 3.35999C16.8999 3.71999 16.7899 4.18001 16.4299 4.39001C16.0799 4.60001 15.6099 4.49001 15.3999 4.13L14.3499 2.38C14.2099 2.15 14.2099 1.86 14.3399 1.63C14.4699 1.39 14.7199 1.25 14.9899 1.25C19.2599 1.25 22.7399 4.73 22.7399 9C22.7499 9.41 22.4099 9.75 21.9999 9.75Z" fill="#292D32"/>
</svg>
