<svg width="24" height="24" viewBox="0 0 24 24" fill="none" xmlns="http://www.w3.org/2000/svg">
<path d="M10.8999 22.75C10.6999 22.75 10.5098 22.67 10.3698 22.53L0.369844 12.53C0.0798438 12.24 0.0798438 11.76 0.369844 11.47L10.3698 1.46999C10.5798 1.25999 10.9099 1.18999 11.1899 1.30999C11.4699 1.42999 11.6499 1.69999 11.6499 1.99999V5.99999C11.6499 6.19999 11.5698 6.38999 11.4298 6.52999L5.95987 12L11.4298 17.47C11.5698 17.61 11.6499 17.8 11.6499 18V22C11.6499 22.3 11.4699 22.58 11.1899 22.69C11.0899 22.73 10.9999 22.75 10.8999 22.75ZM1.95987 12L10.1499 20.19V18.31L4.36984 12.53C4.07984 12.24 4.07984 11.76 4.36984 11.47L10.1499 5.68999V3.80999L1.95987 12Z" fill="black"/>
<path d="M12.8999 22.75C12.7999 22.75 12.7099 22.73 12.6099 22.69C12.3299 22.57 12.1499 22.3 12.1499 22V18C12.1499 17.8 12.2299 17.61 12.3699 17.47L17.8399 12L12.3699 6.52999C12.2299 6.38999 12.1499 6.19999 12.1499 5.99999V1.99999C12.1499 1.69999 12.3299 1.41999 12.6099 1.30999C12.8899 1.18999 13.2099 1.25999 13.4299 1.46999L23.4299 11.47C23.7199 11.76 23.7199 12.24 23.4299 12.53L13.4299 22.53C13.2899 22.67 13.0999 22.75 12.8999 22.75ZM13.6499 18.31V20.19L21.8399 12L13.6499 3.80999V5.68999L19.4299 11.47C19.7199 11.76 19.7199 12.24 19.4299 12.53L13.6499 18.31Z" fill="black"/>
<path d="M10.8999 15.75C10.6999 15.75 10.5098 15.67 10.3698 15.53L7.36984 12.53C7.07984 12.24 7.07984 11.76 7.36984 11.47L10.3698 8.46999C10.5798 8.25999 10.9099 8.18999 11.1899 8.30999C11.4699 8.42999 11.6499 8.69999 11.6499 8.99999V15C11.6499 15.3 11.4699 15.58 11.1899 15.69C11.0899 15.73 10.9999 15.75 10.8999 15.75ZM8.95987 12L10.1499 13.19V10.81L8.95987 12Z" fill="black"/>
</svg>
