<svg width="24" height="24" viewBox="0 0 24 24" fill="none" xmlns="http://www.w3.org/2000/svg">
<path d="M19.4001 10.5303C19.9201 10.4303 20.2801 11.0203 19.9601 11.4403L13.0101 20.2903C12.6601 20.7403 11.9401 20.4503 12.0001 19.8903L12.7001 12.2903C12.7201 12.0403 12.9101 11.8303 13.1601 11.7803L19.4001 10.5303Z" fill="black"/>
<path d="M21.6401 7.6902C21.8601 7.9302 21.74 8.3202 21.43 8.3902L12.99 10.0802C12.44 10.1902 12.08 9.5202 12.48 9.1202L17.5001 4.1002C17.7301 3.8702 18.1001 3.8802 18.3201 4.1102L21.6401 7.6902Z" fill="black"/>
<path d="M14.69 3.19006C15.16 3.25006 15.3501 3.82006 15.0201 4.16006L11.4601 7.72006C11.2501 7.93006 10.91 7.94006 10.68 7.74006L5.34006 2.99006C4.92006 2.62006 5.24001 1.93006 5.79001 2.00006L14.69 3.19006Z" fill="black"/>
<path d="M10.72 10.0699C10.99 10.3099 11.12 10.6599 11.1 11.0099L10.24 21.4699C10.19 22.0699 9.36003 22.1899 9.14003 21.6299L2.28999 3.95994C2.06999 3.39994 2.75003 2.92994 3.20003 3.32994L10.72 10.0699Z" fill="black"/>
</svg>
