<svg width="24" height="24" viewBox="0 0 24 24" fill="none" xmlns="http://www.w3.org/2000/svg">
<path d="M10.23 21.8798C10.16 21.8798 10.09 21.8798 10.02 21.8598C9.43002 21.7798 8.92997 21.3398 8.65997 20.6598L1.94 3.85977C1.67 3.18977 1.73003 2.53977 2.09003 2.06977C2.46003 1.59977 3.06998 1.37977 3.78998 1.47977L16.76 3.20977C17.11 3.25977 17.52 3.45977 17.77 3.70977L20.9 6.83977C21.51 7.45977 21.58 8.46977 21.04 9.15977L11.66 21.0998C11.26 21.6098 10.75 21.8798 10.23 21.8798ZM3.46002 2.95977C3.34002 2.95977 3.28002 2.98977 3.27002 2.99977C3.27002 3.00977 3.25002 3.11977 3.33002 3.30977L10.05 20.1098C10.13 20.3098 10.22 20.3798 10.23 20.3798C10.24 20.3798 10.34 20.3398 10.47 20.1698L19.85 8.22977C19.92 8.14977 19.91 7.96977 19.83 7.89977L16.7 4.76977C16.68 4.74977 16.59 4.70977 16.55 4.69977L3.59998 2.96977C3.54998 2.95977 3.50002 2.95977 3.46002 2.95977Z" fill="black"/>
<path d="M9.99985 21.7498C9.97985 21.7498 9.94984 21.7498 9.92984 21.7498C9.51984 21.7098 9.20985 21.3498 9.24985 20.9398L10.2198 10.3198L2.50986 3.46976C2.19986 3.18976 2.16986 2.71976 2.44986 2.40976C2.72986 2.09976 3.19986 2.06976 3.50986 2.34976L11.4998 9.44976C11.6798 9.60976 11.7698 9.83976 11.7498 10.0798L10.7498 21.0798C10.7098 21.4598 10.3798 21.7498 9.99985 21.7498Z" fill="black"/>
<path d="M11.0001 10.7499C10.7301 10.7499 10.4701 10.5999 10.3401 10.3499C10.1801 10.0599 10.24 9.69994 10.47 9.46994L16.47 3.46994C16.76 3.17994 17.2401 3.17994 17.5301 3.46994C17.8201 3.75994 17.8201 4.23994 17.5301 4.52994L13.2801 8.77994L19.8901 7.45994C20.3001 7.37994 20.6901 7.63994 20.7701 8.04994C20.8501 8.45994 20.5901 8.84994 20.1801 8.92994L11.1401 10.7399C11.1001 10.7499 11.0501 10.7499 11.0001 10.7499Z" fill="black"/>
</svg>
