<svg width="24" height="24" viewBox="0 0 24 24" fill="none" xmlns="http://www.w3.org/2000/svg">
<path d="M21.5 15.5C21.78 15.5 22 15.72 22 16V17C22 18.66 20.66 20 19 20C19 18.35 17.65 17 16 17C14.35 17 13 18.35 13 20H11C11 18.35 9.65 17 8 17C6.35 17 5 18.35 5 20C3.34 20 2 18.66 2 17V15C2 14.45 2.45 14 3 14H12.5C13.88 14 15 12.88 15 11.5V6C15 5.45 15.45 5 16 5H16.84C17.56 5 18.22 5.39 18.58 6.01L19.22 7.13C19.31 7.29 19.19 7.5 19 7.5C17.62 7.5 16.5 8.62 16.5 10V13C16.5 14.38 17.62 15.5 19 15.5H21.5Z" fill="#292D32"/>
<path d="M8 22C9.10457 22 10 21.1046 10 20C10 18.8954 9.10457 18 8 18C6.89543 18 6 18.8954 6 20C6 21.1046 6.89543 22 8 22Z" fill="#292D32"/>
<path d="M16 22C17.1046 22 18 21.1046 18 20C18 18.8954 17.1046 18 16 18C14.8954 18 14 18.8954 14 20C14 21.1046 14.8954 22 16 22Z" fill="#292D32"/>
<path d="M22 12.53V14H19C18.45 14 18 13.55 18 13V10C18 9.45 18.45 9 19 9H20.29L21.74 11.54C21.91 11.84 22 12.18 22 12.53Z" fill="#292D32"/>
<path d="M13.08 1.97998H5.69C3.65 1.97998 2 3.62998 2 5.66998V12.06C2 12.61 2.45 13.06 3 13.06H12.15C13.17 13.06 14 12.23 14 11.21V2.89998C14 2.38998 13.59 1.97998 13.08 1.97998ZM9.6 9.09998C9.45 9.23998 9.26 9.30998 9.07 9.30998C8.88 9.30998 8.69 9.23998 8.54 9.09998L8.01 8.56998L7.46 9.11998C7.31 9.26998 7.12 9.33998 6.93 9.33998C6.74 9.33998 6.55 9.26998 6.4 9.11998C6.11 8.82998 6.11 8.34998 6.4 8.05998L6.95 7.50998L6.42 6.97998C6.13 6.68998 6.13 6.20998 6.42 5.91998C6.72 5.62998 7.19 5.62998 7.49 5.91998L8.01 6.44998L8.51 5.93998C8.81 5.64998 9.28 5.64998 9.58 5.93998C9.87 6.23998 9.87 6.70998 9.58 7.00998L9.07 7.50998L9.6 8.02998C9.89 8.32998 9.89 8.79998 9.6 9.09998Z" fill="#292D32"/>
</svg>
