<svg width="53" height="53" viewBox="0 0 53 53" fill="none" xmlns="http://www.w3.org/2000/svg">
<path d="M26.1254 0C11.6981 0 0 11.6981 0 26.1254C0 40.5527 11.6981 52.2508 26.1254 52.2508C40.5527 52.2508 52.2508 40.5527 52.2508 26.1254C52.2508 11.6981 40.5527 0 26.1254 0ZM38.6807 19.6932C38.6982 19.9673 38.6982 20.253 38.6982 20.5329C38.6982 29.0937 32.1786 38.9548 20.2647 38.9548C16.5908 38.9548 13.1852 37.8877 10.316 36.0507C10.8409 36.109 11.3424 36.1324 11.8789 36.1324C14.9113 36.1324 17.6988 35.106 19.9206 33.3682C17.0748 33.3099 14.6839 31.4438 13.8675 28.8779C14.8646 29.0237 15.7627 29.0237 16.7891 28.7613C15.3237 28.4636 14.0067 27.6678 13.0616 26.509C12.1166 25.3503 11.6018 23.9001 11.6048 22.4049V22.3232C12.462 22.8072 13.4709 23.1047 14.5264 23.1455C13.6391 22.5541 12.9114 21.753 12.4079 20.813C11.9043 19.8731 11.6405 18.8234 11.6398 17.7571C11.6398 16.55 11.9547 15.4478 12.5204 14.4914C14.1468 16.4936 16.1763 18.1312 18.4771 19.2976C20.7778 20.4641 23.2983 21.1333 25.8746 21.2619C24.9591 16.8591 28.2481 13.296 32.2019 13.296C34.068 13.296 35.7475 14.0774 36.9313 15.337C38.395 15.0629 39.7946 14.5148 41.0425 13.78C40.5585 15.2787 39.5438 16.5441 38.1967 17.3431C39.503 17.2031 40.7626 16.8416 41.9289 16.3342C41.0484 17.6288 39.9462 18.7776 38.6807 19.6932V19.6932Z" fill="white"/>
</svg>
