<svg width="24" height="24" viewBox="0 0 24 24" fill="none" xmlns="http://www.w3.org/2000/svg">
<path d="M10.5 22.5402C10.1 22.5402 9.71001 22.4502 9.34001 22.2802L2.84001 19.2202C1.88001 18.7702 1.26001 17.7902 1.26001 16.7302V9.27018C1.26001 8.21018 1.88001 7.23019 2.84001 6.78019L9.34001 3.72019C10.08 3.37019 10.93 3.38019 11.67 3.72019L14.34 4.9802C14.65 5.1302 14.82 5.4602 14.76 5.7902C14.75 5.8602 14.75 5.93019 14.75 6.00019C14.75 7.79019 16.21 9.25019 18 9.25019C18.29 9.25019 18.55 9.22018 18.8 9.15018C19.02 9.08018 19.27 9.13018 19.46 9.27018C19.65 9.41018 19.76 9.63018 19.76 9.87018V16.7302C19.76 17.7902 19.14 18.7702 18.18 19.2202L11.68 22.2802C11.3 22.4502 10.9 22.5402 10.5 22.5402ZM10.5 4.96018C10.32 4.96018 10.13 5.00017 9.96002 5.08017L3.46002 8.1402C3.02002 8.3502 2.74002 8.78018 2.74002 9.27018V16.7302C2.74002 17.2202 3.02002 17.6502 3.46002 17.8602L9.96002 20.9202C10.3 21.0702 10.69 21.0802 11.03 20.9202L17.53 17.8602C17.97 17.6502 18.25 17.2202 18.25 16.7302V10.7402C18.17 10.7402 18.08 10.7502 18 10.7502C15.42 10.7502 13.32 8.69019 13.25 6.13019L11.03 5.08017C10.86 5.00017 10.68 4.96018 10.5 4.96018Z" fill="black"/>
<path d="M9 16.25C7.48 16.25 6.25 15.02 6.25 13.5V10.5C6.25 10.09 6.59 9.75 7 9.75C7.41 9.75 7.75 10.09 7.75 10.5V13.5C7.75 14.19 8.31 14.75 9 14.75C9.69 14.75 10.25 14.19 10.25 13.5V10.5C10.25 10.09 10.59 9.75 11 9.75C11.41 9.75 11.75 10.09 11.75 10.5V13.5C11.75 15.02 10.52 16.25 9 16.25Z" fill="black"/>
<path d="M14 16.19C13.59 16.19 13.25 15.85 13.25 15.44V10.5C13.25 10.09 13.59 9.75 14 9.75C14.41 9.75 14.75 10.09 14.75 10.5V15.44C14.75 15.86 14.41 16.19 14 16.19Z" fill="black"/>
<path d="M18 10.75C15.38 10.75 13.25 8.62 13.25 6C13.25 5.85 13.25 5.68 13.28 5.53C13.48 3.12 15.51 1.25 18 1.25C20.62 1.25 22.75 3.38 22.75 6C22.75 8.17 21.28 10.06 19.19 10.6C18.82 10.7 18.43 10.75 18 10.75ZM18 2.75C16.3 2.75 14.91 4.03 14.77 5.72C14.75 5.86 14.75 5.93 14.75 6C14.75 7.79 16.21 9.25 18 9.25C18.29 9.25 18.55 9.21999 18.8 9.14999C20.25 8.77999 21.25 7.49 21.25 6C21.25 4.21 19.79 2.75 18 2.75Z" fill="black"/>
<path d="M19.0899 5.90982C19.3299 5.69982 19.4599 5.4198 19.4599 5.0798C19.4599 4.3098 18.8799 3.7998 17.9999 3.7998C17.1199 3.7998 16.5399 4.3198 16.5399 5.0798C16.5399 5.4098 16.6699 5.69982 16.9099 5.90982C16.5899 6.14982 16.4099 6.49983 16.4099 6.88983C16.4099 7.69983 17.0199 8.19983 18.0099 8.19983C18.9999 8.19983 19.6099 7.69983 19.6099 6.88983C19.5999 6.48983 19.4199 6.13982 19.0899 5.90982ZM17.9999 5.50983C17.7299 5.50983 17.5599 5.35982 17.5599 5.12982C17.5599 4.84982 17.7899 4.75983 17.9999 4.75983C18.2099 4.75983 18.4399 4.85982 18.4399 5.12982C18.4399 5.35982 18.2699 5.50983 17.9999 5.50983ZM17.9999 6.33981C18.2799 6.33981 18.5799 6.45983 18.5799 6.78983C18.5799 7.07983 18.3599 7.24982 17.9999 7.24982C17.6399 7.24982 17.4199 7.07983 17.4199 6.78983C17.4199 6.37983 17.8599 6.33981 17.9999 6.33981Z" fill="black"/>
</svg>
