<svg width="24" height="24" viewBox="0 0 24 24" fill="none" xmlns="http://www.w3.org/2000/svg">
<path d="M11.9999 14C6.98991 14 2.90991 17.36 2.90991 21.5C2.90991 21.78 3.12991 22 3.40991 22H20.5899C20.8699 22 21.0899 21.78 21.0899 21.5C21.0899 17.36 17.0099 14 11.9999 14Z" fill="#292D32"/>
<path d="M12 2C10.82 2 9.74 2.41 8.88 3.1C7.73 4.01 7 5.42 7 7C7 7.94 7.26 8.82 7.73 9.57C8.59 11.02 10.17 12 12 12C13.26 12 14.41 11.54 15.29 10.75C15.68 10.42 16.02 10.02 16.28 9.57C16.74 8.82 17 7.94 17 7C17 4.24 14.76 2 12 2ZM14.59 6.46L11.92 8.92C11.74 9.09 11.51 9.17 11.28 9.17C11.04 9.17 10.8 9.08 10.62 8.9L9.39 7.66C9.02 7.29 9.02 6.7 9.39 6.33C9.76 5.96 10.35 5.96 10.72 6.33L11.31 6.92L13.32 5.07C13.7 4.72 14.29 4.74 14.64 5.12C14.99 5.51 14.97 6.11 14.59 6.46Z" fill="#292D32"/>
</svg>
