<svg width="24" height="24" viewBox="0 0 24 24" fill="none" xmlns="http://www.w3.org/2000/svg">
<path d="M22 3.77979H2C1.59 3.77979 1.25 3.43979 1.25 3.02979C1.25 2.61979 1.59 2.27979 2 2.27979H22C22.41 2.27979 22.75 2.61979 22.75 3.02979C22.75 3.43979 22.41 3.77979 22 3.77979Z" fill="black"/>
<path d="M11.9999 21.7199C11.3599 21.7199 10.7799 21.3999 10.4299 20.8699L2.4699 8.47987C2.0999 7.90987 2.0799 7.17986 2.3999 6.57986C2.7299 5.97986 3.3499 5.60986 4.0299 5.60986H19.9599C20.6399 5.60986 21.2699 5.97986 21.5899 6.57986C21.9199 7.17986 21.8899 7.90987 21.5199 8.47987L13.5599 20.8699C13.2199 21.3999 12.6399 21.7199 11.9999 21.7199ZM4.03991 7.10986C3.84991 7.10986 3.7499 7.23987 3.7199 7.29987C3.6899 7.35987 3.62991 7.50986 3.72991 7.66986L11.6899 20.0599C11.7799 20.1999 11.9199 20.2299 11.9899 20.2299C12.0599 20.2299 12.1999 20.2099 12.2899 20.0599L20.2499 7.66986C20.3499 7.50986 20.2899 7.35987 20.2599 7.29987C20.2299 7.23987 20.1399 7.10986 19.9399 7.10986H4.03991Z" fill="black"/>
</svg>
