<svg width="24" height="24" viewBox="0 0 24 24" fill="none" xmlns="http://www.w3.org/2000/svg">
<path d="M12.0001 12.6C11.7601 12.6 11.5401 12.49 11.4001 12.3L8.90013 8.97002C8.73013 8.74002 8.70012 8.44001 8.83012 8.18001C8.96012 7.92001 9.22011 7.77002 9.50011 7.77002H14.5001C14.7801 7.77002 15.0401 7.93001 15.1701 8.18001C15.3001 8.43001 15.2701 8.74002 15.1001 8.97002L12.6001 12.3C12.4601 12.49 12.2401 12.6 12.0001 12.6ZM11.0001 9.27002L12.0001 10.6L13.0001 9.27002H11.0001Z" fill="black"/>
<path d="M12 22.75C6.07 22.75 1.25 17.93 1.25 12C1.25 6.07 6.07 1.25 12 1.25C17.93 1.25 22.75 6.07 22.75 12C22.75 17.93 17.93 22.75 12 22.75ZM12 2.75C6.9 2.75 2.75 6.9 2.75 12C2.75 17.1 6.9 21.25 12 21.25C17.1 21.25 21.25 17.1 21.25 12C21.25 6.9 17.1 2.75 12 2.75Z" fill="black"/>
<path d="M11.9999 17.7502C11.7599 17.7502 11.5299 17.6302 11.3899 17.4402L6.38992 10.4402C6.14992 10.1002 6.2299 9.63024 6.5599 9.39024C6.8999 9.15024 7.36989 9.23024 7.60989 9.56024L11.9999 15.7102L16.3899 9.56024C16.6299 9.22024 17.0999 9.14024 17.4399 9.39024C17.7799 9.63024 17.8599 10.1002 17.6099 10.4402L12.6099 17.4402C12.4699 17.6302 12.2399 17.7502 11.9999 17.7502Z" fill="black"/>
</svg>
