<svg width="24" height="24" viewBox="0 0 24 24" fill="none" xmlns="http://www.w3.org/2000/svg">
<path d="M15 22.75H9C3.57 22.75 1.25 20.43 1.25 15V9C1.25 3.57 3.57 1.25 9 1.25H15C20.43 1.25 22.75 3.57 22.75 9V15C22.75 20.43 20.43 22.75 15 22.75ZM9 2.75C4.39 2.75 2.75 4.39 2.75 9V15C2.75 19.61 4.39 21.25 9 21.25H15C19.61 21.25 21.25 19.61 21.25 15V9C21.25 4.39 19.61 2.75 15 2.75H9Z" fill="#292D32"/>
<path d="M6.88989 22.23C6.47989 22.23 6.13989 21.89 6.13989 21.48V2.52002C6.13989 2.11002 6.47989 1.77002 6.88989 1.77002C7.29989 1.77002 7.63989 2.10002 7.63989 2.52002V21.48C7.63989 21.9 7.29989 22.23 6.88989 22.23Z" fill="#292D32"/>
<path d="M16.8899 22.23C16.4799 22.23 16.1399 21.89 16.1399 21.48V2.52002C16.1399 2.11002 16.4799 1.77002 16.8899 1.77002C17.2999 1.77002 17.6399 2.11002 17.6399 2.52002V21.48C17.6399 21.9 17.2999 22.23 16.8899 22.23Z" fill="#292D32"/>
<path d="M6.89004 7.72021H2.54004C2.13004 7.72021 1.79004 7.38021 1.79004 6.97021C1.79004 6.56021 2.13004 6.22021 2.54004 6.22021H6.89004C7.30004 6.22021 7.64004 6.56021 7.64004 6.97021C7.64004 7.38021 7.30004 7.72021 6.89004 7.72021Z" fill="#292D32"/>
<path d="M6.89003 12.75H2.03003C1.62003 12.75 1.28003 12.41 1.28003 12C1.28003 11.59 1.62003 11.25 2.03003 11.25H6.89003C7.30003 11.25 7.64003 11.59 7.64003 12C7.64003 12.41 7.30003 12.75 6.89003 12.75Z" fill="#292D32"/>
<path d="M6.88998 17.7202H2.47998C2.06998 17.7202 1.72998 17.3802 1.72998 16.9702C1.72998 16.5602 2.06998 16.2202 2.47998 16.2202H6.88998C7.29998 16.2202 7.63998 16.5602 7.63998 16.9702C7.63998 17.3802 7.29998 17.7202 6.88998 17.7202Z" fill="#292D32"/>
<path d="M21.89 7.72021H17.54C17.13 7.72021 16.79 7.38021 16.79 6.97021C16.79 6.56021 17.13 6.22021 17.54 6.22021H21.89C22.3 6.22021 22.64 6.56021 22.64 6.97021C22.64 7.38021 22.3 7.72021 21.89 7.72021Z" fill="#292D32"/>
<path d="M21.89 12.75H17.03C16.62 12.75 16.28 12.41 16.28 12C16.28 11.59 16.62 11.25 17.03 11.25H21.89C22.3 11.25 22.64 11.59 22.64 12C22.64 12.41 22.3 12.75 21.89 12.75Z" fill="#292D32"/>
<path d="M16.97 12.75H5.96997C5.55997 12.75 5.21997 12.41 5.21997 12C5.21997 11.59 5.55997 11.25 5.96997 11.25H16.97C17.38 11.25 17.72 11.59 17.72 12C17.72 12.41 17.39 12.75 16.97 12.75Z" fill="#292D32"/>
<path d="M21.89 17.7202H17.48C17.07 17.7202 16.73 17.3802 16.73 16.9702C16.73 16.5602 17.07 16.2202 17.48 16.2202H21.89C22.3 16.2202 22.64 16.5602 22.64 16.9702C22.64 17.3802 22.3 17.7202 21.89 17.7202Z" fill="#292D32"/>
</svg>
