<svg width="24" height="24" viewBox="0 0 24 24" fill="none" xmlns="http://www.w3.org/2000/svg">
<path d="M4.3 19.92C4.13 19.92 3.96 19.86 3.82 19.75C2.81 18.92 2.25 17.59 2.25 16V8C2.25 4.58 3.58 3.25 7 3.25H13C15.04 3.25 17.18 3.63 17.64 6.48C17.71 6.89 17.43 7.27 17.02 7.34C16.61 7.41 16.23 7.13 16.16 6.72C15.95 5.42 15.4 4.75 13 4.75H7C4.42 4.75 3.75 5.42 3.75 8V16C3.75 16.65 3.88 17.86 4.77 18.59C5.09 18.85 5.14 19.33 4.87 19.65C4.73 19.83 4.51 19.92 4.3 19.92Z" fill="#292D32"/>
<path d="M13 20.75H8C7.59 20.75 7.25 20.41 7.25 20C7.25 19.59 7.59 19.25 8 19.25H13C15.58 19.25 16.25 18.58 16.25 16V11C16.25 10.59 16.59 10.25 17 10.25C17.41 10.25 17.75 10.59 17.75 11V16C17.75 19.42 16.42 20.75 13 20.75Z" fill="#292D32"/>
<path d="M20.8001 18.04C20.3701 18.04 19.8401 17.9 19.2101 17.46L16.5701 15.61C16.2301 15.37 16.1501 14.9 16.3901 14.57C16.6301 14.23 17.0901 14.15 17.4301 14.39L20.0701 16.24C20.5101 16.55 20.8301 16.58 20.9601 16.51C21.0901 16.44 21.2501 16.17 21.2501 15.63V7C21.2501 6.59 21.5901 6.25 22.0001 6.25C22.4101 6.25 22.7501 6.59 22.7501 7V15.62C22.7501 17.05 22.0601 17.62 21.6501 17.83C21.4601 17.93 21.1701 18.04 20.8001 18.04Z" fill="#292D32"/>
<path d="M2.01996 22.9399C1.82996 22.9399 1.63996 22.8699 1.48996 22.7199C1.19996 22.4299 1.19996 21.9499 1.48996 21.6599L21.49 1.65988C21.78 1.36988 22.26 1.36988 22.55 1.65988C22.84 1.94988 22.84 2.42988 22.55 2.71988L2.54996 22.7199C2.40996 22.8699 2.20996 22.9399 2.01996 22.9399Z" fill="#292D32"/>
</svg>
