<svg width="24" height="24" viewBox="0 0 24 24" fill="none" xmlns="http://www.w3.org/2000/svg">
<path d="M11.25 7.85986H2V16.1899C2 16.2499 2 16.3099 2.01 16.3599H11.25V7.85986Z" fill="#292D32"/>
<path d="M7.68994 6.36H11.2499V2H7.71994V6.24C7.71994 6.28 7.69994 6.32 7.68994 6.36Z" fill="#292D32"/>
<path d="M6.21988 6.24016V2.16016C3.99988 2.62016 2.54988 4.10016 2.12988 6.36016H6.23988C6.22988 6.32016 6.21988 6.28016 6.21988 6.24016Z" fill="#292D32"/>
<path d="M16.22 2H12.75V6.36H16.22V2Z" fill="#292D32"/>
<path d="M17.71 6.3599H21.87C21.45 4.0799 19.98 2.5899 17.72 2.1499V6.3299C17.72 6.3399 17.71 6.3499 17.71 6.3599Z" fill="#292D32"/>
<path d="M17.72 21.8499C19.91 21.4199 21.35 20.0199 21.82 17.8599H17.72V21.8499Z" fill="#292D32"/>
<path d="M16.22 17.8599H12.75V21.9999H16.22V17.8599Z" fill="#292D32"/>
<path d="M12.75 16.3599H21.99C22 16.3099 22 16.2499 22 16.1899V7.85986H12.75V16.3599Z" fill="#292D32"/>
<path d="M11.25 17.8599H7.71997V21.9999H11.25V17.8599Z" fill="#292D32"/>
<path d="M2.17993 17.8599C2.64993 19.9999 4.06993 21.3999 6.21993 21.8399V17.8599H2.17993Z" fill="#292D32"/>
</svg>
