<svg width="24" height="24" viewBox="0 0 24 24" fill="none" xmlns="http://www.w3.org/2000/svg">
<path d="M22 12.75H18C17.59 12.75 17.25 12.41 17.25 12C17.25 11.59 17.59 11.25 18 11.25H22C22.41 11.25 22.75 11.59 22.75 12C22.75 12.41 22.41 12.75 22 12.75Z" fill="#292D32"/>
<path d="M14.02 3.78021C12.9 3.16021 11.47 3.32021 10.01 4.23021L7.09 6.06021C6.89 6.18021 6.66 6.25021 6.43 6.25021H5.5H5C2.58 6.25021 1.25 7.58021 1.25 10.0002V14.0002C1.25 16.4202 2.58 17.7502 5 17.7502H5.5H6.43C6.66 17.7502 6.89 17.8202 7.09 17.9402L10.01 19.7702C10.89 20.3202 11.75 20.5902 12.55 20.5902C13.07 20.5902 13.57 20.4702 14.02 20.2202C15.13 19.6002 15.75 18.3102 15.75 16.5902V7.41021C15.75 5.69021 15.13 4.40021 14.02 3.78021Z" fill="#292D32"/>
</svg>
