<svg width="24" height="24" viewBox="0 0 24 24" fill="none" xmlns="http://www.w3.org/2000/svg">
<path d="M17.52 3.78021C16.4 3.16021 14.97 3.32021 13.51 4.23021L10.59 6.06021C10.39 6.18021 10.16 6.25021 9.93 6.25021H9H8.5C6.08 6.25021 4.75 7.58021 4.75 10.0002V14.0002C4.75 16.4202 6.08 17.7502 8.5 17.7502H9H9.93C10.16 17.7502 10.39 17.8202 10.59 17.9402L13.51 19.7702C14.39 20.3202 15.25 20.5902 16.05 20.5902C16.57 20.5902 17.07 20.4702 17.52 20.2202C18.63 19.6002 19.25 18.3102 19.25 16.5902V7.41021C19.25 5.69021 18.63 4.40021 17.52 3.78021Z" fill="#292D32"/>
</svg>
