<svg width="24" height="24" viewBox="0 0 24 24" fill="none" xmlns="http://www.w3.org/2000/svg">
<path d="M19.3301 16.7498C19.1701 16.7498 19.0201 16.6998 18.8801 16.5998C18.5501 16.3498 18.4801 15.8798 18.7301 15.5498C20.3001 13.4598 20.3001 10.5398 18.7301 8.44978C18.4801 8.11978 18.5501 7.64978 18.8801 7.39978C19.2101 7.14978 19.6801 7.21978 19.9301 7.54978C21.9001 10.1698 21.9001 13.8298 19.9301 16.4498C19.7901 16.6498 19.5601 16.7498 19.3301 16.7498Z" fill="#292D32"/>
<path d="M15.3501 3.78021C14.2301 3.16021 12.8001 3.32021 11.3401 4.23021L8.42008 6.06021C8.22008 6.18021 7.99008 6.25021 7.76008 6.25021H6.83008H6.33008C3.91008 6.25021 2.58008 7.58021 2.58008 10.0002V14.0002C2.58008 16.4202 3.91008 17.7502 6.33008 17.7502H6.83008H7.76008C7.99008 17.7502 8.22008 17.8202 8.42008 17.9402L11.3401 19.7702C12.2201 20.3202 13.0801 20.5902 13.8801 20.5902C14.4001 20.5902 14.9001 20.4702 15.3501 20.2202C16.4601 19.6002 17.0801 18.3102 17.0801 16.5902V7.41021C17.0801 5.69021 16.4601 4.40021 15.3501 3.78021Z" fill="#292D32"/>
</svg>
