<svg width="24" height="24" viewBox="0 0 24 24" fill="none" xmlns="http://www.w3.org/2000/svg">
<path d="M12.0001 22.7501C11.7501 22.7501 11.5101 22.6201 11.3701 22.4101L2.33005 8.41012C2.11005 8.06012 2.21005 7.60011 2.55005 7.37011C2.90005 7.15011 3.36006 7.24011 3.59006 7.59011L11.9901 20.6101L20.3601 7.59011C20.58 7.24011 21.0501 7.1401 21.4001 7.3601C21.7501 7.5801 21.8501 8.05011 21.6301 8.40011L12.6301 22.4001C12.4901 22.6201 12.2601 22.7501 12.0001 22.7501Z" fill="black"/>
<path d="M12.0001 18.7498C11.7401 18.7498 11.51 18.6198 11.37 18.4098L2.37005 4.40976C2.22005 4.17976 2.21005 3.88975 2.34005 3.64975C2.47005 3.40975 2.72005 3.25977 3.00005 3.25977H6.00005C6.25005 3.25977 6.48005 3.37975 6.62005 3.58975L12.0001 11.6497L17.3801 3.58975C17.5201 3.37975 17.7501 3.25977 18.0001 3.25977H21.0001C21.2701 3.25977 21.5301 3.40975 21.6601 3.64975C21.7901 3.88975 21.7801 4.17976 21.6301 4.40976L12.6301 18.4098C12.4901 18.6198 12.2601 18.7498 12.0001 18.7498ZM4.37005 4.74976L12.0001 16.6097L19.6301 4.74976H18.4L12.62 13.4198C12.34 13.8398 11.65 13.8398 11.37 13.4198L5.59005 4.74976H4.37005Z" fill="black"/>
<path d="M12.0001 9.75C11.7501 9.75 11.5201 9.63001 11.3801 9.42001L7.38009 3.42001C7.20009 3.15001 7.21009 2.80001 7.41009 2.54001C7.61009 2.29001 7.95009 2.18999 8.25009 2.29999L10.0501 2.94V2C10.0501 1.59 10.3901 1.25 10.8001 1.25H13.2001C13.6101 1.25 13.9501 1.59 13.9501 2V2.94L15.7501 2.29999C16.0501 2.18999 16.3901 2.29001 16.5901 2.54001C16.7901 2.79001 16.8001 3.15001 16.6201 3.42001L12.6201 9.42001C12.4801 9.62001 12.2501 9.75 12.0001 9.75ZM9.88009 4.47L12.0001 7.64999L14.1201 4.47L13.4501 4.70999C13.2201 4.78999 12.9701 4.76 12.7701 4.62C12.5701 4.48 12.4501 4.25001 12.4501 4.01001V2.76001H11.5501V4C11.5501 4.24 11.4301 4.46999 11.2301 4.60999C11.0301 4.74999 10.7701 4.78001 10.5501 4.70001L9.88009 4.47Z" fill="black"/>
</svg>
