<svg width="24" height="24" viewBox="0 0 24 24" fill="none" xmlns="http://www.w3.org/2000/svg">
<path d="M12.0001 22.7501C11.7501 22.7501 11.5101 22.6201 11.3701 22.4101L2.33005 8.41012C2.11005 8.06012 2.21005 7.60011 2.55005 7.37011C2.90005 7.15011 3.36006 7.24011 3.59006 7.59011L11.9901 20.6101L20.3601 7.59011C20.5801 7.24011 21.0501 7.1401 21.4001 7.3601C21.7501 7.5801 21.8501 8.05011 21.6301 8.40011L12.6301 22.4001C12.4901 22.6201 12.2601 22.7501 12.0001 22.7501Z" fill="black"/>
<path d="M3.91999 4H5.73997C5.90997 4 6.05998 4.08 6.15998 4.22L11.6 12.37C11.8 12.67 12.23 12.67 12.43 12.37L17.87 4.22C17.96 4.08 18.12 4 18.29 4H20.11C20.51 4 20.74 4.43999 20.53 4.76999L12.45 17.35C12.25 17.66 11.81 17.66 11.61 17.35L3.52998 4.76999C3.27998 4.43999 3.51999 4 3.91999 4Z" fill="black"/>
<path d="M9.42001 3.5C8.97001 3.34 8.57 3.85 8.84 4.25L11.59 8.38C11.79 8.68 12.22 8.68 12.42 8.38L15.17 4.26001C15.44 3.86001 15.04 3.35001 14.59 3.51001L13.21 4V2.5C13.21 2.22 12.99 2 12.71 2H11.31C11.03 2 10.81 2.22 10.81 2.5V4L9.42001 3.5Z" fill="black"/>
</svg>
