<svg width="24" height="24" viewBox="0 0 24 24" fill="none" xmlns="http://www.w3.org/2000/svg">
<path d="M11.9402 2.20983L9.5302 7.81983H7.1202C6.7202 7.81983 6.3302 7.84983 5.9502 7.92983L6.9502 5.52983L6.9902 5.43983L7.0502 5.27983C7.0802 5.20983 7.1002 5.14983 7.1302 5.09983C8.2902 2.40983 9.5902 1.56983 11.9402 2.20983Z" fill="#292D32"/>
<path d="M18.7301 8.09002L18.7101 8.08002C18.1101 7.91002 17.5001 7.82002 16.8801 7.82002H10.6201L12.8701 2.59002L12.9001 2.52002C13.0401 2.57002 13.1901 2.64002 13.3401 2.69002L15.5501 3.62002C16.7801 4.13002 17.6401 4.66002 18.1701 5.30002C18.2601 5.42002 18.3401 5.53002 18.4201 5.66002C18.5101 5.80002 18.5801 5.94002 18.6201 6.09002C18.6601 6.18002 18.6901 6.26002 18.7101 6.35002C18.8601 6.86002 18.8701 7.44002 18.7301 8.09002Z" fill="#292D32"/>
<path d="M18.2902 9.51982C17.8402 9.38982 17.3702 9.31982 16.8802 9.31982H7.12023C6.44023 9.31982 5.80023 9.44982 5.20023 9.70982C3.46023 10.4598 2.24023 12.1898 2.24023 14.1998V16.1498C2.24023 16.3898 2.26023 16.6198 2.29023 16.8598C2.51023 20.0398 4.21023 21.7398 7.39023 21.9498C7.62023 21.9798 7.85023 21.9998 8.10023 21.9998H15.9002C19.6002 21.9998 21.5502 20.2398 21.7402 16.7398C21.7502 16.5498 21.7602 16.3498 21.7602 16.1498V14.1998C21.7602 11.9898 20.2902 10.1298 18.2902 9.51982ZM14.5002 16.1898H12.7502V17.9998C12.7502 18.4098 12.4102 18.7498 12.0002 18.7498C11.5902 18.7498 11.2502 18.4098 11.2502 17.9998V16.1898H9.50023C9.09023 16.1898 8.75023 15.8598 8.75023 15.4398C8.75023 15.0298 9.09023 14.6898 9.50023 14.6898H11.2502V12.9998C11.2502 12.5898 11.5902 12.2498 12.0002 12.2498C12.4102 12.2498 12.7502 12.5898 12.7502 12.9998V14.6898H14.5002C14.9102 14.6898 15.2502 15.0298 15.2502 15.4398C15.2502 15.8598 14.9102 16.1898 14.5002 16.1898Z" fill="#292D32"/>
</svg>
