<svg width="24" height="24" viewBox="0 0 24 24" fill="none" xmlns="http://www.w3.org/2000/svg">
<path d="M11.9402 2.20983L9.5302 7.81983H7.1202C6.7202 7.81983 6.3302 7.84983 5.9502 7.92983L6.9502 5.52983L6.9902 5.43983L7.0502 5.27983C7.0802 5.20983 7.1002 5.14983 7.1302 5.09983C8.2902 2.40983 9.5902 1.56983 11.9402 2.20983Z" fill="#292D32"/>
<path d="M18.7301 8.09002L18.7101 8.08002C18.1101 7.91002 17.5001 7.82002 16.8801 7.82002H10.6201L12.8701 2.59002L12.9001 2.52002C13.0401 2.57002 13.1901 2.64002 13.3401 2.69002L15.5501 3.62002C16.7801 4.13002 17.6401 4.66002 18.1701 5.30002C18.2601 5.42002 18.3401 5.53002 18.4201 5.66002C18.5101 5.80002 18.5801 5.94002 18.6201 6.09002C18.6601 6.18002 18.6901 6.26002 18.7101 6.35002C18.8601 6.86002 18.8701 7.44002 18.7301 8.09002Z" fill="#292D32"/>
<path d="M12.52 17.6601H12.77C13.07 17.6601 13.32 17.3901 13.32 17.0601C13.32 16.6401 13.2 16.5801 12.94 16.4801L12.52 16.3301V17.6601Z" fill="#292D32"/>
<path d="M18.2902 9.51982C17.8402 9.38982 17.3702 9.31982 16.8802 9.31982H7.12023C6.44023 9.31982 5.80023 9.44982 5.20023 9.70982C3.46023 10.4598 2.24023 12.1898 2.24023 14.1998V16.1498C2.24023 16.3898 2.26023 16.6198 2.29023 16.8598C2.51023 20.0398 4.21023 21.7398 7.39023 21.9498C7.62023 21.9798 7.85023 21.9998 8.10023 21.9998H15.9002C19.6002 21.9998 21.5502 20.2398 21.7402 16.7398C21.7502 16.5498 21.7602 16.3498 21.7602 16.1498V14.1998C21.7602 11.9898 20.2902 10.1298 18.2902 9.51982ZM13.2802 15.4998C13.7402 15.6598 14.3602 15.9998 14.3602 17.0598C14.3602 17.9698 13.6502 18.6998 12.7702 18.6998H12.5202V18.9198C12.5202 19.2098 12.2902 19.4398 12.0002 19.4398C11.7102 19.4398 11.4802 19.2098 11.4802 18.9198V18.6998H11.3902C10.4302 18.6998 9.64023 17.8898 9.64023 16.8898C9.64023 16.5998 9.87023 16.3698 10.1602 16.3698C10.4502 16.3698 10.6802 16.5998 10.6802 16.8898C10.6802 17.3098 11.0002 17.6598 11.3902 17.6598H11.4802V15.9698L10.7202 15.6998C10.2602 15.5398 9.64023 15.1998 9.64023 14.1398C9.64023 13.2298 10.3502 12.4998 11.2302 12.4998H11.4802V12.2798C11.4802 11.9898 11.7102 11.7598 12.0002 11.7598C12.2902 11.7598 12.5202 11.9898 12.5202 12.2798V12.4998H12.6102C13.5702 12.4998 14.3602 13.3098 14.3602 14.3098C14.3602 14.5998 14.1302 14.8298 13.8402 14.8298C13.5502 14.8298 13.3202 14.5998 13.3202 14.3098C13.3202 13.8898 13.0002 13.5398 12.6102 13.5398H12.5202V15.2298L13.2802 15.4998Z" fill="#292D32"/>
<path d="M10.6802 14.14C10.6802 14.56 10.8002 14.62 11.0602 14.72L11.4802 14.87V13.54H11.2302C10.9202 13.54 10.6802 13.81 10.6802 14.14Z" fill="#292D32"/>
</svg>
