<svg width="24" height="24" viewBox="0 0 24 24" fill="none" xmlns="http://www.w3.org/2000/svg">
<path d="M21.4499 13.6401V14.6401C21.4499 14.9101 21.2399 15.1301 20.9599 15.1401H19.4999C18.9699 15.1401 18.4899 14.7501 18.4499 14.2301C18.4199 13.9201 18.5399 13.6301 18.7399 13.4301C18.9199 13.2401 19.1699 13.1401 19.4399 13.1401H20.9499C21.2399 13.1501 21.4499 13.3701 21.4499 13.6401Z" fill="#292D32"/>
<path d="M17.9902 12.6901C17.4902 13.1801 17.2502 13.9101 17.4502 14.6701C17.7102 15.6001 18.6202 16.1901 19.5802 16.1901H20.4502C21.0002 16.1901 21.4502 16.6401 21.4502 17.1901V17.3801C21.4502 19.4501 19.7602 21.1401 17.6902 21.1401H6.2102C4.1402 21.1401 2.4502 19.4501 2.4502 17.3801V10.6501C2.4502 9.42014 3.0402 8.33014 3.9502 7.65014C4.5802 7.17014 5.3602 6.89014 6.2102 6.89014H17.6902C19.7602 6.89014 21.4502 8.58014 21.4502 10.6501V11.0901C21.4502 11.6401 21.0002 12.0901 20.4502 12.0901H19.4302C18.8702 12.0901 18.3602 12.3101 17.9902 12.6901Z" fill="#292D32"/>
<path d="M16.2001 4.82C16.4701 5.09 16.2401 5.51 15.8601 5.51L8.18006 5.5C7.74006 5.5 7.51006 4.96 7.83006 4.65L9.45006 3.02C10.8201 1.66 13.0401 1.66 14.4101 3.02L16.1601 4.79C16.1701 4.8 16.1901 4.81 16.2001 4.82Z" fill="#292D32"/>
</svg>
