<svg width="24" height="24" viewBox="0 0 24 24" fill="none" xmlns="http://www.w3.org/2000/svg">
<path d="M21.5 12.5H19C17.9 12.5 17 13.4 17 14.5C17 15.6 17.9 16.5 19 16.5H21.5C21.78 16.5 22 16.28 22 16V13C22 12.72 21.78 12.5 21.5 12.5Z" fill="#292D32"/>
<path d="M5 15C3.8 15 2.73 15.53 2 16.36C1.38 17.07 1 17.99 1 19C1 19.75 1.21 20.46 1.58 21.06C2.27 22.22 3.54 23 5 23C6.01 23 6.93 22.63 7.63 22C7.94 21.74 8.21 21.42 8.42 21.06C8.79 20.46 9 19.75 9 19C9 16.79 7.21 15 5 15ZM6.6 20.58C6.45 20.73 6.26 20.8 6.07 20.8C5.88 20.8 5.69 20.73 5.54 20.58L5.01 20.05L4.46 20.6C4.31 20.75 4.12 20.82 3.93 20.82C3.74 20.82 3.55 20.75 3.4 20.6C3.11 20.31 3.11 19.83 3.4 19.54L3.95 18.99L3.42 18.46C3.13 18.17 3.13 17.69 3.42 17.4C3.71 17.11 4.19 17.11 4.48 17.4L5.01 17.93L5.51 17.43C5.8 17.14 6.28 17.14 6.57 17.43C6.86 17.72 6.86 18.2 6.57 18.49L6.07 18.99L6.6 19.52C6.89 19.81 6.89 20.28 6.6 20.58Z" fill="#292D32"/>
<path d="M16.5302 5.40016C16.8302 5.69016 16.5802 6.14016 16.1602 6.14016L7.88021 6.13016C7.40021 6.13016 7.16021 5.55016 7.50021 5.21016L9.25021 3.45016C10.7302 1.98016 13.1202 1.98016 14.6002 3.45016L16.4902 5.36016C16.5002 5.37016 16.5202 5.39016 16.5302 5.40016Z" fill="#292D32"/>
<path d="M21.8699 18.66C21.2599 20.72 19.4999 22 17.0999 22H10.5999C10.2099 22 9.95986 21.57 10.1199 21.21C10.4199 20.51 10.6099 19.72 10.6099 19C10.6099 15.97 8.13986 13.5 5.10986 13.5C4.34986 13.5 3.60986 13.66 2.92986 13.96C2.55986 14.12 2.10986 13.87 2.10986 13.47V12C2.10986 9.28 3.74986 7.38 6.29986 7.06C6.54986 7.02 6.81986 7 7.09986 7H17.0999C17.3599 7 17.6099 7.01 17.8499 7.05C19.8699 7.28 21.3299 8.51 21.8699 10.34C21.9699 10.67 21.7299 11 21.3899 11H19.0999C16.9299 11 15.2099 12.98 15.6799 15.23C16.0099 16.87 17.5299 18 19.1999 18H21.3899C21.7399 18 21.9699 18.34 21.8699 18.66Z" fill="#292D32"/>
</svg>
