<svg width="24" height="24" viewBox="0 0 24 24" fill="none" xmlns="http://www.w3.org/2000/svg">
<path d="M11.94 2.20983L9.52995 7.81983H7.11995C6.71995 7.81983 6.32995 7.84983 5.94995 7.92983L6.94995 5.52983L6.98995 5.43983L7.04995 5.27983C7.07995 5.20983 7.09995 5.14983 7.12995 5.09983C8.28995 2.40983 9.58995 1.56983 11.94 2.20983Z" fill="#292D32"/>
<path d="M18.7301 8.09002L18.7101 8.08002C18.1101 7.91002 17.5001 7.82002 16.8801 7.82002H10.6201L12.8701 2.59002L12.9001 2.52002C13.0401 2.57002 13.1901 2.64002 13.3401 2.69002L15.5501 3.62002C16.7801 4.13002 17.6401 4.66002 18.1701 5.30002C18.2601 5.42002 18.3401 5.53002 18.4201 5.66002C18.5101 5.80002 18.5801 5.94002 18.6201 6.09002C18.6601 6.18002 18.6901 6.26002 18.7101 6.35002C18.8601 6.86002 18.8701 7.44002 18.7301 8.09002Z" fill="#292D32"/>
<path d="M18.29 9.51982C17.84 9.38982 17.37 9.31982 16.88 9.31982H7.11999C6.43999 9.31982 5.79999 9.44982 5.19999 9.70982C3.45999 10.4598 2.23999 12.1898 2.23999 14.1998V16.1498C2.23999 16.3898 2.25999 16.6198 2.28999 16.8598C2.50999 20.0398 4.20999 21.7398 7.38999 21.9498C7.61999 21.9798 7.84999 21.9998 8.09999 21.9998H15.9C19.6 21.9998 21.55 20.2398 21.74 16.7398C21.75 16.5498 21.76 16.3498 21.76 16.1498V14.1998C21.76 11.9898 20.29 10.1298 18.29 9.51982ZM14.5 16.7498H9.49999C9.08999 16.7498 8.74999 16.4098 8.74999 15.9998C8.74999 15.5898 9.08999 15.2498 9.49999 15.2498H14.5C14.91 15.2498 15.25 15.5898 15.25 15.9998C15.25 16.4098 14.91 16.7498 14.5 16.7498Z" fill="#292D32"/>
</svg>
