<svg width="24" height="24" viewBox="0 0 24 24" fill="none" xmlns="http://www.w3.org/2000/svg">
<path d="M1.23035 21.6817L1.99035 20.9217C1.59035 20.3217 1.36035 19.6017 1.36035 18.8317C1.36035 16.7217 3.07035 15.0117 5.18035 15.0117C7.29035 15.0117 9.00035 16.7117 9.00035 18.8217C9.00035 20.9317 7.29035 22.6417 5.18035 22.6417C4.41035 22.6417 3.69035 22.4117 3.09035 22.0117L2.33035 22.7717C2.17035 22.9217 1.97035 23.0017 1.77035 23.0017C1.57035 23.0017 1.37035 22.9217 1.22035 22.7717C0.920347 22.4717 0.920347 21.9817 1.23035 21.6817Z" fill="#292D32"/>
<path d="M21.5005 12.5H19.0005C17.9005 12.5 17.0005 13.4 17.0005 14.5C17.0005 15.6 17.9005 16.5 19.0005 16.5H21.5005C21.7805 16.5 22.0005 16.28 22.0005 16V13C22.0005 12.72 21.7805 12.5 21.5005 12.5Z" fill="#292D32"/>
<path d="M16.5307 5.40016C16.8307 5.69016 16.5807 6.14016 16.1607 6.14016L7.88069 6.13016C7.40069 6.13016 7.16069 5.55016 7.50069 5.21016L9.25069 3.45016C10.7307 1.98016 13.1207 1.98016 14.6007 3.45016L16.4907 5.36016C16.5007 5.37016 16.5207 5.39016 16.5307 5.40016Z" fill="#292D32"/>
<path d="M21.8704 18.66C21.2604 20.72 19.5004 22 17.1004 22H10.6004C10.2104 22 9.96035 21.57 10.1204 21.21C10.4204 20.51 10.6104 19.72 10.6104 19C10.6104 15.97 8.14035 13.5 5.11035 13.5C4.35035 13.5 3.61035 13.66 2.93035 13.96C2.56035 14.12 2.11035 13.87 2.11035 13.47V12C2.11035 9.28 3.75035 7.38 6.30035 7.06C6.55035 7.02 6.82035 7 7.10035 7H17.1004C17.3604 7 17.6104 7.01 17.8504 7.05C19.8704 7.28 21.3304 8.51 21.8704 10.34C21.9704 10.67 21.7304 11 21.3904 11H19.1004C16.9304 11 15.2104 12.98 15.6804 15.23C16.0104 16.87 17.5304 18 19.2004 18H21.3904C21.7404 18 21.9704 18.34 21.8704 18.66Z" fill="#292D32"/>
</svg>
