<svg width="24" height="24" viewBox="0 0 24 24" fill="none" xmlns="http://www.w3.org/2000/svg">
<path d="M18.7301 21.75H12.2701C11.8501 21.75 11.4601 21.54 11.2301 21.19L8.3101 16.81L6.05009 20.68C5.83009 21.06 5.44011 21.29 5.01011 21.3C4.59011 21.34 4.17009 21.11 3.93009 20.74L0.560098 15.68C0.280098 15.26 0.280098 14.71 0.560098 14.29L4.23011 8.78998C4.46011 8.43998 4.85009 8.22998 5.27009 8.22998H10.2001L7.80009 4.10999C7.58009 3.71999 7.57009 3.23999 7.80009 2.85999C8.02009 2.46999 8.44011 2.22998 8.88011 2.22998H15.7201C16.1601 2.22998 16.5801 2.46999 16.8001 2.84999L23.5001 14.33C23.7401 14.75 23.7301 15.25 23.4601 15.65L19.7801 21.17C19.5401 21.54 19.1501 21.75 18.7301 21.75ZM12.4001 20.25H18.6001L22.1201 14.97L15.5701 3.74998H9.3101L12.8101 9.74998L15.2101 13.87C15.4301 14.25 15.4401 14.73 15.2101 15.12C14.9901 15.51 14.5701 15.75 14.1301 15.75H9.40009L12.4001 20.25ZM1.90009 15L4.96009 19.58L7.20011 15.75L10.7001 9.74998H5.4101L1.90009 15ZM9.8101 14.25H13.7001L11.7601 10.92L9.8101 14.25Z" fill="black"/>
</svg>
