<svg width="24" height="24" viewBox="0 0 24 24" fill="none" xmlns="http://www.w3.org/2000/svg">
<path d="M14 22.75H10C4.57 22.75 2.25 20.43 2.25 15V9C2.25 3.57 4.57 1.25 10 1.25H14C19.43 1.25 21.75 3.57 21.75 9V15C21.75 20.43 19.43 22.75 14 22.75ZM10 2.75C5.39 2.75 3.75 4.39 3.75 9V15C3.75 19.61 5.39 21.25 10 21.25H14C18.61 21.25 20.25 19.61 20.25 15V9C20.25 4.39 18.61 2.75 14 2.75H10Z" fill="#292D32"/>
<path d="M15.07 12.5401C14.89 12.5401 14.71 12.4701 14.57 12.3501C13.11 11.0501 10.89 11.0501 9.43001 12.3501C9.27001 12.5001 9.05001 12.5601 8.82001 12.5301C8.60001 12.5001 8.41001 12.3701 8.29001 12.1801L6.11001 8.6801C5.92001 8.3701 5.98001 7.9701 6.25001 7.7201C9.53001 4.8101 14.47 4.8101 17.75 7.7201C18.02 7.9601 18.08 8.3701 17.89 8.6801L15.71 12.1801C15.59 12.3701 15.4 12.4901 15.18 12.5301C15.14 12.5301 15.1 12.5401 15.07 12.5401ZM12 9.8701C13 9.8701 13.99 10.1501 14.86 10.7001L16.26 8.4501C13.73 6.5701 10.26 6.5701 7.73001 8.4501L9.13001 10.7001C10.01 10.1401 11 9.8701 12 9.8701Z" fill="#292D32"/>
</svg>
