<svg width="24" height="24" viewBox="0 0 24 24" fill="none" xmlns="http://www.w3.org/2000/svg">
<path d="M2.00014 22.7502C1.80014 22.7502 1.61011 22.6702 1.47011 22.5302C1.28011 22.3402 1.20016 22.0602 1.27016 21.8002L2.53017 17.0902C1.69017 15.5302 1.25014 13.7702 1.25014 11.9902C1.25014 6.06023 6.07014 1.24023 12.0001 1.24023C17.9301 1.24023 22.7501 6.06023 22.7501 11.9902C22.7501 17.9202 17.9301 22.7402 12.0001 22.7402C10.1901 22.7402 8.42017 22.2902 6.84017 21.4302L2.20015 22.7202C2.13015 22.7402 2.07014 22.7502 2.00014 22.7502ZM6.94014 19.8802C7.07014 19.8802 7.20015 19.9203 7.32015 19.9803C8.73015 20.8103 10.3501 21.2502 12.0001 21.2502C17.1001 21.2502 21.2501 17.1002 21.2501 12.0002C21.2501 6.90024 17.1001 2.75024 12.0001 2.75024C6.90014 2.75024 2.75014 6.90024 2.75014 12.0002C2.75014 13.6302 3.18013 15.2202 3.99013 16.6202C4.09013 16.7902 4.12015 17.0002 4.07015 17.1902L3.07015 20.9302L6.75014 19.9102C6.81014 19.8902 6.88014 19.8802 6.94014 19.8802Z" fill="black"/>
<path d="M14.74 17.7598C14.12 17.7598 13.48 17.6198 12.81 17.3298C12.18 17.0598 11.55 16.6998 10.94 16.2498C10.34 15.8098 9.75002 15.3098 9.21002 14.7698C8.67002 14.2198 8.16998 13.6398 7.72998 13.0398C7.27998 12.4098 6.91997 11.7898 6.65997 11.1798C6.37997 10.5198 6.23999 9.8698 6.23999 9.2498C6.23999 8.8098 6.31997 8.3898 6.46997 7.9998C6.62997 7.5898 6.88998 7.21979 7.22998 6.89979C7.86998 6.26979 8.79002 6.03981 9.52002 6.38981C9.77002 6.49981 9.98001 6.67981 10.14 6.91981L11.3 8.54979C11.42 8.70979 11.51 8.87979 11.58 9.04979C11.66 9.24979 11.71 9.44981 11.71 9.63981C11.71 9.89981 11.64 10.1598 11.5 10.3898C11.41 10.5398 11.28 10.7198 11.11 10.8898L10.98 11.0298C11.04 11.1098 11.11 11.2098 11.22 11.3298C11.43 11.5698 11.66 11.8298 11.91 12.0798C12.16 12.3198 12.41 12.5598 12.66 12.7698C12.78 12.8698 12.88 12.9498 12.96 12.9998L13.1 12.8598C13.28 12.6798 13.46 12.5398 13.64 12.4498C13.97 12.2398 14.48 12.1898 14.93 12.3798C15.09 12.4398 15.25 12.5298 15.42 12.6498L17.09 13.8298C17.32 13.9898 17.5 14.2098 17.62 14.4598C17.72 14.7098 17.76 14.9298 17.76 15.1598C17.76 15.4598 17.69 15.7498 17.56 16.0298C17.43 16.2898 17.28 16.5198 17.1 16.7298C16.78 17.0798 16.41 17.3398 16.01 17.5098C15.61 17.6798 15.18 17.7598 14.74 17.7598ZM8.78998 7.73979C8.72998 7.73979 8.53003 7.73979 8.28003 7.98979C8.09003 8.16979 7.96 8.35981 7.87 8.56981C7.78 8.77981 7.73999 9.01981 7.73999 9.25981C7.73999 9.67981 7.83998 10.1298 8.03998 10.6098C8.24998 11.1098 8.56 11.6398 8.94 12.1698C9.33 12.6998 9.77001 13.2298 10.26 13.7198C10.75 14.1998 11.27 14.6498 11.81 15.0498C12.33 15.4298 12.86 15.7298 13.39 15.9598C14.15 16.2898 14.85 16.3698 15.42 16.1298C15.62 16.0498 15.8 15.9098 15.98 15.7298C16.07 15.6298 16.14 15.5298 16.2 15.3998C16.23 15.3298 16.25 15.2498 16.25 15.1798C16.25 15.1598 16.25 15.1298 16.22 15.0698L14.55 13.9098C14.48 13.8598 14.41 13.8198 14.35 13.7998C14.31 13.8198 14.25 13.8498 14.14 13.9598L13.76 14.3398C13.47 14.6298 13.01 14.7098 12.64 14.5798L12.46 14.4998C12.23 14.3798 11.97 14.1998 11.68 13.9498C11.4 13.7098 11.13 13.4598 10.84 13.1798C10.56 12.8898 10.31 12.6198 10.07 12.3398C9.81001 12.0298 9.63001 11.7798 9.51001 11.5698L9.40002 11.3098C9.37002 11.2098 9.35999 11.0998 9.35999 10.9998C9.35999 10.7198 9.46002 10.4698 9.65002 10.2698L10.03 9.8798C10.14 9.7698 10.18 9.70981 10.2 9.66981C10.17 9.59981 10.13 9.5398 10.08 9.4698L8.90997 7.81981L8.78998 7.73979Z" fill="black"/>
</svg>
