<svg width="24" height="24" viewBox="0 0 24 24" fill="none" xmlns="http://www.w3.org/2000/svg">
<path d="M19.09 12.5899C18.93 12.5899 18.77 12.5399 18.63 12.4299C14.6 9.3199 9.38999 9.3199 5.35999 12.4299C5.02999 12.6799 4.55999 12.6199 4.30999 12.2999C4.05999 11.9699 4.11999 11.4999 4.43999 11.2499C9.02999 7.6999 14.96 7.6999 19.54 11.2499C19.87 11.4999 19.93 11.9699 19.67 12.2999C19.54 12.4899 19.32 12.5899 19.09 12.5899Z" fill="#292D32"/>
<path d="M22 9.1099C21.84 9.1099 21.68 9.0599 21.54 8.9499C15.74 4.4699 8.25001 4.4699 2.46001 8.9499C2.13001 9.1999 1.66001 9.1399 1.41001 8.8199C1.15001 8.4999 1.21001 8.0199 1.54001 7.7699C7.89001 2.8599 16.1 2.8599 22.46 7.7699C22.79 8.0199 22.85 8.4899 22.59 8.8199C22.45 9.0099 22.22 9.1099 22 9.1099Z" fill="#292D32"/>
<path d="M17.21 16.24C17.05 16.24 16.89 16.19 16.75 16.08C13.87 13.85 10.14 13.85 7.25001 16.08C6.92001 16.33 6.45001 16.27 6.20001 15.95C5.95001 15.62 6.01001 15.15 6.33001 14.9C9.77001 12.24 14.22 12.24 17.66 14.9C17.99 15.15 18.05 15.62 17.79 15.95C17.65 16.14 17.43 16.24 17.21 16.24Z" fill="#292D32"/>
<path d="M14.6 19.9C14.44 19.9 14.28 19.85 14.14 19.74C12.84 18.73 11.15 18.73 9.85001 19.74C9.52001 19.99 9.05001 19.93 8.80001 19.61C8.55001 19.28 8.61001 18.81 8.93001 18.56C10.79 17.12 13.19 17.12 15.05 18.56C15.38 18.81 15.44 19.28 15.18 19.61C15.05 19.79 14.83 19.9 14.6 19.9Z" fill="#292D32"/>
</svg>
