<svg width="24" height="24" viewBox="0 0 24 24" fill="none" xmlns="http://www.w3.org/2000/svg">
<path d="M16.8599 5H19.2099C19.3899 5 19.5499 5.1 19.6399 5.25L22.0499 9.45C22.1399 9.6 22.1399 9.79 22.0499 9.94L17.4099 18.24C17.2199 18.58 16.7399 18.58 16.5399 18.25L15.2799 16.14C15.1899 15.98 15.1899 15.79 15.2799 15.64L18.5399 9.94C18.6299 9.79 18.6299 9.6 18.5399 9.44L16.4099 5.74001C16.2399 5.42001 16.4799 5 16.8599 5Z" fill="black"/>
<path d="M9.85989 5H12.2099C12.3899 5 12.5499 5.1 12.6399 5.25L15.0499 9.45C15.1399 9.6 15.1399 9.79 15.0499 9.94L10.4099 18.24C10.2199 18.58 9.73991 18.58 9.53991 18.25L8.2799 16.14C8.1899 15.98 8.1899 15.79 8.2799 15.64L11.5399 9.94C11.6299 9.79 11.6299 9.6 11.5399 9.44L9.40991 5.74001C9.23991 5.42001 9.47989 5 9.85989 5Z" fill="black"/>
<path d="M1.80005 5H5.01007C5.19007 5 5.36007 5.1 5.45007 5.25L7.87006 9.53999C7.96006 9.68999 7.96006 9.87999 7.87006 10.04L6.75006 11.96C6.56006 12.29 6.08008 12.29 5.89008 11.96L1.80005 5Z" fill="black"/>
</svg>
