<svg width="24" height="24" viewBox="0 0 24 24" fill="none" xmlns="http://www.w3.org/2000/svg">
<path d="M15.1699 13.7699C15.1699 14.3299 15.6299 14.7899 16.1899 14.7899H17.2099V12.7599H16.1899C15.6299 12.7499 15.1699 13.2099 15.1699 13.7699Z" fill="black"/>
<path d="M16.19 2H7.82002C4.18002 2 2.01001 4.17 2.01001 7.81V16.18C2.01001 19.82 4.18002 21.99 7.82002 21.99H16.19C19.83 21.99 22 19.82 22 16.18V7.81C22 4.17 19.83 2 16.19 2ZM12.28 15.06C12.54 15.38 12.49 15.86 12.16 16.11C12.02 16.22 11.86 16.27 11.69 16.27C11.47 16.27 11.25 16.17 11.1 15.99L8.86002 13.19L6.62001 15.99C6.47001 16.17 6.25001 16.27 6.03001 16.27C5.87001 16.27 5.70001 16.22 5.56001 16.11C5.24001 15.85 5.18002 15.38 5.44002 15.06L7.89001 12L5.44002 8.94C5.18002 8.62 5.23001 8.14001 5.56001 7.89001C5.88001 7.63001 6.36002 7.68001 6.61002 8.01001L8.85002 10.81L11.09 8.01001C11.35 7.69001 11.82 7.63001 12.14 7.89001C12.46 8.15001 12.52 8.62 12.26 8.94L9.81001 12L12.28 15.06ZM18.71 15.53C18.71 15.94 18.37 16.28 17.96 16.28H16.19C14.8 16.28 13.67 15.15 13.67 13.76C13.67 12.37 14.8 11.24 16.19 11.24H17.21V8.45999C17.21 8.04999 17.55 7.70999 17.96 7.70999C18.37 7.70999 18.71 8.04999 18.71 8.45999V15.53Z" fill="black"/>
</svg>
