<svg width="24" height="24" viewBox="0 0 24 24" fill="none" xmlns="http://www.w3.org/2000/svg">
<path d="M12.0001 11.4902C10.6801 11.4902 9.4401 10.9802 8.5101 10.0402L2.78012 4.31023C2.26012 3.79023 2.11011 3.02023 2.39011 2.35023C2.67011 1.68023 3.32008 1.24023 4.05008 1.24023H5.46011C6.50011 1.24023 7.48011 1.65023 8.21011 2.38023L11.7901 5.96023C11.9401 6.11023 12.0601 6.11023 12.2101 5.96023L15.7901 2.38023C16.5301 1.64023 17.5001 1.24023 18.5401 1.24023H19.9501C20.6801 1.24023 21.3301 1.68023 21.6101 2.35023C21.8901 3.02023 21.7401 3.79023 21.2201 4.31023L15.4901 10.0402C14.5601 10.9802 13.3201 11.4902 12.0001 11.4902ZM4.05008 2.75023C3.88008 2.75023 3.80011 2.87023 3.77011 2.93023C3.74011 2.99023 3.71011 3.13023 3.83011 3.25023L9.56009 8.98023C10.8601 10.2802 13.1301 10.2802 14.4301 8.98023L20.1601 3.25023C20.2801 3.13023 20.2501 2.99023 20.2201 2.93023C20.1901 2.87023 20.1201 2.75023 19.9401 2.75023H18.5301C17.8901 2.75023 17.2901 3.00023 16.8401 3.45023L13.2601 7.03023C12.5601 7.73023 11.4201 7.73023 10.7201 7.03023L7.14011 3.45023C6.69011 3.00023 6.0901 2.75023 5.4501 2.75023H4.05008Z" fill="black"/>
<path d="M19.9501 22.7202H18.5401C17.5001 22.7202 16.5201 22.3102 15.7901 21.5802L12.2101 18.0002C12.0601 17.8502 11.9401 17.8502 11.7901 18.0002L8.21011 21.5802C7.47011 22.3202 6.50011 22.7202 5.46011 22.7202H4.05008C3.32008 22.7202 2.67011 22.2802 2.39011 21.6102C2.11011 20.9402 2.26012 20.1702 2.78012 19.6502L8.5101 13.9202C9.4401 12.9902 10.6801 12.4702 12.0001 12.4702C13.3201 12.4702 14.5601 12.9802 15.4901 13.9202L21.2201 19.6502C21.7401 20.1702 21.8901 20.9402 21.6101 21.6102C21.3301 22.2802 20.6801 22.7202 19.9501 22.7202ZM12.0001 16.4202C12.4601 16.4202 12.9201 16.6002 13.2701 16.9502L16.8501 20.5302C17.3001 20.9802 17.9001 21.2302 18.5401 21.2302H19.9501C20.1201 21.2302 20.2001 21.1102 20.2301 21.0502C20.2601 20.9902 20.2901 20.8502 20.1701 20.7302L14.4401 15.0002C13.1401 13.7002 10.8701 13.7002 9.5701 15.0002L3.84012 20.7302C3.72012 20.8502 3.75012 20.9902 3.78012 21.0502C3.81012 21.1102 3.88009 21.2302 4.06009 21.2302H5.47006C6.11006 21.2302 6.71006 20.9802 7.16006 20.5302L10.7401 16.9502C11.0801 16.5902 11.5401 16.4202 12.0001 16.4202Z" fill="black"/>
</svg>
